<svg width="1014" height="558" viewBox="0 0 1014 558" fill="none" xmlns="http://www.w3.org/2000/svg">
<g filter="url(#filter0_b_194_146)">
<path d="M1004 -4.37114e-07C1009.52 -1.95703e-07 1014 4.47715 1014 10L1014 548C1014 553.523 1009.52 558 1004 558L9.99999 558C4.47714 558 -2.41953e-05 553.523 -2.39538e-05 548L-4.37114e-07 9.99996C-1.95703e-07 4.47711 4.47715 -4.41276e-05 10 -4.38862e-05L1004 -4.37114e-07Z" fill="#AEC6F3" fill-opacity="0.4"/>
<path d="M1012.5 10L1012.5 548C1012.5 552.694 1008.69 556.5 1004 556.5L9.99998 556.5C5.30558 556.5 1.49998 552.694 1.49998 548L1.5 9.99996C1.5 5.30554 5.3056 1.49996 10 1.49996L1004 1.5C1008.69 1.5 1012.5 5.30558 1012.5 10Z" stroke="url(#paint0_linear_194_146)" stroke-width="3"/>
</g>
<rect x="101" y="34" width="812" height="31" rx="10" fill="white"/>
<path d="M729.935 216.32H732.19C732.913 216.32 733.509 216.198 733.978 215.954C734.446 215.7 734.793 215.349 735.018 214.899C735.252 214.44 735.369 213.908 735.369 213.303C735.369 212.756 735.262 212.272 735.047 211.853C734.842 211.423 734.524 211.091 734.095 210.856C733.665 210.612 733.123 210.49 732.469 210.49C731.951 210.49 731.473 210.593 731.033 210.798C730.594 211.003 730.242 211.291 729.979 211.662C729.715 212.033 729.583 212.482 729.583 213.01H725.35C725.35 211.838 725.662 210.817 726.287 209.948C726.922 209.079 727.771 208.4 728.836 207.912C729.9 207.424 731.072 207.18 732.352 207.18C733.797 207.18 735.062 207.414 736.146 207.883C737.229 208.342 738.074 209.021 738.68 209.919C739.285 210.817 739.588 211.931 739.588 213.259C739.588 213.933 739.432 214.587 739.119 215.222C738.807 215.847 738.357 216.413 737.771 216.921C737.195 217.419 736.492 217.819 735.662 218.122C734.832 218.415 733.899 218.562 732.864 218.562H729.935V216.32ZM729.935 219.528V217.346H732.864C734.026 217.346 735.047 217.478 735.926 217.741C736.805 218.005 737.542 218.386 738.138 218.884C738.733 219.372 739.183 219.953 739.485 220.627C739.788 221.291 739.939 222.028 739.939 222.839C739.939 223.835 739.749 224.724 739.368 225.505C738.987 226.276 738.45 226.931 737.757 227.468C737.073 228.005 736.272 228.415 735.354 228.698C734.437 228.972 733.436 229.108 732.352 229.108C731.453 229.108 730.569 228.986 729.7 228.742C728.841 228.488 728.06 228.112 727.356 227.614C726.663 227.106 726.106 226.472 725.687 225.71C725.276 224.938 725.071 224.025 725.071 222.971H729.305C729.305 223.518 729.441 224.006 729.715 224.436C729.988 224.865 730.364 225.202 730.843 225.446C731.331 225.69 731.873 225.812 732.469 225.812C733.143 225.812 733.719 225.69 734.197 225.446C734.686 225.192 735.057 224.841 735.311 224.392C735.574 223.933 735.706 223.4 735.706 222.795C735.706 222.014 735.564 221.389 735.281 220.92C734.998 220.441 734.593 220.09 734.065 219.865C733.538 219.641 732.913 219.528 732.19 219.528H729.935ZM757.195 216.276V219.968C757.195 221.569 757.024 222.951 756.683 224.113C756.341 225.266 755.848 226.213 755.203 226.955C754.568 227.688 753.812 228.229 752.933 228.581C752.054 228.933 751.077 229.108 750.003 229.108C749.144 229.108 748.343 229.001 747.601 228.786C746.858 228.562 746.189 228.215 745.594 227.746C745.008 227.277 744.5 226.687 744.07 225.974C743.65 225.251 743.328 224.392 743.104 223.396C742.879 222.399 742.767 221.257 742.767 219.968V216.276C742.767 214.675 742.938 213.303 743.279 212.16C743.631 211.008 744.124 210.065 744.759 209.333C745.403 208.601 746.165 208.063 747.044 207.722C747.923 207.37 748.899 207.194 749.974 207.194C750.833 207.194 751.629 207.307 752.361 207.531C753.104 207.746 753.772 208.083 754.368 208.542C754.964 209.001 755.472 209.592 755.892 210.314C756.312 211.027 756.634 211.882 756.858 212.878C757.083 213.864 757.195 214.997 757.195 216.276ZM752.962 220.524V215.705C752.962 214.934 752.918 214.26 752.83 213.684C752.752 213.107 752.63 212.619 752.464 212.219C752.298 211.809 752.093 211.477 751.849 211.223C751.604 210.969 751.326 210.783 751.014 210.666C750.701 210.549 750.354 210.49 749.974 210.49C749.495 210.49 749.07 210.583 748.699 210.769C748.338 210.954 748.03 211.252 747.776 211.662C747.522 212.062 747.327 212.6 747.19 213.273C747.063 213.938 747 214.748 747 215.705V220.524C747 221.296 747.039 221.975 747.117 222.561C747.205 223.146 747.332 223.649 747.498 224.069C747.674 224.479 747.879 224.816 748.113 225.08C748.357 225.334 748.636 225.52 748.948 225.637C749.271 225.754 749.622 225.812 750.003 225.812C750.472 225.812 750.887 225.72 751.248 225.534C751.619 225.339 751.932 225.036 752.186 224.626C752.449 224.206 752.645 223.659 752.771 222.985C752.898 222.312 752.962 221.491 752.962 220.524ZM760.008 212.717V211.589C760.008 210.778 760.184 210.041 760.535 209.377C760.887 208.713 761.404 208.181 762.088 207.78C762.771 207.38 763.611 207.18 764.607 207.18C765.633 207.18 766.487 207.38 767.171 207.78C767.864 208.181 768.382 208.713 768.724 209.377C769.075 210.041 769.251 210.778 769.251 211.589V212.717C769.251 213.508 769.075 214.235 768.724 214.899C768.382 215.563 767.869 216.096 767.186 216.496C766.502 216.896 765.657 217.097 764.651 217.097C763.636 217.097 762.781 216.896 762.088 216.496C761.404 216.096 760.887 215.563 760.535 214.899C760.184 214.235 760.008 213.508 760.008 212.717ZM762.806 211.589V212.717C762.806 213.059 762.869 213.386 762.996 213.698C763.133 214.001 763.338 214.25 763.611 214.445C763.895 214.631 764.236 214.724 764.637 214.724C765.057 214.724 765.398 214.631 765.662 214.445C765.926 214.25 766.121 214.001 766.248 213.698C766.375 213.386 766.438 213.059 766.438 212.717V211.589C766.438 211.228 766.37 210.896 766.233 210.593C766.106 210.28 765.906 210.031 765.633 209.846C765.369 209.65 765.027 209.553 764.607 209.553C764.217 209.553 763.885 209.65 763.611 209.846C763.338 210.031 763.133 210.28 762.996 210.593C762.869 210.896 762.806 211.228 762.806 211.589ZM770.203 224.714V223.586C770.203 222.785 770.379 222.053 770.73 221.389C771.092 220.725 771.614 220.192 772.298 219.792C772.991 219.392 773.841 219.191 774.847 219.191C775.862 219.191 776.712 219.392 777.396 219.792C778.079 220.192 778.597 220.725 778.948 221.389C779.3 222.053 779.476 222.785 779.476 223.586V224.714C779.476 225.515 779.3 226.247 778.948 226.911C778.606 227.575 778.094 228.107 777.41 228.508C776.727 228.908 775.882 229.108 774.876 229.108C773.86 229.108 773.006 228.908 772.312 228.508C771.619 228.107 771.092 227.575 770.73 226.911C770.379 226.247 770.203 225.515 770.203 224.714ZM773.016 223.586V224.714C773.016 225.065 773.094 225.397 773.25 225.71C773.406 226.022 773.621 226.271 773.895 226.457C774.178 226.643 774.505 226.735 774.876 226.735C775.345 226.735 775.711 226.643 775.975 226.457C776.238 226.271 776.419 226.022 776.517 225.71C776.624 225.397 776.678 225.065 776.678 224.714V223.586C776.678 223.234 776.609 222.907 776.473 222.604C776.336 222.292 776.131 222.043 775.857 221.857C775.594 221.662 775.257 221.564 774.847 221.564C774.437 221.564 774.095 221.662 773.821 221.857C773.558 222.043 773.357 222.292 773.221 222.604C773.084 222.907 773.016 223.234 773.016 223.586ZM775.887 210.534L765.472 227.204L763.421 226.12L773.836 209.45L775.887 210.534Z" fill="#FF703B"/>
<path d="M740.203 471.875V475.171H725.613V472.358L732.513 464.961C733.206 464.189 733.753 463.511 734.153 462.925C734.554 462.329 734.842 461.797 735.018 461.328C735.203 460.849 735.296 460.395 735.296 459.966C735.296 459.321 735.188 458.769 734.974 458.31C734.759 457.842 734.441 457.48 734.021 457.226C733.611 456.973 733.104 456.846 732.498 456.846C731.854 456.846 731.297 457.002 730.828 457.314C730.369 457.627 730.018 458.061 729.773 458.618C729.539 459.175 729.422 459.805 729.422 460.508H725.188C725.188 459.238 725.491 458.076 726.097 457.021C726.702 455.957 727.557 455.112 728.66 454.487C729.764 453.852 731.072 453.535 732.586 453.535C734.08 453.535 735.34 453.779 736.365 454.267C737.4 454.746 738.182 455.439 738.709 456.348C739.246 457.246 739.515 458.32 739.515 459.57C739.515 460.273 739.402 460.962 739.178 461.636C738.953 462.3 738.631 462.964 738.211 463.628C737.801 464.282 737.303 464.946 736.717 465.62C736.131 466.294 735.481 466.992 734.769 467.715L731.062 471.875H740.203ZM746.81 465.459L743.44 464.653L744.656 453.843H756.639V457.256H748.128L747.601 461.987C747.884 461.821 748.313 461.645 748.89 461.46C749.466 461.265 750.11 461.167 750.823 461.167C751.858 461.167 752.776 461.328 753.577 461.65C754.378 461.973 755.057 462.441 755.613 463.057C756.18 463.672 756.609 464.424 756.902 465.312C757.195 466.201 757.342 467.207 757.342 468.33C757.342 469.277 757.195 470.181 756.902 471.04C756.609 471.89 756.165 472.651 755.569 473.325C754.974 473.989 754.227 474.512 753.328 474.892C752.43 475.273 751.365 475.464 750.135 475.464C749.217 475.464 748.328 475.327 747.469 475.054C746.619 474.78 745.853 474.375 745.169 473.838C744.495 473.301 743.953 472.651 743.543 471.89C743.143 471.118 742.933 470.239 742.913 469.253H747.103C747.161 469.858 747.317 470.381 747.571 470.82C747.835 471.25 748.182 471.582 748.611 471.816C749.041 472.051 749.544 472.168 750.12 472.168C750.657 472.168 751.116 472.065 751.497 471.86C751.878 471.655 752.186 471.372 752.42 471.011C752.654 470.64 752.825 470.21 752.933 469.722C753.05 469.224 753.108 468.686 753.108 468.11C753.108 467.534 753.04 467.012 752.903 466.543C752.767 466.074 752.557 465.669 752.273 465.327C751.99 464.985 751.629 464.722 751.189 464.536C750.76 464.35 750.257 464.258 749.681 464.258C748.899 464.258 748.294 464.38 747.864 464.624C747.444 464.868 747.093 465.146 746.81 465.459ZM760.008 459.072V457.944C760.008 457.134 760.184 456.396 760.535 455.732C760.887 455.068 761.404 454.536 762.088 454.136C762.771 453.735 763.611 453.535 764.607 453.535C765.633 453.535 766.487 453.735 767.171 454.136C767.864 454.536 768.382 455.068 768.724 455.732C769.075 456.396 769.251 457.134 769.251 457.944V459.072C769.251 459.863 769.075 460.591 768.724 461.255C768.382 461.919 767.869 462.451 767.186 462.851C766.502 463.252 765.657 463.452 764.651 463.452C763.636 463.452 762.781 463.252 762.088 462.851C761.404 462.451 760.887 461.919 760.535 461.255C760.184 460.591 760.008 459.863 760.008 459.072ZM762.806 457.944V459.072C762.806 459.414 762.869 459.741 762.996 460.054C763.133 460.356 763.338 460.605 763.611 460.801C763.895 460.986 764.236 461.079 764.637 461.079C765.057 461.079 765.398 460.986 765.662 460.801C765.926 460.605 766.121 460.356 766.248 460.054C766.375 459.741 766.438 459.414 766.438 459.072V457.944C766.438 457.583 766.37 457.251 766.233 456.948C766.106 456.636 765.906 456.387 765.633 456.201C765.369 456.006 765.027 455.908 764.607 455.908C764.217 455.908 763.885 456.006 763.611 456.201C763.338 456.387 763.133 456.636 762.996 456.948C762.869 457.251 762.806 457.583 762.806 457.944ZM770.203 471.069V469.941C770.203 469.141 770.379 468.408 770.73 467.744C771.092 467.08 771.614 466.548 772.298 466.147C772.991 465.747 773.841 465.547 774.847 465.547C775.862 465.547 776.712 465.747 777.396 466.147C778.079 466.548 778.597 467.08 778.948 467.744C779.3 468.408 779.476 469.141 779.476 469.941V471.069C779.476 471.87 779.3 472.602 778.948 473.266C778.606 473.931 778.094 474.463 777.41 474.863C776.727 475.264 775.882 475.464 774.876 475.464C773.86 475.464 773.006 475.264 772.312 474.863C771.619 474.463 771.092 473.931 770.73 473.266C770.379 472.602 770.203 471.87 770.203 471.069ZM773.016 469.941V471.069C773.016 471.421 773.094 471.753 773.25 472.065C773.406 472.378 773.621 472.627 773.895 472.812C774.178 472.998 774.505 473.091 774.876 473.091C775.345 473.091 775.711 472.998 775.975 472.812C776.238 472.627 776.419 472.378 776.517 472.065C776.624 471.753 776.678 471.421 776.678 471.069V469.941C776.678 469.59 776.609 469.263 776.473 468.96C776.336 468.647 776.131 468.398 775.857 468.213C775.594 468.017 775.257 467.92 774.847 467.92C774.437 467.92 774.095 468.017 773.821 468.213C773.558 468.398 773.357 468.647 773.221 468.96C773.084 469.263 773.016 469.59 773.016 469.941ZM775.887 456.89L765.472 473.559L763.421 472.475L773.836 455.806L775.887 456.89Z" fill="#39CEF3"/>
<path d="M250.055 471.875V475.171H235.465V472.358L242.364 464.961C243.058 464.189 243.604 463.511 244.005 462.925C244.405 462.329 244.693 461.797 244.869 461.328C245.055 460.849 245.147 460.395 245.147 459.966C245.147 459.321 245.04 458.769 244.825 458.31C244.61 457.842 244.293 457.48 243.873 457.226C243.463 456.973 242.955 456.846 242.35 456.846C241.705 456.846 241.148 457.002 240.68 457.314C240.221 457.627 239.869 458.061 239.625 458.618C239.391 459.175 239.273 459.805 239.273 460.508H235.04C235.04 459.238 235.343 458.076 235.948 457.021C236.554 455.957 237.408 455.112 238.512 454.487C239.615 453.852 240.924 453.535 242.438 453.535C243.932 453.535 245.191 453.779 246.217 454.267C247.252 454.746 248.033 455.439 248.561 456.348C249.098 457.246 249.366 458.32 249.366 459.57C249.366 460.273 249.254 460.962 249.029 461.636C248.805 462.3 248.482 462.964 248.062 463.628C247.652 464.282 247.154 464.946 246.568 465.62C245.982 466.294 245.333 466.992 244.62 467.715L240.914 471.875H250.055ZM267.047 462.632V466.323C267.047 467.925 266.876 469.307 266.534 470.469C266.192 471.621 265.699 472.568 265.055 473.31C264.42 474.043 263.663 474.585 262.784 474.936C261.905 475.288 260.929 475.464 259.854 475.464C258.995 475.464 258.194 475.356 257.452 475.141C256.71 474.917 256.041 474.57 255.445 474.101C254.859 473.633 254.352 473.042 253.922 472.329C253.502 471.606 253.18 470.747 252.955 469.751C252.73 468.755 252.618 467.612 252.618 466.323V462.632C252.618 461.03 252.789 459.658 253.131 458.516C253.482 457.363 253.976 456.421 254.61 455.688C255.255 454.956 256.017 454.419 256.896 454.077C257.774 453.725 258.751 453.55 259.825 453.55C260.685 453.55 261.48 453.662 262.213 453.887C262.955 454.101 263.624 454.438 264.22 454.897C264.815 455.356 265.323 455.947 265.743 456.67C266.163 457.383 266.485 458.237 266.71 459.233C266.935 460.22 267.047 461.352 267.047 462.632ZM262.813 466.88V462.06C262.813 461.289 262.77 460.615 262.682 460.039C262.604 459.463 262.481 458.974 262.315 458.574C262.149 458.164 261.944 457.832 261.7 457.578C261.456 457.324 261.178 457.139 260.865 457.021C260.553 456.904 260.206 456.846 259.825 456.846C259.347 456.846 258.922 456.938 258.551 457.124C258.189 457.309 257.882 457.607 257.628 458.017C257.374 458.418 257.179 458.955 257.042 459.629C256.915 460.293 256.852 461.103 256.852 462.06V466.88C256.852 467.651 256.891 468.33 256.969 468.916C257.057 469.502 257.184 470.005 257.35 470.425C257.525 470.835 257.73 471.172 257.965 471.435C258.209 471.689 258.487 471.875 258.8 471.992C259.122 472.109 259.474 472.168 259.854 472.168C260.323 472.168 260.738 472.075 261.1 471.89C261.471 471.694 261.783 471.391 262.037 470.981C262.301 470.561 262.496 470.015 262.623 469.341C262.75 468.667 262.813 467.847 262.813 466.88ZM269.859 459.072V457.944C269.859 457.134 270.035 456.396 270.387 455.732C270.738 455.068 271.256 454.536 271.939 454.136C272.623 453.735 273.463 453.535 274.459 453.535C275.484 453.535 276.339 453.735 277.022 454.136C277.716 454.536 278.233 455.068 278.575 455.732C278.927 456.396 279.103 457.134 279.103 457.944V459.072C279.103 459.863 278.927 460.591 278.575 461.255C278.233 461.919 277.721 462.451 277.037 462.851C276.354 463.252 275.509 463.452 274.503 463.452C273.487 463.452 272.633 463.252 271.939 462.851C271.256 462.451 270.738 461.919 270.387 461.255C270.035 460.591 269.859 459.863 269.859 459.072ZM272.657 457.944V459.072C272.657 459.414 272.721 459.741 272.848 460.054C272.984 460.356 273.189 460.605 273.463 460.801C273.746 460.986 274.088 461.079 274.488 461.079C274.908 461.079 275.25 460.986 275.514 460.801C275.777 460.605 275.973 460.356 276.1 460.054C276.227 459.741 276.29 459.414 276.29 459.072V457.944C276.29 457.583 276.222 457.251 276.085 456.948C275.958 456.636 275.758 456.387 275.484 456.201C275.221 456.006 274.879 455.908 274.459 455.908C274.068 455.908 273.736 456.006 273.463 456.201C273.189 456.387 272.984 456.636 272.848 456.948C272.721 457.251 272.657 457.583 272.657 457.944ZM280.055 471.069V469.941C280.055 469.141 280.23 468.408 280.582 467.744C280.943 467.08 281.466 466.548 282.149 466.147C282.843 465.747 283.692 465.547 284.698 465.547C285.714 465.547 286.563 465.747 287.247 466.147C287.931 466.548 288.448 467.08 288.8 467.744C289.151 468.408 289.327 469.141 289.327 469.941V471.069C289.327 471.87 289.151 472.602 288.8 473.266C288.458 473.931 287.945 474.463 287.262 474.863C286.578 475.264 285.733 475.464 284.728 475.464C283.712 475.464 282.857 475.264 282.164 474.863C281.471 474.463 280.943 473.931 280.582 473.266C280.23 472.602 280.055 471.87 280.055 471.069ZM282.867 469.941V471.069C282.867 471.421 282.945 471.753 283.102 472.065C283.258 472.378 283.473 472.627 283.746 472.812C284.029 472.998 284.356 473.091 284.728 473.091C285.196 473.091 285.562 472.998 285.826 472.812C286.09 472.627 286.271 472.378 286.368 472.065C286.476 471.753 286.529 471.421 286.529 471.069V469.941C286.529 469.59 286.461 469.263 286.324 468.96C286.188 468.647 285.982 468.398 285.709 468.213C285.445 468.017 285.108 467.92 284.698 467.92C284.288 467.92 283.946 468.017 283.673 468.213C283.409 468.398 283.209 468.647 283.072 468.96C282.936 469.263 282.867 469.59 282.867 469.941ZM285.738 456.89L275.323 473.559L273.272 472.475L283.688 455.806L285.738 456.89Z" fill="#39CEF3"/>
<path d="M245.748 317.951V339.323H241.529V322.815L236.461 324.426V321.101L245.294 317.951H245.748ZM256.661 329.612L253.292 328.806L254.508 317.995H266.49V321.408H257.979L257.452 326.14C257.735 325.974 258.165 325.798 258.741 325.613C259.317 325.417 259.962 325.32 260.675 325.32C261.71 325.32 262.628 325.481 263.429 325.803C264.229 326.125 264.908 326.594 265.465 327.209C266.031 327.824 266.461 328.576 266.754 329.465C267.047 330.354 267.193 331.36 267.193 332.483C267.193 333.43 267.047 334.333 266.754 335.193C266.461 336.042 266.017 336.804 265.421 337.478C264.825 338.142 264.078 338.664 263.18 339.045C262.281 339.426 261.217 339.616 259.986 339.616C259.068 339.616 258.18 339.48 257.32 339.206C256.471 338.933 255.704 338.528 255.021 337.99C254.347 337.453 253.805 336.804 253.395 336.042C252.994 335.271 252.784 334.392 252.765 333.406H256.954C257.013 334.011 257.169 334.533 257.423 334.973C257.687 335.403 258.033 335.735 258.463 335.969C258.893 336.203 259.396 336.321 259.972 336.321C260.509 336.321 260.968 336.218 261.349 336.013C261.729 335.808 262.037 335.525 262.271 335.163C262.506 334.792 262.677 334.363 262.784 333.874C262.901 333.376 262.96 332.839 262.96 332.263C262.96 331.687 262.892 331.164 262.755 330.696C262.618 330.227 262.408 329.822 262.125 329.48C261.842 329.138 261.48 328.874 261.041 328.689C260.611 328.503 260.108 328.41 259.532 328.41C258.751 328.41 258.146 328.532 257.716 328.777C257.296 329.021 256.944 329.299 256.661 329.612ZM269.859 323.225V322.097C269.859 321.286 270.035 320.549 270.387 319.885C270.738 319.221 271.256 318.689 271.939 318.288C272.623 317.888 273.463 317.688 274.459 317.688C275.484 317.688 276.339 317.888 277.022 318.288C277.716 318.689 278.233 319.221 278.575 319.885C278.927 320.549 279.103 321.286 279.103 322.097V323.225C279.103 324.016 278.927 324.743 278.575 325.407C278.233 326.072 277.721 326.604 277.037 327.004C276.354 327.405 275.509 327.605 274.503 327.605C273.487 327.605 272.633 327.405 271.939 327.004C271.256 326.604 270.738 326.072 270.387 325.407C270.035 324.743 269.859 324.016 269.859 323.225ZM272.657 322.097V323.225C272.657 323.567 272.721 323.894 272.848 324.206C272.984 324.509 273.189 324.758 273.463 324.953C273.746 325.139 274.088 325.232 274.488 325.232C274.908 325.232 275.25 325.139 275.514 324.953C275.777 324.758 275.973 324.509 276.1 324.206C276.227 323.894 276.29 323.567 276.29 323.225V322.097C276.29 321.736 276.222 321.404 276.085 321.101C275.958 320.788 275.758 320.539 275.484 320.354C275.221 320.158 274.879 320.061 274.459 320.061C274.068 320.061 273.736 320.158 273.463 320.354C273.189 320.539 272.984 320.788 272.848 321.101C272.721 321.404 272.657 321.736 272.657 322.097ZM280.055 335.222V334.094C280.055 333.293 280.23 332.561 280.582 331.897C280.943 331.233 281.466 330.7 282.149 330.3C282.843 329.9 283.692 329.699 284.698 329.699C285.714 329.699 286.563 329.9 287.247 330.3C287.931 330.7 288.448 331.233 288.8 331.897C289.151 332.561 289.327 333.293 289.327 334.094V335.222C289.327 336.023 289.151 336.755 288.8 337.419C288.458 338.083 287.945 338.615 287.262 339.016C286.578 339.416 285.733 339.616 284.728 339.616C283.712 339.616 282.857 339.416 282.164 339.016C281.471 338.615 280.943 338.083 280.582 337.419C280.23 336.755 280.055 336.023 280.055 335.222ZM282.867 334.094V335.222C282.867 335.573 282.945 335.906 283.102 336.218C283.258 336.531 283.473 336.78 283.746 336.965C284.029 337.151 284.356 337.243 284.728 337.243C285.196 337.243 285.562 337.151 285.826 336.965C286.09 336.78 286.271 336.531 286.368 336.218C286.476 335.906 286.529 335.573 286.529 335.222V334.094C286.529 333.742 286.461 333.415 286.324 333.113C286.188 332.8 285.982 332.551 285.709 332.365C285.445 332.17 285.108 332.073 284.698 332.073C284.288 332.073 283.946 332.17 283.673 332.365C283.409 332.551 283.209 332.8 283.072 333.113C282.936 333.415 282.867 333.742 282.867 334.094ZM285.738 321.042L275.323 337.712L273.272 336.628L283.688 319.958L285.738 321.042Z" fill="#39CEF3"/>
<path d="M245.748 207.443V228.815H241.529V212.307L236.461 213.918V210.593L245.294 207.443H245.748ZM267.047 216.276V219.968C267.047 221.569 266.876 222.951 266.534 224.113C266.192 225.266 265.699 226.213 265.055 226.955C264.42 227.688 263.663 228.229 262.784 228.581C261.905 228.933 260.929 229.108 259.854 229.108C258.995 229.108 258.194 229.001 257.452 228.786C256.71 228.562 256.041 228.215 255.445 227.746C254.859 227.277 254.352 226.687 253.922 225.974C253.502 225.251 253.18 224.392 252.955 223.396C252.73 222.399 252.618 221.257 252.618 219.968V216.276C252.618 214.675 252.789 213.303 253.131 212.16C253.482 211.008 253.976 210.065 254.61 209.333C255.255 208.601 256.017 208.063 256.896 207.722C257.774 207.37 258.751 207.194 259.825 207.194C260.685 207.194 261.48 207.307 262.213 207.531C262.955 207.746 263.624 208.083 264.22 208.542C264.815 209.001 265.323 209.592 265.743 210.314C266.163 211.027 266.485 211.882 266.71 212.878C266.935 213.864 267.047 214.997 267.047 216.276ZM262.813 220.524V215.705C262.813 214.934 262.77 214.26 262.682 213.684C262.604 213.107 262.481 212.619 262.315 212.219C262.149 211.809 261.944 211.477 261.7 211.223C261.456 210.969 261.178 210.783 260.865 210.666C260.553 210.549 260.206 210.49 259.825 210.49C259.347 210.49 258.922 210.583 258.551 210.769C258.189 210.954 257.882 211.252 257.628 211.662C257.374 212.062 257.179 212.6 257.042 213.273C256.915 213.938 256.852 214.748 256.852 215.705V220.524C256.852 221.296 256.891 221.975 256.969 222.561C257.057 223.146 257.184 223.649 257.35 224.069C257.525 224.479 257.73 224.816 257.965 225.08C258.209 225.334 258.487 225.52 258.8 225.637C259.122 225.754 259.474 225.812 259.854 225.812C260.323 225.812 260.738 225.72 261.1 225.534C261.471 225.339 261.783 225.036 262.037 224.626C262.301 224.206 262.496 223.659 262.623 222.985C262.75 222.312 262.813 221.491 262.813 220.524ZM269.859 212.717V211.589C269.859 210.778 270.035 210.041 270.387 209.377C270.738 208.713 271.256 208.181 271.939 207.78C272.623 207.38 273.463 207.18 274.459 207.18C275.484 207.18 276.339 207.38 277.022 207.78C277.716 208.181 278.233 208.713 278.575 209.377C278.927 210.041 279.103 210.778 279.103 211.589V212.717C279.103 213.508 278.927 214.235 278.575 214.899C278.233 215.563 277.721 216.096 277.037 216.496C276.354 216.896 275.509 217.097 274.503 217.097C273.487 217.097 272.633 216.896 271.939 216.496C271.256 216.096 270.738 215.563 270.387 214.899C270.035 214.235 269.859 213.508 269.859 212.717ZM272.657 211.589V212.717C272.657 213.059 272.721 213.386 272.848 213.698C272.984 214.001 273.189 214.25 273.463 214.445C273.746 214.631 274.088 214.724 274.488 214.724C274.908 214.724 275.25 214.631 275.514 214.445C275.777 214.25 275.973 214.001 276.1 213.698C276.227 213.386 276.29 213.059 276.29 212.717V211.589C276.29 211.228 276.222 210.896 276.085 210.593C275.958 210.28 275.758 210.031 275.484 209.846C275.221 209.65 274.879 209.553 274.459 209.553C274.068 209.553 273.736 209.65 273.463 209.846C273.189 210.031 272.984 210.28 272.848 210.593C272.721 210.896 272.657 211.228 272.657 211.589ZM280.055 224.714V223.586C280.055 222.785 280.23 222.053 280.582 221.389C280.943 220.725 281.466 220.192 282.149 219.792C282.843 219.392 283.692 219.191 284.698 219.191C285.714 219.191 286.563 219.392 287.247 219.792C287.931 220.192 288.448 220.725 288.8 221.389C289.151 222.053 289.327 222.785 289.327 223.586V224.714C289.327 225.515 289.151 226.247 288.8 226.911C288.458 227.575 287.945 228.107 287.262 228.508C286.578 228.908 285.733 229.108 284.728 229.108C283.712 229.108 282.857 228.908 282.164 228.508C281.471 228.107 280.943 227.575 280.582 226.911C280.23 226.247 280.055 225.515 280.055 224.714ZM282.867 223.586V224.714C282.867 225.065 282.945 225.397 283.102 225.71C283.258 226.022 283.473 226.271 283.746 226.457C284.029 226.643 284.356 226.735 284.728 226.735C285.196 226.735 285.562 226.643 285.826 226.457C286.09 226.271 286.271 226.022 286.368 225.71C286.476 225.397 286.529 225.065 286.529 224.714V223.586C286.529 223.234 286.461 222.907 286.324 222.604C286.188 222.292 285.982 222.043 285.709 221.857C285.445 221.662 285.108 221.564 284.698 221.564C284.288 221.564 283.946 221.662 283.673 221.857C283.409 222.043 283.209 222.292 283.072 222.604C282.936 222.907 282.867 223.234 282.867 223.586ZM285.738 210.534L275.323 227.204L273.272 226.12L283.688 209.45L285.738 210.534Z" fill="#9AD960"/>
<path d="M619.762 355.852C630.807 355.852 639.909 346.853 638.33 335.92C636.212 321.251 631.764 306.97 625.115 293.632C615.482 274.307 601.495 257.488 584.256 244.501C567.017 231.514 546.999 222.715 525.781 218.797C511.137 216.094 496.199 215.766 481.532 217.788C470.593 219.295 464.466 230.527 467.519 241.139L473.566 262.157C476.621 272.776 487.778 278.622 498.825 278.38C504.085 278.264 509.359 278.685 514.567 279.647C526.365 281.825 537.495 286.717 547.08 293.938C556.666 301.159 564.443 310.511 569.799 321.256C572.167 326.007 574.033 330.973 575.378 336.073C578.195 346.753 586.897 355.852 597.943 355.852H619.762Z" fill="url(#paint1_linear_194_146)"/>
<path d="M460.137 243.553C456.397 233.155 444.841 227.636 435.089 232.833C423.527 238.995 412.889 246.759 403.494 255.896C395.581 263.592 397.298 276.266 406.04 283.006L423.336 296.341C432.09 303.09 444.546 301.19 453.301 294.445C454.371 293.62 455.463 292.824 456.575 292.056C465.662 285.785 471.274 274.521 467.538 264.132L460.137 243.553Z" fill="url(#paint2_linear_194_146)"/>
<path d="M401.606 289.228C392.439 283.054 379.855 285.441 375.064 295.402C369.163 307.671 365.075 320.773 362.959 334.298C360.844 347.826 360.737 361.556 362.611 375.047C364.132 385.991 375.381 392.108 385.994 389.033L406.955 382.96C417.561 379.888 423.387 368.733 423.125 357.694C423.015 353.081 423.317 348.453 424.034 343.867C424.752 339.28 425.878 334.781 427.391 330.42C431.011 319.991 428.873 307.594 419.717 301.427L401.606 289.228Z" fill="#39CEF3"/>
<path d="M388.371 396.425C377.989 400.181 372.491 411.733 377.686 421.475C387.518 439.913 401.411 455.981 418.412 468.406C435.405 480.826 454.916 489.177 475.445 492.94C486.31 494.931 495.645 486.172 496.058 475.134L496.877 453.273C497.29 442.236 488.523 433.201 477.958 429.979C469.714 427.464 461.903 423.577 454.867 418.435C447.831 413.292 441.753 407.028 436.85 399.934C430.568 390.843 419.286 385.241 408.895 389L388.371 396.425Z" fill="#39CEF3"/>
<path d="M503.425 475.182C503.694 486.225 512.913 495.106 523.804 493.257C551.527 488.552 577.348 475.518 597.708 455.656C618.073 435.788 631.755 410.279 637.163 382.652C639.285 371.813 630.646 362.37 619.614 361.818L597.823 360.726C586.79 360.173 577.644 368.827 574.296 379.354C570.471 391.382 563.736 402.394 554.56 411.345C545.388 420.293 534.222 426.749 522.116 430.268C511.51 433.352 502.625 442.271 502.893 453.313L503.425 475.182Z" fill="#39CEF3"/>
<rect x="316" y="239" width="20" height="82" rx="10" transform="rotate(90 316 239)" fill="#DAB7E1"/>
<rect x="327" y="348" width="20" height="95" rx="10" transform="rotate(90 327 348)" fill="#DAB7E1"/>
<rect x="270" y="485" width="20" height="38" rx="10" transform="rotate(90 270 485)" fill="#DAB7E1"/>
<rect x="779" y="236" width="20" height="87" rx="10" transform="rotate(90 779 236)" fill="#DAB7E1"/>
<rect x="779" y="485" width="20" height="71" rx="10" transform="rotate(90 779 485)" fill="#DAB7E1"/>
<path d="M288.148 221.06H375.7L412.268 241.473" stroke="#CDCDCD" stroke-width="2" stroke-dasharray="2 2"/>
<path d="M711.842 221.06H624.29L587.722 241.473" stroke="#CDCDCD" stroke-width="2" stroke-dasharray="2 2"/>
<path d="M711.842 474.103H640.464L604.951 455.45" stroke="#CDCDCD" stroke-width="2" stroke-dasharray="2 2"/>
<path d="M288.148 474.103H356.01L395.39 457.913" stroke="#CDCDCD" stroke-width="2" stroke-dasharray="2 2"/>
<path d="M288.148 332.624H325.419L357.416 332.624" stroke="#CDCDCD" stroke-width="2" stroke-dasharray="2 2"/>
<rect x="484" y="98" width="20" height="107" rx="10" transform="rotate(90 484 98)" fill="#DAB7E1"/>
<rect x="711" y="98" width="20" height="210" rx="10" transform="rotate(90 711 98)" fill="#DAB7E1"/>
<rect x="532" y="130" width="20" height="155" rx="10" transform="rotate(90 532 130)" fill="#DAB7E1"/>
<defs>
<filter id="filter0_b_194_146" x="-70" y="-70" width="1154" height="698" filterUnits="userSpaceOnUse" color-interpolation-filters="sRGB">
<feFlood flood-opacity="0" result="BackgroundImageFix"/>
<feGaussianBlur in="BackgroundImageFix" stdDeviation="35"/>
<feComposite in2="SourceAlpha" operator="in" result="effect1_backgroundBlur_194_146"/>
<feBlend mode="normal" in="SourceGraphic" in2="effect1_backgroundBlur_194_146" result="shape"/>
</filter>
<linearGradient id="paint0_linear_194_146" x1="702.5" y1="-3.1356e-05" x2="-101.5" y2="435.5" gradientUnits="userSpaceOnUse">
<stop stop-color="white"/>
<stop offset="1" stop-color="white" stop-opacity="0"/>
</linearGradient>
<linearGradient id="paint1_linear_194_146" x1="597.305" y1="216.514" x2="361.084" y2="446.805" gradientUnits="userSpaceOnUse">
<stop stop-color="#FF4906"/>
<stop offset="0.515519" stop-color="#FF8B60"/>
<stop offset="1" stop-color="#FFA685"/>
</linearGradient>
<linearGradient id="paint2_linear_194_146" x1="500.523" y1="216.485" x2="500.523" y2="495.219" gradientUnits="userSpaceOnUse">
<stop stop-color="#A1DC67"/>
<stop offset="1" stop-color="#72CA3D"/>
</linearGradient>
</defs>
</svg>
