<svg xmlns="http://www.w3.org/2000/svg" xmlns:xlink="http://www.w3.org/1999/xlink" viewBox="0 0 616.05 244.18"><defs><style>.cls-1{fill:#fff;}.cls-2{fill:url(#radial-gradient);}.cls-3{fill:#faa629;}.cls-4{fill:#ed6d23;}.cls-5{fill:#315aa9;}.cls-6{fill:#8bb0dd;}.cls-7{fill:#4570b7;}</style><radialGradient id="radial-gradient" cx="373.21" cy="89.72" fx="397.1875535119343" fy="109.16915348649152" r="39.5" gradientUnits="userSpaceOnUse"><stop offset="0" stop-color="#fec35a"/><stop offset="1" stop-color="#ed6d23"/></radialGradient></defs><title>afklaring_2</title><g id="Layer_2" data-name="Layer 2"><g id="Layer_1-2" data-name="Layer 1"><circle class="cls-1" cx="31.07" cy="181.13" r="24.66"/><circle class="cls-1" cx="15.54" cy="228.64" r="15.54"/><circle class="cls-1" cx="65.05" cy="89.72" r="65.05"/><circle class="cls-1" cx="185" cy="89.72" r="79.83"/><circle class="cls-1" cx="126.49" cy="89.72" r="89.72"/><circle class="cls-1" cx="237.99" cy="89.72" r="48.48"/><circle class="cls-2" cx="373.21" cy="89.72" r="39.5"/><polygon class="cls-3" points="474.38 59.07 474.38 132.38 516.67 107.43 474.38 59.07"/><polyline class="cls-4" points="432.08 107.43 474.38 59.07 474.38 132.38"/><polygon class="cls-5" points="138.57 153.4 81.1 120.54 81.1 54.47 138.57 87.32 138.57 153.4"/><polygon class="cls-6" points="138.57 153.4 196.03 120.54 196.03 54.47 138.57 87.32 138.57 153.4"/><polygon class="cls-7" points="138.57 87.57 81.1 54.47 138.57 21.37 196.03 54.47 138.57 87.57"/><polygon class="cls-5" points="576.54 136.47 537.03 113.88 537.03 68.44 576.54 91.03 576.54 136.47"/><polygon class="cls-6" points="576.54 136.47 616.05 113.88 616.05 68.44 576.54 91.03 576.54 136.47"/><polygon class="cls-7" points="576.54 91.2 537.03 68.44 576.54 45.68 616.05 68.44 576.54 91.2"/></g></g></svg>