<svg viewBox="0 0 616.05 244.18" xmlns="http://www.w3.org/2000/svg" xmlns:xlink="http://www.w3.org/1999/xlink"><radialGradient id="a" cx="373.21" cy="89.72" fx="397.187554" fy="109.169153" gradientUnits="userSpaceOnUse" r="39.5"><stop offset="0" stop-color="#fec35a"/><stop offset="1" stop-color="#ed6d23"/></radialGradient><g fill="#fff"><circle cx="31.07" cy="181.13" r="24.66"/><circle cx="15.54" cy="228.64" r="15.54"/><circle cx="65.05" cy="89.72" r="65.05"/><circle cx="185" cy="89.72" r="79.83"/><circle cx="126.49" cy="89.72" r="89.72"/><circle cx="237.99" cy="89.72" r="48.48"/></g><circle cx="373.21" cy="89.72" fill="url(#a)" r="39.5"/><path d="m474.38 59.07v73.31l42.29-24.95z" fill="#faa629"/><path d="m432.08 107.43 42.3-48.36v73.31" fill="#ed6d23"/><path d="m138.57 153.4-57.47-32.86v-66.07l57.47 32.85z" fill="#315aa9"/><path d="m138.57 153.4 57.46-32.86v-66.07l-57.46 32.85z" fill="#8bb0dd"/><path d="m138.57 87.57-57.47-33.1 57.47-33.1 57.46 33.1z" fill="#4570b7"/><path d="m576.54 136.47-39.51-22.59v-45.44l39.51 22.59z" fill="#315aa9"/><path d="m576.54 136.47 39.51-22.59v-45.44l-39.51 22.59z" fill="#8bb0dd"/><path d="m576.54 91.2-39.51-22.76 39.51-22.76 39.51 22.76z" fill="#4570b7"/></svg>