<svg xmlns="http://www.w3.org/2000/svg" viewBox="0 0 637.13 574.31"><defs><style>.cls-1{opacity:0.3;}.cls-2{fill:#f9a358;}.cls-3{fill:none;stroke-width:12px;}.cls-3,.cls-4{stroke:#f9a358;stroke-linecap:round;stroke-linejoin:round;}.cls-4{fill:#fff;stroke-width:4px;}</style></defs><title>bd-wireframe</title><g id="Layer_2" data-name="Layer 2"><g id="Layer_1-2" data-name="Layer 1"><g class="cls-1"><path class="cls-2" d="M70.64,544.88a59.07,59.07,0,0,1-24-5.15,60.64,60.64,0,0,1-35.81-55.58V98.5A60.66,60.66,0,0,1,46.67,42.9a58.27,58.27,0,0,1,63.52,10.4L318.86,243,526.69,54.63a58.29,58.29,0,0,1,63.5-10.32A60.66,60.66,0,0,1,626,99.89V484.05a60.64,60.64,0,0,1-35.85,55.59,58.26,58.26,0,0,1-63.52-10.4l-207.85-189L110.13,529.41A58.62,58.62,0,0,1,70.64,544.88ZM82.82,125.73V457L265.26,291.61Zm289.56,166L554,456.81V127.07Z"/></g><path class="cls-3" d="M70.64,541.74a59.07,59.07,0,0,1-24-5.15A60.66,60.66,0,0,1,10.82,481V95.35a60.67,60.67,0,0,1,35.85-55.6,58.26,58.26,0,0,1,63.52,10.41L318.86,239.88,526.69,51.49a58.29,58.29,0,0,1,63.5-10.33A60.67,60.67,0,0,1,626,96.74V480.9a60.66,60.66,0,0,1-35.85,55.6,58.27,58.27,0,0,1-63.52-10.4l-207.85-189L110.13,526.26A58.63,58.63,0,0,1,70.64,541.74ZM82.82,122.59V453.83L265.26,288.46Zm289.56,166L554,453.66V123.92Z"/><circle class="cls-4" cx="82.82" cy="122.41" r="13.21"/><circle class="cls-4" cx="82.82" cy="452.86" r="13.21"/><circle class="cls-4" cx="554" cy="452.86" r="13.21"/><circle class="cls-4" cx="554" cy="123.92" r="13.21"/><rect class="cls-4" x="100.88" y="516.37" width="17.64" height="17.64"/><rect class="cls-4" x="2" y="471.12" width="17.64" height="17.64"/><line class="cls-4" x1="10.89" y1="488.75" x2="10.89" y2="546.53"/><circle class="cls-4" cx="10.89" cy="546.53" r="5.4"/><line class="cls-4" x1="101" y1="531.55" x2="55.32" y2="566.91"/><circle class="cls-4" cx="55.32" cy="566.91" r="5.4"/><rect class="cls-4" x="518.61" y="516.37" width="17.64" height="17.64" transform="translate(1054.87 1050.39) rotate(-180)"/><rect class="cls-4" x="617.49" y="471.12" width="17.64" height="17.64" transform="translate(1252.62 959.87) rotate(-180)"/><line class="cls-4" x1="626.24" y1="488.75" x2="626.24" y2="546.53"/><circle class="cls-4" cx="626.24" cy="546.53" r="5.4"/><line class="cls-4" x1="536.13" y1="531.55" x2="581.81" y2="566.91"/><circle class="cls-4" cx="581.81" cy="566.91" r="5.4"/><rect class="cls-4" x="518.61" y="40.3" width="17.64" height="17.64" transform="translate(1054.87 98.23) rotate(180)"/><rect class="cls-4" x="617.49" y="85.56" width="17.64" height="17.64" transform="translate(1252.62 188.75) rotate(180)"/><line class="cls-4" x1="626.24" y1="85.56" x2="626.24" y2="27.78"/><circle class="cls-4" cx="626.24" cy="27.78" r="5.4"/><line class="cls-4" x1="536.13" y1="42.76" x2="581.81" y2="7.4"/><circle class="cls-4" cx="581.81" cy="7.4" r="5.4"/><rect class="cls-4" x="101.34" y="40.3" width="17.64" height="17.64"/><rect class="cls-4" x="2.46" y="85.56" width="17.64" height="17.64"/><line class="cls-4" x1="11.36" y1="85.56" x2="11.36" y2="27.78"/><circle class="cls-4" cx="11.36" cy="27.78" r="5.4"/><line class="cls-4" x1="101.47" y1="42.76" x2="55.78" y2="7.4"/><circle class="cls-4" cx="55.78" cy="7.4" r="5.4"/><line class="cls-3" x1="265.26" y1="288.46" x2="318.78" y2="337.13"/><line class="cls-3" x1="318.86" y1="239.88" x2="372.38" y2="288.54"/></g></g></svg>