<svg viewBox="0 0 637.13 574.31" xmlns="http://www.w3.org/2000/svg"><path d="m70.64 544.88a59.07 59.07 0 0 1 -24-5.15 60.64 60.64 0 0 1 -35.81-55.58v-385.65a60.66 60.66 0 0 1 35.84-55.6 58.27 58.27 0 0 1 63.52 10.4l208.67 189.7 207.83-188.37a58.29 58.29 0 0 1 63.5-10.32 60.66 60.66 0 0 1 35.81 55.58v384.16a60.64 60.64 0 0 1 -35.85 55.59 58.26 58.26 0 0 1 -63.52-10.4l-207.85-189-208.65 189.17a58.62 58.62 0 0 1 -39.49 15.47zm12.18-419.15v331.27l182.44-165.39zm289.56 166 181.62 165.08v-329.74z" fill="#f9a358" opacity=".3"/><g stroke="#f9a358" stroke-linecap="round" stroke-linejoin="round"><path d="m70.64 541.74a59.07 59.07 0 0 1 -24-5.15 60.66 60.66 0 0 1 -35.82-55.59v-385.65a60.67 60.67 0 0 1 35.85-55.6 58.26 58.26 0 0 1 63.52 10.41l208.67 189.72 207.83-188.39a58.29 58.29 0 0 1 63.5-10.33 60.67 60.67 0 0 1 35.81 55.58v384.16a60.66 60.66 0 0 1 -35.85 55.6 58.27 58.27 0 0 1 -63.52-10.4l-207.85-189-208.65 189.16a58.63 58.63 0 0 1 -39.49 15.48zm12.18-419.15v331.24l182.44-165.37zm289.56 166 181.62 165.07v-329.74z" fill="none" stroke-width="12"/><circle cx="82.82" cy="122.41" fill="#fff" r="13.21" stroke-width="4"/><circle cx="82.82" cy="452.86" fill="#fff" r="13.21" stroke-width="4"/><circle cx="554" cy="452.86" fill="#fff" r="13.21" stroke-width="4"/><circle cx="554" cy="123.92" fill="#fff" r="13.21" stroke-width="4"/><path d="m100.88 516.37h17.64v17.64h-17.64z" fill="#fff" stroke-width="4"/><path d="m2 471.12h17.64v17.64h-17.64z" fill="#fff" stroke-width="4"/><path d="m10.89 488.75v57.78" fill="#fff" stroke-width="4"/><circle cx="10.89" cy="546.53" fill="#fff" r="5.4" stroke-width="4"/><path d="m101 531.55-45.68 35.36" fill="#fff" stroke-width="4"/><circle cx="55.32" cy="566.91" fill="#fff" r="5.4" stroke-width="4"/><path d="m518.61 516.37h17.64v17.64h-17.64z" fill="#fff" stroke-width="4" transform="matrix(-1 0 0 -1 1054.87 1050.39)"/><path d="m617.49 471.12h17.64v17.64h-17.64z" fill="#fff" stroke-width="4" transform="matrix(-1 0 0 -1 1252.62 959.87)"/><path d="m626.24 488.75v57.78" fill="#fff" stroke-width="4"/><circle cx="626.24" cy="546.53" fill="#fff" r="5.4" stroke-width="4"/><path d="m536.13 531.55 45.68 35.36" fill="#fff" stroke-width="4"/><circle cx="581.81" cy="566.91" fill="#fff" r="5.4" stroke-width="4"/><path d="m518.61 40.3h17.64v17.64h-17.64z" fill="#fff" stroke-width="4" transform="matrix(-1 0 0 -1 1054.87 98.23)"/><path d="m617.49 85.56h17.64v17.64h-17.64z" fill="#fff" stroke-width="4" transform="matrix(-1 0 0 -1 1252.62 188.75)"/><path d="m626.24 85.56v-57.78" fill="#fff" stroke-width="4"/><circle cx="626.24" cy="27.78" fill="#fff" r="5.4" stroke-width="4"/><path d="m536.13 42.76 45.68-35.36" fill="#fff" stroke-width="4"/><circle cx="581.81" cy="7.4" fill="#fff" r="5.4" stroke-width="4"/><path d="m101.34 40.3h17.64v17.64h-17.64z" fill="#fff" stroke-width="4"/><path d="m2.46 85.56h17.64v17.64h-17.64z" fill="#fff" stroke-width="4"/><path d="m11.36 85.56v-57.78" fill="#fff" stroke-width="4"/><circle cx="11.36" cy="27.78" fill="#fff" r="5.4" stroke-width="4"/><path d="m101.47 42.76-45.69-35.36" fill="#fff" stroke-width="4"/><circle cx="55.78" cy="7.4" fill="#fff" r="5.4" stroke-width="4"/><path d="m265.26 288.46 53.52 48.67" fill="none" stroke-width="12"/><path d="m318.86 239.88 53.52 48.66" fill="none" stroke-width="12"/></g></svg>