<svg width="1311" height="778" viewBox="0 0 1311 778" fill="none" xmlns="http://www.w3.org/2000/svg">
<g filter="url(#filter0_b_193_112)">
<path d="M1301 6.0598e-05C1306.52 6.08395e-05 1311 4.47721 1311 10.0001L1311 548C1311 553.523 1306.52 558 1301 558L307 558C301.477 558 297 553.523 297 548L297 10C297 4.47717 301.477 1.69075e-05 307 1.71489e-05L1301 6.0598e-05Z" fill="#AEC6F3" fill-opacity="0.4"/>
<path d="M1309.5 10.0001L1309.5 548C1309.5 552.695 1305.69 556.5 1301 556.5L307 556.5C302.306 556.5 298.5 552.694 298.5 548L298.5 10C298.5 5.3056 302.306 1.50002 307 1.50002L1301 1.50006C1305.69 1.50006 1309.5 5.30564 1309.5 10.0001Z" stroke="url(#paint0_linear_193_112)" stroke-width="3"/>
</g>
<rect x="398" y="34.0001" width="812" height="31" rx="10" fill="white"/>
<path d="M1026.93 216.32H1029.19C1029.91 216.32 1030.51 216.198 1030.98 215.954C1031.45 215.7 1031.79 215.349 1032.02 214.899C1032.25 214.44 1032.37 213.908 1032.37 213.303C1032.37 212.756 1032.26 212.273 1032.05 211.853C1031.84 211.423 1031.52 211.091 1031.09 210.857C1030.67 210.612 1030.12 210.49 1029.47 210.49C1028.95 210.49 1028.47 210.593 1028.03 210.798C1027.59 211.003 1027.24 211.291 1026.98 211.662C1026.71 212.033 1026.58 212.482 1026.58 213.01H1022.35C1022.35 211.838 1022.66 210.817 1023.29 209.948C1023.92 209.079 1024.77 208.4 1025.84 207.912C1026.9 207.424 1028.07 207.18 1029.35 207.18C1030.8 207.18 1032.06 207.414 1033.15 207.883C1034.23 208.342 1035.07 209.021 1035.68 209.919C1036.29 210.817 1036.59 211.931 1036.59 213.259C1036.59 213.933 1036.43 214.587 1036.12 215.222C1035.81 215.847 1035.36 216.413 1034.77 216.921C1034.2 217.419 1033.49 217.819 1032.66 218.122C1031.83 218.415 1030.9 218.562 1029.86 218.562H1026.93V216.32ZM1026.93 219.528V217.346H1029.86C1031.03 217.346 1032.05 217.478 1032.93 217.741C1033.8 218.005 1034.54 218.386 1035.14 218.884C1035.73 219.372 1036.18 219.953 1036.49 220.627C1036.79 221.291 1036.94 222.028 1036.94 222.839C1036.94 223.835 1036.75 224.724 1036.37 225.505C1035.99 226.276 1035.45 226.931 1034.76 227.468C1034.07 228.005 1033.27 228.415 1032.35 228.698C1031.44 228.972 1030.44 229.108 1029.35 229.108C1028.45 229.108 1027.57 228.986 1026.7 228.742C1025.84 228.488 1025.06 228.112 1024.36 227.614C1023.66 227.107 1023.11 226.472 1022.69 225.71C1022.28 224.939 1022.07 224.025 1022.07 222.971H1026.3C1026.3 223.518 1026.44 224.006 1026.71 224.436C1026.99 224.865 1027.36 225.202 1027.84 225.446C1028.33 225.69 1028.87 225.813 1029.47 225.813C1030.14 225.813 1030.72 225.69 1031.2 225.446C1031.69 225.192 1032.06 224.841 1032.31 224.392C1032.57 223.933 1032.71 223.4 1032.71 222.795C1032.71 222.014 1032.56 221.389 1032.28 220.92C1032 220.441 1031.59 220.09 1031.07 219.865C1030.54 219.641 1029.91 219.528 1029.19 219.528H1026.93ZM1054.2 216.276V219.968C1054.2 221.569 1054.02 222.951 1053.68 224.113C1053.34 225.266 1052.85 226.213 1052.2 226.955C1051.57 227.688 1050.81 228.23 1049.93 228.581C1049.05 228.933 1048.08 229.108 1047 229.108C1046.14 229.108 1045.34 229.001 1044.6 228.786C1043.86 228.562 1043.19 228.215 1042.59 227.746C1042.01 227.277 1041.5 226.687 1041.07 225.974C1040.65 225.251 1040.33 224.392 1040.1 223.396C1039.88 222.399 1039.77 221.257 1039.77 219.968V216.276C1039.77 214.675 1039.94 213.303 1040.28 212.16C1040.63 211.008 1041.12 210.065 1041.76 209.333C1042.4 208.601 1043.17 208.064 1044.04 207.722C1044.92 207.37 1045.9 207.194 1046.97 207.194C1047.83 207.194 1048.63 207.307 1049.36 207.531C1050.1 207.746 1050.77 208.083 1051.37 208.542C1051.96 209.001 1052.47 209.592 1052.89 210.315C1053.31 211.027 1053.63 211.882 1053.86 212.878C1054.08 213.864 1054.2 214.997 1054.2 216.276ZM1049.96 220.524V215.705C1049.96 214.934 1049.92 214.26 1049.83 213.684C1049.75 213.107 1049.63 212.619 1049.46 212.219C1049.3 211.809 1049.09 211.477 1048.85 211.223C1048.6 210.969 1048.33 210.783 1048.01 210.666C1047.7 210.549 1047.35 210.49 1046.97 210.49C1046.5 210.49 1046.07 210.583 1045.7 210.769C1045.34 210.954 1045.03 211.252 1044.78 211.662C1044.52 212.063 1044.33 212.6 1044.19 213.273C1044.06 213.938 1044 214.748 1044 215.705V220.524C1044 221.296 1044.04 221.975 1044.12 222.561C1044.21 223.147 1044.33 223.649 1044.5 224.069C1044.67 224.48 1044.88 224.816 1045.11 225.08C1045.36 225.334 1045.64 225.52 1045.95 225.637C1046.27 225.754 1046.62 225.813 1047 225.813C1047.47 225.813 1047.89 225.72 1048.25 225.534C1048.62 225.339 1048.93 225.036 1049.19 224.626C1049.45 224.206 1049.64 223.659 1049.77 222.985C1049.9 222.312 1049.96 221.491 1049.96 220.524ZM1057.01 212.717V211.589C1057.01 210.778 1057.18 210.041 1057.54 209.377C1057.89 208.713 1058.4 208.181 1059.09 207.78C1059.77 207.38 1060.61 207.18 1061.61 207.18C1062.63 207.18 1063.49 207.38 1064.17 207.78C1064.86 208.181 1065.38 208.713 1065.72 209.377C1066.08 210.041 1066.25 210.778 1066.25 211.589V212.717C1066.25 213.508 1066.08 214.235 1065.72 214.899C1065.38 215.564 1064.87 216.096 1064.19 216.496C1063.5 216.897 1062.66 217.097 1061.65 217.097C1060.64 217.097 1059.78 216.897 1059.09 216.496C1058.4 216.096 1057.89 215.564 1057.54 214.899C1057.18 214.235 1057.01 213.508 1057.01 212.717ZM1059.81 211.589V212.717C1059.81 213.059 1059.87 213.386 1060 213.698C1060.13 214.001 1060.34 214.25 1060.61 214.445C1060.89 214.631 1061.24 214.724 1061.64 214.724C1062.06 214.724 1062.4 214.631 1062.66 214.445C1062.93 214.25 1063.12 214.001 1063.25 213.698C1063.38 213.386 1063.44 213.059 1063.44 212.717V211.589C1063.44 211.228 1063.37 210.896 1063.23 210.593C1063.11 210.28 1062.91 210.031 1062.63 209.846C1062.37 209.65 1062.03 209.553 1061.61 209.553C1061.22 209.553 1060.88 209.65 1060.61 209.846C1060.34 210.031 1060.13 210.28 1060 210.593C1059.87 210.896 1059.81 211.228 1059.81 211.589ZM1067.2 224.714V223.586C1067.2 222.785 1067.38 222.053 1067.73 221.389C1068.09 220.725 1068.61 220.192 1069.3 219.792C1069.99 219.392 1070.84 219.191 1071.85 219.191C1072.86 219.191 1073.71 219.392 1074.4 219.792C1075.08 220.192 1075.6 220.725 1075.95 221.389C1076.3 222.053 1076.48 222.785 1076.48 223.586V224.714C1076.48 225.515 1076.3 226.247 1075.95 226.911C1075.61 227.575 1075.09 228.107 1074.41 228.508C1073.73 228.908 1072.88 229.108 1071.88 229.108C1070.86 229.108 1070.01 228.908 1069.31 228.508C1068.62 228.107 1068.09 227.575 1067.73 226.911C1067.38 226.247 1067.2 225.515 1067.2 224.714ZM1070.02 223.586V224.714C1070.02 225.065 1070.09 225.398 1070.25 225.71C1070.41 226.023 1070.62 226.272 1070.89 226.457C1071.18 226.643 1071.5 226.735 1071.88 226.735C1072.34 226.735 1072.71 226.643 1072.97 226.457C1073.24 226.272 1073.42 226.023 1073.52 225.71C1073.62 225.398 1073.68 225.065 1073.68 224.714V223.586C1073.68 223.234 1073.61 222.907 1073.47 222.605C1073.34 222.292 1073.13 222.043 1072.86 221.857C1072.59 221.662 1072.26 221.565 1071.85 221.565C1071.44 221.565 1071.09 221.662 1070.82 221.857C1070.56 222.043 1070.36 222.292 1070.22 222.605C1070.08 222.907 1070.02 223.234 1070.02 223.586ZM1072.89 210.534L1062.47 227.204L1060.42 226.12L1070.84 209.45L1072.89 210.534Z" fill="#FF703B"/>
<path d="M1037.2 471.875V475.171H1022.61V472.358L1029.51 464.961C1030.21 464.189 1030.75 463.511 1031.15 462.925C1031.55 462.329 1031.84 461.797 1032.02 461.328C1032.2 460.85 1032.3 460.395 1032.3 459.966C1032.3 459.321 1032.19 458.769 1031.97 458.31C1031.76 457.842 1031.44 457.48 1031.02 457.226C1030.61 456.973 1030.1 456.846 1029.5 456.846C1028.85 456.846 1028.3 457.002 1027.83 457.314C1027.37 457.627 1027.02 458.061 1026.77 458.618C1026.54 459.175 1026.42 459.805 1026.42 460.508H1022.19C1022.19 459.238 1022.49 458.076 1023.1 457.021C1023.7 455.957 1024.56 455.112 1025.66 454.487C1026.76 453.852 1028.07 453.535 1029.59 453.535C1031.08 453.535 1032.34 453.779 1033.37 454.268C1034.4 454.746 1035.18 455.439 1035.71 456.348C1036.25 457.246 1036.51 458.32 1036.51 459.57C1036.51 460.273 1036.4 460.962 1036.18 461.636C1035.95 462.3 1035.63 462.964 1035.21 463.628C1034.8 464.282 1034.3 464.946 1033.72 465.62C1033.13 466.294 1032.48 466.992 1031.77 467.715L1028.06 471.875H1037.2ZM1043.81 465.459L1040.44 464.653L1041.66 453.843H1053.64V457.256H1045.13L1044.6 461.987C1044.88 461.821 1045.31 461.645 1045.89 461.46C1046.47 461.265 1047.11 461.167 1047.82 461.167C1048.86 461.167 1049.78 461.328 1050.58 461.65C1051.38 461.973 1052.06 462.441 1052.61 463.057C1053.18 463.672 1053.61 464.424 1053.9 465.312C1054.2 466.201 1054.34 467.207 1054.34 468.33C1054.34 469.277 1054.2 470.181 1053.9 471.04C1053.61 471.89 1053.17 472.651 1052.57 473.325C1051.97 473.989 1051.23 474.512 1050.33 474.893C1049.43 475.273 1048.37 475.464 1047.13 475.464C1046.22 475.464 1045.33 475.327 1044.47 475.054C1043.62 474.78 1042.85 474.375 1042.17 473.838C1041.5 473.301 1040.95 472.651 1040.54 471.89C1040.14 471.118 1039.93 470.239 1039.91 469.253H1044.1C1044.16 469.858 1044.32 470.381 1044.57 470.82C1044.83 471.25 1045.18 471.582 1045.61 471.816C1046.04 472.051 1046.54 472.168 1047.12 472.168C1047.66 472.168 1048.12 472.065 1048.5 471.86C1048.88 471.655 1049.19 471.372 1049.42 471.011C1049.65 470.64 1049.83 470.21 1049.93 469.722C1050.05 469.224 1050.11 468.686 1050.11 468.11C1050.11 467.534 1050.04 467.012 1049.9 466.543C1049.77 466.074 1049.56 465.669 1049.27 465.327C1048.99 464.985 1048.63 464.722 1048.19 464.536C1047.76 464.351 1047.26 464.258 1046.68 464.258C1045.9 464.258 1045.29 464.38 1044.86 464.624C1044.44 464.868 1044.09 465.146 1043.81 465.459ZM1057.01 459.072V457.944C1057.01 457.134 1057.18 456.396 1057.54 455.732C1057.89 455.068 1058.4 454.536 1059.09 454.136C1059.77 453.735 1060.61 453.535 1061.61 453.535C1062.63 453.535 1063.49 453.735 1064.17 454.136C1064.86 454.536 1065.38 455.068 1065.72 455.732C1066.08 456.396 1066.25 457.134 1066.25 457.944V459.072C1066.25 459.863 1066.08 460.591 1065.72 461.255C1065.38 461.919 1064.87 462.451 1064.19 462.851C1063.5 463.252 1062.66 463.452 1061.65 463.452C1060.64 463.452 1059.78 463.252 1059.09 462.851C1058.4 462.451 1057.89 461.919 1057.54 461.255C1057.18 460.591 1057.01 459.863 1057.01 459.072ZM1059.81 457.944V459.072C1059.81 459.414 1059.87 459.741 1060 460.054C1060.13 460.356 1060.34 460.605 1060.61 460.801C1060.89 460.986 1061.24 461.079 1061.64 461.079C1062.06 461.079 1062.4 460.986 1062.66 460.801C1062.93 460.605 1063.12 460.356 1063.25 460.054C1063.38 459.741 1063.44 459.414 1063.44 459.072V457.944C1063.44 457.583 1063.37 457.251 1063.23 456.948C1063.11 456.636 1062.91 456.387 1062.63 456.201C1062.37 456.006 1062.03 455.908 1061.61 455.908C1061.22 455.908 1060.88 456.006 1060.61 456.201C1060.34 456.387 1060.13 456.636 1060 456.948C1059.87 457.251 1059.81 457.583 1059.81 457.944ZM1067.2 471.069V469.941C1067.2 469.141 1067.38 468.408 1067.73 467.744C1068.09 467.08 1068.61 466.548 1069.3 466.147C1069.99 465.747 1070.84 465.547 1071.85 465.547C1072.86 465.547 1073.71 465.747 1074.4 466.147C1075.08 466.548 1075.6 467.08 1075.95 467.744C1076.3 468.408 1076.48 469.141 1076.48 469.941V471.069C1076.48 471.87 1076.3 472.602 1075.95 473.267C1075.61 473.931 1075.09 474.463 1074.41 474.863C1073.73 475.264 1072.88 475.464 1071.88 475.464C1070.86 475.464 1070.01 475.264 1069.31 474.863C1068.62 474.463 1068.09 473.931 1067.73 473.267C1067.38 472.602 1067.2 471.87 1067.2 471.069ZM1070.02 469.941V471.069C1070.02 471.421 1070.09 471.753 1070.25 472.065C1070.41 472.378 1070.62 472.627 1070.89 472.812C1071.18 472.998 1071.5 473.091 1071.88 473.091C1072.34 473.091 1072.71 472.998 1072.97 472.812C1073.24 472.627 1073.42 472.378 1073.52 472.065C1073.62 471.753 1073.68 471.421 1073.68 471.069V469.941C1073.68 469.59 1073.61 469.263 1073.47 468.96C1073.34 468.647 1073.13 468.398 1072.86 468.213C1072.59 468.018 1072.26 467.92 1071.85 467.92C1071.44 467.92 1071.09 468.018 1070.82 468.213C1070.56 468.398 1070.36 468.647 1070.22 468.96C1070.08 469.263 1070.02 469.59 1070.02 469.941ZM1072.89 456.89L1062.47 473.559L1060.42 472.476L1070.84 455.806L1072.89 456.89Z" fill="#39CEF3"/>
<path d="M547.055 471.875V475.171H532.465V472.358L539.364 464.961C540.058 464.189 540.604 463.511 541.005 462.925C541.405 462.329 541.693 461.797 541.869 461.328C542.055 460.85 542.147 460.395 542.147 459.966C542.147 459.321 542.04 458.769 541.825 458.31C541.61 457.842 541.293 457.48 540.873 457.226C540.463 456.973 539.955 456.846 539.35 456.846C538.705 456.846 538.148 457.002 537.68 457.314C537.221 457.627 536.869 458.061 536.625 458.618C536.391 459.175 536.273 459.805 536.273 460.508H532.04C532.04 459.238 532.343 458.076 532.948 457.021C533.554 455.957 534.408 455.112 535.512 454.487C536.615 453.852 537.924 453.535 539.438 453.535C540.932 453.535 542.191 453.779 543.217 454.268C544.252 454.746 545.033 455.439 545.561 456.348C546.098 457.246 546.366 458.32 546.366 459.57C546.366 460.273 546.254 460.962 546.029 461.636C545.805 462.3 545.482 462.964 545.062 463.628C544.652 464.282 544.154 464.946 543.568 465.62C542.982 466.294 542.333 466.992 541.62 467.715L537.914 471.875H547.055ZM564.047 462.632V466.323C564.047 467.925 563.876 469.307 563.534 470.469C563.192 471.621 562.699 472.568 562.055 473.31C561.42 474.043 560.663 474.585 559.784 474.936C558.905 475.288 557.929 475.464 556.854 475.464C555.995 475.464 555.194 475.356 554.452 475.142C553.71 474.917 553.041 474.57 552.445 474.101C551.859 473.633 551.352 473.042 550.922 472.329C550.502 471.606 550.18 470.747 549.955 469.751C549.73 468.755 549.618 467.612 549.618 466.323V462.632C549.618 461.03 549.789 459.658 550.131 458.516C550.482 457.363 550.976 456.421 551.61 455.688C552.255 454.956 553.017 454.419 553.896 454.077C554.774 453.726 555.751 453.55 556.825 453.55C557.685 453.55 558.48 453.662 559.213 453.887C559.955 454.101 560.624 454.438 561.22 454.897C561.815 455.356 562.323 455.947 562.743 456.67C563.163 457.383 563.485 458.237 563.71 459.233C563.935 460.22 564.047 461.352 564.047 462.632ZM559.813 466.88V462.06C559.813 461.289 559.77 460.615 559.682 460.039C559.604 459.463 559.481 458.975 559.315 458.574C559.149 458.164 558.944 457.832 558.7 457.578C558.456 457.324 558.178 457.139 557.865 457.021C557.553 456.904 557.206 456.846 556.825 456.846C556.347 456.846 555.922 456.938 555.551 457.124C555.189 457.309 554.882 457.607 554.628 458.018C554.374 458.418 554.179 458.955 554.042 459.629C553.915 460.293 553.852 461.103 553.852 462.06V466.88C553.852 467.651 553.891 468.33 553.969 468.916C554.057 469.502 554.184 470.005 554.35 470.425C554.525 470.835 554.73 471.172 554.965 471.435C555.209 471.689 555.487 471.875 555.8 471.992C556.122 472.109 556.474 472.168 556.854 472.168C557.323 472.168 557.738 472.075 558.1 471.89C558.471 471.694 558.783 471.392 559.037 470.981C559.301 470.561 559.496 470.015 559.623 469.341C559.75 468.667 559.813 467.847 559.813 466.88ZM566.859 459.072V457.944C566.859 457.134 567.035 456.396 567.387 455.732C567.738 455.068 568.256 454.536 568.939 454.136C569.623 453.735 570.463 453.535 571.459 453.535C572.484 453.535 573.339 453.735 574.022 454.136C574.716 454.536 575.233 455.068 575.575 455.732C575.927 456.396 576.103 457.134 576.103 457.944V459.072C576.103 459.863 575.927 460.591 575.575 461.255C575.233 461.919 574.721 462.451 574.037 462.851C573.354 463.252 572.509 463.452 571.503 463.452C570.487 463.452 569.633 463.252 568.939 462.851C568.256 462.451 567.738 461.919 567.387 461.255C567.035 460.591 566.859 459.863 566.859 459.072ZM569.657 457.944V459.072C569.657 459.414 569.721 459.741 569.848 460.054C569.984 460.356 570.189 460.605 570.463 460.801C570.746 460.986 571.088 461.079 571.488 461.079C571.908 461.079 572.25 460.986 572.514 460.801C572.777 460.605 572.973 460.356 573.1 460.054C573.227 459.741 573.29 459.414 573.29 459.072V457.944C573.29 457.583 573.222 457.251 573.085 456.948C572.958 456.636 572.758 456.387 572.484 456.201C572.221 456.006 571.879 455.908 571.459 455.908C571.068 455.908 570.736 456.006 570.463 456.201C570.189 456.387 569.984 456.636 569.848 456.948C569.721 457.251 569.657 457.583 569.657 457.944ZM577.055 471.069V469.941C577.055 469.141 577.23 468.408 577.582 467.744C577.943 467.08 578.466 466.548 579.149 466.147C579.843 465.747 580.692 465.547 581.698 465.547C582.714 465.547 583.563 465.747 584.247 466.147C584.931 466.548 585.448 467.08 585.8 467.744C586.151 468.408 586.327 469.141 586.327 469.941V471.069C586.327 471.87 586.151 472.602 585.8 473.267C585.458 473.931 584.945 474.463 584.262 474.863C583.578 475.264 582.733 475.464 581.728 475.464C580.712 475.464 579.857 475.264 579.164 474.863C578.471 474.463 577.943 473.931 577.582 473.267C577.23 472.602 577.055 471.87 577.055 471.069ZM579.867 469.941V471.069C579.867 471.421 579.945 471.753 580.102 472.065C580.258 472.378 580.473 472.627 580.746 472.812C581.029 472.998 581.356 473.091 581.728 473.091C582.196 473.091 582.562 472.998 582.826 472.812C583.09 472.627 583.271 472.378 583.368 472.065C583.476 471.753 583.529 471.421 583.529 471.069V469.941C583.529 469.59 583.461 469.263 583.324 468.96C583.188 468.647 582.982 468.398 582.709 468.213C582.445 468.018 582.108 467.92 581.698 467.92C581.288 467.92 580.946 468.018 580.673 468.213C580.409 468.398 580.209 468.647 580.072 468.96C579.936 469.263 579.867 469.59 579.867 469.941ZM582.738 456.89L572.323 473.559L570.272 472.476L580.688 455.806L582.738 456.89Z" fill="#39CEF3"/>
<path d="M542.748 317.951V339.323H538.529V322.815L533.461 324.426V321.101L542.294 317.951H542.748ZM553.661 329.612L550.292 328.806L551.508 317.995H563.49V321.408H554.979L554.452 326.14C554.735 325.974 555.165 325.798 555.741 325.613C556.317 325.417 556.962 325.32 557.675 325.32C558.71 325.32 559.628 325.481 560.429 325.803C561.229 326.125 561.908 326.594 562.465 327.209C563.031 327.824 563.461 328.576 563.754 329.465C564.047 330.354 564.193 331.36 564.193 332.483C564.193 333.43 564.047 334.333 563.754 335.193C563.461 336.042 563.017 336.804 562.421 337.478C561.825 338.142 561.078 338.664 560.18 339.045C559.281 339.426 558.217 339.616 556.986 339.616C556.068 339.616 555.18 339.48 554.32 339.206C553.471 338.933 552.704 338.528 552.021 337.99C551.347 337.453 550.805 336.804 550.395 336.042C549.994 335.271 549.784 334.392 549.765 333.405H553.954C554.013 334.011 554.169 334.533 554.423 334.973C554.687 335.403 555.033 335.735 555.463 335.969C555.893 336.203 556.396 336.321 556.972 336.321C557.509 336.321 557.968 336.218 558.349 336.013C558.729 335.808 559.037 335.525 559.271 335.163C559.506 334.792 559.677 334.363 559.784 333.874C559.901 333.376 559.96 332.839 559.96 332.263C559.96 331.687 559.892 331.164 559.755 330.696C559.618 330.227 559.408 329.822 559.125 329.48C558.842 329.138 558.48 328.874 558.041 328.689C557.611 328.503 557.108 328.41 556.532 328.41C555.751 328.41 555.146 328.532 554.716 328.777C554.296 329.021 553.944 329.299 553.661 329.612ZM566.859 323.225V322.097C566.859 321.286 567.035 320.549 567.387 319.885C567.738 319.221 568.256 318.689 568.939 318.288C569.623 317.888 570.463 317.688 571.459 317.688C572.484 317.688 573.339 317.888 574.022 318.288C574.716 318.689 575.233 319.221 575.575 319.885C575.927 320.549 576.103 321.286 576.103 322.097V323.225C576.103 324.016 575.927 324.743 575.575 325.407C575.233 326.072 574.721 326.604 574.037 327.004C573.354 327.405 572.509 327.605 571.503 327.605C570.487 327.605 569.633 327.405 568.939 327.004C568.256 326.604 567.738 326.072 567.387 325.407C567.035 324.743 566.859 324.016 566.859 323.225ZM569.657 322.097V323.225C569.657 323.567 569.721 323.894 569.848 324.206C569.984 324.509 570.189 324.758 570.463 324.953C570.746 325.139 571.088 325.232 571.488 325.232C571.908 325.232 572.25 325.139 572.514 324.953C572.777 324.758 572.973 324.509 573.1 324.206C573.227 323.894 573.29 323.567 573.29 323.225V322.097C573.29 321.736 573.222 321.404 573.085 321.101C572.958 320.788 572.758 320.539 572.484 320.354C572.221 320.158 571.879 320.061 571.459 320.061C571.068 320.061 570.736 320.158 570.463 320.354C570.189 320.539 569.984 320.788 569.848 321.101C569.721 321.404 569.657 321.736 569.657 322.097ZM577.055 335.222V334.094C577.055 333.293 577.23 332.561 577.582 331.897C577.943 331.233 578.466 330.7 579.149 330.3C579.843 329.9 580.692 329.699 581.698 329.699C582.714 329.699 583.563 329.9 584.247 330.3C584.931 330.7 585.448 331.233 585.8 331.897C586.151 332.561 586.327 333.293 586.327 334.094V335.222C586.327 336.023 586.151 336.755 585.8 337.419C585.458 338.083 584.945 338.615 584.262 339.016C583.578 339.416 582.733 339.616 581.728 339.616C580.712 339.616 579.857 339.416 579.164 339.016C578.471 338.615 577.943 338.083 577.582 337.419C577.23 336.755 577.055 336.023 577.055 335.222ZM579.867 334.094V335.222C579.867 335.573 579.945 335.905 580.102 336.218C580.258 336.53 580.473 336.78 580.746 336.965C581.029 337.151 581.356 337.243 581.728 337.243C582.196 337.243 582.562 337.151 582.826 336.965C583.09 336.78 583.271 336.53 583.368 336.218C583.476 335.905 583.529 335.573 583.529 335.222V334.094C583.529 333.742 583.461 333.415 583.324 333.113C583.188 332.8 582.982 332.551 582.709 332.365C582.445 332.17 582.108 332.072 581.698 332.072C581.288 332.072 580.946 332.17 580.673 332.365C580.409 332.551 580.209 332.8 580.072 333.113C579.936 333.415 579.867 333.742 579.867 334.094ZM582.738 321.042L572.323 337.712L570.272 336.628L580.688 319.958L582.738 321.042Z" fill="#39CEF3"/>
<path d="M542.748 207.443V228.815H538.529V212.307L533.461 213.918V210.593L542.294 207.443H542.748ZM564.047 216.276V219.968C564.047 221.569 563.876 222.951 563.534 224.113C563.192 225.266 562.699 226.213 562.055 226.955C561.42 227.688 560.663 228.23 559.784 228.581C558.905 228.933 557.929 229.108 556.854 229.108C555.995 229.108 555.194 229.001 554.452 228.786C553.71 228.562 553.041 228.215 552.445 227.746C551.859 227.277 551.352 226.687 550.922 225.974C550.502 225.251 550.18 224.392 549.955 223.396C549.73 222.399 549.618 221.257 549.618 219.968V216.276C549.618 214.675 549.789 213.303 550.131 212.16C550.482 211.008 550.976 210.065 551.61 209.333C552.255 208.601 553.017 208.064 553.896 207.722C554.774 207.37 555.751 207.194 556.825 207.194C557.685 207.194 558.48 207.307 559.213 207.531C559.955 207.746 560.624 208.083 561.22 208.542C561.815 209.001 562.323 209.592 562.743 210.315C563.163 211.027 563.485 211.882 563.71 212.878C563.935 213.864 564.047 214.997 564.047 216.276ZM559.813 220.524V215.705C559.813 214.934 559.77 214.26 559.682 213.684C559.604 213.107 559.481 212.619 559.315 212.219C559.149 211.809 558.944 211.477 558.7 211.223C558.456 210.969 558.178 210.783 557.865 210.666C557.553 210.549 557.206 210.49 556.825 210.49C556.347 210.49 555.922 210.583 555.551 210.769C555.189 210.954 554.882 211.252 554.628 211.662C554.374 212.063 554.179 212.6 554.042 213.273C553.915 213.938 553.852 214.748 553.852 215.705V220.524C553.852 221.296 553.891 221.975 553.969 222.561C554.057 223.147 554.184 223.649 554.35 224.069C554.525 224.48 554.73 224.816 554.965 225.08C555.209 225.334 555.487 225.52 555.8 225.637C556.122 225.754 556.474 225.813 556.854 225.813C557.323 225.813 557.738 225.72 558.1 225.534C558.471 225.339 558.783 225.036 559.037 224.626C559.301 224.206 559.496 223.659 559.623 222.985C559.75 222.312 559.813 221.491 559.813 220.524ZM566.859 212.717V211.589C566.859 210.778 567.035 210.041 567.387 209.377C567.738 208.713 568.256 208.181 568.939 207.78C569.623 207.38 570.463 207.18 571.459 207.18C572.484 207.18 573.339 207.38 574.022 207.78C574.716 208.181 575.233 208.713 575.575 209.377C575.927 210.041 576.103 210.778 576.103 211.589V212.717C576.103 213.508 575.927 214.235 575.575 214.899C575.233 215.564 574.721 216.096 574.037 216.496C573.354 216.897 572.509 217.097 571.503 217.097C570.487 217.097 569.633 216.897 568.939 216.496C568.256 216.096 567.738 215.564 567.387 214.899C567.035 214.235 566.859 213.508 566.859 212.717ZM569.657 211.589V212.717C569.657 213.059 569.721 213.386 569.848 213.698C569.984 214.001 570.189 214.25 570.463 214.445C570.746 214.631 571.088 214.724 571.488 214.724C571.908 214.724 572.25 214.631 572.514 214.445C572.777 214.25 572.973 214.001 573.1 213.698C573.227 213.386 573.29 213.059 573.29 212.717V211.589C573.29 211.228 573.222 210.896 573.085 210.593C572.958 210.28 572.758 210.031 572.484 209.846C572.221 209.65 571.879 209.553 571.459 209.553C571.068 209.553 570.736 209.65 570.463 209.846C570.189 210.031 569.984 210.28 569.848 210.593C569.721 210.896 569.657 211.228 569.657 211.589ZM577.055 224.714V223.586C577.055 222.785 577.23 222.053 577.582 221.389C577.943 220.725 578.466 220.192 579.149 219.792C579.843 219.392 580.692 219.191 581.698 219.191C582.714 219.191 583.563 219.392 584.247 219.792C584.931 220.192 585.448 220.725 585.8 221.389C586.151 222.053 586.327 222.785 586.327 223.586V224.714C586.327 225.515 586.151 226.247 585.8 226.911C585.458 227.575 584.945 228.107 584.262 228.508C583.578 228.908 582.733 229.108 581.728 229.108C580.712 229.108 579.857 228.908 579.164 228.508C578.471 228.107 577.943 227.575 577.582 226.911C577.23 226.247 577.055 225.515 577.055 224.714ZM579.867 223.586V224.714C579.867 225.065 579.945 225.398 580.102 225.71C580.258 226.023 580.473 226.272 580.746 226.457C581.029 226.643 581.356 226.735 581.728 226.735C582.196 226.735 582.562 226.643 582.826 226.457C583.09 226.272 583.271 226.023 583.368 225.71C583.476 225.398 583.529 225.065 583.529 224.714V223.586C583.529 223.234 583.461 222.907 583.324 222.605C583.188 222.292 582.982 222.043 582.709 221.857C582.445 221.662 582.108 221.565 581.698 221.565C581.288 221.565 580.946 221.662 580.673 221.857C580.409 222.043 580.209 222.292 580.072 222.605C579.936 222.907 579.867 223.234 579.867 223.586ZM582.738 210.534L572.323 227.204L570.272 226.12L580.688 209.45L582.738 210.534Z" fill="#9AD960"/>
<path d="M916.762 355.852C927.807 355.852 936.909 346.853 935.33 335.92C933.212 321.251 928.764 306.97 922.115 293.631C912.482 274.307 898.495 257.488 881.256 244.501C864.017 231.514 843.999 222.715 822.781 218.797C808.137 216.094 793.199 215.766 778.532 217.788C767.593 219.295 761.466 230.527 764.519 241.139L770.566 262.157C773.621 272.776 784.778 278.622 795.825 278.379C801.085 278.264 806.359 278.685 811.567 279.646C823.365 281.825 834.495 286.717 844.08 293.938C853.666 301.159 861.443 310.511 866.799 321.256C869.167 326.007 871.033 330.973 872.378 336.073C875.195 346.753 883.897 355.852 894.943 355.852H916.762Z" fill="url(#paint1_linear_193_112)"/>
<path d="M757.137 243.553C753.397 233.155 741.841 227.636 732.089 232.833C720.527 238.994 709.889 246.759 700.494 255.896C692.581 263.592 694.298 276.266 703.04 283.006L720.336 296.341C729.09 303.09 741.546 301.19 750.301 294.444C751.371 293.62 752.463 292.823 753.575 292.056C762.662 285.785 768.274 274.521 764.538 264.132L757.137 243.553Z" fill="url(#paint2_linear_193_112)"/>
<path d="M698.606 289.228C689.439 283.054 676.855 285.441 672.064 295.402C666.163 307.671 662.075 320.773 659.959 334.298C657.844 347.826 657.737 361.556 659.611 375.047C661.132 385.991 672.381 392.108 682.994 389.033L703.955 382.96C714.561 379.888 720.387 368.733 720.125 357.694C720.015 353.081 720.317 348.453 721.034 343.867C721.752 339.28 722.878 334.781 724.391 330.42C728.011 319.991 725.873 307.594 716.717 301.427L698.606 289.228Z" fill="#39CEF3"/>
<path d="M685.371 396.425C674.989 400.181 669.491 411.733 674.686 421.475C684.518 439.913 698.411 455.981 715.412 468.406C732.405 480.826 751.916 489.177 772.445 492.94C783.31 494.931 792.645 486.172 793.058 475.134L793.877 453.273C794.29 442.236 785.523 433.201 774.958 429.979C766.714 427.464 758.903 423.577 751.867 418.435C744.831 413.292 738.753 407.028 733.85 399.934C727.568 390.843 716.286 385.241 705.895 389L685.371 396.425Z" fill="#39CEF3"/>
<path d="M800.425 475.182C800.694 486.225 809.913 495.106 820.804 493.257C848.527 488.552 874.348 475.518 894.708 455.656C915.073 435.788 928.755 410.279 934.163 382.652C936.285 371.813 927.646 362.37 916.614 361.818L894.823 360.726C883.79 360.173 874.644 368.827 871.296 379.354C867.471 391.382 860.736 402.394 851.56 411.345C842.388 420.293 831.222 426.748 819.116 430.268C808.51 433.352 799.625 442.271 799.893 453.313L800.425 475.182Z" fill="#39CEF3"/>
<rect x="613" y="239" width="20" height="82" rx="10" transform="rotate(90 613 239)" fill="#DAB7E1"/>
<rect x="624" y="348" width="20" height="95" rx="10" transform="rotate(90 624 348)" fill="#DAB7E1"/>
<rect x="567" y="485" width="20" height="38" rx="10" transform="rotate(90 567 485)" fill="#DAB7E1"/>
<rect x="1076" y="236" width="20" height="87" rx="10" transform="rotate(90 1076 236)" fill="#DAB7E1"/>
<rect x="1076" y="485" width="20" height="71" rx="10" transform="rotate(90 1076 485)" fill="#DAB7E1"/>
<path d="M585.148 221.06H672.7L709.268 241.473" stroke="#CDCDCD" stroke-width="2" stroke-dasharray="2 2"/>
<path d="M1008.84 221.06H921.29L884.722 241.473" stroke="#CDCDCD" stroke-width="2" stroke-dasharray="2 2"/>
<path d="M1008.84 474.102H937.464L901.951 455.45" stroke="#CDCDCD" stroke-width="2" stroke-dasharray="2 2"/>
<path d="M585.148 474.102H653.01L692.39 457.913" stroke="#CDCDCD" stroke-width="2" stroke-dasharray="2 2"/>
<path d="M585.148 332.624H622.419L654.416 332.624" stroke="#CDCDCD" stroke-width="2" stroke-dasharray="2 2"/>
<rect x="781" y="98" width="20" height="107" rx="10" transform="rotate(90 781 98)" fill="#DAB7E1"/>
<rect x="1008" y="98" width="20" height="210" rx="10" transform="rotate(90 1008 98)" fill="#DAB7E1"/>
<rect x="829" y="130" width="20" height="155" rx="10" transform="rotate(90 829 130)" fill="#DAB7E1"/>
<g filter="url(#filter1_b_193_112)">
<rect y="89" width="380" height="689" rx="10" fill="#FFA6F1" fill-opacity="0.4"/>
<rect x="1.5" y="90.5" width="377" height="686" rx="8.5" stroke="url(#paint3_linear_193_112)" stroke-width="3"/>
</g>
<rect x="24" y="124" width="331" height="31" rx="10" fill="white"/>
<rect x="40" y="568" width="36" height="181" rx="10" fill="#39CEF3"/>
<rect x="104" y="677" width="36" height="72" rx="10" fill="#98D85E"/>
<rect x="168" y="345" width="36" height="404" rx="10" fill="#FF642A"/>
<rect x="198" y="191" width="20" height="174" rx="10" transform="rotate(90 198 191)" fill="#DAB7E1"/>
<rect x="284" y="229" width="20" height="260" rx="10" transform="rotate(90 284 229)" fill="#DAB7E1"/>
<rect x="104" y="267" width="20" height="80" rx="10" transform="rotate(90 104 267)" fill="#DAB7E1"/>
<rect x="297" y="191" width="20" height="80" rx="10" transform="rotate(90 297 191)" fill="#DAB7E1"/>
<rect x="232" y="498" width="36" height="251" rx="10" fill="#39CEF3"/>
<rect x="296" y="547" width="36" height="202" rx="10" fill="#39CEF3"/>
<defs>
<filter id="filter0_b_193_112" x="227" y="-70" width="1154" height="698" filterUnits="userSpaceOnUse" color-interpolation-filters="sRGB">
<feFlood flood-opacity="0" result="BackgroundImageFix"/>
<feGaussianBlur in="BackgroundImageFix" stdDeviation="35"/>
<feComposite in2="SourceAlpha" operator="in" result="effect1_backgroundBlur_193_112"/>
<feBlend mode="normal" in="SourceGraphic" in2="effect1_backgroundBlur_193_112" result="shape"/>
</filter>
<filter id="filter1_b_193_112" x="-70" y="19" width="520" height="829" filterUnits="userSpaceOnUse" color-interpolation-filters="sRGB">
<feFlood flood-opacity="0" result="BackgroundImageFix"/>
<feGaussianBlur in="BackgroundImageFix" stdDeviation="35"/>
<feComposite in2="SourceAlpha" operator="in" result="effect1_backgroundBlur_193_112"/>
<feBlend mode="normal" in="SourceGraphic" in2="effect1_backgroundBlur_193_112" result="shape"/>
</filter>
<linearGradient id="paint0_linear_193_112" x1="999.5" y1="2.96792e-05" x2="195.5" y2="435.5" gradientUnits="userSpaceOnUse">
<stop stop-color="white"/>
<stop offset="1" stop-color="white" stop-opacity="0"/>
</linearGradient>
<linearGradient id="paint1_linear_193_112" x1="894.305" y1="216.514" x2="658.084" y2="446.805" gradientUnits="userSpaceOnUse">
<stop stop-color="#FF4906"/>
<stop offset="0.515519" stop-color="#FF8B60"/>
<stop offset="1" stop-color="#FFA685"/>
</linearGradient>
<linearGradient id="paint2_linear_193_112" x1="797.523" y1="216.485" x2="797.523" y2="495.219" gradientUnits="userSpaceOnUse">
<stop stop-color="#A1DC67"/>
<stop offset="1" stop-color="#72CA3D"/>
</linearGradient>
<linearGradient id="paint3_linear_193_112" x1="368.5" y1="89" x2="117" y2="433" gradientUnits="userSpaceOnUse">
<stop stop-color="white"/>
<stop offset="1" stop-color="white" stop-opacity="0"/>
</linearGradient>
</defs>
</svg>
