<svg xmlns="http://www.w3.org/2000/svg" viewBox="0 0 198.69 118.94"><defs><style>.cls-1{fill:#f7e07f;}.cls-2{fill:#ebb29e;}.cls-3{fill:#7a4233;}.cls-4{fill:#eccd6d;}.cls-5{fill:#fcbe91;}.cls-6{fill:#33464d;}.cls-7{fill:#485966;}.cls-8{font-size:31px;fill:#a6dde9;font-family:OpenSans-ExtraBold, Open Sans;font-weight:800;}.cls-9{fill:#71aed7;}.cls-10,.cls-11,.cls-12,.cls-9{opacity:0.92;}.cls-10{fill:#eb8c8c;}.cls-11{fill:#f3f1a0;}.cls-12{fill:#ccccca;}</style></defs><title>consultant</title><g id="Layer_2" data-name="Layer 2"><g id="Layer_1-2" data-name="Layer 1"><path class="cls-1" d="M58.7,113.29h48.9s1-28.63-7.72-42.35S76.22,59.12,76.22,59.12l-17.52,17h.63l-17.53-17S26.89,57.23,18.15,70.94s-7.72,42.35-7.72,42.35h48.9"/><path class="cls-2" d="M68,52.86s-1.41,8,3.6,14.53S59,80.76,59,80.76,41.4,73.94,46.41,67.39,50,52.86,50,52.86"/><path class="cls-2" d="M80.1,22.52V25.6s3.6.9,3.73,6.56-5.53,7.71-5.53,7.71S75.47,57.74,59,57.74,39.73,39.87,39.73,39.87s-5.66-2-5.53-7.71,3.73-6.56,3.73-6.56V14.16H79.71"/><path class="cls-3" d="M37,25.22s.51-5.4,5.66-6.95,15.68,1.55,19,0,2.83-4.63,5.4-4.11,6.42,14.5,14.66,12.08c2.35-.69.26-8.48,2.83-9.51S78.3,10.17,77,8.37,76.76-1.14,61.59.14,37.29,9.92,37,13.26,35.74,23.54,37,25.22Z"/><path class="cls-4" d="M24.69,113.29V92.37s-.86-6.21,3.6-6.21,3.42,6.21,3.42,6.21v20.92"/><path class="cls-4" d="M85.13,113.29V92.37s-.86-6.21,3.6-6.21,3.43,6.21,3.43,6.21v20.92"/><rect class="cls-5" y="113.29" width="198.69" height="5.66" rx="2.83"/><rect class="cls-6" x="90.98" y="50.54" width="82.59" height="62.74" rx="2.83"/><path class="cls-7" d="M84.52,103.77H183a0,0,0,0,1,0,0v4.76a4.76,4.76,0,0,1-4.76,4.76h-89a4.76,4.76,0,0,1-4.76-4.76v-4.76a0,0,0,0,1,0,0Z"/><text class="cls-8" transform="translate(99.34 32.86)">&lt; / &gt;</text><rect class="cls-9" x="98.06" y="61.27" width="26.34" height="4.49" rx="2.24"/><rect class="cls-9" x="98.06" y="71.53" width="38.49" height="4.49" rx="2.24"/><rect class="cls-10" x="98.06" y="81.78" width="17.17" height="4.49" rx="2.24"/><rect class="cls-11" x="118.88" y="81.78" width="20.64" height="4.49" rx="2.24"/><rect class="cls-10" x="142.08" y="81.78" width="22.38" height="4.49" rx="2.24"/><rect class="cls-11" x="139.52" y="71.53" width="24.94" height="4.49" rx="2.24"/><rect class="cls-12" x="127.46" y="61.27" width="6.44" height="4.49" rx="2.24"/><rect class="cls-10" x="136.55" y="61.27" width="15.85" height="4.49" rx="2.24"/><rect class="cls-11" x="155.61" y="61.27" width="8.85" height="4.49" rx="2.24"/></g></g></svg>