<svg viewBox="0 0 198.69 118.94" xmlns="http://www.w3.org/2000/svg"><path d="m58.7 113.29h48.9s1-28.63-7.72-42.35-23.66-11.82-23.66-11.82l-17.52 17h.63l-17.53-17s-14.91-1.89-23.65 11.82-7.72 42.35-7.72 42.35h48.9" fill="#f7e07f"/><path d="m68 52.86s-1.41 8 3.6 14.53-12.6 13.37-12.6 13.37-17.6-6.82-12.59-13.37 3.59-14.53 3.59-14.53" fill="#ebb29e"/><path d="m80.1 22.52v3.08s3.6.9 3.73 6.56-5.53 7.71-5.53 7.71-2.83 17.87-19.3 17.87-19.27-17.87-19.27-17.87-5.66-2-5.53-7.71 3.73-6.56 3.73-6.56v-11.44h41.78" fill="#ebb29e"/><path d="m37 25.22s.51-5.4 5.66-6.95 15.68 1.55 19 0 2.83-4.63 5.4-4.11 6.42 14.5 14.66 12.08c2.35-.69.26-8.48 2.83-9.51s-6.25-6.56-7.55-8.36-.24-9.51-15.41-8.23-24.3 9.78-24.59 13.12-1.26 10.28 0 11.96z" fill="#7a4233"/><path d="m24.69 113.29v-20.92s-.86-6.21 3.6-6.21 3.42 6.21 3.42 6.21v20.92" fill="#eccd6d"/><path d="m85.13 113.29v-20.92s-.86-6.21 3.6-6.21 3.43 6.21 3.43 6.21v20.92" fill="#eccd6d"/><rect fill="#fcbe91" height="5.66" rx="2.83" width="198.69" y="113.29"/><rect fill="#33464d" height="62.74" rx="2.83" width="82.59" x="90.98" y="50.54"/><path d="m84.52 103.77h98.48a0 0 0 0 1 0 0v4.76a4.76 4.76 0 0 1 -4.76 4.76h-89a4.76 4.76 0 0 1 -4.76-4.76v-4.76a0 0 0 0 1 0 0z" fill="#485966"/><text fill="#a6dde9" font-family="OpenSans-ExtraBold, Open Sans" font-size="31" font-weight="800" transform="translate(99.34 32.86)">&lt; / &gt;</text><rect fill="#71aed7" height="4.49" opacity=".92" rx="2.24" width="26.34" x="98.06" y="61.27"/><rect fill="#71aed7" height="4.49" opacity=".92" rx="2.24" width="38.49" x="98.06" y="71.53"/><rect fill="#eb8c8c" height="4.49" opacity=".92" rx="2.24" width="17.17" x="98.06" y="81.78"/><rect fill="#f3f1a0" height="4.49" opacity=".92" rx="2.24" width="20.64" x="118.88" y="81.78"/><rect fill="#eb8c8c" height="4.49" opacity=".92" rx="2.24" width="22.38" x="142.08" y="81.78"/><rect fill="#f3f1a0" height="4.49" opacity=".92" rx="2.24" width="24.94" x="139.52" y="71.53"/><rect fill="#ccccca" height="4.49" opacity=".92" rx="2.24" width="6.44" x="127.46" y="61.27"/><rect fill="#eb8c8c" height="4.49" opacity=".92" rx="2.24" width="15.85" x="136.55" y="61.27"/><rect fill="#f3f1a0" height="4.49" opacity=".92" rx="2.24" width="8.85" x="155.61" y="61.27"/></svg>