<svg viewBox="0 0 344.78 132.39" xmlns="http://www.w3.org/2000/svg"><path d="m287.31 132.02-57.46-32.85v-66.07l57.46 32.85z" fill="#315aa9"/><path d="m287.31 132.02 57.47-32.85v-66.07l-57.47 32.85z" fill="#8bb0dd"/><path d="m287.31 66.19-57.46-33.09 57.46-33.1 57.47 33.1z" fill="#4570b7"/><path d="m172.39 132.21-57.46-32.85v-66.08l57.46 32.85z" fill="#ed6d23"/><path d="m172.39 132.21 57.46-32.85v-66.08l-57.46 32.85z" fill="#faa629"/><path d="m172.39 66.38-57.46-33.1 57.46-33.1 57.46 33.1z" fill="#f8981d"/><path d="m57.46 132.39-57.46-32.85v-66.07l57.46 32.85z" fill="#434343"/><path d="m57.46 132.39 57.47-32.85v-66.07l-57.47 32.85z" fill="#9e9e9e"/><path d="m57.46 66.56-57.46-33.09 57.46-33.1 57.47 33.1z" fill="#616261"/></svg>