<svg xmlns="http://www.w3.org/2000/svg" viewBox="0 0 344.78 132.39"><defs><style>.cls-1{fill:#315aa9;}.cls-2{fill:#8bb0dd;}.cls-3{fill:#4570b7;}.cls-4{fill:#ed6d23;}.cls-5{fill:#faa629;}.cls-6{fill:#f8981d;}.cls-7{fill:#434343;}.cls-8{fill:#9e9e9e;}.cls-9{fill:#616261;}</style></defs><title>design_1</title><g id="Layer_2" data-name="Layer 2"><g id="Layer_1-2" data-name="Layer 1"><polygon class="cls-1" points="287.31 132.02 229.85 99.17 229.85 33.1 287.31 65.95 287.31 132.02"/><polygon class="cls-2" points="287.31 132.02 344.78 99.17 344.78 33.1 287.31 65.95 287.31 132.02"/><polygon class="cls-3" points="287.31 66.19 229.85 33.1 287.31 0 344.78 33.1 287.31 66.19"/><polygon class="cls-4" points="172.39 132.21 114.93 99.36 114.93 33.28 172.39 66.13 172.39 132.21"/><polygon class="cls-5" points="172.39 132.21 229.85 99.36 229.85 33.28 172.39 66.13 172.39 132.21"/><polygon class="cls-6" points="172.39 66.38 114.93 33.28 172.39 0.18 229.85 33.28 172.39 66.38"/><polygon class="cls-7" points="57.46 132.39 0 99.54 0 33.47 57.46 66.32 57.46 132.39"/><polygon class="cls-8" points="57.46 132.39 114.93 99.54 114.93 33.47 57.46 66.32 57.46 132.39"/><polygon class="cls-9" points="57.46 66.56 0 33.47 57.46 0.37 114.93 33.47 57.46 66.56"/></g></g></svg>