<svg xmlns="http://www.w3.org/2000/svg" viewBox="0 0 612.59 612.59"><defs><style>.cls-1,.cls-2,.cls-3{fill:none;}.cls-1,.cls-2,.cls-3,.cls-4,.cls-6{stroke:#a4ddea;stroke-miterlimit:10;}.cls-1,.cls-6{stroke-width:1.63px;}.cls-2{stroke-width:6.51px;}.cls-3{stroke-width:19.53px;}.cls-4,.cls-6{fill:#fff;}.cls-4{stroke-width:2.03px;}.cls-5,.cls-8{fill:#a4ddea;}.cls-7,.cls-8{opacity:0.2;}</style></defs><title>logo_wireframe_2</title><g id="Layer_2" data-name="Layer 2"><g id="Layer_1-2" data-name="Layer 1"><line class="cls-1" x1="177.18" y1="95.21" x2="236.73" y2="95.21"/><path class="cls-2" d="M75.05,395.46V96.27h96.6q51,0,76.57,17.85t25.53,54A91,91,0,0,1,271.12,190,68.69,68.69,0,0,1,263,209.58a64.09,64.09,0,0,1-13.74,15.79,61.47,61.47,0,0,1-19.45,10.76,70,70,0,0,1,21.4,7.21,63.64,63.64,0,0,1,17.86,14,64.81,64.81,0,0,1,12.13,20.26,72.68,72.68,0,0,1,4.46,26.09q0,45.79-30.67,68.79t-88.59,23ZM215.15,178a41,41,0,0,0-2.75-15.34A27.94,27.94,0,0,0,203.59,151,43.42,43.42,0,0,0,188,143.54a87.32,87.32,0,0,0-23-2.63H130.91v79.2H165q13.72,0,23.23-3.32a42,42,0,0,0,15.57-9.16,33.82,33.82,0,0,0,8.69-13.39A48.88,48.88,0,0,0,215.15,178ZM170.28,349.44A74.18,74.18,0,0,0,194,346a49.05,49.05,0,0,0,17.06-9.5,40.06,40.06,0,0,0,10.41-14.31A44,44,0,0,0,225,304.58q0-19.45-14.54-30.45t-44.52-11h-35v86.3Z"/><path class="cls-2" d="M548.9,242.09q0,34.78-8.58,63.17t-26.79,48.42q-18.19,20-46.58,30.9t-68,10.88H323V96.27h88.59q34.33,0,60.09,8.58t42.92,26.44q17.18,17.85,25.76,45.33T548.9,242.09Zm-60.43,3.66a217.26,217.26,0,0,0-3.89-43.27q-3.9-19-13.17-32.16a58.67,58.67,0,0,0-24.83-20q-15.57-6.87-38.69-6.87H379.28V348.3H404q41.43,0,62.95-24.72T488.47,245.75Z"/><rect class="cls-2" x="72.31" y="459.25" width="253.38" height="28.94"/><rect class="cls-3" x="9.77" y="9.77" width="593.06" height="593.06"/><circle class="cls-4" cx="75.05" cy="96.27" r="8.35"/><circle class="cls-5" cx="236.73" cy="95.21" r="5.4"/><line class="cls-1" x1="248.22" y1="114.12" x2="275.89" y2="130.8"/><line class="cls-1" x1="259.88" y1="247.54" x2="292.44" y2="267.09"/><circle class="cls-5" cx="275.89" cy="130.8" r="5.4"/><circle class="cls-5" cx="294.15" cy="268.12" r="5.4"/><circle class="cls-4" cx="75.05" cy="395.46" r="8.35"/><circle class="cls-4" cx="130.91" cy="349.44" r="8.35"/><circle class="cls-4" cx="130.91" cy="263.14" r="8.35"/><circle class="cls-4" cx="130.91" cy="140.91" r="8.35"/><circle class="cls-4" cx="72.31" cy="459.25" r="8.35"/><circle class="cls-4" cx="322.96" cy="395.46" r="8.35"/><circle class="cls-4" cx="322.96" cy="96.27" r="8.35"/><circle class="cls-4" cx="379.28" cy="143.42" r="8.35"/><circle class="cls-4" cx="379.28" cy="348.3" r="8.35"/><circle class="cls-4" cx="325.69" cy="459.25" r="8.35"/><circle class="cls-4" cx="325.69" cy="488.19" r="8.35"/><circle class="cls-4" cx="72.31" cy="488.19" r="8.35"/><circle class="cls-4" cx="130.91" cy="220.11" r="8.35"/><rect class="cls-6" x="242.14" y="108.39" width="11.93" height="11.93"/><rect class="cls-6" x="265.37" y="182.71" width="11.93" height="11.93"/><rect class="cls-6" x="254.07" y="241.14" width="11.93" height="11.93"/><line class="cls-1" x1="549.74" y1="242.14" x2="549.89" y2="115.25"/><circle class="cls-5" cx="549.89" cy="115.25" r="5.4"/><line class="cls-1" x1="550.12" y1="241.71" x2="548.9" y2="363.26"/><circle class="cls-5" cx="548.9" cy="363.26" r="5.4"/><rect class="cls-6" x="543.93" y="235.75" width="11.93" height="11.93"/><line class="cls-1" x1="487.69" y1="248.75" x2="487.78" y2="169.42"/><circle class="cls-5" cx="487.83" cy="171.48" r="5.4"/><line class="cls-1" x1="488.06" y1="248.32" x2="488.06" y2="329.59"/><circle class="cls-5" cx="488.06" cy="329.59" r="5.4"/><rect class="cls-6" x="481.87" y="242.35" width="11.93" height="11.93"/><rect class="cls-6" x="165.25" y="90.3" width="11.93" height="11.93"/><line class="cls-1" x1="435.58" y1="95.21" x2="495.14" y2="95.21"/><circle class="cls-5" cx="495.14" cy="95.21" r="5.4"/><rect class="cls-6" x="423.65" y="90.3" width="11.93" height="11.93"/><line class="cls-1" x1="435.58" y1="393.83" x2="495.14" y2="393.83"/><circle class="cls-5" cx="495.14" cy="393.83" r="5.4"/><rect class="cls-6" x="423.65" y="388.93" width="11.93" height="11.93"/><line class="cls-1" x1="419.4" y1="347.49" x2="478.95" y2="347.49"/><circle class="cls-5" cx="478.95" cy="347.49" r="5.4"/><rect class="cls-6" x="407.47" y="342.58" width="11.93" height="11.93"/><line class="cls-1" x1="422.66" y1="142.61" x2="482.22" y2="142.61"/><circle class="cls-5" cx="482.22" cy="142.61" r="5.4"/><rect class="cls-6" x="410.73" y="137.71" width="11.93" height="11.93"/><line class="cls-1" x1="177.18" y1="394.64" x2="236.73" y2="394.64"/><circle class="cls-5" cx="236.73" cy="394.64" r="5.4"/><rect class="cls-6" x="165.25" y="389.74" width="11.93" height="11.93"/><g class="cls-7"><path class="cls-5" d="M77.69,395.46V96.27h96.6q51,0,76.57,17.85t25.53,54A91,91,0,0,1,273.75,190a68.39,68.39,0,0,1-8.12,19.57,64.3,64.3,0,0,1-13.74,15.79,61.41,61.41,0,0,1-19.46,10.76,70,70,0,0,1,21.41,7.21,63.46,63.46,0,0,1,17.85,14,64.64,64.64,0,0,1,12.14,20.26,72.68,72.68,0,0,1,4.46,26.09q0,45.79-30.68,68.79t-88.58,23ZM217.78,178A41,41,0,0,0,215,162.65,28,28,0,0,0,206.22,151a43.29,43.29,0,0,0-15.56-7.44,87.4,87.4,0,0,0-23-2.63H133.54v79.2h34.11q13.74,0,23.24-3.32a41.91,41.91,0,0,0,15.56-9.16,33.84,33.84,0,0,0,8.7-13.39A49.13,49.13,0,0,0,217.78,178ZM172.92,349.44A74.18,74.18,0,0,0,196.61,346a48.91,48.91,0,0,0,17-9.5,40,40,0,0,0,10.42-14.31,44.13,44.13,0,0,0,3.55-17.62q0-19.45-14.54-30.45t-44.52-11h-35v86.3Z"/><path class="cls-5" d="M551.54,242.09q0,34.78-8.59,63.17t-26.78,48.42q-18.19,20-46.58,30.9t-68,10.88h-76V96.27h88.59q34.33,0,60.09,8.58t42.92,26.44q17.17,17.85,25.75,45.33T551.54,242.09Zm-60.43,3.66a216.47,216.47,0,0,0-3.9-43.27q-3.88-19-13.16-32.16a58.64,58.64,0,0,0-24.84-20q-15.57-6.87-38.68-6.87H381.91V348.3h24.73q41.43,0,62.95-24.72T491.11,245.75Z"/></g><rect class="cls-8" x="72.31" y="459.25" width="253.38" height="28.94"/></g></g></svg>