<svg width="1245" height="989" viewBox="0 0 1245 989" fill="none" xmlns="http://www.w3.org/2000/svg">
<path opacity="0.2" d="M834.161 432.879C838.985 430.092 842.996 428.46 846.196 427.983C849.396 427.478 851.795 428.107 853.395 429.87C855.019 431.619 855.831 434.496 855.831 438.499C855.831 440.99 855.468 443.468 854.741 445.932C854.013 448.396 852.971 450.831 851.614 453.239C850.28 455.605 848.681 457.929 846.814 460.212L862.303 478.011L846.014 487.423L834.743 471.595L831.107 473.696V496.036L816.745 504.334V442.942L834.161 432.879ZM833.943 445.561L831.107 447.199V461.225L833.797 459.67C836.003 458.395 837.809 456.792 839.215 454.86C840.621 452.928 841.324 450.52 841.324 447.637C841.324 445.649 840.742 444.432 839.579 443.984C838.415 443.536 836.537 444.062 833.943 445.561ZM884.846 416.57C888.846 414.259 892.3 413.075 895.209 413.018C898.118 412.933 900.36 414.045 901.935 416.354C903.511 418.663 904.299 422.239 904.299 427.082V434.389L878.883 449.073C879.005 451.495 879.804 453.076 881.283 453.818C882.786 454.545 884.992 454.069 887.9 452.388C890.47 450.903 892.821 449.251 894.954 447.431C897.112 445.596 899.33 443.405 901.608 440.857V452.656C899.62 455.009 897.451 457.144 895.1 459.062C892.748 460.981 889.779 462.976 886.192 465.049C882.047 467.444 878.338 468.733 875.066 468.916C871.793 469.099 869.212 467.945 867.321 465.454C865.455 462.949 864.521 458.883 864.521 453.256C864.521 447.545 865.37 442.366 867.066 437.718C868.763 433.043 871.139 428.941 874.193 425.412C877.247 421.856 880.798 418.908 884.846 416.57ZM885.355 427.445C883.683 428.412 882.277 429.84 881.138 431.73C880.023 433.578 879.368 435.86 879.174 438.575L891.391 431.517C891.367 430.131 891.124 428.997 890.664 428.116C890.203 427.234 889.525 426.716 888.628 426.563C887.755 426.395 886.664 426.689 885.355 427.445ZM932.441 389.07C937.652 386.059 941.725 385.204 944.658 386.505C947.591 387.778 949.057 391.172 949.057 396.687V427.887L939.204 433.58L936.477 428.857L936.186 429.025C935.022 431.377 933.823 433.442 932.586 435.22C931.374 436.956 929.981 438.517 928.405 439.903C926.829 441.318 924.902 442.683 922.624 443.999C920.248 445.372 918.115 446.044 916.225 446.017C914.334 445.99 912.843 445.157 911.752 443.52C910.662 441.883 910.116 439.328 910.116 435.857C910.116 430.762 911.643 426.1 914.697 421.872C917.752 417.644 922.175 413.702 927.969 410.047L934.841 405.825V405.153C934.841 403.025 934.38 401.779 933.459 401.416C932.562 401.038 931.35 401.291 929.823 402.173C928.199 403.111 926.381 404.498 924.369 406.332C922.381 408.124 920.382 410.119 918.37 412.318L914.261 403.858C916.637 401.085 919.327 398.467 922.333 396.002C925.339 393.538 928.708 391.227 932.441 389.07ZM934.913 414.811L931.641 416.87C929.023 418.494 927.181 420.09 926.114 421.658C925.072 423.184 924.551 424.815 924.551 426.551C924.551 428.175 924.927 429.161 925.678 429.511C926.43 429.833 927.423 429.637 928.66 428.922C930.381 427.928 931.847 426.451 933.059 424.491C934.295 422.517 934.913 420.522 934.913 418.506V414.811ZM977.49 412.299C973.321 414.708 969.697 415.947 966.619 416.018C963.541 416.061 961.153 414.781 959.456 412.178C957.784 409.534 956.947 405.398 956.947 399.771C956.947 394.004 957.881 388.747 959.747 384.002C961.638 379.242 964.219 375.049 967.492 371.422C970.764 367.796 974.473 364.785 978.618 362.391C981.139 360.934 983.526 359.876 985.78 359.218C988.059 358.545 990.168 358.209 992.107 358.208L987.926 372.76C986.229 372.872 984.641 373.104 983.163 373.454C981.708 373.762 980.193 374.372 978.618 375.282C977.187 376.109 975.927 377.271 974.836 378.769C973.745 380.267 972.897 382.073 972.291 384.187C971.685 386.272 971.382 388.659 971.382 391.347C971.382 394.09 971.685 396.127 972.291 397.456C972.921 398.772 973.782 399.492 974.873 399.618C975.988 399.729 977.26 399.372 978.69 398.546C980.751 397.355 982.799 395.808 984.835 393.904C986.895 391.957 988.847 389.794 990.689 387.414V400.474C988.992 402.742 987.077 404.87 984.944 406.858C982.811 408.847 980.327 410.66 977.49 412.299ZM1019.05 375.311C1020.33 374.569 1021.51 373.736 1022.58 372.812C1023.64 371.887 1024.76 370.851 1025.92 369.703V381.671C1024.37 383.351 1022.72 384.933 1020.98 386.418C1019.26 387.916 1017.05 389.442 1014.36 390.997C1011.69 392.537 1009.34 393.42 1007.31 393.645C1005.27 393.841 1003.68 393.079 1002.54 391.358C1001.43 389.594 1000.87 386.571 1000.87 382.288V362.677L995.888 365.555V358.879L1002.21 350.058L1005.89 337.942L1015.2 332.564V342.097L1025.3 336.256V348.56L1015.2 354.4V372.919C1015.2 374.459 1015.53 375.424 1016.21 375.816C1016.89 376.18 1017.84 376.011 1019.05 375.311ZM867.357 592.091L848.523 602.973L829.107 570.94L828.78 571.129C828.901 572.374 829.01 573.893 829.107 575.685C829.204 577.476 829.289 579.317 829.362 581.207C829.434 583.068 829.471 584.769 829.471 586.309V613.981L816.745 621.334V559.942L835.506 549.102L854.85 580.589L855.068 580.463C854.995 579.162 854.922 577.65 854.85 575.928C854.777 574.179 854.704 572.415 854.631 570.637C854.583 568.846 854.559 567.25 854.559 565.85V538.093L867.357 530.699V592.091ZM896.554 526.805C900.554 524.494 904.008 523.31 906.917 523.253C909.825 523.169 912.067 524.281 913.643 526.59C915.219 528.899 916.006 532.475 916.006 537.318V544.625L890.591 559.309C890.712 561.73 891.512 563.312 892.991 564.053C894.494 564.781 896.7 564.304 899.608 562.623C902.178 561.139 904.529 559.486 906.662 557.666C908.819 555.832 911.037 553.64 913.316 551.092V562.892C911.328 565.244 909.159 567.38 906.807 569.298C904.456 571.216 901.487 573.212 897.899 575.285C893.754 577.68 890.046 578.968 886.773 579.151C883.501 579.335 880.919 578.181 879.029 575.69C877.162 573.185 876.229 569.119 876.229 563.492C876.229 557.781 877.077 552.602 878.774 547.954C880.471 543.278 882.847 539.176 885.901 535.648C888.955 532.092 892.506 529.144 896.554 526.805ZM897.063 537.681C895.391 538.647 893.985 540.075 892.845 541.965C891.73 543.813 891.076 546.095 890.882 548.811L903.099 541.752C903.075 540.366 902.832 539.233 902.372 538.351C901.911 537.469 901.232 536.952 900.335 536.798C899.463 536.63 898.372 536.925 897.063 537.681ZM932.768 530.027L920.188 513.99L936.331 504.662L942.585 514.403L948.985 497.352L965.165 488.003L952.257 518.767L965.674 535.286L949.53 544.614L942.585 534.181L935.677 552.618L919.497 561.966L932.768 530.027ZM991.125 508.445C992.41 507.703 993.586 506.87 994.652 505.946C995.719 505.021 996.834 503.985 997.997 502.837V514.805C996.446 516.485 994.798 518.067 993.052 519.552C991.331 521.05 989.126 522.576 986.435 524.131C983.769 525.671 981.417 526.554 979.381 526.779C977.345 526.975 975.757 526.213 974.618 524.491C973.503 522.728 972.946 519.705 972.946 515.422V495.811L967.964 498.689V492.013L974.291 483.192L977.963 471.076L987.271 465.698V475.231L997.379 469.39V481.694L987.271 487.534V506.053C987.271 507.593 987.611 508.558 988.289 508.95C988.968 509.314 989.913 509.145 991.125 508.445ZM1003.41 506.51C1003.41 503.542 1004.17 501.022 1005.67 498.95C1007.2 496.864 1009.03 495.205 1011.16 493.972C1013.17 492.81 1014.92 492.404 1016.4 492.753C1017.87 493.102 1018.61 494.761 1018.61 497.728C1018.61 500.556 1017.87 503.027 1016.4 505.141C1014.92 507.255 1013.17 508.893 1011.16 510.055C1009.03 511.288 1007.2 511.715 1005.67 511.338C1004.17 510.947 1003.41 509.337 1003.41 506.51ZM1025.67 521.284C1024.53 521.942 1023.22 522.586 1021.74 523.217C1020.24 523.889 1019 524.365 1018.03 524.646V511.838C1018.81 511.642 1019.52 511.411 1020.18 511.144C1020.83 510.906 1021.57 510.549 1022.39 510.073C1023.56 509.401 1024.56 508.343 1025.41 506.901C1026.28 505.473 1026.72 503.318 1026.72 500.434V452.437L1040.94 444.223V495.664C1040.94 498.519 1040.45 501.501 1039.48 504.608C1038.51 507.744 1036.91 510.754 1034.68 513.638C1032.45 516.55 1029.45 519.099 1025.67 521.284ZM1026.36 440.805C1026.36 437.894 1027.08 435.528 1028.54 433.708C1030.02 431.874 1031.8 430.355 1033.88 429.15C1035.92 427.974 1037.69 427.441 1039.19 427.553C1040.72 427.65 1041.48 429.155 1041.48 432.066C1041.48 434.894 1040.72 437.253 1039.19 439.143C1037.69 440.991 1035.92 442.503 1033.88 443.68C1031.8 444.884 1030.02 445.423 1028.54 445.298C1027.08 445.13 1026.36 443.633 1026.36 440.805ZM1081.48 453.763C1081.48 456.787 1080.9 459.796 1079.73 462.792C1078.57 465.788 1076.7 468.686 1074.13 471.486C1071.59 474.273 1068.23 476.87 1064.06 479.279C1061.13 480.974 1058.5 482.311 1056.17 483.292C1053.87 484.259 1051.53 484.91 1049.16 485.247V472.103C1051.75 471.977 1054.39 471.444 1057.08 470.505C1059.77 469.538 1061.89 468.607 1063.44 467.711C1065.04 466.786 1066.21 465.918 1066.93 465.106C1067.69 464.252 1068.06 463.419 1068.06 462.607C1068.06 461.907 1067.81 461.466 1067.3 461.285C1066.81 461.061 1065.93 460.998 1064.64 461.096C1063.38 461.181 1061.6 461.342 1059.3 461.581C1057.02 461.806 1055.12 461.715 1053.59 461.31C1052.09 460.89 1050.96 460.002 1050.21 458.645C1049.46 457.287 1049.08 455.306 1049.08 452.703C1049.08 448.056 1050.63 443.66 1053.74 439.516C1056.84 435.372 1060.95 431.822 1066.06 428.867C1068.78 427.298 1071.33 426.171 1073.73 425.484C1076.13 424.769 1078.62 424.328 1081.19 424.159L1077.3 436.989C1075.26 437.101 1073.2 437.438 1071.12 437.999C1069.03 438.559 1067.37 439.197 1066.14 439.911C1065.02 440.555 1064.16 441.22 1063.55 441.906C1062.95 442.592 1062.64 443.257 1062.64 443.901C1062.64 444.489 1062.85 444.888 1063.26 445.098C1063.7 445.294 1064.51 445.342 1065.7 445.244C1066.89 445.146 1068.62 444.97 1070.9 444.717C1073.3 444.451 1075.27 444.513 1076.82 444.905C1078.4 445.254 1079.56 446.121 1080.32 447.507C1081.09 448.878 1081.48 450.964 1081.48 453.763ZM849.359 719.49L846.741 709.497L829.471 719.476L826.78 732.536L811 741.653L828.344 669.988L847.505 658.917L865.067 710.415L849.359 719.49ZM843.76 697.614L841.469 688.859C841.227 687.908 840.875 686.557 840.415 684.807C839.954 683.03 839.494 681.196 839.033 679.307C838.597 677.375 838.258 675.78 838.015 674.52C837.797 676.046 837.482 677.964 837.07 680.273C836.682 682.541 836.27 684.809 835.834 687.077C835.422 689.33 835.058 691.22 834.743 692.746L832.452 704.147L843.76 697.614ZM900.99 689.659L866.885 709.364V700L883.937 664.49L867.866 673.776V661.22L900.19 642.544V652.706L883.865 686.998L900.99 677.103V689.659ZM947.821 615.024V662.601L937.095 668.798L935.313 663.907L934.477 664.39C933.629 666.476 932.55 668.401 931.241 670.165C929.956 671.887 928.526 673.427 926.951 674.786C925.375 676.172 923.739 677.355 922.042 678.335C919.352 679.89 916.915 680.696 914.734 680.752C912.577 680.795 910.855 679.9 909.571 678.067C908.31 676.219 907.68 673.266 907.68 669.207V638.217L921.897 630.003V655.996C921.897 659.075 922.272 661.21 923.024 662.399C923.799 663.547 925.06 663.616 926.805 662.608C928.599 661.572 929.981 660.213 930.95 658.533C931.944 656.839 932.635 654.788 933.023 652.381C933.411 649.973 933.604 647.202 933.604 644.066V623.238L947.821 615.024ZM982.508 594.143C983.284 593.695 984.096 593.295 984.944 592.945C985.793 592.567 986.423 592.301 986.835 592.147L985.562 608.377C985.102 608.503 984.508 608.734 983.781 609.071C983.053 609.379 982.035 609.911 980.726 610.667C979.83 611.185 978.872 611.837 977.854 612.621C976.836 613.405 975.866 614.385 974.945 615.561C974.048 616.695 973.309 618.074 972.727 619.698C972.146 621.294 971.855 623.17 971.855 625.325V648.715L957.638 656.929V609.352L968.219 603.239L970.437 609.558L971.128 609.159C971.879 607.157 972.836 605.19 974 603.258C975.188 601.284 976.509 599.499 977.963 597.903C979.442 596.292 980.957 595.039 982.508 594.143ZM1011.16 577.589C1015.16 575.278 1018.61 574.094 1021.52 574.037C1024.43 573.952 1026.67 575.064 1028.25 577.373C1029.82 579.682 1030.61 583.258 1030.61 588.101V595.408L1005.2 610.093C1005.32 612.514 1006.12 614.095 1007.6 614.837C1009.1 615.564 1011.3 615.088 1014.21 613.407C1016.78 611.922 1019.13 610.27 1021.27 608.45C1023.42 606.615 1025.64 604.424 1027.92 601.876V613.676C1025.93 616.028 1023.76 618.163 1021.41 620.081C1019.06 622 1016.09 623.995 1012.5 626.068C1008.36 628.463 1004.65 629.752 1001.38 629.935C998.106 630.118 995.525 628.964 993.634 626.473C991.768 623.968 990.834 619.902 990.834 614.275C990.834 608.564 991.683 603.385 993.38 598.737C995.076 594.062 997.452 589.96 1000.51 586.431C1003.56 582.875 1007.11 579.928 1011.16 577.589ZM1011.67 588.464C1010 589.431 1008.59 590.859 1007.45 592.749C1006.34 594.597 1005.68 596.879 1005.49 599.594L1017.7 592.536C1017.68 591.15 1017.44 590.016 1016.98 589.135C1016.52 588.253 1015.84 587.735 1014.94 587.582C1014.07 587.414 1012.98 587.708 1011.67 588.464Z" fill="#F68523"/>
<g opacity="0.2">
<path d="M639.567 63.7094L625.068 55.654L666.081 31.0462L652.976 23.7658L664.607 16.7874L705.279 39.3831L693.649 46.3615L680.581 39.1015L639.567 63.7094ZM695.231 47.4904L710.355 55.8924L693.997 73.851C693.759 74.107 693.437 74.4135 693.031 74.7703C692.649 75.1127 692.218 75.47 691.739 75.8421C691.261 76.2141 690.77 76.5654 690.266 76.8958L690.56 77.059C691.666 76.5364 692.653 76.0999 693.52 75.7494C694.435 75.398 695.195 75.1263 695.798 74.9343L726.506 64.8654L741.153 73.0023L681.318 89.8999C676.733 91.1806 672.479 92.0216 668.558 92.423C664.638 92.8524 660.878 92.7191 657.278 92.0229C653.678 91.3547 650.055 90.0077 646.409 87.982C645.088 87.2478 644.022 86.5724 643.211 85.9558C642.401 85.3671 641.714 84.8325 641.148 84.3518L652.202 77.7191C652.645 78.0758 653.209 78.5005 653.897 78.9932C654.584 79.4859 655.355 79.9701 656.212 80.4459C657.803 81.3297 659.399 81.8562 661.002 82.0255C662.63 82.2084 664.278 82.167 665.946 81.9011C667.591 81.6497 669.234 81.3002 670.875 80.8528L671.382 80.7183L695.231 47.4904ZM772.267 89.4558C776.868 92.0117 778.665 95.1045 777.658 98.7341C776.676 102.349 772.788 106.195 765.995 110.271C761.362 113.051 756.8 115.024 752.31 116.191C747.844 117.344 743.656 117.764 739.747 117.451C735.887 117.137 732.501 116.171 729.589 114.553C727.631 113.466 726.207 112.397 725.317 111.348C724.451 110.312 723.925 109.327 723.74 108.391C723.579 107.47 723.565 106.616 723.697 105.83L723.257 105.585C722.443 106.215 721.533 106.874 720.526 107.563C719.544 108.265 718.332 109.049 716.892 109.913L701.985 118.857L687.632 110.884L746.145 75.7757L757.818 82.2608L754.652 86.4935L755.312 86.8606C757.054 86.6075 758.858 86.4864 760.725 86.4973C762.616 86.4938 764.523 86.7211 766.446 87.1792C768.418 87.6365 770.358 88.3953 772.267 89.4558ZM755.816 93.0906C754.421 92.3157 752.996 91.8983 751.54 91.8386C750.085 91.7788 748.513 92.043 746.826 92.6313C745.187 93.2187 743.371 94.0822 741.377 95.2216L740.261 95.8914C738.101 97.1877 736.448 98.3775 735.302 99.4608C734.18 100.53 733.651 101.526 733.715 102.449C733.803 103.358 734.581 104.22 736.049 105.036C737.248 105.702 738.588 106.058 740.068 106.103C741.547 106.148 743.227 105.847 745.108 105.2C746.988 104.552 749.128 103.508 751.529 102.068C755.106 99.922 757.161 98.1374 757.695 96.7142C758.253 95.3045 757.627 94.0967 755.816 93.0906ZM813.967 112.622C818.005 114.866 820.796 117.221 822.34 119.688C823.908 122.14 824.108 124.636 822.938 127.176C821.768 129.716 819.106 132.232 814.953 134.724L808.688 138.483L783.029 124.228C781.015 125.578 780.07 127.078 780.195 128.729C780.344 130.393 781.887 132.04 784.823 133.672C787.417 135.113 790.043 136.28 792.701 137.174C795.383 138.082 798.402 138.858 801.759 139.502L791.64 145.573C788.601 145.077 785.655 144.314 782.801 143.284C779.947 142.253 776.709 140.732 773.088 138.719C768.903 136.395 765.891 133.875 764.052 131.161C762.212 128.447 761.874 125.638 763.038 122.734C764.227 119.844 767.233 116.951 772.058 114.056C776.956 111.118 781.833 109.181 786.691 108.246C791.572 107.296 796.311 107.224 800.907 108.03C805.527 108.821 809.88 110.352 813.967 112.622ZM804.903 118.655C803.214 117.717 801.267 117.245 799.06 117.24C796.902 117.234 794.609 117.846 792.181 119.077L804.515 125.929C805.69 125.195 806.538 124.404 807.057 123.555C807.576 122.706 807.671 121.857 807.342 121.009C807.037 120.174 806.224 119.389 804.903 118.655ZM843.639 162.603C841.047 164.158 838.167 165.207 835 165.75C831.833 166.293 828.388 166.183 824.666 165.418C820.968 164.668 817.015 163.123 812.805 160.785C809.844 159.14 807.345 157.571 805.308 156.079C803.295 154.6 801.534 152.928 800.024 151.063L811.294 144.3C812.736 146.461 814.552 148.454 816.74 150.28C818.952 152.091 820.841 153.432 822.408 154.302C824.023 155.2 825.366 155.751 826.436 155.958C827.554 156.163 828.462 156.057 829.158 155.639C829.758 155.279 830.005 154.834 829.9 154.304C829.842 153.772 829.441 152.981 828.696 151.929C827.976 150.891 826.921 149.445 825.533 147.592C824.168 145.752 823.268 144.073 822.83 142.554C822.417 141.048 822.6 139.624 823.377 138.281C824.155 136.937 825.66 135.596 827.893 134.256C831.877 131.866 836.444 130.935 841.593 131.466C846.742 131.996 851.898 133.695 857.062 136.564C859.803 138.087 862.084 139.701 863.907 141.407C865.753 143.099 867.41 145.004 868.875 147.122L855.874 150.384C854.73 148.695 853.382 147.1 851.83 145.599C850.277 144.099 848.877 143.002 847.629 142.309C846.503 141.683 845.491 141.287 844.591 141.12C843.691 140.953 842.965 141.035 842.413 141.366C841.909 141.669 841.673 142.051 841.704 142.512C841.761 142.987 842.137 143.709 842.832 144.678C843.527 145.647 844.568 147.044 845.956 148.869C847.419 150.791 848.381 152.518 848.843 154.051C849.353 155.583 849.208 157.028 848.406 158.385C847.629 159.757 846.04 161.162 843.639 162.603ZM857.332 185.522C853.123 183.183 850.196 180.712 848.553 178.106C846.933 175.487 846.803 172.779 848.163 169.984C849.571 167.188 852.688 164.342 857.513 161.447C862.458 158.48 867.445 156.577 872.474 155.737C877.527 154.91 882.45 154.968 887.242 155.911C892.034 156.853 896.523 158.487 900.707 160.812C903.252 162.226 905.387 163.73 907.111 165.326C908.859 166.935 910.232 168.572 911.229 170.235L896.601 174.134C895.633 172.736 894.618 171.492 893.557 170.404C892.545 169.315 891.244 168.328 889.653 167.444C888.209 166.642 886.564 166.158 884.719 165.993C882.874 165.828 880.889 166.029 878.765 166.596C876.665 167.15 874.462 168.117 872.158 169.5C869.805 170.912 868.215 172.219 867.386 173.424C866.582 174.641 866.407 175.75 866.86 176.751C867.337 177.765 868.298 178.674 869.742 179.476C871.822 180.631 874.202 181.593 876.882 182.36C879.61 183.127 882.468 183.689 885.456 184.045L874.258 190.764C871.44 190.475 868.631 189.927 865.829 189.119C863.028 188.312 860.195 187.113 857.332 185.522ZM946.262 186.12C947.045 186.555 947.805 187.046 948.541 187.594C949.302 188.127 949.854 188.531 950.198 188.806L935.626 196.064C935.281 195.734 934.778 195.343 934.115 194.892C933.477 194.426 932.498 193.827 931.176 193.092C930.271 192.589 929.22 192.103 928.024 191.633C926.828 191.162 925.489 190.835 924.007 190.649C922.574 190.463 921.011 190.538 919.319 190.874C917.652 191.196 915.894 191.912 914.046 193.021L893.989 205.055L879.636 197.081L920.433 172.603L931.115 178.537L926.837 183.692L927.535 184.079C929.637 183.694 931.816 183.504 934.071 183.508C936.375 183.512 938.585 183.727 940.701 184.154C942.842 184.594 944.695 185.249 946.262 186.12ZM970.172 200.236L929.375 224.714L915.023 216.74L955.82 192.262L970.172 200.236ZM979.471 186.427C981.526 187.569 982.893 188.814 983.57 190.161C984.271 191.522 983.374 192.951 980.877 194.449C978.453 195.904 976.038 196.462 973.632 196.124C971.274 195.785 969.068 195.045 967.012 193.903C964.907 192.733 963.529 191.482 962.876 190.149C962.272 188.814 963.182 187.42 965.607 185.965C968.103 184.467 970.506 183.874 972.814 184.186C975.147 184.511 977.366 185.258 979.471 186.427ZM1006.32 219.483C1010.92 222.039 1012.71 225.132 1011.71 228.761C1010.72 232.376 1006.84 236.222 1000.04 240.298C995.41 243.078 990.849 245.051 986.359 246.218C981.892 247.371 977.705 247.791 973.796 247.478C969.936 247.164 966.55 246.198 963.638 244.581C961.68 243.493 960.256 242.424 959.366 241.375C958.5 240.339 957.974 239.354 957.789 238.419C957.628 237.497 957.614 236.643 957.746 235.857L957.306 235.612C956.492 236.242 955.582 236.901 954.575 237.59C953.592 238.292 952.381 239.076 950.941 239.94L936.033 248.884L921.681 240.911L980.194 205.803L991.867 212.288L988.7 216.521L989.361 216.888C991.103 216.635 992.907 216.514 994.774 216.524C996.665 216.521 998.572 216.748 1000.5 217.206C1002.47 217.664 1004.41 218.422 1006.32 219.483ZM989.865 223.118C988.47 222.343 987.045 221.925 985.589 221.866C984.133 221.806 982.562 222.07 980.875 222.658C979.236 223.246 977.42 224.109 975.426 225.249L974.31 225.918C972.149 227.215 970.496 228.405 969.351 229.488C968.229 230.557 967.7 231.553 967.764 232.476C967.852 233.385 968.63 234.247 970.098 235.063C971.297 235.729 972.637 236.085 974.116 236.13C975.596 236.175 977.276 235.874 979.156 235.227C981.037 234.579 983.177 233.536 985.578 232.095C989.155 229.949 991.21 228.164 991.744 226.741C992.302 225.332 991.676 224.124 989.865 223.118ZM1018.56 262.234C1019.85 262.954 1021.17 263.535 1022.51 263.974C1023.85 264.414 1025.32 264.838 1026.9 265.246L1016.64 271.403C1014.4 270.936 1012.19 270.336 1010.02 269.602C1007.85 268.896 1005.41 267.788 1002.69 266.279C1000 264.783 998.037 263.22 996.798 261.588C995.582 259.942 995.42 258.187 996.31 256.324C997.249 254.46 999.555 252.426 1003.23 250.222L1020.04 240.133L1015.01 237.339L1020.74 233.904L1031.56 234.795L1043.83 231.713L1053.23 236.933L1045.06 241.838L1055.26 247.507L1044.71 253.837L1034.51 248.168L1018.63 257.696C1017.31 258.488 1016.65 259.276 1016.67 260.06C1016.7 260.829 1017.33 261.554 1018.56 262.234ZM518.899 105.697C521.443 104.17 523.99 103.519 526.54 103.742C529.114 103.979 531.477 104.696 533.631 105.893C535.662 107.021 536.908 108.31 537.369 109.758C537.829 111.207 536.787 112.695 534.242 114.221C531.818 115.676 529.319 116.313 526.746 116.132C524.173 115.951 521.871 115.296 519.84 114.167C517.686 112.971 516.379 111.62 515.917 110.116C515.48 108.625 516.474 107.152 518.899 105.697ZM588.393 151.212L569.378 140.648L586.864 107.505L586.534 107.322C585.528 108.067 584.282 108.942 582.795 109.947C581.309 110.952 579.774 111.971 578.191 113.006C576.632 114.026 575.193 114.932 573.872 115.725L550.143 129.962L537.295 122.825L589.939 91.2383L608.88 101.761L591.825 134.561L592.045 134.683C593.124 133.951 594.383 133.111 595.821 132.163C597.284 131.2 598.759 130.23 600.246 129.253C601.758 128.29 603.114 127.448 604.314 126.728L628.115 112.447L641.036 119.626L588.393 151.212ZM631.855 175.357L599.992 157.656L652.636 126.07L684.498 143.771L673.084 150.62L655.721 140.974L647.439 145.943L663.517 154.875L652.103 161.724L636.025 152.792L626.086 158.755L643.449 168.401L631.855 175.357ZM664.928 193.732L650.429 185.676L691.442 161.069L678.337 153.788L689.968 146.81L730.64 169.405L719.009 176.384L705.941 169.124L664.928 193.732ZM770.827 204.339C769.114 203.387 767.224 202.754 765.158 202.438C763.116 202.108 760.945 202.081 758.647 202.358C756.348 202.634 753.97 203.213 751.511 204.094C749.101 204.974 746.672 206.149 744.224 207.618C740.911 209.606 738.554 211.514 737.154 213.344C735.755 215.174 735.347 216.917 735.932 218.574C736.542 220.244 738.168 221.813 740.811 223.281C743.21 224.614 745.834 225.697 748.685 226.532C751.56 227.38 754.579 228.156 757.743 228.86L745.716 236.076C742.31 235.376 739.131 234.47 736.179 233.357C733.251 232.257 730.392 230.933 727.602 229.383C721.778 226.147 718.134 222.819 716.671 219.399C715.256 215.977 715.684 212.568 717.955 209.169C720.251 205.784 724.063 202.493 729.392 199.295C733.377 196.904 737.589 195.028 742.027 193.665C746.49 192.317 751.035 191.527 755.662 191.296C760.313 191.05 764.914 191.429 769.464 192.431C774.064 193.433 778.455 195.096 782.64 197.421C785.234 198.862 787.663 200.558 789.926 202.509C792.237 204.458 794.115 206.584 795.56 208.884L779.92 213.136C778.874 211.501 777.66 209.939 776.278 208.449C774.895 206.96 773.078 205.59 770.827 204.339ZM815.742 243.689L808.592 246.707L817.512 251.662L808.366 257.15L797.72 251.236L780.925 258.174L771.087 252.709L787.846 245.75L781.679 242.324L764.994 249.324L755.193 243.879L771.915 236.899L763.655 232.311L772.802 226.823L782.859 232.411L790.047 229.414L781.31 224.56L790.672 218.943L801.207 224.796L817.858 217.86L827.695 223.325L810.972 230.22L817.065 233.606L833.715 226.67L843.553 232.135L826.866 239.051L835.272 243.721L825.91 249.338L815.742 243.689ZM792.66 237.856L798.717 241.221L805.904 238.224L799.811 234.838L792.66 237.856ZM394.489 178.519C392.849 177.608 391.501 176.762 390.446 175.982C389.342 175.202 388.433 174.503 387.72 173.885L398.774 167.252C399.413 167.774 400.089 168.329 400.802 168.92C401.491 169.524 402.349 170.112 403.377 170.683C405.115 171.649 406.809 172.187 408.459 172.3C410.134 172.426 411.864 172.18 413.648 171.562C415.432 170.945 417.368 170.009 419.456 168.756L468.175 139.525L482.748 147.621L435.253 176.118C429.972 179.286 424.94 181.373 420.156 182.376C415.372 183.38 410.84 183.512 406.561 182.771C402.281 182.03 398.257 180.613 394.489 178.519ZM502.713 171.57C507.974 174.493 510.801 177.547 511.194 180.734C511.61 183.905 509.454 186.91 504.725 189.747L477.971 205.8L468.023 200.273L470.672 195.503L470.378 195.34C467.763 195.551 465.375 195.584 463.215 195.438C461.103 195.291 459.048 194.898 457.049 194.26C455.026 193.635 452.865 192.684 450.564 191.406C448.166 190.074 446.493 188.589 445.544 186.953C444.596 185.316 444.543 183.608 445.386 181.83C446.229 180.052 448.139 178.269 451.116 176.483C455.485 173.862 460.267 172.774 465.463 173.22C470.659 173.665 476.314 175.433 482.426 178.524L489.58 182.249L490.156 181.903C491.981 180.809 492.812 179.773 492.65 178.795C492.513 177.831 491.674 176.921 490.132 176.064C488.492 175.153 486.369 174.307 483.761 173.524C481.203 172.74 478.464 172.051 475.544 171.455L480.686 163.577C484.285 164.189 487.913 165.151 491.572 166.462C495.231 167.773 498.944 169.476 502.713 171.57ZM481.912 186.935L478.464 185.186C475.725 183.775 473.409 183.015 471.516 182.907C469.672 182.798 468.005 183.19 466.517 184.083C465.125 184.918 464.472 185.748 464.558 186.573C464.669 187.383 465.348 188.135 466.596 188.828C468.334 189.794 470.354 190.292 472.658 190.324C474.986 190.369 477.015 189.873 478.743 188.836L481.912 186.935ZM498.638 217.281L523.577 183.993L538.554 192.313L521.476 210.704C521.334 210.875 520.904 211.274 520.187 211.902C519.495 212.544 518.764 213.095 517.996 213.556L518.253 213.699C519.069 213.209 519.935 212.788 520.851 212.437C521.766 212.086 522.477 211.815 522.983 211.624L554.558 201.205L569.498 209.505L512.844 225.173L498.638 217.281ZM595.51 223.124C600.772 226.047 603.599 229.101 603.991 232.288C604.408 235.459 602.251 238.464 597.522 241.301L570.768 257.354L560.821 251.827L563.469 247.057L563.175 246.894C560.56 247.105 558.173 247.138 556.012 246.992C553.9 246.845 551.845 246.453 549.846 245.814C547.824 245.189 545.662 244.238 543.362 242.96C540.963 241.628 539.29 240.143 538.341 238.507C537.393 236.87 537.34 235.163 538.183 233.384C539.027 231.606 540.937 229.823 543.913 228.037C548.282 225.416 553.065 224.328 558.261 224.774C563.456 225.219 569.111 226.987 575.224 230.078L582.377 233.803L582.954 233.457C584.778 232.363 585.609 231.327 585.448 230.349C585.31 229.385 584.471 228.475 582.929 227.618C581.289 226.707 579.166 225.861 576.559 225.078C574 224.294 571.261 223.605 568.341 223.009L573.484 215.131C577.082 215.743 580.711 216.705 584.369 218.016C588.028 219.328 591.742 221.03 595.51 223.124ZM574.709 238.489L571.261 236.74C568.522 235.329 566.206 234.57 564.314 234.461C562.469 234.352 560.803 234.744 559.314 235.637C557.922 236.472 557.269 237.302 557.356 238.127C557.466 238.937 558.145 239.689 559.393 240.382C561.131 241.348 563.152 241.846 565.455 241.878C567.784 241.923 569.812 241.427 571.54 240.39L574.709 238.489ZM623.971 272.431C621.379 273.987 618.499 275.036 615.332 275.579C612.165 276.122 608.72 276.011 604.998 275.247C601.3 274.496 597.347 272.952 593.137 270.613C590.176 268.968 587.677 267.399 585.64 265.907C583.627 264.428 581.866 262.756 580.356 260.891L591.626 254.129C593.069 256.289 594.884 258.282 597.072 260.108C599.284 261.92 601.174 263.261 602.74 264.131C604.355 265.028 605.698 265.58 606.768 265.786C607.886 265.991 608.794 265.885 609.49 265.468C610.09 265.108 610.337 264.662 610.232 264.132C610.174 263.601 609.773 262.809 609.028 261.757C608.308 260.719 607.253 259.273 605.865 257.42C604.501 255.58 603.6 253.901 603.162 252.382C602.749 250.877 602.932 249.452 603.709 248.109C604.487 246.766 605.992 245.424 608.225 244.085C612.209 241.694 616.776 240.764 621.925 241.294C627.074 241.824 632.23 243.524 637.394 246.392C640.135 247.915 642.416 249.529 644.239 251.235C646.086 252.927 647.742 254.832 649.207 256.95L636.206 260.212C635.062 258.523 633.714 256.928 632.162 255.428C630.609 253.927 629.209 252.83 627.961 252.137C626.835 251.511 625.823 251.115 624.923 250.948C624.023 250.781 623.297 250.863 622.745 251.195C622.241 251.497 622.005 251.879 622.037 252.341C622.093 252.816 622.469 253.538 623.164 254.506C623.859 255.475 624.9 256.872 626.288 258.697C627.751 260.619 628.713 262.347 629.175 263.879C629.685 265.411 629.54 266.856 628.738 268.214C627.961 269.585 626.372 270.991 623.971 272.431ZM637.664 295.35C633.455 293.012 630.528 290.54 628.885 287.935C627.265 285.315 627.135 282.608 628.495 279.812C629.903 277.016 633.02 274.171 637.845 271.276C642.79 268.309 647.777 266.405 652.806 265.565C657.859 264.739 662.782 264.797 667.574 265.739C672.366 266.681 676.855 268.315 681.039 270.64C683.584 272.054 685.719 273.559 687.443 275.154C689.191 276.764 690.564 278.4 691.561 280.064L676.934 283.962C675.965 282.564 674.95 281.321 673.889 280.232C672.877 279.143 671.576 278.156 669.985 277.273C668.541 276.47 666.896 275.987 665.051 275.821C663.206 275.656 661.221 275.857 659.097 276.425C656.997 276.978 654.794 277.946 652.49 279.329C650.137 280.74 648.547 282.048 647.718 283.252C646.914 284.47 646.739 285.579 647.192 286.579C647.669 287.594 648.63 288.502 650.074 289.304C652.154 290.46 654.534 291.421 657.214 292.189C659.942 292.956 662.8 293.517 665.788 293.873L654.59 300.592C651.772 300.303 648.963 299.755 646.161 298.947C643.36 298.14 640.527 296.941 637.664 295.35ZM726.594 295.948C727.377 296.383 728.137 296.874 728.873 297.422C729.634 297.956 730.186 298.36 730.53 298.634L715.958 305.892C715.613 305.562 715.11 305.171 714.447 304.72C713.809 304.255 712.83 303.655 711.508 302.921C710.603 302.418 709.552 301.931 708.356 301.461C707.16 300.991 705.821 300.663 704.339 300.478C702.906 300.291 701.343 300.367 699.652 300.703C697.984 301.025 696.226 301.74 694.378 302.849L674.321 314.883L659.968 306.909L700.765 282.431L711.447 288.365L707.169 293.52L707.867 293.907C709.969 293.522 712.148 293.332 714.403 293.336C716.707 293.34 718.917 293.555 721.033 293.982C723.174 294.423 725.027 295.078 726.594 295.948ZM750.504 310.064L709.707 334.542L695.355 326.568L736.152 302.09L750.504 310.064ZM759.803 296.256C761.858 297.398 763.225 298.642 763.902 299.989C764.603 301.35 763.706 302.779 761.209 304.277C758.785 305.732 756.37 306.29 753.964 305.952C751.606 305.613 749.4 304.873 747.344 303.731C745.239 302.562 743.861 301.31 743.208 299.977C742.604 298.643 743.514 297.248 745.939 295.794C748.435 294.296 750.838 293.703 753.146 294.014C755.479 294.339 757.698 295.087 759.803 296.256ZM786.648 329.311C791.248 331.867 793.046 334.96 792.039 338.59C791.057 342.205 787.169 346.05 780.375 350.126C775.742 352.906 771.181 354.88 766.691 356.047C762.224 357.199 758.037 357.619 754.128 357.306C750.268 356.993 746.882 356.027 743.97 354.409C742.012 353.321 740.588 352.253 739.698 351.203C738.832 350.168 738.306 349.182 738.121 348.247C737.96 347.325 737.946 346.471 738.078 345.685L737.638 345.44C736.824 346.07 735.914 346.729 734.907 347.418C733.924 348.121 732.713 348.904 731.273 349.768L716.365 358.713L702.013 350.739L760.526 315.631L772.199 322.116L769.033 326.349L769.693 326.716C771.435 326.463 773.239 326.342 775.106 326.353C776.997 326.349 778.904 326.577 780.827 327.035C782.799 327.492 784.739 328.251 786.648 329.311ZM770.197 332.946C768.802 332.171 767.377 331.754 765.921 331.694C764.465 331.634 762.894 331.898 761.207 332.487C759.568 333.074 757.752 333.938 755.758 335.077L754.642 335.747C752.481 337.043 750.828 338.233 749.683 339.316C748.561 340.385 748.032 341.381 748.096 342.304C748.184 343.213 748.962 344.075 750.43 344.891C751.629 345.557 752.969 345.913 754.448 345.958C755.928 346.004 757.608 345.703 759.488 345.055C761.369 344.408 763.509 343.364 765.91 341.924C769.487 339.777 771.542 337.993 772.076 336.57C772.634 335.16 772.008 333.952 770.197 332.946ZM798.889 372.062C800.186 372.783 801.504 373.363 802.845 373.803C804.186 374.242 805.648 374.666 807.231 375.074L796.968 381.231C794.73 380.764 792.526 380.164 790.356 379.43C788.186 378.724 785.743 377.616 783.027 376.107C780.335 374.612 778.369 373.048 777.13 371.416C775.914 369.77 775.752 368.016 776.642 366.152C777.581 364.288 779.887 362.254 783.559 360.051L800.375 349.961L795.346 347.167L801.071 343.732L811.888 344.623L824.165 341.541L833.562 346.762L825.388 351.666L835.593 357.335L825.043 363.666L814.838 357.996L798.958 367.524C797.638 368.316 796.985 369.104 796.998 369.888C797.035 370.658 797.665 371.382 798.889 372.062Z" fill="#F68523"/>
</g>
<rect x="6.74805" y="720.425" width="14.8458" height="22.2687" fill="#012662"/>
<rect x="699.104" y="793.98" width="14.8458" height="22.2687" fill="#012662"/>
<rect x="309.738" y="833.793" width="14.8458" height="22.2687" fill="#012662"/>
<rect x="699.104" y="793.98" width="14.8458" height="22.2687" fill="#012662"/>
<path d="M290.36 572.866C293.457 571.058 297.285 571.047 300.392 572.836L705.825 806.333C712.465 810.158 712.514 819.723 705.912 823.614L430.366 986.031C427.255 987.865 423.396 987.879 420.272 986.067L14.8688 750.979C8.23506 747.132 8.22133 737.558 14.844 733.692L290.36 572.866Z" fill="#012662"/>
<path d="M290.36 551.947C293.457 550.139 297.285 550.128 300.392 551.917L705.825 785.414C712.465 789.239 712.514 798.804 705.912 802.695L430.366 965.112C427.255 966.946 423.396 966.96 420.272 965.148L14.8688 730.06C8.23506 726.213 8.22133 716.639 14.844 712.773L290.36 551.947Z" fill="#AFC2EA"/>
<path d="M290.36 572.866C293.457 571.058 297.285 571.047 300.392 572.836L705.825 806.333C712.465 810.158 712.514 819.723 705.912 823.614L430.366 986.031C427.255 987.865 423.396 987.879 420.272 986.067L14.8688 750.979C8.23506 747.132 8.22133 737.558 14.844 733.692L290.36 572.866Z" fill="#012662"/>
<path d="M290.36 551.947C293.457 550.139 297.285 550.128 300.392 551.917L705.825 785.414C712.465 789.239 712.514 798.804 705.912 802.695L430.366 965.112C427.255 966.946 423.396 966.96 420.272 965.148L14.8688 730.06C8.23506 726.213 8.22133 716.639 14.844 712.773L290.36 551.947Z" fill="#AFC2EA"/>
<path d="M406.911 677.912L432.892 693.096L410.96 705.917L384.643 690.734L406.911 677.912Z" fill="#002C84"/>
<path d="M279.372 604.358L305.352 619.541L283.421 632.363L257.104 617.179L279.372 604.358Z" fill="#002C84"/>
<path d="M395.439 702.206L421.419 717.389L399.488 730.21L373.17 715.027L395.439 702.206Z" fill="#002C84"/>
<path d="M361.698 715.702L387.679 730.885L365.747 743.706L339.43 728.523L361.698 715.702Z" fill="#002C84"/>
<path d="M352.925 742.694L378.905 757.878L356.974 770.699L330.656 755.516L352.925 742.694Z" fill="#002C84"/>
<path d="M342.128 640.798L368.108 655.981L346.177 668.802L319.859 653.619L342.128 640.798Z" fill="#002C84"/>
<path d="M330.657 665.091L356.638 680.274L334.706 693.096L308.389 677.912L330.657 665.091Z" fill="#002C84"/>
<path d="M296.917 678.587L322.897 693.77L300.966 706.592L274.648 691.409L296.917 678.587Z" fill="#002C84"/>
<path d="M288.144 705.58L314.124 720.763L292.193 733.584L265.875 718.401L288.144 705.58Z" fill="#002C84"/>
<path d="M247.655 713.677L273.636 728.86L251.704 741.682L225.387 726.499L247.655 713.677Z" fill="#002C84"/>
<path d="M437.277 824.346L463.257 839.529L441.325 852.351L415.008 837.168L437.277 824.346Z" fill="#002C84"/>
<path d="M469.667 714.352L495.647 729.535L473.716 742.357L447.398 727.173L469.667 714.352Z" fill="#002C84"/>
<path d="M458.196 738.646L484.177 753.829L462.245 766.65L435.928 751.467L458.196 738.646Z" fill="#002C84"/>
<path d="M424.456 752.142L450.436 767.325L428.505 780.146L402.188 764.963L424.456 752.142Z" fill="#002C84"/>
<path d="M415.683 779.134L441.663 794.317L419.732 807.138L393.414 791.955L415.683 779.134Z" fill="#002C84"/>
<path d="M564.142 768.337L590.122 783.52L568.191 796.342L541.873 781.158L564.142 768.337Z" fill="#002C84"/>
<path d="M311.087 623.253L337.067 638.436L315.136 651.257L288.818 636.074L311.087 623.253Z" fill="#002C84"/>
<path d="M299.616 647.546L325.597 662.729L303.665 675.551L277.348 660.367L299.616 647.546Z" fill="#002C84"/>
<path d="M252.38 620.553L293.206 644.509L271.275 657.331L230.111 633.375L252.38 620.553Z" fill="#002C84"/>
<path d="M224.036 637.424L259.112 657.331L237.181 670.152L201.768 650.245L224.036 637.424Z" fill="#002C84"/>
<path d="M169.378 669.14L209.529 692.758L187.598 705.58L147.109 681.961L169.378 669.14Z" fill="#002C84"/>
<path d="M197.044 652.944L251.366 684.66L229.435 697.482L174.775 665.766L197.044 652.944Z" fill="#002C84"/>
<path d="M519.941 807.139L565.476 834.131L543.545 846.952L497.672 819.96L519.941 807.139Z" fill="#002C84"/>
<path d="M553.007 794.655L594.156 817.598L572.225 830.42L530.738 807.476L553.007 794.655Z" fill="#002C84"/>
<path d="M470.343 842.566L510.494 866.185L488.563 879.006L448.074 855.388L470.343 842.566Z" fill="#002C84"/>
<path d="M479.452 816.586L537.486 849.989L515.555 862.81L457.184 829.407L479.452 816.586Z" fill="#002C84"/>
<path d="M257.103 688.035L283.083 703.218L261.152 716.039L234.834 700.856L257.103 688.035Z" fill="#002C84"/>
<path d="M265.876 661.042L291.856 676.225L269.925 689.047L243.607 673.863L265.876 661.042Z" fill="#002C84"/>
<path d="M216.614 696.132L242.595 711.316L220.663 724.137L194.346 708.954L216.614 696.132Z" fill="#002C84"/>
<path d="M406.236 806.801L432.216 821.985L410.284 834.806L383.967 819.623L406.236 806.801Z" fill="#002C84"/>
<path d="M279.708 732.572L399.824 802.415L377.893 815.237L257.439 745.394L279.708 732.572Z" fill="#002C84"/>
<path d="M438.626 696.807L464.606 711.99L442.675 724.812L416.357 709.629L438.626 696.807Z" fill="#002C84"/>
<path d="M427.155 721.1L453.136 736.283L431.204 749.105L404.887 733.921L427.155 721.1Z" fill="#002C84"/>
<path d="M393.415 734.597L419.395 749.78L397.464 762.601L371.146 747.418L393.415 734.597Z" fill="#002C84"/>
<path d="M384.642 761.589L410.622 776.772L388.691 789.593L362.373 774.41L384.642 761.589Z" fill="#002C84"/>
<path d="M533.101 750.792L559.081 765.975L537.15 778.797L510.832 763.613L533.101 750.792Z" fill="#002C84"/>
<path d="M521.628 775.085L547.608 790.268L525.677 803.09L499.359 787.906L521.628 775.085Z" fill="#002C84"/>
<path d="M487.888 788.581L513.868 803.764L491.937 816.586L465.619 801.402L487.888 788.581Z" fill="#002C84"/>
<path d="M373.845 659.692L399.825 674.876L377.894 687.697L351.576 672.514L373.845 659.692Z" fill="#002C84"/>
<path d="M362.372 683.986L388.352 699.169L366.421 711.99L340.104 696.807L362.372 683.986Z" fill="#002C84"/>
<path d="M328.632 697.482L354.612 712.665L332.681 725.487L306.363 710.303L328.632 697.482Z" fill="#002C84"/>
<path d="M319.861 724.474L345.841 739.657L323.909 752.479L297.592 737.296L319.861 724.474Z" fill="#002C84"/>
<path d="M501.384 733.247L527.364 748.43L505.433 761.252L479.115 746.068L501.384 733.247Z" fill="#002C84"/>
<path d="M489.913 757.54L515.893 772.723L493.962 785.545L467.645 770.361L489.913 757.54Z" fill="#002C84"/>
<path d="M456.171 771.036L482.151 786.219L460.22 799.041L433.902 783.858L456.171 771.036Z" fill="#002C84"/>
<path d="M447.4 798.029L473.38 813.212L451.448 826.033L425.131 810.85L447.4 798.029Z" fill="#002C84"/>
<path d="M595.859 787.231L621.839 802.415L599.907 815.236L573.59 800.053L595.859 787.231Z" fill="#002C84"/>
<path d="M293.88 595.854C294.504 595.476 295.285 595.468 295.917 595.833L635.009 791.894C636.347 792.667 636.339 794.603 634.993 795.365L628.903 798.816C628.288 799.165 627.535 799.163 626.922 798.811L286.7 603.676C285.378 602.918 285.356 601.02 286.658 600.231L293.88 595.854Z" fill="#002C84"/>
<path d="M358.073 202.369C359.17 195.441 366.873 191.766 372.948 195.272L785.245 433.223C788.839 435.297 790.779 439.375 790.12 443.472L735.501 782.935C734.384 789.876 726.644 793.528 720.577 789.978L309.558 549.436C306.004 547.356 304.088 543.309 304.732 539.242L358.073 202.369Z" fill="url(#paint0_linear_218_29078)"/>
<path d="M349.639 206.755C350.736 199.827 358.44 196.152 364.515 199.658L776.812 437.609C780.406 439.683 782.345 443.761 781.686 447.858L727.067 787.322C725.95 794.262 718.21 797.914 712.143 794.364L301.125 553.823C297.57 551.742 295.654 547.696 296.299 543.628L349.639 206.755Z" fill="#002C84"/>
<rect x="699.104" y="793.98" width="14.8458" height="22.2687" fill="#012662"/>
<rect x="309.738" y="833.793" width="14.8458" height="22.2687" fill="#012662"/>
<path d="M290.36 572.866C293.457 571.058 297.285 571.047 300.392 572.836L705.825 806.333C712.465 810.158 712.514 819.723 705.912 823.614L430.366 986.031C427.255 987.865 423.396 987.879 420.272 986.067L14.8688 750.979C8.23506 747.132 8.22133 737.558 14.844 733.692L290.36 572.866Z" fill="#012662"/>
<path d="M290.36 551.947C293.457 550.139 297.285 550.128 300.392 551.917L705.825 785.414C712.465 789.239 712.514 798.804 705.912 802.695L430.366 965.112C427.255 966.946 423.396 966.96 420.272 965.148L14.8688 730.06C8.23506 726.213 8.22133 716.639 14.844 712.773L290.36 551.947Z" fill="#AFC2EA"/>
<path d="M406.911 677.912L432.892 693.096L410.96 705.917L384.643 690.734L406.911 677.912Z" fill="#002C84"/>
<path d="M279.372 604.358L305.352 619.541L283.421 632.363L257.104 617.179L279.372 604.358Z" fill="#002C84"/>
<path d="M395.439 702.206L421.419 717.389L399.488 730.21L373.17 715.027L395.439 702.206Z" fill="#002C84"/>
<path d="M361.698 715.702L387.679 730.885L365.747 743.706L339.43 728.523L361.698 715.702Z" fill="#002C84"/>
<path d="M352.925 742.694L378.905 757.878L356.974 770.699L330.656 755.516L352.925 742.694Z" fill="#002C84"/>
<path d="M342.128 640.798L368.108 655.981L346.177 668.802L319.859 653.619L342.128 640.798Z" fill="#002C84"/>
<path d="M330.657 665.091L356.638 680.274L334.706 693.096L308.389 677.912L330.657 665.091Z" fill="#002C84"/>
<path d="M296.917 678.587L322.897 693.77L300.966 706.592L274.648 691.409L296.917 678.587Z" fill="#002C84"/>
<path d="M288.144 705.58L314.124 720.763L292.193 733.584L265.875 718.401L288.144 705.58Z" fill="#002C84"/>
<path d="M247.655 713.677L273.636 728.86L251.704 741.682L225.387 726.499L247.655 713.677Z" fill="#002C84"/>
<path d="M437.277 824.346L463.257 839.529L441.325 852.351L415.008 837.168L437.277 824.346Z" fill="#002C84"/>
<path d="M469.667 714.352L495.647 729.535L473.716 742.357L447.398 727.173L469.667 714.352Z" fill="#002C84"/>
<path d="M458.196 738.646L484.177 753.829L462.245 766.65L435.928 751.467L458.196 738.646Z" fill="#002C84"/>
<path d="M424.456 752.142L450.436 767.325L428.505 780.146L402.188 764.963L424.456 752.142Z" fill="#002C84"/>
<path d="M415.683 779.134L441.663 794.317L419.732 807.138L393.414 791.955L415.683 779.134Z" fill="#002C84"/>
<path d="M564.142 768.337L590.122 783.52L568.191 796.342L541.873 781.158L564.142 768.337Z" fill="#002C84"/>
<path d="M311.087 623.253L337.067 638.436L315.136 651.257L288.818 636.074L311.087 623.253Z" fill="#002C84"/>
<path d="M299.616 647.546L325.597 662.729L303.665 675.551L277.348 660.367L299.616 647.546Z" fill="#002C84"/>
<path d="M252.38 620.553L293.206 644.509L271.275 657.331L230.111 633.375L252.38 620.553Z" fill="#002C84"/>
<path d="M224.036 637.424L259.112 657.331L237.181 670.152L201.768 650.245L224.036 637.424Z" fill="#002C84"/>
<path d="M197.044 652.944L251.366 684.66L229.435 697.482L174.775 665.766L197.044 652.944Z" fill="#002C84"/>
<path d="M519.941 807.139L565.476 834.131L543.545 846.952L497.672 819.96L519.941 807.139Z" fill="#002C84"/>
<path d="M553.007 794.655L594.156 817.598L572.225 830.42L530.738 807.476L553.007 794.655Z" fill="#002C84"/>
<path d="M470.343 842.566L510.494 866.185L488.563 879.006L448.074 855.388L470.343 842.566Z" fill="#002C84"/>
<path d="M479.452 816.586L537.486 849.989L515.555 862.81L457.184 829.407L479.452 816.586Z" fill="#002C84"/>
<path d="M257.103 688.035L283.083 703.218L261.152 716.039L234.834 700.856L257.103 688.035Z" fill="#002C84"/>
<path d="M265.876 661.042L291.856 676.225L269.925 689.047L243.607 673.863L265.876 661.042Z" fill="#002C84"/>
<path d="M216.614 696.132L242.595 711.316L220.663 724.137L194.346 708.954L216.614 696.132Z" fill="#002C84"/>
<path d="M406.236 806.801L432.216 821.985L410.284 834.806L383.967 819.623L406.236 806.801Z" fill="#002C84"/>
<path d="M279.708 732.572L399.824 802.415L377.893 815.237L257.439 745.394L279.708 732.572Z" fill="#002C84"/>
<path d="M438.626 696.807L464.606 711.99L442.675 724.812L416.357 709.629L438.626 696.807Z" fill="#002C84"/>
<path d="M427.155 721.1L453.136 736.283L431.204 749.105L404.887 733.921L427.155 721.1Z" fill="#002C84"/>
<path d="M393.415 734.597L419.395 749.78L397.464 762.601L371.146 747.418L393.415 734.597Z" fill="#002C84"/>
<path d="M384.642 761.589L410.622 776.772L388.691 789.593L362.373 774.41L384.642 761.589Z" fill="#002C84"/>
<path d="M533.101 750.792L559.081 765.975L537.15 778.797L510.832 763.613L533.101 750.792Z" fill="#002C84"/>
<path d="M521.628 775.085L547.608 790.268L525.677 803.09L499.359 787.906L521.628 775.085Z" fill="#002C84"/>
<path d="M487.888 788.581L513.868 803.764L491.937 816.586L465.619 801.402L487.888 788.581Z" fill="#002C84"/>
<path d="M373.845 659.692L399.825 674.876L377.894 687.697L351.576 672.514L373.845 659.692Z" fill="#002C84"/>
<path d="M362.372 683.986L388.352 699.169L366.421 711.99L340.104 696.807L362.372 683.986Z" fill="#002C84"/>
<path d="M328.632 697.482L354.612 712.665L332.681 725.487L306.363 710.303L328.632 697.482Z" fill="#002C84"/>
<path d="M319.861 724.474L345.841 739.657L323.909 752.479L297.592 737.296L319.861 724.474Z" fill="#002C84"/>
<path d="M501.384 733.247L527.364 748.43L505.433 761.252L479.115 746.068L501.384 733.247Z" fill="#002C84"/>
<path d="M489.913 757.54L515.893 772.723L493.962 785.545L467.645 770.361L489.913 757.54Z" fill="#002C84"/>
<path d="M456.171 771.036L482.151 786.219L460.22 799.041L433.902 783.858L456.171 771.036Z" fill="#002C84"/>
<path d="M447.4 798.029L473.38 813.212L451.448 826.033L425.131 810.85L447.4 798.029Z" fill="#002C84"/>
<path d="M595.859 787.231L621.839 802.415L599.907 815.236L573.59 800.053L595.859 787.231Z" fill="#002C84"/>
<path d="M293.88 595.854C294.504 595.476 295.285 595.468 295.917 595.833L635.009 791.894C636.347 792.667 636.339 794.603 634.993 795.365L628.903 798.816C628.288 799.165 627.535 799.163 626.922 798.811L286.7 603.676C285.378 602.918 285.356 601.02 286.658 600.231L293.88 595.854Z" fill="#002C84"/>
<path d="M358.073 202.369C359.17 195.441 366.873 191.766 372.948 195.272L785.245 433.223C788.839 435.297 790.779 439.375 790.12 443.472L735.501 782.935C734.384 789.876 726.644 793.528 720.577 789.978L309.558 549.436C306.004 547.356 304.088 543.309 304.732 539.242L358.073 202.369Z" fill="url(#paint1_linear_218_29078)"/>
<path d="M349.639 206.755C350.736 199.827 358.44 196.152 364.515 199.658L776.812 437.609C780.406 439.683 782.345 443.761 781.686 447.858L727.067 787.322C725.95 794.262 718.21 797.914 712.143 794.364L301.125 553.823C297.57 551.742 295.654 547.696 296.299 543.628L349.639 206.755Z" fill="#002C84"/>
<rect x="6.74805" y="720.425" width="14.8458" height="22.2687" fill="#012662"/>
<rect x="699.104" y="793.98" width="14.8458" height="22.2687" fill="#012662"/>
<rect x="309.738" y="833.793" width="14.8458" height="22.2687" fill="#012662"/>
<path d="M290.36 572.866C293.457 571.058 297.285 571.047 300.392 572.836L705.825 806.333C712.465 810.158 712.514 819.723 705.912 823.614L430.366 986.031C427.255 987.865 423.396 987.879 420.272 986.067L14.8688 750.979C8.23506 747.132 8.22133 737.558 14.844 733.692L290.36 572.866Z" fill="#012662"/>
<path d="M290.36 551.947C293.457 550.139 297.285 550.128 300.392 551.917L705.825 785.414C712.465 789.239 712.514 798.804 705.912 802.695L430.366 965.112C427.255 966.946 423.396 966.96 420.272 965.148L14.8688 730.06C8.23506 726.213 8.22133 716.639 14.844 712.773L290.36 551.947Z" fill="#AFC2EA"/>
<path d="M406.911 677.912L432.892 693.096L410.96 705.917L384.643 690.734L406.911 677.912Z" fill="#002C84"/>
<path d="M279.372 604.358L305.352 619.541L283.421 632.363L257.104 617.179L279.372 604.358Z" fill="#002C84"/>
<path d="M395.439 702.206L421.419 717.389L399.488 730.21L373.17 715.027L395.439 702.206Z" fill="#002C84"/>
<path d="M361.698 715.702L387.679 730.885L365.747 743.706L339.43 728.523L361.698 715.702Z" fill="#002C84"/>
<path d="M352.925 742.694L378.905 757.878L356.974 770.699L330.656 755.516L352.925 742.694Z" fill="#002C84"/>
<path d="M342.128 640.798L368.108 655.981L346.177 668.802L319.859 653.619L342.128 640.798Z" fill="#002C84"/>
<path d="M330.657 665.091L356.638 680.274L334.706 693.096L308.389 677.912L330.657 665.091Z" fill="#002C84"/>
<path d="M296.917 678.587L322.897 693.77L300.966 706.592L274.648 691.409L296.917 678.587Z" fill="#002C84"/>
<path d="M288.144 705.58L314.124 720.763L292.193 733.584L265.875 718.401L288.144 705.58Z" fill="#002C84"/>
<path d="M247.655 713.677L273.636 728.86L251.704 741.682L225.387 726.499L247.655 713.677Z" fill="#002C84"/>
<path d="M437.277 824.346L463.257 839.529L441.325 852.351L415.008 837.168L437.277 824.346Z" fill="#002C84"/>
<path d="M469.667 714.352L495.647 729.535L473.716 742.357L447.398 727.173L469.667 714.352Z" fill="#002C84"/>
<path d="M458.196 738.646L484.177 753.829L462.245 766.65L435.928 751.467L458.196 738.646Z" fill="#002C84"/>
<path d="M424.456 752.142L450.436 767.325L428.505 780.146L402.188 764.963L424.456 752.142Z" fill="#002C84"/>
<path d="M415.683 779.134L441.663 794.317L419.732 807.138L393.414 791.955L415.683 779.134Z" fill="#002C84"/>
<path d="M564.142 768.337L590.122 783.52L568.191 796.342L541.873 781.158L564.142 768.337Z" fill="#002C84"/>
<path d="M311.087 623.253L337.067 638.436L315.136 651.257L288.818 636.074L311.087 623.253Z" fill="#002C84"/>
<path d="M299.616 647.546L325.597 662.729L303.665 675.551L277.348 660.367L299.616 647.546Z" fill="#002C84"/>
<path d="M252.38 620.553L293.206 644.509L271.275 657.331L230.111 633.375L252.38 620.553Z" fill="#002C84"/>
<path d="M224.036 637.424L259.112 657.331L237.181 670.152L201.768 650.245L224.036 637.424Z" fill="#002C84"/>
<path d="M169.378 669.14L209.529 692.758L187.598 705.58L147.109 681.961L169.378 669.14Z" fill="#002C84"/>
<path d="M197.044 652.944L251.366 684.66L229.435 697.482L174.775 665.766L197.044 652.944Z" fill="#002C84"/>
<path d="M519.941 807.139L565.476 834.131L543.545 846.952L497.672 819.96L519.941 807.139Z" fill="#002C84"/>
<path d="M553.007 794.655L594.156 817.598L572.225 830.42L530.738 807.476L553.007 794.655Z" fill="#002C84"/>
<path d="M470.343 842.566L510.494 866.185L488.563 879.006L448.074 855.388L470.343 842.566Z" fill="#002C84"/>
<path d="M479.452 816.586L537.486 849.989L515.555 862.81L457.184 829.407L479.452 816.586Z" fill="#002C84"/>
<path d="M257.103 688.035L283.083 703.218L261.152 716.039L234.834 700.856L257.103 688.035Z" fill="#002C84"/>
<path d="M265.876 661.042L291.856 676.225L269.925 689.047L243.607 673.863L265.876 661.042Z" fill="#002C84"/>
<path d="M216.614 696.132L242.595 711.316L220.663 724.137L194.346 708.954L216.614 696.132Z" fill="#002C84"/>
<path d="M406.236 806.801L432.216 821.985L410.284 834.806L383.967 819.623L406.236 806.801Z" fill="#002C84"/>
<path d="M279.708 732.572L399.824 802.415L377.893 815.237L257.439 745.394L279.708 732.572Z" fill="#002C84"/>
<path d="M438.626 696.807L464.606 711.99L442.675 724.812L416.357 709.629L438.626 696.807Z" fill="#002C84"/>
<path d="M427.155 721.1L453.136 736.283L431.204 749.105L404.887 733.921L427.155 721.1Z" fill="#002C84"/>
<path d="M393.415 734.597L419.395 749.78L397.464 762.601L371.146 747.418L393.415 734.597Z" fill="#002C84"/>
<path d="M384.642 761.589L410.622 776.772L388.691 789.593L362.373 774.41L384.642 761.589Z" fill="#002C84"/>
<path d="M533.101 750.792L559.081 765.975L537.15 778.797L510.832 763.613L533.101 750.792Z" fill="#002C84"/>
<path d="M521.628 775.085L547.608 790.268L525.677 803.09L499.359 787.906L521.628 775.085Z" fill="#002C84"/>
<path d="M487.888 788.581L513.868 803.764L491.937 816.586L465.619 801.402L487.888 788.581Z" fill="#002C84"/>
<path d="M373.845 659.692L399.825 674.876L377.894 687.697L351.576 672.514L373.845 659.692Z" fill="#002C84"/>
<path d="M362.372 683.986L388.352 699.169L366.421 711.99L340.104 696.807L362.372 683.986Z" fill="#002C84"/>
<path d="M328.632 697.482L354.612 712.665L332.681 725.487L306.363 710.303L328.632 697.482Z" fill="#002C84"/>
<path d="M319.861 724.474L345.841 739.657L323.909 752.479L297.592 737.296L319.861 724.474Z" fill="#002C84"/>
<path d="M501.384 733.247L527.364 748.43L505.433 761.252L479.115 746.068L501.384 733.247Z" fill="#002C84"/>
<path d="M489.913 757.54L515.893 772.723L493.962 785.545L467.645 770.361L489.913 757.54Z" fill="#002C84"/>
<path d="M456.171 771.036L482.151 786.219L460.22 799.041L433.902 783.858L456.171 771.036Z" fill="#002C84"/>
<path d="M447.4 798.029L473.38 813.212L451.448 826.033L425.131 810.85L447.4 798.029Z" fill="#002C84"/>
<path d="M595.859 787.231L621.839 802.415L599.907 815.236L573.59 800.053L595.859 787.231Z" fill="#002C84"/>
<path d="M293.88 595.854C294.504 595.476 295.285 595.468 295.917 595.833L635.009 791.894C636.347 792.667 636.339 794.603 634.993 795.365L628.903 798.816C628.288 799.165 627.535 799.163 626.922 798.811L286.7 603.676C285.378 602.918 285.356 601.02 286.658 600.231L293.88 595.854Z" fill="#002C84"/>
<path d="M358.073 202.369C359.17 195.441 366.873 191.766 372.948 195.272L785.245 433.223C788.839 435.297 790.779 439.375 790.12 443.472L735.501 782.935C734.384 789.876 726.644 793.528 720.577 789.978L309.558 549.436C306.004 547.356 304.088 543.309 304.732 539.242L358.073 202.369Z" fill="url(#paint2_linear_218_29078)"/>
<path d="M349.639 206.755C350.736 199.827 358.44 196.152 364.515 199.658L776.812 437.609C780.406 439.683 782.345 443.761 781.686 447.858L727.067 787.322C725.95 794.262 718.21 797.914 712.143 794.364L301.125 553.823C297.57 551.742 295.654 547.696 296.299 543.628L349.639 206.755Z" fill="#002C84"/>
<path d="M406.911 677.912L432.892 693.096L410.96 705.917L384.643 690.734L406.911 677.912Z" fill="#002C84"/>
<path d="M279.372 604.358L305.352 619.541L283.421 632.363L257.104 617.179L279.372 604.358Z" fill="#002C84"/>
<path d="M395.439 702.206L421.419 717.389L399.488 730.21L373.17 715.027L395.439 702.206Z" fill="#002C84"/>
<path d="M361.698 715.702L387.679 730.885L365.747 743.706L339.43 728.523L361.698 715.702Z" fill="#002C84"/>
<path d="M352.925 742.694L378.905 757.878L356.974 770.699L330.656 755.516L352.925 742.694Z" fill="#002C84"/>
<path d="M342.128 640.798L368.108 655.981L346.177 668.802L319.859 653.619L342.128 640.798Z" fill="#002C84"/>
<path d="M330.657 665.091L356.638 680.274L334.706 693.096L308.389 677.912L330.657 665.091Z" fill="#002C84"/>
<path d="M296.917 678.587L322.897 693.77L300.966 706.592L274.648 691.409L296.917 678.587Z" fill="#002C84"/>
<path d="M288.144 705.58L314.124 720.763L292.193 733.584L265.875 718.401L288.144 705.58Z" fill="#002C84"/>
<path d="M247.655 713.677L273.636 728.86L251.704 741.682L225.387 726.499L247.655 713.677Z" fill="#002C84"/>
<path d="M437.277 824.346L463.257 839.529L441.325 852.351L415.008 837.168L437.277 824.346Z" fill="#002C84"/>
<path d="M469.667 714.352L495.647 729.535L473.716 742.357L447.398 727.173L469.667 714.352Z" fill="#002C84"/>
<path d="M458.196 738.646L484.177 753.829L462.245 766.65L435.928 751.467L458.196 738.646Z" fill="#002C84"/>
<path d="M424.456 752.142L450.436 767.325L428.505 780.146L402.188 764.963L424.456 752.142Z" fill="#002C84"/>
<path d="M415.683 779.134L441.663 794.317L419.732 807.138L393.414 791.955L415.683 779.134Z" fill="#002C84"/>
<path d="M564.142 768.337L590.122 783.52L568.191 796.342L541.873 781.158L564.142 768.337Z" fill="#002C84"/>
<path d="M311.087 623.253L337.067 638.436L315.136 651.257L288.818 636.074L311.087 623.253Z" fill="#002C84"/>
<path d="M299.616 647.546L325.597 662.729L303.665 675.551L277.348 660.367L299.616 647.546Z" fill="#002C84"/>
<path d="M252.38 620.553L293.206 644.509L271.275 657.331L230.111 633.375L252.38 620.553Z" fill="#002C84"/>
<path d="M224.036 637.424L259.112 657.331L237.181 670.152L201.768 650.245L224.036 637.424Z" fill="#002C84"/>
<path d="M197.044 652.944L251.366 684.66L229.435 697.482L174.775 665.766L197.044 652.944Z" fill="#002C84"/>
<path d="M519.941 807.139L565.476 834.131L543.545 846.952L497.672 819.96L519.941 807.139Z" fill="#002C84"/>
<path d="M553.007 794.655L594.156 817.598L572.225 830.42L530.738 807.476L553.007 794.655Z" fill="#002C84"/>
<path d="M470.343 842.566L510.494 866.185L488.563 879.006L448.074 855.388L470.343 842.566Z" fill="#002C84"/>
<path d="M479.452 816.586L537.486 849.989L515.555 862.81L457.184 829.407L479.452 816.586Z" fill="#002C84"/>
<path d="M257.103 688.035L283.083 703.218L261.152 716.039L234.834 700.856L257.103 688.035Z" fill="#002C84"/>
<path d="M265.876 661.042L291.856 676.225L269.925 689.047L243.607 673.863L265.876 661.042Z" fill="#002C84"/>
<path d="M216.614 696.132L242.595 711.316L220.663 724.137L194.346 708.954L216.614 696.132Z" fill="#002C84"/>
<path d="M406.236 806.801L432.216 821.985L410.284 834.806L383.967 819.623L406.236 806.801Z" fill="#002C84"/>
<path d="M279.708 732.572L399.824 802.415L377.893 815.237L257.439 745.394L279.708 732.572Z" fill="#002C84"/>
<path d="M438.626 696.807L464.606 711.99L442.675 724.812L416.357 709.629L438.626 696.807Z" fill="#002C84"/>
<path d="M427.155 721.1L453.136 736.283L431.204 749.105L404.887 733.921L427.155 721.1Z" fill="#002C84"/>
<path d="M393.415 734.597L419.395 749.78L397.464 762.601L371.146 747.418L393.415 734.597Z" fill="#002C84"/>
<path d="M384.642 761.589L410.622 776.772L388.691 789.593L362.373 774.41L384.642 761.589Z" fill="#002C84"/>
<path d="M533.101 750.792L559.081 765.975L537.15 778.797L510.832 763.613L533.101 750.792Z" fill="#002C84"/>
<path d="M521.628 775.085L547.608 790.268L525.677 803.09L499.359 787.906L521.628 775.085Z" fill="#002C84"/>
<path d="M487.888 788.581L513.868 803.764L491.937 816.586L465.619 801.402L487.888 788.581Z" fill="#002C84"/>
<path d="M373.845 659.692L399.825 674.876L377.894 687.697L351.576 672.514L373.845 659.692Z" fill="#002C84"/>
<path d="M362.372 683.986L388.352 699.169L366.421 711.99L340.104 696.807L362.372 683.986Z" fill="#002C84"/>
<path d="M328.632 697.482L354.612 712.665L332.681 725.487L306.363 710.303L328.632 697.482Z" fill="#002C84"/>
<path d="M319.861 724.474L345.841 739.657L323.909 752.479L297.592 737.296L319.861 724.474Z" fill="#002C84"/>
<path d="M501.384 733.247L527.364 748.43L505.433 761.252L479.115 746.068L501.384 733.247Z" fill="#002C84"/>
<path d="M489.913 757.54L515.893 772.723L493.962 785.545L467.645 770.361L489.913 757.54Z" fill="#002C84"/>
<path d="M456.171 771.036L482.151 786.219L460.22 799.041L433.902 783.858L456.171 771.036Z" fill="#002C84"/>
<path d="M447.4 798.029L473.38 813.212L451.448 826.033L425.131 810.85L447.4 798.029Z" fill="#002C84"/>
<path d="M595.859 787.231L621.839 802.415L599.907 815.236L573.59 800.053L595.859 787.231Z" fill="#002C84"/>
<path d="M293.88 595.854C294.504 595.476 295.285 595.468 295.917 595.833L635.009 791.894C636.347 792.667 636.339 794.603 634.993 795.365L628.903 798.816C628.288 799.165 627.535 799.163 626.922 798.811L286.7 603.676C285.378 602.918 285.356 601.02 286.658 600.231L293.88 595.854Z" fill="#002C84"/>
<path d="M358.073 202.369C359.17 195.441 366.873 191.766 372.948 195.272L785.245 433.223C788.839 435.297 790.779 439.375 790.12 443.472L735.501 782.935C734.384 789.876 726.644 793.528 720.577 789.978L309.558 549.436C306.004 547.356 304.088 543.309 304.732 539.242L358.073 202.369Z" fill="url(#paint3_linear_218_29078)"/>
<path d="M349.639 206.755C350.736 199.827 358.44 196.152 364.515 199.658L776.812 437.609C780.406 439.683 782.345 443.761 781.686 447.858L727.067 787.322C725.95 794.262 718.21 797.914 712.143 794.364L301.125 553.823C297.57 551.742 295.654 547.696 296.299 543.628L349.639 206.755Z" fill="#002C84"/>
<path d="M314 27L701 253.1V787.437L314 561.337V27Z" fill="url(#paint4_linear_218_29078)"/>
<rect width="72.2944" height="12.7578" rx="5" transform="matrix(0.865865 0.500278 0 1 344 236)" fill="#FDA24F"/>
<rect width="72.2944" height="12.7578" rx="5" transform="matrix(0.865865 0.500278 0 1 344 383.424)" fill="#D6E6F3"/>
<rect width="72.2944" height="12.7578" rx="5" transform="matrix(0.865865 0.500278 0 1 364.865 266.484)" fill="#D6E6F3"/>
<rect width="72.2944" height="12.7578" rx="5" transform="matrix(0.865865 0.500278 0 1 364.865 413.907)" fill="#FDA24F"/>
<rect width="72.2944" height="12.7578" rx="5" transform="matrix(0.865865 0.500278 0 1 432.371 305.488)" fill="#CC61EB"/>
<rect width="72.2944" height="12.7578" rx="5" transform="matrix(0.865865 0.500278 0 1 432.371 452.912)" fill="#CC61EB"/>
<rect width="133.249" height="12.7578" rx="5" transform="matrix(0.865865 0.500278 0 1 499.879 344.492)" fill="#D6E6F3"/>
<rect width="53.8664" height="12.7578" rx="5" transform="matrix(0.865865 0.500278 0 1 620.164 413.99)" fill="#D9D9D9"/>
<rect width="53.8664" height="12.7578" rx="5" transform="matrix(0.865865 0.500278 0 1 499.879 491.916)" fill="#D9D9D9"/>
<rect width="53.8664" height="12.7578" rx="5" transform="matrix(0.865865 0.500278 0 1 396.779 303.35)" fill="#D9D9D9"/>
<rect width="93.5575" height="12.7578" rx="5" transform="matrix(0.865865 0.500278 0 1 396.779 321.778)" fill="#CC61EB"/>
<rect width="75.1295" height="12.7578" rx="5" transform="matrix(0.865865 0.500278 0 1 396.779 340.206)" fill="#FDA24F"/>
<rect width="75.1295" height="12.7578" rx="5" transform="matrix(0.865865 0.500278 0 1 396.779 450.774)" fill="#D6E6F3"/>
<rect width="75.1295" height="12.7578" rx="5" transform="matrix(0.865865 0.500278 0 1 396.779 358.634)" fill="#CC61EB"/>
<rect width="75.1295" height="12.7578" rx="5" transform="matrix(0.865865 0.500278 0 1 396.779 469.202)" fill="#FDA24F"/>
<rect width="48.1963" height="12.7578" rx="5" transform="matrix(0.865865 0.500278 0 1 420.1 390.536)" fill="#FDA24F"/>
<rect width="48.1963" height="12.7578" rx="5" transform="matrix(0.865865 0.500278 0 1 420.1 501.104)" fill="#CC61EB"/>
<rect width="75.1295" height="12.7578" rx="5" transform="matrix(0.865865 0.500278 0 1 466.738 417.484)" fill="#D9D9D9"/>
<rect width="75.1295" height="12.7578" rx="5" transform="matrix(0.865865 0.500278 0 1 466.738 528.052)" fill="#D6E6F3"/>
<rect width="75.1295" height="12.7578" rx="5" transform="matrix(0.865865 0.500278 0 1 396.779 395.49)" fill="#CC61EB"/>
<rect width="75.1295" height="12.7578" rx="5" transform="matrix(0.865865 0.500278 0 1 396.779 506.058)" fill="#FDA24F"/>
<rect width="157.347" height="12.7578" rx="5" transform="matrix(0.865865 0.500278 0 1 420.1 537.96)" fill="#CC61EB"/>
<rect width="75.1295" height="12.7578" rx="5" transform="matrix(0.865865 0.500278 0 1 466.738 380.628)" fill="#D6E6F3"/>
<rect width="75.1295" height="12.7578" rx="5" transform="matrix(0.865865 0.500278 0 1 466.738 491.196)" fill="#D9D9D9"/>
<rect width="31.1858" height="12.7578" rx="5" transform="matrix(0.865865 0.500278 0 1 483.924 372.129)" fill="#FDA24F"/>
<rect width="31.1858" height="12.7578" rx="5" transform="matrix(0.865865 0.500278 0 1 470.42 548.608)" fill="#D6E6F3"/>
<rect width="31.1858" height="12.7578" rx="5" transform="matrix(0.865865 0.500278 0 1 563.705 620.932)" fill="#FDA24F"/>
<rect width="31.1858" height="12.7578" rx="5" transform="matrix(0.865865 0.500278 0 1 396.779 542.914)" fill="#FDA24F"/>
<defs>
<linearGradient id="paint0_linear_218_29078" x1="704.501" y1="415.411" x2="750.051" y2="534.178" gradientUnits="userSpaceOnUse">
<stop offset="0.40625" stop-color="#7595BA"/>
<stop offset="0.4375" stop-color="#ADC3EA"/>
</linearGradient>
<linearGradient id="paint1_linear_218_29078" x1="704.501" y1="415.411" x2="750.051" y2="534.178" gradientUnits="userSpaceOnUse">
<stop offset="0.40625" stop-color="#7595BA"/>
<stop offset="0.4375" stop-color="#ADC3EA"/>
</linearGradient>
<linearGradient id="paint2_linear_218_29078" x1="704.501" y1="415.411" x2="750.051" y2="534.178" gradientUnits="userSpaceOnUse">
<stop offset="0.40625" stop-color="#7595BA"/>
<stop offset="0.4375" stop-color="#ADC3EA"/>
</linearGradient>
<linearGradient id="paint3_linear_218_29078" x1="704.501" y1="415.411" x2="750.051" y2="534.178" gradientUnits="userSpaceOnUse">
<stop offset="0.40625" stop-color="#7595BA"/>
<stop offset="0.4375" stop-color="#ADC3EA"/>
</linearGradient>
<linearGradient id="paint4_linear_218_29078" x1="507.5" y1="141.3" x2="276.04" y2="541.904" gradientUnits="userSpaceOnUse">
<stop stop-color="#D9D9D9" stop-opacity="0"/>
<stop offset="1" stop-color="#F68523"/>
</linearGradient>
</defs>
</svg>
