<svg width="439" height="361" viewBox="0 0 439 361" fill="none" xmlns="http://www.w3.org/2000/svg">
<rect width="449" height="231" rx="5" transform="matrix(0.976187 0.21693 0 1 0 0)" fill="url(#paint0_linear_192_431)"/>
<rect width="419" height="202" rx="3" transform="matrix(0.976187 0.21693 0 1 14.6426 17.254)" fill="#0E3D99"/>
<g style="mix-blend-mode:overlay" opacity="0.6">
<rect width="419" height="202" rx="3" transform="matrix(0.976187 0.21693 0 1 14.6426 17.254)" fill="url(#paint1_linear_192_431)"/>
</g>
<path d="M145.904 148.201V165.201L95.6309 154.029V185.029" stroke="#C0CCF9" stroke-opacity="0.4"/>
<path d="M45.357 125.857V142.857L95.1426 153.921" stroke="#C0CCF9" stroke-opacity="0.4"/>
<rect width="54" height="33" rx="5" transform="matrix(0.976187 0.21693 0 1 119.547 109.344)" fill="#0070BA"/>
<rect x="0.488094" y="0.608465" width="53" height="32" rx="4.5" transform="matrix(0.976187 0.21693 0 1 119.559 109.238)" stroke="url(#paint2_linear_192_431)" stroke-opacity="0.4"/>
<rect width="54" height="33" rx="5" transform="matrix(0.976187 0.21693 0 1 69.7617 179.28)" fill="#0070BA"/>
<rect x="0.488094" y="0.608465" width="53" height="32" rx="4.5" transform="matrix(0.976187 0.21693 0 1 69.7733 179.175)" stroke="url(#paint3_linear_192_431)" stroke-opacity="0.4"/>
<rect width="54" height="33" rx="5" transform="matrix(0.976187 0.21693 0 1 19 87)" fill="#0073BE"/>
<rect x="0.488094" y="0.608465" width="53" height="32" rx="4.5" transform="matrix(0.976187 0.21693 0 1 19.0116 86.8941)" stroke="url(#paint4_linear_192_431)" stroke-opacity="0.4"/>
<path d="M117.595 77.91L145.904 84.201V115.201" stroke="#C0CCF9" stroke-opacity="0.4"/>
<path d="M73.6665 68.1481L45.3571 61.8571V92.8571" stroke="#C0CCF9" stroke-opacity="0.3"/>
<rect x="95.624" y="48.7476" width="37.3348" height="29.7511" rx="4.5" transform="rotate(51.2644 95.624 48.7476)" fill="#D3FF55" stroke="url(#paint5_linear_192_431)"/>
<rect width="51" height="9" rx="4.5" transform="matrix(0.976187 0.21693 0 1 163 99)" fill="#FDA24F"/>
<rect width="51" height="9" rx="4.5" transform="matrix(0.976187 0.21693 0 1 163 203)" fill="#D6E6F3"/>
<rect width="51" height="9" rx="4.5" transform="matrix(0.976187 0.21693 0 1 179.595 115.688)" fill="#D6E6F3"/>
<rect width="51" height="9" rx="4.5" transform="matrix(0.976187 0.21693 0 1 179.595 219.688)" fill="#FDA24F"/>
<rect width="51" height="9" rx="4.5" transform="matrix(0.976187 0.21693 0 1 233.286 127.619)" fill="#CC61EB"/>
<rect width="51" height="9" rx="4.5" transform="matrix(0.976187 0.21693 0 1 233.286 231.619)" fill="#CC61EB"/>
<rect width="94" height="9" rx="4.5" transform="matrix(0.976187 0.21693 0 1 286.976 139.55)" fill="#D6E6F3"/>
<rect width="38" height="9" rx="4.5" transform="matrix(0.976187 0.21693 0 1 382.642 160.809)" fill="#D9D9D9"/>
<rect width="38" height="9" rx="4.5" transform="matrix(0.976187 0.21693 0 1 286.976 243.55)" fill="#D9D9D9"/>
<rect width="38" height="9" rx="4.5" transform="matrix(0.976187 0.21693 0 1 204.976 134.328)" fill="#D9D9D9"/>
<rect width="66" height="9" rx="4.5" transform="matrix(0.976187 0.21693 0 1 204.976 147.328)" fill="#CC61EB"/>
<rect width="53" height="9" rx="4.5" transform="matrix(0.976187 0.21693 0 1 204.976 160.328)" fill="#FDA24F"/>
<rect width="53" height="9" rx="4.5" transform="matrix(0.976187 0.21693 0 1 204.976 238.328)" fill="#D6E6F3"/>
<rect width="53" height="9" rx="4.5" transform="matrix(0.976187 0.21693 0 1 204.976 173.328)" fill="#CC61EB"/>
<rect width="53" height="9" rx="4.5" transform="matrix(0.976187 0.21693 0 1 204.976 251.328)" fill="#FDA24F"/>
<rect width="34" height="9" rx="4.5" transform="matrix(0.976187 0.21693 0 1 223.523 190.45)" fill="#FDA24F"/>
<rect width="34" height="9" rx="4.5" transform="matrix(0.976187 0.21693 0 1 223.523 268.45)" fill="#CC61EB"/>
<rect width="53" height="9" rx="4.5" transform="matrix(0.976187 0.21693 0 1 260.619 198.693)" fill="#D9D9D9"/>
<rect width="53" height="9" rx="4.5" transform="matrix(0.976187 0.21693 0 1 260.619 276.693)" fill="#D6E6F3"/>
<rect width="53" height="9" rx="4.5" transform="matrix(0.976187 0.21693 0 1 204.976 199.328)" fill="#CC61EB"/>
<rect width="53" height="9" rx="4.5" transform="matrix(0.976187 0.21693 0 1 204.976 277.328)" fill="#FDA24F"/>
<rect width="111" height="9" rx="4.5" transform="matrix(0.976187 0.21693 0 1 223.523 294.45)" fill="#CC61EB"/>
<rect width="53" height="9" rx="4.5" transform="matrix(0.976187 0.21693 0 1 260.619 172.693)" fill="#D6E6F3"/>
<rect width="53" height="9" rx="4.5" transform="matrix(0.976187 0.21693 0 1 260.619 250.693)" fill="#D9D9D9"/>
<rect width="22" height="9" rx="4.5" transform="matrix(0.976187 0.21693 0 1 274.285 162.73)" fill="#FDA24F"/>
<rect width="22" height="9" rx="4.5" transform="matrix(0.976187 0.21693 0 1 263.547 290.344)" fill="#D6E6F3"/>
<rect width="22" height="9" rx="4.5" transform="matrix(0.976187 0.21693 0 1 337.737 319.831)" fill="#FDA24F"/>
<rect width="22" height="9" rx="4.5" transform="matrix(0.976187 0.21693 0 1 204.976 303.328)" fill="#FDA24F"/>
<defs>
<linearGradient id="paint0_linear_192_431" x1="126" y1="144" x2="449" y2="4.268e-06" gradientUnits="userSpaceOnUse">
<stop stop-color="#021D6A"/>
<stop offset="1" stop-color="#0B5AA1"/>
</linearGradient>
<linearGradient id="paint1_linear_192_431" x1="6.24359e-06" y1="202" x2="419" y2="1.10456e-05" gradientUnits="userSpaceOnUse">
<stop stop-color="white"/>
<stop offset="0.104167" stop-color="#C4C4C4"/>
<stop offset="0.270833" stop-color="#7E7E7E"/>
<stop offset="1"/>
</linearGradient>
<linearGradient id="paint2_linear_192_431" x1="45.5" y1="-1.10695e-06" x2="32.5" y2="17.5" gradientUnits="userSpaceOnUse">
<stop stop-color="white"/>
<stop offset="1" stop-color="white" stop-opacity="0"/>
</linearGradient>
<linearGradient id="paint3_linear_192_431" x1="45.5" y1="-1.10695e-06" x2="32.5" y2="17.5" gradientUnits="userSpaceOnUse">
<stop stop-color="white"/>
<stop offset="1" stop-color="white" stop-opacity="0"/>
</linearGradient>
<linearGradient id="paint4_linear_192_431" x1="45.5" y1="-1.10695e-06" x2="32.5" y2="17.5" gradientUnits="userSpaceOnUse">
<stop stop-color="white"/>
<stop offset="1" stop-color="white" stop-opacity="0"/>
</linearGradient>
<linearGradient id="paint5_linear_192_431" x1="114.869" y1="48.0447" x2="114.869" y2="78.7958" gradientUnits="userSpaceOnUse">
<stop stop-color="white"/>
<stop offset="1" stop-color="white" stop-opacity="0"/>
</linearGradient>
</defs>
</svg>
