<svg fill="none" height="989" viewBox="0 0 1245 989" width="1245" xmlns="http://www.w3.org/2000/svg" xmlns:xlink="http://www.w3.org/1999/xlink"><linearGradient id="a" gradientUnits="userSpaceOnUse" x1="704.501" x2="750.051" y1="415.411" y2="534.178"><stop offset=".40625" stop-color="#7595ba"/><stop offset=".4375" stop-color="#adc3ea"/></linearGradient><linearGradient id="b" gradientUnits="userSpaceOnUse" x1="507.5" x2="276.04" y1="141.3" y2="541.904"><stop offset="0" stop-color="#d9d9d9" stop-opacity="0"/><stop offset="1" stop-color="#f68523"/></linearGradient><path d="m834.161 432.879c4.824-2.787 8.835-4.419 12.035-4.896 3.2-.505 5.599.124 7.199 1.887 1.624 1.749 2.436 4.626 2.436 8.629 0 2.491-.363 4.969-1.09 7.433-.728 2.464-1.77 4.899-3.127 7.307-1.334 2.366-2.933 4.69-4.8 6.973l15.489 17.799-16.289 9.412-11.271-15.828-3.636 2.101v22.34l-14.362 8.298v-61.392zm-.218 12.682-2.836 1.638v14.026l2.69-1.555c2.206-1.275 4.012-2.878 5.418-4.81s2.109-4.34 2.109-7.223c0-1.988-.582-3.205-1.745-3.653-1.164-.448-3.042.078-5.636 1.577zm50.903-28.991c4-2.311 7.454-3.495 10.363-3.552 2.909-.085 5.151 1.027 6.726 3.336 1.576 2.309 2.364 5.885 2.364 10.728v7.307l-25.416 14.684c.122 2.422.921 4.003 2.4 4.745 1.503.727 3.709.251 6.617-1.43 2.57-1.485 4.921-3.137 7.054-4.957 2.158-1.835 4.376-4.026 6.654-6.574v11.799c-1.988 2.353-4.157 4.488-6.508 6.406-2.352 1.919-5.321 3.914-8.908 5.987-4.145 2.395-7.854 3.684-11.126 3.867-3.273.183-5.854-.971-7.745-3.462-1.866-2.505-2.8-6.571-2.8-12.198 0-5.711.849-10.89 2.545-15.538 1.697-4.675 4.073-8.777 7.127-12.306 3.054-3.556 6.605-6.504 10.653-8.842zm.509 10.875c-1.672.967-3.078 2.395-4.217 4.285-1.115 1.848-1.77 4.13-1.964 6.845l12.217-7.058c-.024-1.386-.267-2.52-.727-3.401-.461-.882-1.139-1.4-2.036-1.553-.873-.168-1.964.126-3.273.882zm47.086-38.375c5.211-3.011 9.284-3.866 12.217-2.565 2.933 1.273 4.399 4.667 4.399 10.182v31.2l-9.853 5.693-2.727-4.723-.291.168c-1.164 2.352-2.363 4.417-3.6 6.195-1.212 1.736-2.605 3.297-4.181 4.683-1.576 1.415-3.503 2.78-5.781 4.096-2.376 1.373-4.509 2.045-6.399 2.018-1.891-.027-3.382-.86-4.473-2.497-1.09-1.637-1.636-4.192-1.636-7.663 0-5.095 1.527-9.757 4.581-13.985 3.055-4.228 7.478-8.17 13.272-11.825l6.872-4.222v-.672c0-2.128-.461-3.374-1.382-3.737-.897-.378-2.109-.125-3.636.757-1.624.938-3.442 2.325-5.454 4.159-1.988 1.792-3.987 3.787-5.999 5.986l-4.109-8.46c2.376-2.773 5.066-5.391 8.072-7.856 3.006-2.464 6.375-4.775 10.108-6.932zm2.472 25.741-3.272 2.059c-2.618 1.624-4.46 3.22-5.527 4.788-1.042 1.526-1.563 3.157-1.563 4.893 0 1.624.376 2.61 1.127 2.96.752.322 1.745.126 2.982-.589 1.721-.994 3.187-2.471 4.399-4.431 1.236-1.974 1.854-3.969 1.854-5.985zm42.577-2.512c-4.169 2.409-7.793 3.648-10.871 3.719-3.078.043-5.466-1.237-7.163-3.84-1.672-2.644-2.509-6.78-2.509-12.407 0-5.767.934-11.024 2.8-15.769 1.891-4.76 4.472-8.953 7.745-12.58 3.272-3.626 6.981-6.637 11.126-9.031 2.521-1.457 4.908-2.515 7.162-3.173 2.279-.673 4.388-1.009 6.327-1.01l-4.181 14.552c-1.697.112-3.285.344-4.763.694-1.455.308-2.97.918-4.545 1.828-1.431.827-2.691 1.989-3.782 3.487s-1.939 3.304-2.545 5.418c-.606 2.085-.909 4.472-.909 7.16 0 2.743.303 4.78.909 6.109.63 1.316 1.491 2.036 2.582 2.162 1.115.111 2.387-.246 3.817-1.072 2.061-1.191 4.109-2.738 6.145-4.642 2.06-1.947 4.012-4.11 5.854-6.49v13.06c-1.697 2.268-3.612 4.396-5.745 6.384-2.133 1.989-4.617 3.802-7.454 5.441zm41.56-36.988c1.28-.742 2.46-1.575 3.53-2.499 1.06-.925 2.18-1.961 3.34-3.109v11.968c-1.55 1.68-3.2 3.262-4.94 4.747-1.72 1.498-3.93 3.024-6.62 4.579-2.67 1.54-5.02 2.423-7.05 2.648-2.04.196-3.63-.566-4.77-2.287-1.11-1.764-1.67-4.787-1.67-9.07v-19.611l-4.982 2.878v-6.676l6.322-8.821 3.68-12.116 9.31-5.378v9.533l10.1-5.841v12.304l-10.1 5.84v18.519c0 1.54.33 2.505 1.01 2.897.68.364 1.63.195 2.84-.505zm-151.693 216.78-18.834 10.882-19.416-32.033-.327.189c.121 1.245.23 2.764.327 4.556.097 1.791.182 3.632.255 5.522.072 1.861.109 3.562.109 5.102v27.672l-12.726 7.353v-61.392l18.761-10.84 19.344 31.487.218-.126c-.073-1.301-.146-2.813-.218-4.535-.073-1.749-.146-3.513-.219-5.291-.048-1.791-.072-3.387-.072-4.787v-27.757l12.798-7.394zm29.197-65.286c4-2.311 7.454-3.495 10.363-3.552 2.908-.084 5.15 1.028 6.726 3.337s2.363 5.885 2.363 10.728v7.307l-25.415 14.684c.121 2.421.921 4.003 2.4 4.744 1.503.728 3.709.251 6.617-1.43 2.57-1.484 4.921-3.137 7.054-4.957 2.157-1.834 4.375-4.026 6.654-6.574v11.8c-1.988 2.352-4.157 4.488-6.509 6.406-2.351 1.918-5.32 3.914-8.908 5.987-4.145 2.395-7.853 3.683-11.126 3.866-3.272.184-5.854-.97-7.744-3.461-1.867-2.505-2.8-6.571-2.8-12.198 0-5.711.848-10.89 2.545-15.538 1.697-4.676 4.073-8.778 7.127-12.306 3.054-3.556 6.605-6.504 10.653-8.843zm.509 10.876c-1.672.966-3.078 2.394-4.218 4.284-1.115 1.848-1.769 4.13-1.963 6.846l12.217-7.059c-.024-1.386-.267-2.519-.727-3.401-.461-.882-1.14-1.399-2.037-1.553-.872-.168-1.963.127-3.272.883zm35.705-7.654-12.58-16.037 16.143-9.328 6.254 9.741 6.4-17.051 16.18-9.349-12.908 30.764 13.417 16.519-16.144 9.328-6.945-10.433-6.908 18.437-16.18 9.348zm58.357-21.582c1.285-.742 2.461-1.575 3.527-2.499 1.067-.925 2.182-1.961 3.345-3.109v11.968c-1.551 1.68-3.199 3.262-4.945 4.747-1.721 1.498-3.926 3.024-6.617 4.579-2.666 1.54-5.018 2.423-7.054 2.648-2.036.196-3.624-.566-4.763-2.288-1.115-1.763-1.672-4.786-1.672-9.069v-19.611l-4.982 2.878v-6.676l6.327-8.821 3.672-12.116 9.308-5.378v9.533l10.108-5.841v12.304l-10.108 5.84v18.519c0 1.54.34 2.505 1.018 2.897.679.364 1.624.195 2.836-.505zm12.285-1.935c0-2.968.76-5.488 2.26-7.56 1.53-2.086 3.36-3.745 5.49-4.978 2.01-1.162 3.76-1.568 5.24-1.219 1.47.349 2.21 2.008 2.21 4.975 0 2.828-.74 5.299-2.21 7.413-1.48 2.114-3.23 3.752-5.24 4.914-2.13 1.233-3.96 1.66-5.49 1.283-1.5-.391-2.26-2.001-2.26-4.828zm22.26 14.774c-1.14.658-2.45 1.302-3.93 1.933-1.5.672-2.74 1.148-3.71 1.429v-12.808c.78-.196 1.49-.427 2.15-.694.65-.238 1.39-.595 2.21-1.071 1.17-.672 2.17-1.73 3.02-3.172.87-1.428 1.31-3.583 1.31-6.467v-47.997l14.22-8.214v51.441c0 2.855-.49 5.837-1.46 8.944-.97 3.136-2.57 6.146-4.8 9.03-2.23 2.912-5.23 5.461-9.01 7.646zm.69-80.479c0-2.911.72-5.277 2.18-7.097 1.48-1.834 3.26-3.353 5.34-4.558 2.04-1.176 3.81-1.709 5.31-1.597 1.53.097 2.29 1.602 2.29 4.513 0 2.828-.76 5.187-2.29 7.077-1.5 1.848-3.27 3.36-5.31 4.537-2.08 1.204-3.86 1.743-5.34 1.618-1.46-.168-2.18-1.665-2.18-4.493zm55.12 12.958c0 3.024-.58 6.033-1.75 9.029-1.16 2.996-3.03 5.894-5.6 8.694-2.54 2.787-5.9 5.384-10.07 7.793-2.93 1.695-5.56 3.032-7.89 4.013-2.3.967-4.64 1.618-7.01 1.955v-13.144c2.59-.126 5.23-.659 7.92-1.598 2.69-.967 4.81-1.898 6.36-2.794 1.6-.925 2.77-1.793 3.49-2.605.76-.854 1.13-1.687 1.13-2.499 0-.7-.25-1.141-.76-1.322-.49-.224-1.37-.287-2.66-.189-1.26.085-3.04.246-5.34.485-2.28.225-4.18.134-5.71-.271-1.5-.42-2.63-1.308-3.38-2.665-.75-1.358-1.13-3.339-1.13-5.942 0-4.647 1.55-9.043 4.66-13.187 3.1-4.144 7.21-7.694 12.32-10.649 2.72-1.569 5.27-2.696 7.67-3.383 2.4-.715 4.89-1.156 7.46-1.325l-3.89 12.83c-2.04.112-4.1.449-6.18 1.01-2.09.56-3.75 1.198-4.98 1.912-1.12.644-1.98 1.309-2.59 1.995-.6.686-.91 1.351-.91 1.995 0 .588.21.987.62 1.197.44.196 1.25.244 2.44.146s2.92-.274 5.2-.527c2.4-.266 4.37-.204 5.92.188 1.58.349 2.74 1.216 3.5 2.602.77 1.371 1.16 3.457 1.16 6.256zm-232.121 265.727-2.618-9.993-17.27 9.979-2.691 13.06-15.78 9.117 17.344-71.665 19.161-11.071 17.562 51.498zm-5.599-21.876-2.291-8.755c-.242-.951-.594-2.302-1.054-4.052-.461-1.777-.921-3.611-1.382-5.5-.436-1.932-.775-3.527-1.018-4.787-.218 1.526-.533 3.444-.945 5.753-.388 2.268-.8 4.536-1.236 6.804-.412 2.253-.776 4.143-1.091 5.669l-2.291 11.401zm57.23-7.955-34.105 19.705v-9.364l17.052-35.51-16.071 9.286v-12.556l32.324-18.676v10.162l-16.325 34.292 17.125-9.895zm46.831-74.635v47.577l-10.726 6.197-1.782-4.891-.836.483c-.848 2.086-1.927 4.011-3.236 5.775-1.285 1.722-2.715 3.262-4.29 4.621-1.576 1.386-3.212 2.569-4.909 3.549-2.69 1.555-5.127 2.361-7.308 2.417-2.157.043-3.879-.852-5.163-2.685-1.261-1.848-1.891-4.801-1.891-8.86v-30.99l14.217-8.214v25.993c0 3.079.375 5.214 1.127 6.403.775 1.148 2.036 1.217 3.781.209 1.794-1.036 3.176-2.395 4.145-4.075.994-1.694 1.685-3.745 2.073-6.152.388-2.408.581-5.179.581-8.315v-20.828zm34.687-20.881c.776-.448 1.588-.848 2.436-1.198.849-.378 1.479-.644 1.891-.798l-1.273 16.23c-.46.126-1.054.357-1.781.694-.728.308-1.746.84-3.055 1.596-.896.518-1.854 1.17-2.872 1.954s-1.988 1.764-2.909 2.94c-.897 1.134-1.636 2.513-2.218 4.137-.581 1.596-.872 3.472-.872 5.627v23.39l-14.217 8.214v-47.577l10.581-6.113 2.218 6.319.691-.399c.751-2.002 1.708-3.969 2.872-5.901 1.188-1.974 2.509-3.759 3.963-5.355 1.479-1.611 2.994-2.864 4.545-3.76zm28.652-16.554c4-2.311 7.45-3.495 10.36-3.552 2.91-.085 5.15 1.027 6.73 3.336 1.57 2.309 2.36 5.885 2.36 10.728v7.307l-25.41 14.685c.12 2.421.92 4.002 2.4 4.744 1.5.727 3.7.251 6.61-1.43 2.57-1.485 4.92-3.137 7.06-4.957 2.15-1.835 4.37-4.026 6.65-6.574v11.8c-1.99 2.352-4.16 4.487-6.51 6.405-2.35 1.919-5.32 3.914-8.91 5.987-4.14 2.395-7.85 3.684-11.12 3.867-3.274.183-5.855-.971-7.746-3.462-1.866-2.505-2.8-6.571-2.8-12.198 0-5.711.849-10.89 2.546-15.538 1.696-4.675 4.072-8.777 7.13-12.306 3.05-3.556 6.6-6.503 10.65-8.842zm.51 10.875c-1.67.967-3.08 2.395-4.22 4.285-1.11 1.848-1.77 4.13-1.96 6.845l12.21-7.058c-.02-1.386-.26-2.52-.72-3.401-.46-.882-1.14-1.4-2.04-1.553-.87-.168-1.96.126-3.27.882z" fill="#f68523" opacity=".2"/><path d="m639.567 63.7094-14.499-8.0554 41.013-24.6078-13.105-7.2804 11.631-6.9784 40.672 22.5957-11.63 6.9784-13.068-7.26zm55.664-16.219 15.124 8.402-16.358 17.9586c-.238.256-.56.5625-.966.9193-.382.3424-.813.6997-1.292 1.0718-.478.372-.969.7233-1.473 1.0537l.294.1632c1.106-.5226 2.093-.9591 2.96-1.3096.915-.3514 1.675-.6231 2.278-.8151l30.708-10.0689 14.647 8.1369-59.835 16.8976c-4.585 1.2807-8.839 2.1217-12.76 2.5231-3.92.4294-7.68.2961-11.28-.4001-3.6-.6682-7.223-2.0152-10.869-4.0409-1.321-.7342-2.387-1.4096-3.198-2.0262-.81-.5887-1.497-1.1233-2.063-1.604l11.054-6.6327c.443.3567 1.007.7814 1.695 1.2741.687.4927 1.458.9769 2.315 1.4527 1.591.8838 3.187 1.4103 4.79 1.5796 1.628.1829 3.276.1415 4.944-.1244 1.645-.2514 3.288-.6009 4.929-1.0483l.507-.1345zm77.036 41.9654c4.601 2.5559 6.398 5.6487 5.391 9.2783-.982 3.6149-4.87 7.4609-11.663 11.5369-4.633 2.78-9.195 4.753-13.685 5.92-4.466 1.153-8.654 1.573-12.563 1.26-3.86-.314-7.246-1.28-10.158-2.898-1.958-1.087-3.382-2.156-4.272-3.205-.866-1.036-1.392-2.021-1.577-2.957-.161-.921-.175-1.775-.043-2.561l-.44-.245c-.814.63-1.724 1.289-2.731 1.978-.982.702-2.194 1.486-3.634 2.35l-14.907 8.944-14.353-7.973 58.513-35.1083 11.673 6.4851-3.166 4.2327.66.3671c1.742-.2531 3.546-.3742 5.413-.3633 1.891-.0035 3.798.2238 5.721.6819 1.972.4573 3.912 1.2161 5.821 2.2766zm-16.451 3.6348c-1.395-.7749-2.82-1.1923-4.276-1.252-1.455-.0598-3.027.2044-4.714.7927-1.639.5874-3.455 1.4509-5.449 2.5903l-1.116.6698c-2.16 1.2963-3.813 2.4861-4.959 3.5694-1.122 1.0692-1.651 2.0652-1.587 2.9882.088.909.866 1.771 2.334 2.587 1.199.666 2.539 1.022 4.019 1.067 1.479.045 3.159-.256 5.04-.903 1.88-.648 4.02-1.692 6.421-3.132 3.577-2.146 5.632-3.9306 6.166-5.3538.558-1.4097-.068-2.6175-1.879-3.6236zm58.151 19.5314c4.038 2.244 6.829 4.599 8.373 7.066 1.568 2.452 1.768 4.948.598 7.488s-3.832 5.056-7.985 7.548l-6.265 3.759-25.659-14.255c-2.014 1.35-2.959 2.85-2.834 4.501.149 1.664 1.692 3.311 4.628 4.943 2.594 1.441 5.22 2.608 7.878 3.502 2.682.908 5.701 1.684 9.058 2.328l-10.119 6.071c-3.039-.496-5.985-1.259-8.839-2.289-2.854-1.031-6.092-2.552-9.713-4.565-4.185-2.324-7.197-4.844-9.036-7.558-1.84-2.714-2.178-5.523-1.014-8.427 1.189-2.89 4.195-5.783 9.02-8.678 4.898-2.938 9.775-4.875 14.633-5.81 4.881-.95 9.62-1.022 14.216-.216 4.62.791 8.973 2.322 13.06 4.592zm-9.064 6.033c-1.689-.938-3.636-1.41-5.843-1.415-2.158-.006-4.451.606-6.879 1.837l12.334 6.852c1.175-.734 2.023-1.525 2.542-2.374s.614-1.698.285-2.546c-.305-.835-1.118-1.62-2.439-2.354zm38.736 43.948c-2.592 1.555-5.472 2.604-8.639 3.147s-6.612.433-10.334-.332c-3.698-.75-7.651-2.295-11.861-4.633-2.961-1.645-5.46-3.214-7.497-4.706-2.013-1.479-3.774-3.151-5.284-5.016l11.27-6.763c1.442 2.161 3.258 4.154 5.446 5.98 2.212 1.811 4.101 3.152 5.668 4.022 1.615.898 2.958 1.449 4.028 1.656 1.118.205 2.026.099 2.722-.319.6-.36.847-.805.742-1.335-.058-.532-.459-1.323-1.204-2.375-.72-1.038-1.775-2.484-3.163-4.337-1.365-1.84-2.265-3.519-2.703-5.038-.413-1.506-.23-2.93.547-4.273.778-1.344 2.283-2.685 4.516-4.025 3.984-2.39 8.551-3.321 13.7-2.79 5.149.53 10.305 2.229 15.469 5.098 2.741 1.523 5.022 3.137 6.845 4.843 1.846 1.692 3.503 3.597 4.968 5.715l-13.001 3.262c-1.144-1.689-2.492-3.284-4.044-4.785-1.553-1.5-2.953-2.597-4.201-3.29-1.126-.626-2.138-1.022-3.038-1.189s-1.626-.085-2.178.246c-.504.303-.74.685-.709 1.146.057.475.433 1.197 1.128 2.166s1.736 2.366 3.124 4.191c1.463 1.922 2.425 3.649 2.887 5.182.51 1.532.365 2.977-.437 4.334-.777 1.372-2.366 2.777-4.767 4.218zm13.693 22.919c-4.209-2.339-7.136-4.81-8.779-7.416-1.62-2.619-1.75-5.327-.39-8.122 1.408-2.796 4.525-5.642 9.35-8.537 4.945-2.967 9.932-4.87 14.961-5.71 5.053-.827 9.976-.769 14.768.174 4.792.942 9.281 2.576 13.465 4.901 2.545 1.414 4.68 2.918 6.404 4.514 1.748 1.609 3.121 3.246 4.118 4.909l-14.628 3.899c-.968-1.398-1.983-2.642-3.044-3.73-1.012-1.089-2.313-2.076-3.904-2.96-1.444-.802-3.089-1.286-4.934-1.451s-3.83.036-5.954.603c-2.1.554-4.303 1.521-6.607 2.904-2.353 1.412-3.943 2.719-4.772 3.924-.804 1.217-.979 2.326-.526 3.327.477 1.014 1.438 1.923 2.882 2.725 2.08 1.155 4.46 2.117 7.14 2.884 2.728.767 5.586 1.329 8.574 1.685l-11.198 6.719c-2.818-.289-5.627-.837-8.429-1.645-2.801-.807-5.634-2.006-8.497-3.597zm88.93.598c.783.435 1.543.926 2.279 1.474.761.533 1.313.937 1.657 1.212l-14.572 7.258c-.345-.33-.848-.721-1.511-1.172-.638-.466-1.617-1.065-2.939-1.8-.905-.503-1.956-.989-3.152-1.459-1.196-.471-2.535-.798-4.017-.984-1.433-.186-2.996-.111-4.688.225-1.667.322-3.425 1.038-5.273 2.147l-20.057 12.034-14.353-7.974 40.797-24.478 10.682 5.934-4.278 5.155.698.387c2.102-.385 4.281-.575 6.536-.571 2.304.004 4.514.219 6.63.646 2.141.44 3.994 1.095 5.561 1.966zm23.91 14.116-40.797 24.478-14.352-7.974 40.797-24.478zm9.299-13.809c2.055 1.142 3.422 2.387 4.099 3.734.701 1.361-.196 2.79-2.693 4.288-2.424 1.455-4.839 2.013-7.245 1.675-2.358-.339-4.564-1.079-6.62-2.221-2.105-1.17-3.483-2.421-4.136-3.754-.604-1.335.306-2.729 2.731-4.184 2.496-1.498 4.899-2.091 7.207-1.779 2.333.325 4.552 1.072 6.657 2.241zm26.849 33.056c4.6 2.556 6.39 5.649 5.39 9.278-.99 3.615-4.87 7.461-11.67 11.537-4.63 2.78-9.191 4.753-13.681 5.92-4.467 1.153-8.654 1.573-12.563 1.26-3.86-.314-7.246-1.28-10.158-2.897-1.958-1.088-3.382-2.157-4.272-3.206-.866-1.036-1.392-2.021-1.577-2.956-.161-.922-.175-1.776-.043-2.562l-.44-.245c-.814.63-1.724 1.289-2.731 1.978-.983.702-2.194 1.486-3.634 2.35l-14.908 8.944-14.352-7.973 58.513-35.108 11.673 6.485-3.167 4.233.661.367c1.742-.253 3.546-.374 5.413-.364 1.891-.003 3.798.224 5.726.682 1.97.458 3.91 1.216 5.82 2.277zm-16.455 3.635c-1.395-.775-2.82-1.193-4.276-1.252-1.456-.06-3.027.204-4.714.792-1.639.588-3.455 1.451-5.449 2.591l-1.116.669c-2.161 1.297-3.814 2.487-4.959 3.57-1.122 1.069-1.651 2.065-1.587 2.988.088.909.866 1.771 2.334 2.587 1.199.666 2.539 1.022 4.018 1.067 1.48.045 3.16-.256 5.04-.903 1.881-.648 4.021-1.691 6.422-3.132 3.577-2.146 5.632-3.931 6.166-5.354.558-1.409-.068-2.617-1.879-3.623zm28.695 39.116c1.29.72 2.61 1.301 3.95 1.74 1.34.44 2.81.864 4.39 1.272l-10.26 6.157c-2.24-.467-4.45-1.067-6.62-1.801-2.17-.706-4.61-1.814-7.33-3.323-2.69-1.496-4.653-3.059-5.892-4.691-1.216-1.646-1.378-3.401-.488-5.264.939-1.864 3.245-3.898 6.92-6.102l16.81-10.089-5.03-2.794 5.73-3.435 10.82.891 12.27-3.082 9.4 5.22-8.17 4.905 10.2 5.669-10.55 6.33-10.2-5.669-15.88 9.528c-1.32.792-1.98 1.58-1.96 2.364.03.769.66 1.494 1.89 2.174zm-499.661-156.537c2.544-1.527 5.091-2.178 7.641-1.955 2.574.237 4.937.954 7.091 2.151 2.031 1.128 3.277 2.417 3.738 3.865.46 1.449-.582 2.937-3.127 4.463-2.424 1.455-4.923 2.092-7.496 1.911s-4.875-.836-6.906-1.965c-2.154-1.196-3.461-2.547-3.923-4.051-.437-1.491.557-2.964 2.982-4.419zm69.494 45.515-19.015-10.564 17.486-33.143-.33-.183c-1.006.745-2.252 1.62-3.739 2.625-1.486 1.005-3.021 2.024-4.604 3.059-1.559 1.02-2.998 1.926-4.319 2.719l-23.729 14.237-12.848-7.137 52.644-31.5867 18.941 10.5227-17.055 32.8.22.122c1.079-.732 2.338-1.572 3.776-2.52 1.463-.963 2.938-1.933 4.425-2.91 1.512-.963 2.868-1.805 4.068-2.525l23.801-14.281 12.921 7.179zm43.462 24.145-31.863-17.701 52.644-31.586 31.862 17.701-11.414 6.849-17.363-9.646-8.282 4.969 16.078 8.932-11.414 6.849-16.078-8.932-9.939 5.963 17.363 9.646zm33.073 18.375-14.499-8.056 41.013-24.607-13.105-7.281 11.631-6.978 40.672 22.595-11.631 6.979-13.068-7.26zm105.899 10.607c-1.713-.952-3.603-1.585-5.669-1.901-2.042-.33-4.213-.357-6.511-.08-2.299.276-4.677.855-7.136 1.736-2.41.88-4.839 2.055-7.287 3.524-3.313 1.988-5.67 3.896-7.07 5.726-1.399 1.83-1.807 3.573-1.222 5.23.61 1.67 2.236 3.239 4.879 4.707 2.399 1.333 5.023 2.416 7.874 3.251 2.875.848 5.894 1.624 9.058 2.328l-12.027 7.216c-3.406-.7-6.585-1.606-9.537-2.719-2.928-1.1-5.787-2.424-8.577-3.974-5.824-3.236-9.468-6.564-10.931-9.984-1.415-3.422-.987-6.831 1.284-10.23 2.296-3.385 6.108-6.676 11.437-9.874 3.985-2.391 8.197-4.267 12.635-5.63 4.463-1.348 9.008-2.138 13.635-2.369 4.651-.246 9.252.133 13.802 1.135 4.6 1.002 8.991 2.665 13.176 4.99 2.594 1.441 5.023 3.137 7.286 5.088 2.311 1.949 4.189 4.075 5.634 6.375l-15.64 4.252c-1.046-1.635-2.26-3.197-3.642-4.687-1.383-1.489-3.2-2.859-5.451-4.11zm44.915 39.35-7.15 3.018 8.92 4.955-9.146 5.488-10.646-5.914-16.795 6.938-9.838-5.465 16.759-6.959-6.167-3.426-16.685 7-9.801-5.445 16.722-6.98-8.26-4.588 9.147-5.488 10.057 5.588 7.188-2.997-8.737-4.854 9.362-5.617 10.535 5.853 16.651-6.936 9.837 5.465-16.723 6.895 6.093 3.386 16.65-6.936 9.838 5.465-16.687 6.916 8.406 4.67-9.362 5.617zm-23.082-5.833 6.057 3.365 7.187-2.997-6.093-3.386zm-398.171-59.337c-1.64-.911-2.988-1.757-4.043-2.537-1.104-.78-2.013-1.479-2.726-2.097l11.054-6.633c.639.522 1.315 1.077 2.028 1.668.689.604 1.547 1.192 2.575 1.763 1.738.966 3.432 1.504 5.082 1.617 1.675.126 3.405-.12 5.189-.738 1.784-.617 3.72-1.553 5.808-2.806l48.719-29.231 14.573 8.096-47.495 28.497c-5.281 3.168-10.313 5.255-15.097 6.258-4.784 1.004-9.316 1.136-13.595.395-4.28-.741-8.304-2.158-12.072-4.252zm108.224-6.949c5.261 2.923 8.088 5.977 8.481 9.164.416 3.171-1.74 6.176-6.469 9.013l-26.754 16.053-9.948-5.527 2.649-4.77-.294-.163c-2.615.211-5.003.244-7.163.098-2.112-.147-4.167-.54-6.166-1.178-2.023-.625-4.184-1.576-6.485-2.854-2.398-1.332-4.071-2.817-5.02-4.453-.948-1.637-1.001-3.345-.158-5.123s2.753-3.561 5.73-5.347c4.369-2.621 9.151-3.709 14.347-3.263 5.196.445 10.851 2.213 16.963 5.304l7.154 3.725.576-.346c1.825-1.094 2.656-2.13 2.494-3.108-.137-.964-.976-1.874-2.518-2.731-1.64-.911-3.763-1.757-6.371-2.54-2.558-.784-5.297-1.473-8.217-2.069l5.142-7.878c3.599.612 7.227 1.574 10.886 2.885s7.372 3.014 11.141 5.108zm-20.801 15.365-3.448-1.749c-2.739-1.411-5.055-2.171-6.948-2.279-1.844-.109-3.511.283-4.999 1.176-1.392.835-2.045 1.665-1.959 2.49.111.81.79 1.562 2.038 2.255 1.738.966 3.758 1.464 6.062 1.496 2.328.045 4.357-.451 6.085-1.488zm16.726 30.346 24.939-33.288 14.977 8.32-17.078 18.391c-.142.171-.572.57-1.289 1.198-.692.642-1.423 1.193-2.191 1.654l.257.143c.816-.49 1.682-.911 2.598-1.262.915-.351 1.626-.622 2.132-.813l31.575-10.419 14.94 8.3-56.654 15.668zm96.872 5.843c5.262 2.923 8.089 5.977 8.481 9.164.417 3.171-1.74 6.176-6.469 9.013l-26.754 16.053-9.947-5.527 2.648-4.77-.294-.163c-2.615.211-5.002.244-7.163.098-2.112-.147-4.167-.539-6.166-1.178-2.022-.625-4.184-1.576-6.484-2.854-2.399-1.332-4.072-2.817-5.021-4.453-.948-1.637-1.001-3.344-.158-5.123.844-1.778 2.754-3.561 5.73-5.347 4.369-2.621 9.152-3.709 14.348-3.263 5.195.445 10.85 2.213 16.963 5.304l7.153 3.725.577-.346c1.824-1.094 2.655-2.13 2.494-3.108-.138-.964-.977-1.874-2.519-2.731-1.64-.911-3.763-1.757-6.37-2.54-2.559-.784-5.298-1.473-8.218-2.069l5.143-7.878c3.598.612 7.227 1.574 10.885 2.885 3.659 1.312 7.373 3.014 11.141 5.108zm-20.801 15.365-3.448-1.749c-2.739-1.411-5.055-2.17-6.947-2.279-1.845-.109-3.511.283-5 1.176-1.392.835-2.045 1.665-1.958 2.49.11.81.789 1.562 2.037 2.255 1.738.966 3.759 1.464 6.062 1.496 2.329.045 4.357-.451 6.085-1.488zm49.262 33.942c-2.592 1.556-5.472 2.605-8.639 3.148s-6.612.432-10.334-.332c-3.698-.751-7.651-2.295-11.861-4.634-2.961-1.645-5.46-3.214-7.497-4.706-2.013-1.479-3.774-3.151-5.284-5.016l11.27-6.762c1.443 2.16 3.258 4.153 5.446 5.979 2.212 1.812 4.102 3.153 5.668 4.023 1.615.897 2.958 1.449 4.028 1.655 1.118.205 2.026.099 2.722-.318.6-.36.847-.806.742-1.336-.058-.531-.459-1.323-1.204-2.375-.72-1.038-1.775-2.484-3.163-4.337-1.364-1.84-2.265-3.519-2.703-5.038-.413-1.505-.23-2.93.547-4.273.778-1.343 2.283-2.685 4.516-4.024 3.984-2.391 8.551-3.321 13.7-2.791s10.305 2.23 15.469 5.098c2.741 1.523 5.022 3.137 6.845 4.843 1.847 1.692 3.503 3.597 4.968 5.715l-13.001 3.262c-1.144-1.689-2.492-3.284-4.044-4.784-1.553-1.501-2.953-2.598-4.201-3.291-1.126-.626-2.138-1.022-3.038-1.189s-1.626-.085-2.178.247c-.504.302-.74.684-.708 1.146.056.475.432 1.197 1.127 2.165.695.969 1.736 2.366 3.124 4.191 1.463 1.922 2.425 3.65 2.887 5.182.51 1.532.365 2.977-.437 4.335-.777 1.371-2.366 2.777-4.767 4.217zm13.693 22.919c-4.209-2.338-7.136-4.81-8.779-7.415-1.62-2.62-1.75-5.327-.39-8.123 1.408-2.796 4.525-5.641 9.35-8.536 4.945-2.967 9.932-4.871 14.961-5.711 5.053-.826 9.976-.768 14.768.174s9.281 2.576 13.465 4.901c2.545 1.414 4.68 2.919 6.404 4.514 1.748 1.61 3.121 3.246 4.118 4.91l-14.627 3.898c-.969-1.398-1.984-2.641-3.045-3.73-1.012-1.089-2.313-2.076-3.904-2.959-1.444-.803-3.089-1.286-4.934-1.452-1.845-.165-3.83.036-5.954.604-2.1.553-4.303 1.521-6.607 2.904-2.353 1.411-3.943 2.719-4.772 3.923-.804 1.218-.979 2.327-.526 3.327.477 1.015 1.438 1.923 2.882 2.725 2.08 1.156 4.46 2.117 7.14 2.885 2.728.767 5.586 1.328 8.574 1.684l-11.198 6.719c-2.818-.289-5.627-.837-8.429-1.645-2.801-.807-5.634-2.006-8.497-3.597zm88.93.598c.783.435 1.543.926 2.279 1.474.761.534 1.313.938 1.657 1.212l-14.572 7.258c-.345-.33-.848-.721-1.511-1.172-.638-.465-1.617-1.065-2.939-1.799-.905-.503-1.956-.99-3.152-1.46s-2.535-.798-4.017-.983c-1.433-.187-2.996-.111-4.687.225-1.668.322-3.426 1.037-5.274 2.146l-20.057 12.034-14.353-7.974 40.797-24.478 10.682 5.934-4.278 5.155.698.387c2.102-.385 4.281-.575 6.536-.571 2.304.004 4.514.219 6.63.646 2.141.441 3.994 1.096 5.561 1.966zm23.91 14.116-40.797 24.478-14.352-7.974 40.797-24.478zm9.299-13.808c2.055 1.142 3.422 2.386 4.099 3.733.701 1.361-.196 2.79-2.693 4.288-2.424 1.455-4.839 2.013-7.245 1.675-2.358-.339-4.564-1.079-6.62-2.221-2.105-1.169-3.483-2.421-4.136-3.754-.604-1.334.306-2.729 2.731-4.183 2.496-1.498 4.899-2.091 7.207-1.78 2.333.325 4.552 1.073 6.657 2.242zm26.845 33.055c4.6 2.556 6.398 5.649 5.391 9.279-.982 3.615-4.87 7.46-11.664 11.536-4.633 2.78-9.194 4.754-13.684 5.921-4.467 1.152-8.654 1.572-12.563 1.259-3.86-.313-7.246-1.279-10.158-2.897-1.958-1.088-3.382-2.156-4.272-3.206-.866-1.035-1.392-2.021-1.577-2.956-.161-.922-.175-1.776-.043-2.562l-.44-.245c-.814.63-1.724 1.289-2.731 1.978-.983.703-2.194 1.486-3.634 2.35l-14.908 8.945-14.352-7.974 58.513-35.108 11.673 6.485-3.166 4.233.66.367c1.742-.253 3.546-.374 5.413-.363 1.891-.004 3.798.224 5.721.682 1.972.457 3.912 1.216 5.821 2.276zm-16.451 3.635c-1.395-.775-2.82-1.192-4.276-1.252s-3.027.204-4.714.793c-1.639.587-3.455 1.451-5.449 2.59l-1.116.67c-2.161 1.296-3.814 2.486-4.959 3.569-1.122 1.069-1.651 2.065-1.587 2.988.088.909.866 1.771 2.334 2.587 1.199.666 2.539 1.022 4.018 1.067 1.48.046 3.16-.255 5.04-.903 1.881-.647 4.021-1.691 6.422-3.131 3.577-2.147 5.632-3.931 6.166-5.354.558-1.41-.068-2.618-1.879-3.624zm28.692 39.116c1.297.721 2.615 1.301 3.956 1.741 1.341.439 2.803.863 4.386 1.271l-10.263 6.157c-2.238-.467-4.442-1.067-6.612-1.801-2.17-.706-4.613-1.814-7.329-3.323-2.692-1.495-4.658-3.059-5.897-4.691-1.216-1.646-1.378-3.4-.488-5.264.939-1.864 3.245-3.898 6.917-6.101l16.816-10.09-5.029-2.794 5.725-3.435 10.817.891 12.277-3.082 9.397 5.221-8.174 4.904 10.205 5.669-10.55 6.331-10.205-5.67-15.88 9.528c-1.32.792-1.973 1.58-1.96 2.364.037.77.667 1.494 1.891 2.174z" fill="#f68523" opacity=".2"/><path d="m6.74805 720.425h14.8458v22.2687h-14.8458z" fill="#012662"/><path d="m699.104 793.98h14.8458v22.2687h-14.8458z" fill="#012662"/><path d="m309.738 833.793h14.8458v22.2687h-14.8458z" fill="#012662"/><path d="m699.104 793.98h14.8458v22.2687h-14.8458z" fill="#012662"/><path d="m290.36 572.866c3.097-1.808 6.925-1.819 10.032-.03l405.433 233.497c6.64 3.825 6.689 13.39.087 17.281l-275.546 162.417c-3.111 1.834-6.97 1.848-10.094.036l-405.4032-235.088c-6.63374-3.847-6.64747-13.421-.0248-17.287z" fill="#012662"/><path d="m290.36 551.947c3.097-1.808 6.925-1.819 10.032-.03l405.433 233.497c6.64 3.825 6.689 13.39.087 17.281l-275.546 162.417c-3.111 1.834-6.97 1.848-10.094.036l-405.4032-235.088c-6.63374-3.847-6.64747-13.421-.0248-17.287z" fill="#afc2ea"/><path d="m290.36 572.866c3.097-1.808 6.925-1.819 10.032-.03l405.433 233.497c6.64 3.825 6.689 13.39.087 17.281l-275.546 162.417c-3.111 1.834-6.97 1.848-10.094.036l-405.4032-235.088c-6.63374-3.847-6.64747-13.421-.0248-17.287z" fill="#012662"/><path d="m290.36 551.947c3.097-1.808 6.925-1.819 10.032-.03l405.433 233.497c6.64 3.825 6.689 13.39.087 17.281l-275.546 162.417c-3.111 1.834-6.97 1.848-10.094.036l-405.4032-235.088c-6.63374-3.847-6.64747-13.421-.0248-17.287z" fill="#afc2ea"/><g fill="#002c84"><path d="m406.911 677.912 25.981 15.184-21.932 12.821-26.317-15.183z"/><path d="m279.372 604.358 25.98 15.183-21.931 12.822-26.317-15.184z"/><path d="m395.439 702.206 25.98 15.183-21.931 12.821-26.318-15.183z"/><path d="m361.698 715.702 25.981 15.183-21.932 12.821-26.317-15.183z"/><path d="m352.925 742.694 25.98 15.184-21.931 12.821-26.318-15.183z"/><path d="m342.128 640.798 25.98 15.183-21.931 12.821-26.318-15.183z"/><path d="m330.657 665.091 25.981 15.183-21.932 12.822-26.317-15.184z"/><path d="m296.917 678.587 25.98 15.183-21.931 12.822-26.318-15.183z"/><path d="m288.144 705.58 25.98 15.183-21.931 12.821-26.318-15.183z"/><path d="m247.655 713.677 25.981 15.183-21.932 12.822-26.317-15.183z"/><path d="m437.277 824.346 25.98 15.183-21.932 12.822-26.317-15.183z"/><path d="m469.667 714.352 25.98 15.183-21.931 12.822-26.318-15.184z"/><path d="m458.196 738.646 25.981 15.183-21.932 12.821-26.317-15.183z"/><path d="m424.456 752.142 25.98 15.183-21.931 12.821-26.317-15.183z"/><path d="m415.683 779.134 25.98 15.183-21.931 12.821-26.318-15.183z"/><path d="m564.142 768.337 25.98 15.183-21.931 12.822-26.318-15.184z"/><path d="m311.087 623.253 25.98 15.183-21.931 12.821-26.318-15.183z"/><path d="m299.616 647.546 25.981 15.183-21.932 12.822-26.317-15.184z"/><path d="m252.38 620.553 40.826 23.956-21.931 12.822-41.164-23.956z"/><path d="m224.036 637.424 35.076 19.907-21.931 12.821-35.413-19.907z"/><path d="m169.378 669.14 40.151 23.618-21.931 12.822-40.489-23.619z"/><path d="m197.044 652.944 54.322 31.716-21.931 12.822-54.66-31.716z"/><path d="m519.941 807.139 45.535 26.992-21.931 12.821-45.873-26.992z"/><path d="m553.007 794.655 41.149 22.943-21.931 12.822-41.487-22.944z"/><path d="m470.343 842.566 40.151 23.619-21.931 12.821-40.489-23.618z"/><path d="m479.452 816.586 58.034 33.403-21.931 12.821-58.371-33.403z"/><path d="m257.103 688.035 25.98 15.183-21.931 12.821-26.318-15.183z"/><path d="m265.876 661.042 25.98 15.183-21.931 12.822-26.318-15.184z"/><path d="m216.614 696.132 25.981 15.184-21.932 12.821-26.317-15.183z"/><path d="m406.236 806.801 25.98 15.184-21.932 12.821-26.317-15.183z"/><path d="m279.708 732.572 120.116 69.843-21.931 12.822-120.454-69.843z"/><path d="m438.626 696.807 25.98 15.183-21.931 12.822-26.318-15.183z"/><path d="m427.155 721.1 25.981 15.183-21.932 12.822-26.317-15.184z"/><path d="m393.415 734.597 25.98 15.183-21.931 12.821-26.318-15.183z"/><path d="m384.642 761.589 25.98 15.183-21.931 12.821-26.318-15.183z"/><path d="m533.101 750.792 25.98 15.183-21.931 12.822-26.318-15.184z"/><path d="m521.628 775.085 25.98 15.183-21.931 12.822-26.318-15.184z"/><path d="m487.888 788.581 25.98 15.183-21.931 12.822-26.318-15.184z"/><path d="m373.845 659.692 25.98 15.184-21.931 12.821-26.318-15.183z"/><path d="m362.372 683.986 25.98 15.183-21.931 12.821-26.317-15.183z"/><path d="m328.632 697.482 25.98 15.183-21.931 12.822-26.318-15.184z"/><path d="m319.861 724.474 25.98 15.183-21.932 12.822-26.317-15.183z"/><path d="m501.384 733.247 25.98 15.183-21.931 12.822-26.318-15.184z"/><path d="m489.913 757.54 25.98 15.183-21.931 12.822-26.317-15.184z"/><path d="m456.171 771.036 25.98 15.183-21.931 12.822-26.318-15.183z"/><path d="m447.4 798.029 25.98 15.183-21.932 12.821-26.317-15.183z"/><path d="m595.859 787.231 25.98 15.184-21.932 12.821-26.317-15.183z"/><path d="m293.88 595.854c.624-.378 1.405-.386 2.037-.021l339.092 196.061c1.338.773 1.33 2.709-.016 3.471l-6.09 3.451c-.615.349-1.368.347-1.981-.005l-340.222-195.135c-1.322-.758-1.344-2.656-.042-3.445z"/></g><path d="m358.073 202.369c1.097-6.928 8.8-10.603 14.875-7.097l412.297 237.951c3.594 2.074 5.534 6.152 4.875 10.249l-54.619 339.463c-1.117 6.941-8.857 10.593-14.924 7.043l-411.019-240.542c-3.554-2.08-5.47-6.127-4.826-10.194z" fill="url(#a)"/><path d="m349.639 206.755c1.097-6.928 8.801-10.603 14.876-7.097l412.297 237.951c3.594 2.074 5.533 6.152 4.874 10.249l-54.619 339.464c-1.117 6.94-8.857 10.592-14.924 7.042l-411.018-240.541c-3.555-2.081-5.471-6.127-4.826-10.195z" fill="#002c84"/><path d="m699.104 793.98h14.8458v22.2687h-14.8458z" fill="#012662"/><path d="m309.738 833.793h14.8458v22.2687h-14.8458z" fill="#012662"/><path d="m290.36 572.866c3.097-1.808 6.925-1.819 10.032-.03l405.433 233.497c6.64 3.825 6.689 13.39.087 17.281l-275.546 162.417c-3.111 1.834-6.97 1.848-10.094.036l-405.4032-235.088c-6.63374-3.847-6.64747-13.421-.0248-17.287z" fill="#012662"/><path d="m290.36 551.947c3.097-1.808 6.925-1.819 10.032-.03l405.433 233.497c6.64 3.825 6.689 13.39.087 17.281l-275.546 162.417c-3.111 1.834-6.97 1.848-10.094.036l-405.4032-235.088c-6.63374-3.847-6.64747-13.421-.0248-17.287z" fill="#afc2ea"/><path d="m406.911 677.912 25.981 15.184-21.932 12.821-26.317-15.183z" fill="#002c84"/><path d="m279.372 604.358 25.98 15.183-21.931 12.822-26.317-15.184z" fill="#002c84"/><path d="m395.439 702.206 25.98 15.183-21.931 12.821-26.318-15.183z" fill="#002c84"/><path d="m361.698 715.702 25.981 15.183-21.932 12.821-26.317-15.183z" fill="#002c84"/><path d="m352.925 742.694 25.98 15.184-21.931 12.821-26.318-15.183z" fill="#002c84"/><path d="m342.128 640.798 25.98 15.183-21.931 12.821-26.318-15.183z" fill="#002c84"/><path d="m330.657 665.091 25.981 15.183-21.932 12.822-26.317-15.184z" fill="#002c84"/><path d="m296.917 678.587 25.98 15.183-21.931 12.822-26.318-15.183z" fill="#002c84"/><path d="m288.144 705.58 25.98 15.183-21.931 12.821-26.318-15.183z" fill="#002c84"/><path d="m247.655 713.677 25.981 15.183-21.932 12.822-26.317-15.183z" fill="#002c84"/><path d="m437.277 824.346 25.98 15.183-21.932 12.822-26.317-15.183z" fill="#002c84"/><path d="m469.667 714.352 25.98 15.183-21.931 12.822-26.318-15.184z" fill="#002c84"/><path d="m458.196 738.646 25.981 15.183-21.932 12.821-26.317-15.183z" fill="#002c84"/><path d="m424.456 752.142 25.98 15.183-21.931 12.821-26.317-15.183z" fill="#002c84"/><path d="m415.683 779.134 25.98 15.183-21.931 12.821-26.318-15.183z" fill="#002c84"/><path d="m564.142 768.337 25.98 15.183-21.931 12.822-26.318-15.184z" fill="#002c84"/><path d="m311.087 623.253 25.98 15.183-21.931 12.821-26.318-15.183z" fill="#002c84"/><path d="m299.616 647.546 25.981 15.183-21.932 12.822-26.317-15.184z" fill="#002c84"/><path d="m252.38 620.553 40.826 23.956-21.931 12.822-41.164-23.956z" fill="#002c84"/><path d="m224.036 637.424 35.076 19.907-21.931 12.821-35.413-19.907z" fill="#002c84"/><path d="m197.044 652.944 54.322 31.716-21.931 12.822-54.66-31.716z" fill="#002c84"/><path d="m519.941 807.139 45.535 26.992-21.931 12.821-45.873-26.992z" fill="#002c84"/><path d="m553.007 794.655 41.149 22.943-21.931 12.822-41.487-22.944z" fill="#002c84"/><path d="m470.343 842.566 40.151 23.619-21.931 12.821-40.489-23.618z" fill="#002c84"/><path d="m479.452 816.586 58.034 33.403-21.931 12.821-58.371-33.403z" fill="#002c84"/><path d="m257.103 688.035 25.98 15.183-21.931 12.821-26.318-15.183z" fill="#002c84"/><path d="m265.876 661.042 25.98 15.183-21.931 12.822-26.318-15.184z" fill="#002c84"/><path d="m216.614 696.132 25.981 15.184-21.932 12.821-26.317-15.183z" fill="#002c84"/><path d="m406.236 806.801 25.98 15.184-21.932 12.821-26.317-15.183z" fill="#002c84"/><path d="m279.708 732.572 120.116 69.843-21.931 12.822-120.454-69.843z" fill="#002c84"/><path d="m438.626 696.807 25.98 15.183-21.931 12.822-26.318-15.183z" fill="#002c84"/><path d="m427.155 721.1 25.981 15.183-21.932 12.822-26.317-15.184z" fill="#002c84"/><path d="m393.415 734.597 25.98 15.183-21.931 12.821-26.318-15.183z" fill="#002c84"/><path d="m384.642 761.589 25.98 15.183-21.931 12.821-26.318-15.183z" fill="#002c84"/><path d="m533.101 750.792 25.98 15.183-21.931 12.822-26.318-15.184z" fill="#002c84"/><path d="m521.628 775.085 25.98 15.183-21.931 12.822-26.318-15.184z" fill="#002c84"/><path d="m487.888 788.581 25.98 15.183-21.931 12.822-26.318-15.184z" fill="#002c84"/><path d="m373.845 659.692 25.98 15.184-21.931 12.821-26.318-15.183z" fill="#002c84"/><path d="m362.372 683.986 25.98 15.183-21.931 12.821-26.317-15.183z" fill="#002c84"/><path d="m328.632 697.482 25.98 15.183-21.931 12.822-26.318-15.184z" fill="#002c84"/><path d="m319.861 724.474 25.98 15.183-21.932 12.822-26.317-15.183z" fill="#002c84"/><path d="m501.384 733.247 25.98 15.183-21.931 12.822-26.318-15.184z" fill="#002c84"/><path d="m489.913 757.54 25.98 15.183-21.931 12.822-26.317-15.184z" fill="#002c84"/><path d="m456.171 771.036 25.98 15.183-21.931 12.822-26.318-15.183z" fill="#002c84"/><path d="m447.4 798.029 25.98 15.183-21.932 12.821-26.317-15.183z" fill="#002c84"/><path d="m595.859 787.231 25.98 15.184-21.932 12.821-26.317-15.183z" fill="#002c84"/><path d="m293.88 595.854c.624-.378 1.405-.386 2.037-.021l339.092 196.061c1.338.773 1.33 2.709-.016 3.471l-6.09 3.451c-.615.349-1.368.347-1.981-.005l-340.222-195.135c-1.322-.758-1.344-2.656-.042-3.445z" fill="#002c84"/><path d="m358.073 202.369c1.097-6.928 8.8-10.603 14.875-7.097l412.297 237.951c3.594 2.074 5.534 6.152 4.875 10.249l-54.619 339.463c-1.117 6.941-8.857 10.593-14.924 7.043l-411.019-240.542c-3.554-2.08-5.47-6.127-4.826-10.194z" fill="url(#a)"/><path d="m349.639 206.755c1.097-6.928 8.801-10.603 14.876-7.097l412.297 237.951c3.594 2.074 5.533 6.152 4.874 10.249l-54.619 339.464c-1.117 6.94-8.857 10.592-14.924 7.042l-411.018-240.541c-3.555-2.081-5.471-6.127-4.826-10.195z" fill="#002c84"/><path d="m6.74805 720.425h14.8458v22.2687h-14.8458z" fill="#012662"/><path d="m699.104 793.98h14.8458v22.2687h-14.8458z" fill="#012662"/><path d="m309.738 833.793h14.8458v22.2687h-14.8458z" fill="#012662"/><path d="m290.36 572.866c3.097-1.808 6.925-1.819 10.032-.03l405.433 233.497c6.64 3.825 6.689 13.39.087 17.281l-275.546 162.417c-3.111 1.834-6.97 1.848-10.094.036l-405.4032-235.088c-6.63374-3.847-6.64747-13.421-.0248-17.287z" fill="#012662"/><path d="m290.36 551.947c3.097-1.808 6.925-1.819 10.032-.03l405.433 233.497c6.64 3.825 6.689 13.39.087 17.281l-275.546 162.417c-3.111 1.834-6.97 1.848-10.094.036l-405.4032-235.088c-6.63374-3.847-6.64747-13.421-.0248-17.287z" fill="#afc2ea"/><path d="m406.911 677.912 25.981 15.184-21.932 12.821-26.317-15.183z" fill="#002c84"/><path d="m279.372 604.358 25.98 15.183-21.931 12.822-26.317-15.184z" fill="#002c84"/><path d="m395.439 702.206 25.98 15.183-21.931 12.821-26.318-15.183z" fill="#002c84"/><path d="m361.698 715.702 25.981 15.183-21.932 12.821-26.317-15.183z" fill="#002c84"/><path d="m352.925 742.694 25.98 15.184-21.931 12.821-26.318-15.183z" fill="#002c84"/><path d="m342.128 640.798 25.98 15.183-21.931 12.821-26.318-15.183z" fill="#002c84"/><path d="m330.657 665.091 25.981 15.183-21.932 12.822-26.317-15.184z" fill="#002c84"/><path d="m296.917 678.587 25.98 15.183-21.931 12.822-26.318-15.183z" fill="#002c84"/><path d="m288.144 705.58 25.98 15.183-21.931 12.821-26.318-15.183z" fill="#002c84"/><path d="m247.655 713.677 25.981 15.183-21.932 12.822-26.317-15.183z" fill="#002c84"/><path d="m437.277 824.346 25.98 15.183-21.932 12.822-26.317-15.183z" fill="#002c84"/><path d="m469.667 714.352 25.98 15.183-21.931 12.822-26.318-15.184z" fill="#002c84"/><path d="m458.196 738.646 25.981 15.183-21.932 12.821-26.317-15.183z" fill="#002c84"/><path d="m424.456 752.142 25.98 15.183-21.931 12.821-26.317-15.183z" fill="#002c84"/><path d="m415.683 779.134 25.98 15.183-21.931 12.821-26.318-15.183z" fill="#002c84"/><path d="m564.142 768.337 25.98 15.183-21.931 12.822-26.318-15.184z" fill="#002c84"/><path d="m311.087 623.253 25.98 15.183-21.931 12.821-26.318-15.183z" fill="#002c84"/><path d="m299.616 647.546 25.981 15.183-21.932 12.822-26.317-15.184z" fill="#002c84"/><path d="m252.38 620.553 40.826 23.956-21.931 12.822-41.164-23.956z" fill="#002c84"/><path d="m224.036 637.424 35.076 19.907-21.931 12.821-35.413-19.907z" fill="#002c84"/><path d="m169.378 669.14 40.151 23.618-21.931 12.822-40.489-23.619z" fill="#002c84"/><path d="m197.044 652.944 54.322 31.716-21.931 12.822-54.66-31.716z" fill="#002c84"/><path d="m519.941 807.139 45.535 26.992-21.931 12.821-45.873-26.992z" fill="#002c84"/><path d="m553.007 794.655 41.149 22.943-21.931 12.822-41.487-22.944z" fill="#002c84"/><path d="m470.343 842.566 40.151 23.619-21.931 12.821-40.489-23.618z" fill="#002c84"/><path d="m479.452 816.586 58.034 33.403-21.931 12.821-58.371-33.403z" fill="#002c84"/><path d="m257.103 688.035 25.98 15.183-21.931 12.821-26.318-15.183z" fill="#002c84"/><path d="m265.876 661.042 25.98 15.183-21.931 12.822-26.318-15.184z" fill="#002c84"/><path d="m216.614 696.132 25.981 15.184-21.932 12.821-26.317-15.183z" fill="#002c84"/><path d="m406.236 806.801 25.98 15.184-21.932 12.821-26.317-15.183z" fill="#002c84"/><path d="m279.708 732.572 120.116 69.843-21.931 12.822-120.454-69.843z" fill="#002c84"/><path d="m438.626 696.807 25.98 15.183-21.931 12.822-26.318-15.183z" fill="#002c84"/><path d="m427.155 721.1 25.981 15.183-21.932 12.822-26.317-15.184z" fill="#002c84"/><path d="m393.415 734.597 25.98 15.183-21.931 12.821-26.318-15.183z" fill="#002c84"/><path d="m384.642 761.589 25.98 15.183-21.931 12.821-26.318-15.183z" fill="#002c84"/><path d="m533.101 750.792 25.98 15.183-21.931 12.822-26.318-15.184z" fill="#002c84"/><path d="m521.628 775.085 25.98 15.183-21.931 12.822-26.318-15.184z" fill="#002c84"/><path d="m487.888 788.581 25.98 15.183-21.931 12.822-26.318-15.184z" fill="#002c84"/><path d="m373.845 659.692 25.98 15.184-21.931 12.821-26.318-15.183z" fill="#002c84"/><path d="m362.372 683.986 25.98 15.183-21.931 12.821-26.317-15.183z" fill="#002c84"/><path d="m328.632 697.482 25.98 15.183-21.931 12.822-26.318-15.184z" fill="#002c84"/><path d="m319.861 724.474 25.98 15.183-21.932 12.822-26.317-15.183z" fill="#002c84"/><path d="m501.384 733.247 25.98 15.183-21.931 12.822-26.318-15.184z" fill="#002c84"/><path d="m489.913 757.54 25.98 15.183-21.931 12.822-26.317-15.184z" fill="#002c84"/><path d="m456.171 771.036 25.98 15.183-21.931 12.822-26.318-15.183z" fill="#002c84"/><path d="m447.4 798.029 25.98 15.183-21.932 12.821-26.317-15.183z" fill="#002c84"/><path d="m595.859 787.231 25.98 15.184-21.932 12.821-26.317-15.183z" fill="#002c84"/><path d="m293.88 595.854c.624-.378 1.405-.386 2.037-.021l339.092 196.061c1.338.773 1.33 2.709-.016 3.471l-6.09 3.451c-.615.349-1.368.347-1.981-.005l-340.222-195.135c-1.322-.758-1.344-2.656-.042-3.445z" fill="#002c84"/><path d="m358.073 202.369c1.097-6.928 8.8-10.603 14.875-7.097l412.297 237.951c3.594 2.074 5.534 6.152 4.875 10.249l-54.619 339.463c-1.117 6.941-8.857 10.593-14.924 7.043l-411.019-240.542c-3.554-2.08-5.47-6.127-4.826-10.194z" fill="url(#a)"/><path d="m349.639 206.755c1.097-6.928 8.801-10.603 14.876-7.097l412.297 237.951c3.594 2.074 5.533 6.152 4.874 10.249l-54.619 339.464c-1.117 6.94-8.857 10.592-14.924 7.042l-411.018-240.541c-3.555-2.081-5.471-6.127-4.826-10.195z" fill="#002c84"/><path d="m406.911 677.912 25.981 15.184-21.932 12.821-26.317-15.183z" fill="#002c84"/><path d="m279.372 604.358 25.98 15.183-21.931 12.822-26.317-15.184z" fill="#002c84"/><path d="m395.439 702.206 25.98 15.183-21.931 12.821-26.318-15.183z" fill="#002c84"/><path d="m361.698 715.702 25.981 15.183-21.932 12.821-26.317-15.183z" fill="#002c84"/><path d="m352.925 742.694 25.98 15.184-21.931 12.821-26.318-15.183z" fill="#002c84"/><path d="m342.128 640.798 25.98 15.183-21.931 12.821-26.318-15.183z" fill="#002c84"/><path d="m330.657 665.091 25.981 15.183-21.932 12.822-26.317-15.184z" fill="#002c84"/><path d="m296.917 678.587 25.98 15.183-21.931 12.822-26.318-15.183z" fill="#002c84"/><path d="m288.144 705.58 25.98 15.183-21.931 12.821-26.318-15.183z" fill="#002c84"/><path d="m247.655 713.677 25.981 15.183-21.932 12.822-26.317-15.183z" fill="#002c84"/><path d="m437.277 824.346 25.98 15.183-21.932 12.822-26.317-15.183z" fill="#002c84"/><path d="m469.667 714.352 25.98 15.183-21.931 12.822-26.318-15.184z" fill="#002c84"/><path d="m458.196 738.646 25.981 15.183-21.932 12.821-26.317-15.183z" fill="#002c84"/><path d="m424.456 752.142 25.98 15.183-21.931 12.821-26.317-15.183z" fill="#002c84"/><path d="m415.683 779.134 25.98 15.183-21.931 12.821-26.318-15.183z" fill="#002c84"/><path d="m564.142 768.337 25.98 15.183-21.931 12.822-26.318-15.184z" fill="#002c84"/><path d="m311.087 623.253 25.98 15.183-21.931 12.821-26.318-15.183z" fill="#002c84"/><path d="m299.616 647.546 25.981 15.183-21.932 12.822-26.317-15.184z" fill="#002c84"/><path d="m252.38 620.553 40.826 23.956-21.931 12.822-41.164-23.956z" fill="#002c84"/><path d="m224.036 637.424 35.076 19.907-21.931 12.821-35.413-19.907z" fill="#002c84"/><path d="m197.044 652.944 54.322 31.716-21.931 12.822-54.66-31.716z" fill="#002c84"/><path d="m519.941 807.139 45.535 26.992-21.931 12.821-45.873-26.992z" fill="#002c84"/><path d="m553.007 794.655 41.149 22.943-21.931 12.822-41.487-22.944z" fill="#002c84"/><path d="m470.343 842.566 40.151 23.619-21.931 12.821-40.489-23.618z" fill="#002c84"/><path d="m479.452 816.586 58.034 33.403-21.931 12.821-58.371-33.403z" fill="#002c84"/><path d="m257.103 688.035 25.98 15.183-21.931 12.821-26.318-15.183z" fill="#002c84"/><path d="m265.876 661.042 25.98 15.183-21.931 12.822-26.318-15.184z" fill="#002c84"/><path d="m216.614 696.132 25.981 15.184-21.932 12.821-26.317-15.183z" fill="#002c84"/><path d="m406.236 806.801 25.98 15.184-21.932 12.821-26.317-15.183z" fill="#002c84"/><path d="m279.708 732.572 120.116 69.843-21.931 12.822-120.454-69.843z" fill="#002c84"/><path d="m438.626 696.807 25.98 15.183-21.931 12.822-26.318-15.183z" fill="#002c84"/><path d="m427.155 721.1 25.981 15.183-21.932 12.822-26.317-15.184z" fill="#002c84"/><path d="m393.415 734.597 25.98 15.183-21.931 12.821-26.318-15.183z" fill="#002c84"/><path d="m384.642 761.589 25.98 15.183-21.931 12.821-26.318-15.183z" fill="#002c84"/><path d="m533.101 750.792 25.98 15.183-21.931 12.822-26.318-15.184z" fill="#002c84"/><path d="m521.628 775.085 25.98 15.183-21.931 12.822-26.318-15.184z" fill="#002c84"/><path d="m487.888 788.581 25.98 15.183-21.931 12.822-26.318-15.184z" fill="#002c84"/><path d="m373.845 659.692 25.98 15.184-21.931 12.821-26.318-15.183z" fill="#002c84"/><path d="m362.372 683.986 25.98 15.183-21.931 12.821-26.317-15.183z" fill="#002c84"/><path d="m328.632 697.482 25.98 15.183-21.931 12.822-26.318-15.184z" fill="#002c84"/><path d="m319.861 724.474 25.98 15.183-21.932 12.822-26.317-15.183z" fill="#002c84"/><path d="m501.384 733.247 25.98 15.183-21.931 12.822-26.318-15.184z" fill="#002c84"/><path d="m489.913 757.54 25.98 15.183-21.931 12.822-26.317-15.184z" fill="#002c84"/><path d="m456.171 771.036 25.98 15.183-21.931 12.822-26.318-15.183z" fill="#002c84"/><path d="m447.4 798.029 25.98 15.183-21.932 12.821-26.317-15.183z" fill="#002c84"/><path d="m595.859 787.231 25.98 15.184-21.932 12.821-26.317-15.183z" fill="#002c84"/><path d="m293.88 595.854c.624-.378 1.405-.386 2.037-.021l339.092 196.061c1.338.773 1.33 2.709-.016 3.471l-6.09 3.451c-.615.349-1.368.347-1.981-.005l-340.222-195.135c-1.322-.758-1.344-2.656-.042-3.445z" fill="#002c84"/><path d="m358.073 202.369c1.097-6.928 8.8-10.603 14.875-7.097l412.297 237.951c3.594 2.074 5.534 6.152 4.875 10.249l-54.619 339.463c-1.117 6.941-8.857 10.593-14.924 7.043l-411.019-240.542c-3.554-2.08-5.47-6.127-4.826-10.194z" fill="url(#a)"/><path d="m349.639 206.755c1.097-6.928 8.801-10.603 14.876-7.097l412.297 237.951c3.594 2.074 5.533 6.152 4.874 10.249l-54.619 339.464c-1.117 6.94-8.857 10.592-14.924 7.042l-411.018-240.541c-3.555-2.081-5.471-6.127-4.826-10.195z" fill="#002c84"/><path d="m314 27 387 226.1v534.337l-387-226.1z" fill="url(#b)"/><rect fill="#fda24f" height="12.7578" rx="5" transform="matrix(.865865 .500278 0 1 344 236)" width="72.2944"/><rect fill="#d6e6f3" height="12.7578" rx="5" transform="matrix(.865865 .500278 0 1 344 383.424)" width="72.2944"/><rect fill="#d6e6f3" height="12.7578" rx="5" transform="matrix(.865865 .500278 0 1 364.865 266.484)" width="72.2944"/><rect fill="#fda24f" height="12.7578" rx="5" transform="matrix(.865865 .500278 0 1 364.865 413.907)" width="72.2944"/><rect fill="#cc61eb" height="12.7578" rx="5" transform="matrix(.865865 .500278 0 1 432.371 305.488)" width="72.2944"/><rect fill="#cc61eb" height="12.7578" rx="5" transform="matrix(.865865 .500278 0 1 432.371 452.912)" width="72.2944"/><rect fill="#d6e6f3" height="12.7578" rx="5" transform="matrix(.865865 .500278 0 1 499.879 344.492)" width="133.249"/><rect fill="#d9d9d9" height="12.7578" rx="5" transform="matrix(.865865 .500278 0 1 620.164 413.99)" width="53.8664"/><rect fill="#d9d9d9" height="12.7578" rx="5" transform="matrix(.865865 .500278 0 1 499.879 491.916)" width="53.8664"/><rect fill="#d9d9d9" height="12.7578" rx="5" transform="matrix(.865865 .500278 0 1 396.779 303.35)" width="53.8664"/><rect fill="#cc61eb" height="12.7578" rx="5" transform="matrix(.865865 .500278 0 1 396.779 321.778)" width="93.5575"/><rect fill="#fda24f" height="12.7578" rx="5" transform="matrix(.865865 .500278 0 1 396.779 340.206)" width="75.1295"/><rect fill="#d6e6f3" height="12.7578" rx="5" transform="matrix(.865865 .500278 0 1 396.779 450.774)" width="75.1295"/><rect fill="#cc61eb" height="12.7578" rx="5" transform="matrix(.865865 .500278 0 1 396.779 358.634)" width="75.1295"/><rect fill="#fda24f" height="12.7578" rx="5" transform="matrix(.865865 .500278 0 1 396.779 469.202)" width="75.1295"/><rect fill="#fda24f" height="12.7578" rx="5" transform="matrix(.865865 .500278 0 1 420.1 390.536)" width="48.1963"/><rect fill="#cc61eb" height="12.7578" rx="5" transform="matrix(.865865 .500278 0 1 420.1 501.104)" width="48.1963"/><rect fill="#d9d9d9" height="12.7578" rx="5" transform="matrix(.865865 .500278 0 1 466.738 417.484)" width="75.1295"/><rect fill="#d6e6f3" height="12.7578" rx="5" transform="matrix(.865865 .500278 0 1 466.738 528.052)" width="75.1295"/><rect fill="#cc61eb" height="12.7578" rx="5" transform="matrix(.865865 .500278 0 1 396.779 395.49)" width="75.1295"/><rect fill="#fda24f" height="12.7578" rx="5" transform="matrix(.865865 .500278 0 1 396.779 506.058)" width="75.1295"/><rect fill="#cc61eb" height="12.7578" rx="5" transform="matrix(.865865 .500278 0 1 420.1 537.96)" width="157.347"/><rect fill="#d6e6f3" height="12.7578" rx="5" transform="matrix(.865865 .500278 0 1 466.738 380.628)" width="75.1295"/><rect fill="#d9d9d9" height="12.7578" rx="5" transform="matrix(.865865 .500278 0 1 466.738 491.196)" width="75.1295"/><rect fill="#fda24f" height="12.7578" rx="5" transform="matrix(.865865 .500278 0 1 483.924 372.129)" width="31.1858"/><rect fill="#d6e6f3" height="12.7578" rx="5" transform="matrix(.865865 .500278 0 1 470.42 548.608)" width="31.1858"/><rect fill="#fda24f" height="12.7578" rx="5" transform="matrix(.865865 .500278 0 1 563.705 620.932)" width="31.1858"/><rect fill="#fda24f" height="12.7578" rx="5" transform="matrix(.865865 .500278 0 1 396.779 542.914)" width="31.1858"/></svg>