<svg xmlns="http://www.w3.org/2000/svg" viewBox="0 0 415.92 144.59"><defs><style>.cls-1{fill:none;stroke:#fff;stroke-linecap:round;stroke-linejoin:round;stroke-width:2px;}.cls-2{fill:#315aa9;}.cls-3{fill:#21498a;}.cls-4{fill:#4570b7;}.cls-5{fill:#8bb0dd;}.cls-6{fill:#fff;}</style></defs><title>specifikation_1</title><g id="Layer_2" data-name="Layer 2"><g id="Layer_1-2" data-name="Layer 1"><polygon class="cls-1" points="68.75 131.45 13.54 99.24 13.54 35.76 68.75 67.97 68.75 131.45"/><polygon class="cls-1" points="68.75 131.45 123.97 99.24 123.97 35.76 68.75 67.97 68.75 131.45"/><polygon class="cls-1" points="123.97 99.04 68.75 66.83 68.75 3.34 123.97 35.55 123.97 99.04"/><polygon class="cls-1" points="68.75 3.34 13.54 35.55 13.54 99.04 68.75 66.83 68.75 3.34"/><polygon class="cls-2" points="306.43 106.67 251.69 75.14 306.43 43.61 361.18 75.14 306.43 106.67"/><polygon class="cls-3" points="251.69 75.14 196.95 43.61 251.69 12.08 306.43 43.61 251.69 75.14"/><polygon class="cls-4" points="251.69 138.2 196.95 106.67 251.69 75.14 306.43 106.67 251.69 138.2"/><polygon class="cls-4" points="361.18 75.14 306.43 43.61 361.18 12.08 415.92 43.61 361.18 75.14"/><polygon class="cls-5" points="361.18 138.2 306.43 106.67 361.18 75.14 415.92 106.67 361.18 138.2"/><rect class="cls-6" x="65.41" width="6.69" height="6.69"/><rect class="cls-6" x="10.2" y="32.42" width="6.69" height="6.69"/><rect class="cls-6" x="10.2" y="95.69" width="6.69" height="6.69"/><rect class="cls-6" x="65.41" y="64.07" width="6.69" height="6.69"/><rect class="cls-6" x="65.41" y="128.11" width="6.69" height="6.69"/><rect class="cls-6" x="120.62" y="95.69" width="6.69" height="6.69"/><rect class="cls-6" x="120.62" y="32.42" width="6.69" height="6.69"/><line class="cls-1" x1="6.21" y1="112.37" x2="55.5" y2="140.98"/><polygon class="cls-6" points="4.96 117.41 0 108.77 9.97 108.79 4.96 117.41"/><polygon class="cls-6" points="51.73 144.56 61.7 144.59 56.74 135.94 51.73 144.56"/><line class="cls-1" x1="80.86" y1="140.98" x2="130.15" y2="112.37"/><polygon class="cls-6" points="84.62 144.56 74.65 144.59 79.62 135.94 84.62 144.56"/><polygon class="cls-6" points="131.39 117.41 136.36 108.77 126.39 108.79 131.39 117.41"/></g></g></svg>