<svg viewBox="0 0 415.92 144.59" xmlns="http://www.w3.org/2000/svg"><path d="m68.75 131.45-55.21-32.21v-63.48l55.21 32.21z" fill="none" stroke="#fff" stroke-linecap="round" stroke-linejoin="round" stroke-width="2"/><path d="m68.75 131.45 55.22-32.21v-63.48l-55.22 32.21z" fill="none" stroke="#fff" stroke-linecap="round" stroke-linejoin="round" stroke-width="2"/><path d="m123.97 99.04-55.22-32.21v-63.49l55.22 32.21z" fill="none" stroke="#fff" stroke-linecap="round" stroke-linejoin="round" stroke-width="2"/><path d="m68.75 3.34-55.21 32.21v63.49l55.21-32.21z" fill="none" stroke="#fff" stroke-linecap="round" stroke-linejoin="round" stroke-width="2"/><path d="m306.43 106.67-54.74-31.53 54.74-31.53 54.75 31.53z" fill="#315aa9"/><path d="m251.69 75.14-54.74-31.53 54.74-31.53 54.74 31.53z" fill="#21498a"/><path d="m251.69 138.2-54.74-31.53 54.74-31.53 54.74 31.53z" fill="#4570b7"/><path d="m361.18 75.14-54.75-31.53 54.75-31.53 54.74 31.53z" fill="#4570b7"/><path d="m361.18 138.2-54.75-31.53 54.75-31.53 54.74 31.53z" fill="#8bb0dd"/><g fill="#fff"><path d="m65.41 0h6.69v6.69h-6.69z"/><path d="m10.2 32.42h6.69v6.69h-6.69z"/><path d="m10.2 95.69h6.69v6.69h-6.69z"/><path d="m65.41 64.07h6.69v6.69h-6.69z"/><path d="m65.41 128.11h6.69v6.69h-6.69z"/><path d="m120.62 95.69h6.69v6.69h-6.69z"/><path d="m120.62 32.42h6.69v6.69h-6.69z"/></g><path d="m6.21 112.37 49.29 28.61" fill="none" stroke="#fff" stroke-linecap="round" stroke-linejoin="round" stroke-width="2"/><path d="m4.96 117.41-4.96-8.64 9.97.02z" fill="#fff"/><path d="m51.73 144.56 9.97.03-4.96-8.65z" fill="#fff"/><path d="m80.86 140.98 49.29-28.61" fill="none" stroke="#fff" stroke-linecap="round" stroke-linejoin="round" stroke-width="2"/><path d="m84.62 144.56-9.97.03 4.97-8.65z" fill="#fff"/><path d="m131.39 117.41 4.97-8.64-9.97.02z" fill="#fff"/></svg>