<svg fill="none" height="60" viewBox="0 0 69 60" width="69" xmlns="http://www.w3.org/2000/svg"><g fill="#483ea8"><path d="m36.0283 14.7458.0922.0275.004-.0045c.4377.0793.8718-.1828 1.0004-.6169 1.1717-3.9367 4.8628-6.68686 8.9752-6.68686.4869 0 .8817-.39488.8817-.88174 0-.48687-.3949-.88174-.8817-.88174-5.0542 0-9.3014 3.36509-10.6651 7.94774-.1392.4669.1268.9574.5933 1.0965z" stroke="#f9fff9" stroke-width=".3"/><path d="m56.3438 42.4384h-4.3904c-.404 0-.7317-.3277-.7317-.7317s.3277-.7318.7317-.7318h4.3904c6.0518 0 10.9759-4.924 10.9759-10.9759s-4.9241-10.976-10.9759-10.976h-.1056c-.2122 0-.414-.0919-.553-.2524s-.2018-.3732-.1714-.5833c.0653-.4558.0982-.9136.0982-1.3594 0-5.245-4.2676-9.51259-9.5125-9.51259-2.0405 0-3.9864.63765-5.6276 1.84447-.3607.265-.8729.1474-1.0814-.24931-4.648-8.8507707-16.7882-10.03934-23.0823-2.33994-2.6514 3.24364-3.6932 7.46307-2.8584 11.57547.092.4542-.2556.8776-.7171.8776h-.2932c-6.0519 0-10.97597 4.9241-10.97597 10.976 0 6.0518 4.92407 10.9759 10.97597 10.9759h4.3903c.404 0 .7317.3277.7317.7317 0 .4041-.3277.7318-.7317.7318h-4.3903c-6.859 0-12.4395-5.5805-12.4395-12.4395 0-6.6666 5.27155-12.1253 11.8651-12.4264-.6194-4.2665.565-8.57015 3.31-11.92873 6.7387-8.24397 19.6529-7.31993 25.112 1.8727 1.7416-1.09185 3.7344-1.66463 5.8121-1.66463 6.3546 0 11.39 5.40856 10.9494 11.72756 6.5327.3663 11.7343 5.7963 11.7343 12.419 0 6.8595-5.5805 12.4394-12.4395 12.4394z"/><g stroke-width=".3"><path d="m15.85 41.2935c0 10.1699 8.2737 18.4435 18.4435 18.4435 10.1699 0 18.4435-8.2737 18.4435-18.4435 0-10.17-8.2736-18.4435-18.4435-18.4435-10.17 0-18.4435 8.2737-18.4435 18.4435zm1.7638 0c0-9.1969 7.4826-16.6797 16.6797-16.6797 9.1969 0 16.6797 7.4826 16.6797 16.6797 0 9.1969-7.4828 16.6797-16.6797 16.6797s-16.6797-7.4827-16.6797-16.6797z" stroke="#f9fff9"/><path d="m33.9422 48.6577c0 .3786.3071.6857.6857.6857s.6857-.3067.6857-.6857v-13.9286c0-.3787-.307-.6857-.6857-.6857-.3786 0-.6857.307-.6857.6857z" stroke="#483ea8"/><path d="m34.6279 35.7001-3.8007 3.8007zm0 0 3.8007 3.8008c.1338.1337.3098.2008.4849.2008zm-4.7706 3.8008c.2678.2678.7022.268.9698 0l8.0864.2008c.1748 0 .351-.0665.4849-.2008.2679-.2679.2678-.7019 0-.9698l-4.2857-4.2856c-.2678-.2678-.7022-.268-.9697 0-.0001 0-.0001.0001-.0001.0001l-4.2856 4.2855c-.2679.2679-.2679.7019 0 .9698z" stroke="#483ea8"/></g></g></svg>