<svg fill="none" height="98" viewBox="0 0 98 98" width="98" xmlns="http://www.w3.org/2000/svg" xmlns:xlink="http://www.w3.org/1999/xlink"><clipPath id="a"><path d="m0 0h98v98h-98z"/></clipPath><g clip-path="url(#a)" fill="#aac148"><path d="m73.8571 32.3542h-49.7141c-1.1059 0-2.0023.8964-2.0023 2.0023v41.6893c0 1.1059.8964 2.0023 2.0023 2.0023h8.8628v14.0494c0 3.2598 2.6425 5.9025 5.9025 5.9025 3.2597 0 5.9025-2.6425 5.9025-5.9025v-14.0494h8.2556v14.0494c0 3.2598 2.6425 5.9025 5.9025 5.9025 3.2597 0 5.9025-2.6425 5.9025-5.9025v-14.0494h8.9859c1.1059 0 2.0023-.8964 2.0023-2.0023v-41.6893c-.0002-1.1059-.8966-2.0023-2.0025-2.0023z"/><path d="m13.724 32.3445c-3.2597 0-5.90247 2.6425-5.90247 5.9024v23.9736c0 3.2597 2.64247 5.9025 5.90247 5.9025 3.2597 0 5.9025-2.6425 5.9025-5.9025v-23.9736c-.0002-3.2597-2.6428-5.9024-5.9025-5.9024z"/><path d="m84.276 32.3445c-3.2597 0-5.9025 2.6425-5.9025 5.9024v23.9736c0 3.2597 2.6425 5.9025 5.9025 5.9025 3.2597 0 5.9025-2.6425 5.9025-5.9025v-23.9736c0-3.2597-2.6425-5.9024-5.9025-5.9024z"/><path d="m24.5453 29.4303h48.792c1.2729 0 2.2222-1.1725 1.9608-2.4183-1.614-7.6922-6.5114-14.1747-13.1568-17.91952l4.1711-7.52595c.2823-.50952.0982-1.151649-.4113-1.433928-.5107-.282991-1.1519-.0982052-1.4342.411321l-4.2026 7.582637c-3.4422-1.59737-7.2783-2.48951-11.323-2.48951-4.0449 0-7.881.89214-11.3232 2.48951l-4.2026-7.582874c-.2825-.5097636-.9247-.693601-1.434-.411322-.5095.28228-.6936.924406-.4113 1.433936l4.1711 7.52594c-6.6454 3.74506-11.5428 10.22726-13.1568 17.91976-.2617 1.2458.6877 2.4183 1.9608 2.4183zm38.955-11.2159c0 1.2529-1.0158 2.2689-2.2689 2.2689-1.253 0-2.2689-1.0158-2.2689-2.2689 0-1.253 1.0157-2.2689 2.2689-2.2689 1.2531 0 2.2689 1.0159 2.2689 2.2689zm-26.8495-2.2689c1.2529 0 2.2689 1.0157 2.2689 2.2689 0 1.2529-1.0158 2.2689-2.2689 2.2689-1.253 0-2.2689-1.0158-2.2689-2.2689 0-1.253 1.0157-2.2689 2.2689-2.2689z"/></g></svg>