<svg width="98" height="98" viewBox="0 0 98 98" fill="none" xmlns="http://www.w3.org/2000/svg">
<g clip-path="url(#clip0_4_144)">
<path d="M73.8571 32.3542H24.143C23.0371 32.3542 22.1407 33.2506 22.1407 34.3565V76.0458C22.1407 77.1517 23.0371 78.0481 24.143 78.0481H33.0058V92.0975C33.0058 95.3573 35.6483 98 38.9083 98C42.168 98 44.8108 95.3575 44.8108 92.0975V78.0481H53.0664V92.0975C53.0664 95.3573 55.7089 98 58.9689 98C62.2286 98 64.8714 95.3575 64.8714 92.0975V78.0481H73.8573C74.9632 78.0481 75.8596 77.1517 75.8596 76.0458V34.3565C75.8594 33.2506 74.963 32.3542 73.8571 32.3542Z" fill="#AAC148"/>
<path d="M13.724 32.3445C10.4643 32.3445 7.82153 34.987 7.82153 38.2469V62.2205C7.82153 65.4802 10.464 68.123 13.724 68.123C16.9837 68.123 19.6265 65.4805 19.6265 62.2205V38.2469C19.6263 34.9872 16.9837 32.3445 13.724 32.3445Z" fill="#AAC148"/>
<path d="M84.276 32.3445C81.0163 32.3445 78.3735 34.987 78.3735 38.2469V62.2205C78.3735 65.4802 81.016 68.123 84.276 68.123C87.5357 68.123 90.1785 65.4805 90.1785 62.2205V38.2469C90.1785 34.9872 87.536 32.3445 84.276 32.3445Z" fill="#AAC148"/>
<path d="M24.5453 29.4303H73.3373C74.6102 29.4303 75.5595 28.2578 75.2981 27.012C73.6841 19.3198 68.7867 12.8373 62.1413 9.09248L66.3124 1.56653C66.5947 1.05701 66.4106 0.414881 65.9011 0.132602C65.3904 -0.150389 64.7492 0.0343968 64.4669 0.543923L60.2643 8.12656C56.8221 6.52919 52.986 5.63705 48.9413 5.63705C44.8964 5.63705 41.0603 6.52919 37.6181 8.12656L33.4155 0.543686C33.133 0.0339224 32.4908 -0.149915 31.9815 0.132364C31.472 0.414644 31.2879 1.05677 31.5702 1.5663L35.7413 9.09224C29.0959 12.8373 24.1985 19.3195 22.5845 27.012C22.3228 28.2578 23.2722 29.4303 24.5453 29.4303ZM63.5003 18.2144C63.5003 19.4673 62.4845 20.4833 61.2314 20.4833C59.9784 20.4833 58.9625 19.4675 58.9625 18.2144C58.9625 16.9614 59.9782 15.9455 61.2314 15.9455C62.4845 15.9455 63.5003 16.9614 63.5003 18.2144ZM36.6508 15.9455C37.9037 15.9455 38.9197 16.9612 38.9197 18.2144C38.9197 19.4673 37.9039 20.4833 36.6508 20.4833C35.3978 20.4833 34.3819 19.4675 34.3819 18.2144C34.3819 16.9614 35.3976 15.9455 36.6508 15.9455Z" fill="#AAC148"/>
</g>
<defs>
<clipPath id="clip0_4_144">
<rect width="98" height="98" fill="white"/>
</clipPath>
</defs>
</svg>
