<svg fill="none" height="90" viewBox="0 0 80 90" width="80" xmlns="http://www.w3.org/2000/svg" xmlns:xlink="http://www.w3.org/1999/xlink"><clipPath id="a"><path d="m0 .072998h80v89.927h-80z"/></clipPath><g clip-path="url(#a)"><path d="m79.9959 26.5115c-.0006-1.5121-.3239-2.8482-.9778-3.9946-.6423-1.128-1.6042-2.0731-2.8944-2.8204-10.6502-6.1419-21.3108-12.26497-31.9575-18.41313-2.8703-1.657331-5.6533-1.596598-8.5023.08453-4.2392 2.50008-25.4629 14.6615-31.78726 18.3252-2.60456 1.5083-3.87194483 3.8162-3.87257086 6.8156-.00406914 12.3517 0 24.7034-.00406914 37.0552 0 1.4789.310194 2.7893.935277 3.9185.642613 1.1618 1.617953 2.1329 2.937923 2.8971 6.3247 3.6637 27.5512 15.8241 31.7894 18.3252 2.8503 1.682 5.6333 1.7421 8.5045.0845 10.6471-6.1485 21.3082-12.2716 31.96-18.4135 1.32-.7639 2.2953-1.7356 2.9379-2.8964.6242-1.1295.935-2.4397.935-3.9189 0 0 0-24.6969-.0041-37.0489z" fill="#a179dc"/><path d="m40.1224 44.9158-39.187128 22.5665c.642608 1.1618 1.617958 2.1329 2.937918 2.8971 6.32471 3.6637 27.55121 15.8242 31.78941 18.3252 2.8503 1.682 5.6333 1.7422 8.5045.0845 10.6471-6.1485 21.3082-12.2716 31.96-18.4135 1.32-.7638 2.2953-1.7356 2.9379-2.8964z" fill="#280068"/><path d="m79.9959 26.5114c-.0006-1.5121-.3239-2.8482-.9778-3.9946l-38.8957 22.3993 38.9426 22.5631c.6242-1.1295.9344-2.4397.935-3.9189 0 0 0-24.6968-.0041-37.0489z" fill="#390091"/><g fill="#fff"><path d="m63.1944 36.4798v4.2182h4.2175v-4.2182h2.1088v4.2182h4.2175v2.1091h-4.2175v4.2178h4.2175v2.1091h-4.2175v4.2181h-2.1088v-4.2181h-4.2175v4.2181h-2.1087v-4.2181h-4.2172v-2.1091h4.2172v-4.2178h-4.2172v-2.1091h4.2172v-4.2182zm4.2175 6.3269h-4.2175v4.2182h4.2175z"/><path d="m40.2085 15.2958c11.0004 0 20.6046 5.975 25.7489 14.8565l-.0501-.0855-12.943 7.4533c-2.5498-4.318-7.2243-7.2323-12.5871-7.2924l-.169-.0009c-8.1775 0-14.807 6.6306-14.807 14.8092-.0027 2.5779.6706 5.1113 1.9528 7.3475 2.5523 4.4564 7.3505 7.4621 12.8545 7.4621 5.5381 0 10.3635-3.0439 12.9026-7.5479l-.0617.108 12.9233 7.4878c-5.088 8.8063-14.5606 14.7629-25.4331 14.8815l-.3311.0019c-11.0352 0-20.6666-6.012-25.7981-14.9401-2.505-4.3587-3.9383-9.4121-3.9383-14.8005 0-16.4249 13.313-29.7405 29.7361-29.7405z"/></g></g></svg>