<svg width="80" height="90" viewBox="0 0 80 90" fill="none" xmlns="http://www.w3.org/2000/svg">
<g clip-path="url(#clip0_4_139)">
<path d="M79.9959 26.5115C79.9953 24.9994 79.672 23.6633 79.0181 22.5169C78.3758 21.3889 77.4139 20.4438 76.1237 19.6965C65.4735 13.5546 54.8129 7.43153 44.1662 1.28337C41.2959 -0.373961 38.5129 -0.313228 35.6639 1.3679C31.4247 3.86798 10.201 16.0294 3.87664 19.6931C1.27208 21.2014 0.00469517 23.5093 0.00406914 26.5087C0 38.8604 0.00406914 51.2121 0 63.5639C0 65.0428 0.310194 66.3532 0.935277 67.4824C1.57789 68.6442 2.55323 69.6153 3.8732 70.3795C10.1979 74.0432 31.4244 86.2036 35.6626 88.7047C38.5129 90.3867 41.2959 90.4468 44.1671 88.7892C54.8142 82.6407 65.4753 76.5176 76.1271 70.3757C77.4471 69.6118 78.4224 68.6401 79.065 67.4793C79.6892 66.3498 80 65.0396 80 63.5604C80 63.5604 80 38.8635 79.9959 26.5115Z" fill="#A179DC"/>
<path d="M40.1224 44.9158L0.935272 67.4823C1.57788 68.6441 2.55323 69.6152 3.87319 70.3794C10.1979 74.0431 31.4244 86.2036 35.6626 88.7046C38.5129 90.3866 41.2959 90.4468 44.1671 88.7891C54.8142 82.6406 65.4753 76.5175 76.1271 70.3756C77.4471 69.6118 78.4224 68.64 79.065 67.4792L40.1224 44.9158Z" fill="#280068"/>
<path d="M79.9959 26.5114C79.9953 24.9993 79.672 23.6632 79.0181 22.5168L40.1224 44.9161L79.065 67.4792C79.6892 66.3497 79.9994 65.0395 80 63.5603C80 63.5603 80 38.8635 79.9959 26.5114Z" fill="#390091"/>
<path d="M63.1944 36.4798V40.698H67.4119V36.4798H69.5207V40.698H73.7382V42.8071H69.5207V47.0249H73.7382V49.134H69.5207V53.3521H67.4119V49.134H63.1944V53.3521H61.0857V49.134H56.8685V47.0249H61.0857V42.8071H56.8685V40.698H61.0857V36.4798H63.1944ZM67.4119 42.8067H63.1944V47.0249H67.4119V42.8067Z" fill="white"/>
<path d="M40.2085 15.2958C51.2089 15.2958 60.8131 21.2708 65.9574 30.1523L65.9073 30.0668L52.9643 37.5201C50.4145 33.2021 45.74 30.2878 40.3772 30.2277L40.2082 30.2268C32.0307 30.2268 25.4012 36.8574 25.4012 45.036C25.3985 47.6139 26.0718 50.1473 27.354 52.3835C29.9063 56.8399 34.7045 59.8456 40.2085 59.8456C45.7466 59.8456 50.572 56.8017 53.1111 52.2977L53.0494 52.4057L65.9727 59.8935C60.8847 68.6998 51.4121 74.6564 40.5396 74.775L40.2085 74.7769C29.1733 74.7769 19.5419 68.7649 14.4104 59.8368C11.9054 55.4781 10.4721 50.4247 10.4721 45.0363C10.4721 28.6114 23.7851 15.2958 40.2082 15.2958H40.2085Z" fill="white"/>
</g>
<defs>
<clipPath id="clip0_4_139">
<rect width="80" height="89.927" fill="white" transform="translate(0 0.072998)"/>
</clipPath>
</defs>
</svg>
