<svg fill="none" height="75" viewBox="0 0 75 75" width="75" xmlns="http://www.w3.org/2000/svg" xmlns:xlink="http://www.w3.org/1999/xlink"><clipPath id="a"><path d="m0 0h75v75h-75z"/></clipPath><g clip-path="url(#a)"><path d="m37.5 75c20.7109 0 37.5-16.7891 37.5-37.5s-16.7891-37.5-37.5-37.5-37.5 16.7891-37.5 37.5 16.7891 37.5 37.5 37.5z" fill="#5c2d91"/><g fill="#fff"><path d="m12.5766 9.375c-3.82071 3.4034-6.906 7.5513-9.06675 12.1893-2.16074 4.6381-3.351411 9.6686-3.499005 14.7832s.750996 10.2054 2.640685 14.9604c1.88968 4.7549 4.73063 9.0738 8.34867 12.6919 3.6181 3.618 7.937 6.459 12.6919 8.3487 4.755 1.8897 9.8458 2.7882 14.9604 2.6406 5.1145-.1475 10.1451-1.3382 14.7831-3.499 4.6381-2.1607 8.786-5.246 12.1894-9.0667z" opacity=".1"/><path d="m9.58282 47.6766c-.21574.0035-.42988-.0377-.62889-.1211-.19901-.0833-.37858-.2071-.52736-.3633-.15273-.1509-.27339-.3311-.35475-.5298-.08135-.1987-.12172-.4118-.11869-.6265-.00162-.2145.03939-.4271.12067-.6256s.20119-.3789.35277-.5306c.14721-.1592.32619-.2856.52537-.3712s.41411-.1284.63088-.1257c.21646-.0006.43078.0431.62958.1286.1989.0854.3782.2108.5267.3683.1541.1504.2764.3303.3596.5289s.1256.412.1247.6273c.0023.2156-.0395.4293-.1228.6281-.0833.1989-.2063.3786-.3615.5282-.15.1547-.3298.2774-.5285.3606-.1988.0833-.41232.1254-.62778.1238zm22.96408-.2891h-3.0266l-10.8297-16.8047c-.2699-.4146-.4951-.8567-.6718-1.3187h-.0922c.1031.9593.1422 1.925.1156 2.8906v15.2328h-2.4609v-21.0703h3.2015l10.5406 16.5047c.4391.6859.7235 1.1562.8547 1.4109h.0578c-.1218-1.0281-.1718-2.0625-.15-3.0984v-14.8172h2.4625zm16.6672 0h-11.1985v-21.0703h10.6797v2.2312h-8.1594v7.0032h7.6047v2.2187h-7.6047v7.3063h8.6922zm16.539-18.8406h-6.125v18.8406h-2.4625v-18.8406h-6.0562v-2.2313h14.6437z"/></g></g></svg>