<svg width="75" height="75" viewBox="0 0 75 75" fill="none" xmlns="http://www.w3.org/2000/svg">
<g clip-path="url(#clip0_4_129)">
<path d="M37.5 75C58.2109 75 75 58.2109 75 37.5C75 16.7891 58.2109 0 37.5 0C16.7891 0 0 16.7891 0 37.5C0 58.2109 16.7891 75 37.5 75Z" fill="#5C2D91"/>
<path opacity="0.1" d="M12.5766 9.375C8.75589 12.7784 5.6706 16.9263 3.50985 21.5643C1.34911 26.2024 0.158439 31.2329 0.010845 36.3475C-0.136749 41.4621 0.761841 46.5529 2.65153 51.3079C4.54121 56.0628 7.38216 60.3817 11.0002 63.9998C14.6183 67.6178 18.9372 70.4588 23.6921 72.3485C28.4471 74.2382 33.5379 75.1367 38.6525 74.9891C43.767 74.8416 48.7976 73.6509 53.4356 71.4901C58.0737 69.3294 62.2216 66.2441 65.625 62.4234L12.5766 9.375Z" fill="white"/>
<path d="M9.58282 47.6766C9.36708 47.6801 9.15294 47.6389 8.95393 47.5555C8.75492 47.4722 8.57535 47.3484 8.42657 47.1922C8.27384 47.0413 8.15318 46.8611 8.07182 46.6624C7.99047 46.4637 7.9501 46.2506 7.95313 46.0359C7.95151 45.8214 7.99252 45.6088 8.0738 45.4103C8.15508 45.2118 8.27499 45.0314 8.42657 44.8797C8.57378 44.7205 8.75276 44.5941 8.95194 44.5085C9.15112 44.4229 9.36605 44.3801 9.58282 44.3828C9.79928 44.3822 10.0136 44.4259 10.2124 44.5114C10.4113 44.5968 10.5906 44.7222 10.7391 44.8797C10.8932 45.0301 11.0155 45.21 11.0987 45.4086C11.1819 45.6072 11.2243 45.8206 11.2234 46.0359C11.2257 46.2515 11.1839 46.4652 11.1006 46.664C11.0173 46.8629 10.8943 47.0426 10.7391 47.1922C10.5891 47.3469 10.4093 47.4696 10.2106 47.5528C10.0118 47.6361 9.79828 47.6782 9.58282 47.6766ZM32.5469 47.3875H29.5203L18.6906 30.5828C18.4207 30.1682 18.1955 29.7261 18.0188 29.2641H17.9266C18.0297 30.2234 18.0688 31.1891 18.0422 32.1547V47.3875H15.5813V26.3172H18.7828L29.3234 42.8219C29.7625 43.5078 30.0469 43.9781 30.1781 44.2328H30.2359C30.1141 43.2047 30.0641 42.1703 30.0859 41.1344V26.3172H32.5484L32.5469 47.3875ZM49.2141 47.3875H38.0156V26.3172H48.6953V28.5484H40.5359V35.5516H48.1406V37.7703H40.5359V45.0766H49.2281L49.2141 47.3875ZM65.7531 28.5469H59.6281V47.3875H57.1656V28.5469H51.1094V26.3156H65.7531V28.5469Z" fill="white"/>
</g>
<defs>
<clipPath id="clip0_4_129">
<rect width="75" height="75" fill="white"/>
</clipPath>
</defs>
</svg>
