<svg width="84" height="84" viewBox="0 0 84 84" fill="none" xmlns="http://www.w3.org/2000/svg">
<g clip-path="url(#clip0_4_137)">
<path d="M14.9887 61.25L12.25 59.6225L42.7612 5.25L45.5 6.8775L14.9887 61.25Z" fill="#EC407A"/>
<path d="M12.25 56H75.25V59.5H12.25V56Z" fill="#EC407A"/>
<path d="M43.2312 77L12.25 58.8567L13.8551 56.037L44.8363 74.1803L43.2312 77ZM70.1449 29.713L39.1637 11.5697L40.7688 8.75L71.75 26.8933L70.1449 29.713Z" fill="#EC407A"/>
<path d="M15.638 29.75L14 26.9255L45.612 8.75L47.25 11.5745L15.638 29.75Z" fill="#EC407A"/>
<path d="M70.6905 61.25L39.391 6.87697L42.2005 5.25L73.5 59.623L70.6905 61.25ZM14 22.9938H17.2443V59.2582H14V22.9938ZM68.4096 22.9938H71.6539V59.2582H68.4096V22.9938Z" fill="#EC407A"/>
<path d="M45.2217 75.25L43.75 72.6512L72.0283 56L73.5 58.5988L45.2217 75.25Z" fill="#EC407A"/>
<path d="M76.0679 61.2491C74.188 64.5328 69.9972 65.6535 66.7269 63.7659C63.4565 61.8783 62.3404 57.6704 64.2203 54.3867C66.1003 51.103 70.2911 49.9823 73.5614 51.87C76.8512 53.7772 77.9676 57.9655 76.0679 61.2491ZM21.5102 29.6124C19.6302 32.8961 15.4395 34.0168 12.1691 32.1292C8.89879 30.2416 7.78262 26.0337 9.66261 22.75C11.5426 19.4663 15.7333 18.3456 19.0037 20.2333C22.274 22.1405 23.3902 26.3288 21.5102 29.6124ZM9.68211 61.2491C7.80216 57.9655 8.91837 53.7772 12.1886 51.87C15.459 49.9823 19.6302 51.1031 21.5297 54.3867C23.4096 57.6704 22.2934 61.8586 19.0232 63.7659C15.7333 65.6535 11.5621 64.5327 9.68211 61.2491ZM64.2398 29.6124C62.3599 26.3288 63.4761 22.1405 66.7464 20.2333C70.0167 18.3456 74.1879 19.4664 76.0874 22.75C77.9674 26.0337 76.8512 30.2219 73.5809 32.1292C70.3106 34.0168 66.1198 32.896 64.2398 29.6124ZM42.8749 80.5C39.0954 80.5 36.0406 77.4327 36.0406 73.6378C36.0406 69.8429 39.0954 66.7756 42.8749 66.7756C46.6544 66.7756 49.7092 69.8429 49.7092 73.6378C49.7092 77.4131 46.6544 80.5 42.8749 80.5ZM42.8749 17.2244C39.0954 17.2244 36.0406 14.1571 36.0406 10.3622C36.0406 6.56732 39.0954 3.5 42.8749 3.5C46.6544 3.5 49.7092 6.56732 49.7092 10.3622C49.7092 14.1571 46.6544 17.2244 42.8749 17.2244Z" fill="#EC407A"/>
</g>
<defs>
<clipPath id="clip0_4_137">
<rect width="84" height="84" fill="white"/>
</clipPath>
</defs>
</svg>
