<svg fill="none" height="84" viewBox="0 0 84 84" width="84" xmlns="http://www.w3.org/2000/svg" xmlns:xlink="http://www.w3.org/1999/xlink"><clipPath id="a"><path d="m0 0h84v84h-84z"/></clipPath><g clip-path="url(#a)" fill="#ec407a"><path d="m14.9887 61.25-2.7387-1.6275 30.5112-54.3725 2.7388 1.6275z"/><path d="m12.25 56h63v3.5h-63z"/><path d="m43.2312 77-30.9812-18.1433 1.6051-2.8197 30.9812 18.1433zm26.9137-47.287-30.9812-18.1433 1.6051-2.8197 30.9812 18.1433z"/><path d="m15.638 29.75-1.638-2.8245 31.612-18.1755 1.638 2.8245z"/><path d="m70.6905 61.25-31.2995-54.37303 2.8095-1.62697 31.2995 54.373zm-56.6905-38.2562h3.2443v36.2644h-3.2443zm54.4096 0h3.2443v36.2644h-3.2443z"/><path d="m45.2217 75.25-1.4717-2.5988 28.2783-16.6512 1.4717 2.5988z"/><path d="m76.0679 61.2491c-1.8799 3.2837-6.0707 4.4044-9.341 2.5168-3.2704-1.8876-4.3865-6.0955-2.5066-9.3792 1.88-3.2837 6.0708-4.4044 9.3411-2.5167 3.2898 1.9072 4.4062 6.0955 2.5065 9.3791zm-54.5577-31.6367c-1.88 3.2837-6.0707 4.4044-9.3411 2.5168-3.27031-1.8876-4.38648-6.0955-2.50649-9.3792s6.07069-4.4044 9.34109-2.5167c3.2703 1.9072 4.3865 6.0955 2.5065 9.3791zm-11.82809 31.6367c-1.87995-3.2836-.76374-7.4719 2.50649-9.3791 3.2704-1.8877 7.4416-.7669 9.3411 2.5167 1.8799 3.2837.7637 7.4719-2.5065 9.3792-3.2899 1.8876-7.4611.7668-9.34109-2.5168zm54.55769-31.6367c-1.8799-3.2836-.7637-7.4719 2.5066-9.3791 3.2703-1.8877 7.4415-.7669 9.341 2.5167 1.88 3.2837.7638 7.4719-2.5065 9.3792-3.2703 1.8876-7.4611.7668-9.3411-2.5168zm-21.3649 50.8876c-3.7795 0-6.8343-3.0673-6.8343-6.8622s3.0548-6.8622 6.8343-6.8622 6.8343 3.0673 6.8343 6.8622c0 3.7753-3.0548 6.8622-6.8343 6.8622zm0-63.2756c-3.7795 0-6.8343-3.0673-6.8343-6.8622 0-3.79488 3.0548-6.8622 6.8343-6.8622s6.8343 3.06732 6.8343 6.8622c0 3.7949-3.0548 6.8622-6.8343 6.8622z"/></g></svg>