<svg fill="none" height="115" viewBox="0 0 114 115" width="114" xmlns="http://www.w3.org/2000/svg" xmlns:xlink="http://www.w3.org/1999/xlink"><clipPath id="a"><path d="m0 0h114v114.53h-114z"/></clipPath><g clip-path="url(#a)"><path d="m45.4513 88.2837c-16.2372 4.9635 9.8762 15.2173 30.5487 5.5249-3.3859-1.4404-5.8104-3.1035-5.8104-3.1035-9.2216 1.9094-13.4984 2.0592-21.8665 1.0148-6.9073-.8688-2.8718-3.4362-2.8718-3.4362zm-3.5139-9.5442c-19.8662 6.6259 11.053 14.1397 38.8126 5.9827-2.9506-1.0455-4.8271-2.9572-4.8271-2.9572-13.5669 2.6252-21.4072 2.541-31.3352 1.5118-7.6773-.798-2.6503-4.5373-2.6503-4.5373zm55.5672 19.8475s3.2934 2.091-3.6266 3.709c-13.1578 3.072-54.7643 4-66.3223.122-4.1549-1.393 3.6366-3.326 6.0875-3.7316 2.5561-.4272 4.0168-.3476 4.0168-.3476-4.6206-2.5087-29.8657 4.9262-12.8233 7.0552 46.4772 5.809 84.7233-2.616 72.6679-6.807zm-49.0815-34.1461s-20.6212 4.6814-7.3025 6.3814c5.6236.7197 16.834.5569 27.2763-.2794 8.534-.6881 17.1031-2.151 17.1031-2.151s-3.0092 1.2317-5.1863 2.6526c-20.9404 5.264-61.3935 2.8151-49.7476-2.5693 9.849-4.5505 17.857-4.0343 17.857-4.0343zm37.4714 18.475c-.0908.2814-.3945.596-.3945.5957 26.212-7.9857 16.575-28.1484 4.0449-23.0431-1.1007.4529-1.677 1.4992-1.677 1.4992s.6922-.3245 2.2446-.699c6.3338-1.5302 15.4085 9.828-4.218 21.6472zm-38.3575 31.2981c21.2241 1.161 53.816-.645 54.588-9.228 0 0-1.484 3.254-17.5406 5.838-18.1152 2.914-40.4578 2.573-53.7094.706.0003 0 2.7128 1.919 16.662 2.684z" fill="#5382a1"/><path d="m68.8353 56.5885c-17.4083-22.5118 19.0397-32.728 19.0397-32.728-23.2201 15.1137-18.9309 19.4972-13.3377 28.3197 5.9886 9.4604-7.0513 17.0152-7.0513 17.0152s6.4848-5.9713 1.3493-12.6069zm3.9722-56.5885s12.4431 12.2057-11.8018 30.9747c-19.4419 15.0559-4.4333 23.6404-.008 33.4486-11.3486-10.0405-19.6769-18.8792-14.0896-27.1053 8.2008-12.0754 30.9199-17.9299 25.8994-37.318z" fill="#e76f00"/></g></svg>