<svg fill="none" height="74" viewBox="0 0 74 74" width="74" xmlns="http://www.w3.org/2000/svg" xmlns:xlink="http://www.w3.org/1999/xlink"><clipPath id="a"><path d="m0 0h74v74h-74z"/></clipPath><g clip-path="url(#a)"><path d="m0 0h74v74h-74z" fill="#f0db4f"/><path d="m67.9435 56.3512c-.5416-3.3765-2.7433-6.2113-9.264-8.8561-2.2651-1.0411-4.7903-1.7867-5.543-3.5031-.2673-.9988-.3025-1.5616-.1336-2.1665.4853-1.9626 2.8277-2.5745 4.6847-2.0118 1.1959.401 2.3284 1.3225 3.0107 2.7926 3.1935-2.068 3.1865-2.054 5.4163-3.4748-.8159-1.2662-1.2521-1.8501-1.7867-2.3917-1.9203-2.1454-4.537-3.2498-8.7224-3.1654-.7245.0915-1.456.1899-2.1806.2814-2.0891.5276-4.0798 1.6249-5.2475 3.095-3.5031 3.9744-2.5042 10.9312 1.7585 13.7941 4.1995 3.1514 10.3685 3.8689 11.1563 6.8162.7667 3.6086-2.6518 4.7762-6.0494 4.3612-2.5042-.5205-3.8969-1.7937-5.4023-4.108-2.7714 1.6038-2.7714 1.6038-5.6203 3.2428.6753 1.4772 1.3857 2.1455 2.5183 3.4257 5.3601 5.4374 18.7742 5.1701 21.18-3.0599.0984-.2814.7456-2.1666.225-5.0717zm-27.7148-22.3407h-6.9217c0 5.9791-.028 11.9159-.028 17.895 0 3.8055.1969 7.2945-.4221 8.3637-1.0129 2.1032-3.6367 1.843-4.8325 1.4349-1.2169-.5979-1.8359-1.449-2.5534-2.6518-.197-.3447-.3447-.612-.394-.6331-1.8781 1.1466-3.7492 2.3001-5.6274 3.4468.9356 1.9203 2.3143 3.5874 4.0799 4.6706 2.6378 1.5827 6.1831 2.0681 9.8902 1.217 2.4127-.7035 4.4947-2.1595 5.5851-4.3753 1.5756-2.9051 1.238-6.4222 1.2239-10.3121.0352-6.3449 0-12.6898 0-19.0557z" fill="#323330"/></g></svg>