<svg width="114" height="115" viewBox="0 0 114 115" fill="none" xmlns="http://www.w3.org/2000/svg">
<g clip-path="url(#clip0_4_132)">
<path d="M45.4513 88.2837C29.2141 93.2472 55.3275 103.501 76 93.8086C72.6141 92.3682 70.1896 90.7051 70.1896 90.7051C60.968 92.6145 56.6912 92.7643 48.3231 91.7199C41.4158 90.8511 45.4513 88.2837 45.4513 88.2837ZM41.9374 78.7395C22.0712 85.3654 52.9904 92.8792 80.75 84.7222C77.7994 83.6767 75.9229 81.765 75.9229 81.765C62.356 84.3902 54.5157 84.306 44.5877 83.2768C36.9104 82.4788 41.9374 78.7395 41.9374 78.7395ZM97.5046 98.587C97.5046 98.587 100.798 100.678 93.878 102.296C80.7202 105.368 39.1137 106.296 27.5557 102.418C23.4008 101.025 31.1923 99.092 33.6432 98.6864C36.1993 98.2592 37.66 98.3388 37.66 98.3388C33.0394 95.8301 7.7943 103.265 24.8367 105.394C71.3139 111.203 109.56 102.778 97.5046 98.587ZM48.4231 64.4409C48.4231 64.4409 27.8019 69.1223 41.1206 70.8223C46.7442 71.542 57.9546 71.3792 68.3969 70.5429C76.9309 69.8548 85.5 68.3919 85.5 68.3919C85.5 68.3919 82.4908 69.6236 80.3137 71.0445C59.3733 76.3085 18.9202 73.8596 30.5661 68.4752C40.4151 63.9247 48.4231 64.4409 48.4231 64.4409ZM85.8945 82.9159C85.8037 83.1973 85.5 83.5119 85.5 83.5116C111.712 75.5259 102.075 55.3632 89.5449 60.4685C88.4442 60.9214 87.8679 61.9677 87.8679 61.9677C87.8679 61.9677 88.5601 61.6432 90.1125 61.2687C96.4463 59.7385 105.521 71.0967 85.8945 82.9159ZM47.537 114.214C68.7611 115.375 101.353 113.569 102.125 104.986C102.125 104.986 100.641 108.24 84.5844 110.824C66.4692 113.738 44.1266 113.397 30.875 111.53C30.8753 111.53 33.5878 113.449 47.537 114.214Z" fill="#5382A1"/>
<path d="M68.8353 56.5885C51.427 34.0767 87.875 23.8605 87.875 23.8605C64.6549 38.9742 68.9441 43.3577 74.5373 52.1802C80.5259 61.6406 67.486 69.1954 67.486 69.1954C67.486 69.1954 73.9708 63.2241 68.8353 56.5885ZM72.8075 0C72.8075 0 85.2506 12.2057 61.0057 30.9747C41.5638 46.0306 56.5724 54.6151 60.9977 64.4233C49.6491 54.3828 41.3208 45.5441 46.9081 37.318C55.1089 25.2426 77.828 19.3881 72.8075 0Z" fill="#E76F00"/>
</g>
<defs>
<clipPath id="clip0_4_132">
<rect width="114" height="114.53" fill="white"/>
</clipPath>
</defs>
</svg>
