<svg width="74" height="74" viewBox="0 0 74 74" fill="none" xmlns="http://www.w3.org/2000/svg">
<g clip-path="url(#clip0_4_136)">
<path d="M0 0H74V74H0V0Z" fill="#F0DB4F"/>
<path d="M67.9435 56.3512C67.4019 52.9747 65.2002 50.1399 58.6795 47.4951C56.4144 46.454 53.8892 45.7084 53.1365 43.992C52.8692 42.9932 52.834 42.4304 53.0029 41.8255C53.4882 39.8629 55.8306 39.251 57.6876 39.8137C58.8835 40.2147 60.016 41.1362 60.6983 42.6063C63.8918 40.5383 63.8848 40.5523 66.1146 39.1315C65.2987 37.8653 64.8625 37.2814 64.3279 36.7398C62.4076 34.5944 59.7909 33.49 55.6055 33.5744C54.881 33.6659 54.1495 33.7643 53.4249 33.8558C51.3358 34.3834 49.3451 35.4807 48.1774 36.9508C44.6743 40.9252 45.6732 47.882 49.9359 50.7449C54.1354 53.8963 60.3044 54.6138 61.0922 57.5611C61.8589 61.1697 58.4404 62.3373 55.0428 61.9223C52.5386 61.4018 51.1459 60.1286 49.6405 57.8143C46.8691 59.4181 46.8691 59.4181 44.0202 61.0571C44.6955 62.5343 45.4059 63.2026 46.5385 64.4828C51.8986 69.9202 65.3127 69.6529 67.7185 61.4229C67.8169 61.1415 68.4641 59.2563 67.9435 56.3512ZM40.2287 34.0105H33.307C33.307 39.9896 33.279 45.9264 33.279 51.9055C33.279 55.711 33.4759 59.2 32.8569 60.2692C31.844 62.3724 29.2202 62.1122 28.0244 61.7041C26.8075 61.1062 26.1885 60.2551 25.471 59.0523C25.274 58.7076 25.1263 58.4403 25.077 58.4192C23.1989 59.5658 21.3278 60.7193 19.4496 61.866C20.3852 63.7863 21.7639 65.4534 23.5295 66.5366C26.1673 68.1193 29.7126 68.6047 33.4197 67.7536C35.8324 67.0501 37.9144 65.5941 39.0048 63.3783C40.5804 60.4732 40.2428 56.9561 40.2287 53.0662C40.2639 46.7213 40.2287 40.3764 40.2287 34.0105Z" fill="#323330"/>
</g>
<defs>
<clipPath id="clip0_4_136">
<rect width="74" height="74" fill="white"/>
</clipPath>
</defs>
</svg>
