<svg width="84" height="84" viewBox="0 0 84 84" fill="none" xmlns="http://www.w3.org/2000/svg">
<path d="M33.7583 3.50023C27.6754 3.50023 22.7497 8.42589 22.7497 14.5088V20.9757H39.2626C40.7641 20.9757 41.9997 23.1738 41.9997 24.6752H14.5086C8.42566 24.6752 3.5 29.6009 3.5 35.6839V50.2414C3.5 56.3243 8.42566 61.25 14.5086 61.25H19.0504V50.9332C19.0504 44.8503 23.9461 39.9246 30.029 39.9246H50.2414C56.3243 39.9246 61.25 35.029 61.25 28.946V14.5086C61.25 8.42566 56.3243 3.5 50.2414 3.5L33.7583 3.50023ZM30.9912 9.69638C32.5312 9.69638 33.7583 10.162 33.7583 12.4335C33.7583 14.705 32.5312 15.8623 30.9912 15.8623C29.4897 15.8623 28.2541 14.705 28.2541 12.4335C28.2541 10.162 29.4897 9.69638 30.9912 9.69638Z" fill="#3C78AA"/>
<path d="M64.9421 22.75V33.0668C64.9421 39.1498 60.0541 44.0755 53.9711 44.0755H33.7587C27.6757 44.0755 22.75 48.9635 22.75 55.0465V69.484C22.7487 72.4048 23.9079 75.2064 25.9725 77.2724C28.0371 79.3383 30.8379 80.4994 33.7587 80.5H50.2413C53.162 80.4994 55.9629 79.3383 58.0275 77.2724C60.0921 75.2064 61.2513 72.4048 61.2499 69.484V63.0172H44.7296C43.2281 63.0172 42.0001 60.8266 42.0001 59.3251H69.4913C72.4121 59.3245 75.2129 58.1634 77.2775 56.0974C79.3421 54.0315 80.5013 51.2298 80.5 48.3091V33.7588C80.4987 27.6794 75.5707 22.7514 69.4913 22.7501L64.9421 22.75ZM27.8331 40.1277L27.8181 40.1428C27.8643 40.1335 27.9147 40.1366 27.961 40.1277H27.8331ZM53.0086 68.138C54.5101 68.138 55.7458 69.2954 55.7458 71.5669C55.7436 73.0765 54.5182 74.2985 53.0086 74.2965C51.4687 74.2965 50.2415 73.8384 50.2415 71.5669C50.2415 69.2954 51.4687 68.138 53.0086 68.138Z" fill="#FDD835"/>
</svg>
