<svg fill="none" height="84" viewBox="0 0 84 84" width="84" xmlns="http://www.w3.org/2000/svg"><path d="m33.7583 3.50023c-6.0829 0-11.0086 4.92566-11.0086 11.00857v6.4669h16.5129c1.5015 0 2.7371 2.1981 2.7371 3.6995h-27.4911c-6.08294 0-11.0086 4.9257-11.0086 11.0087v14.5575c0 6.0829 4.92566 11.0086 11.0086 11.0086h4.5418v-10.3168c0-6.0829 4.8957-11.0086 10.9786-11.0086h20.2124c6.0829 0 11.0086-4.8956 11.0086-10.9786v-14.4374c0-6.08294-4.9257-11.0086-11.0086-11.0086zm-2.7671 6.19615c1.54 0 2.7671.46562 2.7671 2.73712s-1.2271 3.4288-2.7671 3.4288c-1.5015 0-2.7371-1.1573-2.7371-3.4288s1.2356-2.73712 2.7371-2.73712z" fill="#3c78aa"/><path d="m64.9421 22.75v10.3168c0 6.083-4.888 11.0087-10.971 11.0087h-20.2124c-6.083 0-11.0087 4.888-11.0087 10.971v14.4375c-.0013 2.9208 1.1579 5.7224 3.2225 7.7884 2.0646 2.0659 4.8654 3.227 7.7862 3.2276h16.4826c2.9207-.0006 5.7216-1.1617 7.7862-3.2276 2.0646-2.066 3.2238-4.8676 3.2224-7.7884v-6.4668h-16.5203c-1.5015 0-2.7295-2.1906-2.7295-3.6921h27.4912c2.9208-.0006 5.7216-1.1617 7.7862-3.2277 2.0646-2.0659 3.2238-4.8676 3.2225-7.7883v-14.5503c-.0013-6.0794-4.9293-11.0074-11.0087-11.0087zm-37.109 17.3777-.015.0151c.0462-.0093.0966-.0062.1429-.0151zm25.1755 28.0103c1.5015 0 2.7372 1.1574 2.7372 3.4289-.0022 1.5096-1.2276 2.7316-2.7372 2.7296-1.5399 0-2.7671-.4581-2.7671-2.7296s1.2272-3.4289 2.7671-3.4289z" fill="#fdd835"/></svg>