<svg fill="none" height="75" viewBox="0 0 84 75" width="84" xmlns="http://www.w3.org/2000/svg"><path d="m68.9902 24.3089c-.8705-.301-1.7724-.5858-2.7011-.8551.1526-.6259.2927-1.2436.4173-1.8508 2.0447-9.9711.7078-18.00385-3.8573-20.648574-4.3774-2.535936-11.5362.108184-18.7663 6.429354-.6953.60784-1.3925 1.25139-2.0894 1.92585-.4643-.44624-.9279-.87747-1.3903-1.28995-7.5774-6.75901-15.1725-9.60735-19.7331-6.95497-4.3732 2.54329-5.6683 10.09489-3.8277 19.54449.1777.9127.3854 1.8448.6204 2.7925-1.0749.3066-2.1127.6334-3.1056.981-8.88362 3.1115-14.5571 7.9881-14.5571 13.0463 0 5.2242 6.09049 10.4641 15.3435 13.6413.7302.2508 1.4879.4878 2.2687.7129-.2535 1.025-.4739 2.0294-.659 3.0091-1.7549 9.2856-.3844 16.6587 3.9771 19.186 4.5051 2.6099 12.0658-.0728 19.4281-6.538.5819-.5111 1.1659-1.053 1.7509-1.6211.7583.7336 1.5154 1.4278 2.2685 2.079 7.1312 6.165 14.1744 8.6544 18.5319 6.1201 4.5006-2.6174 5.9632-10.5379 4.0643-20.1745-.145-.736-.3138-1.4879-.5033-2.2531.5309-.1577 1.0522-.3205 1.5605-.4897 9.6193-3.2019 15.878-8.3781 15.878-13.672 0-5.0765-5.8565-9.9859-14.919-13.1201zm-2.0864 23.3738c-.4588.1526-.9296.3001-1.4093.4431-1.062-3.3774-2.4952-6.9687-4.2491-10.6793 1.6737-3.6221 3.0515-7.1675 4.0837-10.523.8584.2495 1.6915.5127 2.4943.7904 7.7648 2.6854 12.5012 6.6558 12.5012 9.7151 0 3.2587-5.1152 7.489-13.4208 10.2537zm-3.4463 6.8605c.8397 4.2612.9597 8.1138.4035 11.1255-.4998 2.7062-1.5048 4.5105-2.7475 5.2332-2.6443 1.5376-8.2993-.4611-14.398-5.7335-.6991-.6044-1.4034-1.2497-2.1098-1.9327 2.3643-2.5978 4.7273-5.6178 7.0335-8.9718 4.0564-.3616 7.8888-.9528 11.3641-1.7599.1712.6937.3233 1.374.4542 2.0392zm-34.851 16.0929c-2.5835.9167-4.6412.9429-5.8851.2224-2.6467-1.5336-3.7471-7.4536-2.2462-15.3946.1719-.9095.3766-1.8437.6124-2.7986 3.4373.7636 7.2416 1.3131 11.3077 1.6443 2.3217 3.2819 4.753 6.2986 7.203 8.94-.5353.5192-1.0685 1.0134-1.5987 1.4792-3.2555 2.8588-6.5179 4.8872-9.3931 5.9073zm-12.1037-22.9733c-4.0915-1.4049-7.47042-3.2308-9.78651-5.2233-2.08114-1.7905-3.13187-3.5681-3.13187-5.0105 0-3.0695 4.55525-6.9847 12.15258-9.6458.9219-.3229 1.8868-.6272 2.8883-.913 1.05 3.4313 2.4273 7.0187 4.0895 10.6464-1.6837 3.6816-3.0806 7.3262-4.1409 10.7977-.7139-.2062-1.4056-.4231-2.0711-.6515zm4.0573-27.7452c-1.5769-8.0962-.5297-14.20369 2.1057-15.73627 2.8072-1.63266 9.0147.69517 15.5571 6.53127.4182.373.838.7634 1.2591 1.1673-2.438 2.6299-4.847 5.6239-7.1481 8.8865-3.9463.3675-7.7239.9578-11.197 1.7482-.2184-.8824-.4118-1.7494-.5768-2.597zm36.1946 8.9787c-.8303-1.4408-1.6827-2.8475-2.5516-4.2157 2.6772.34 5.2423.7913 7.6511 1.3436-.7232 2.3285-1.6246 4.763-2.6856 7.2587-.7611-1.4517-1.5662-2.9154-2.4139-4.3866zm-14.7601-14.4428c1.6534 1.7995 3.3092 3.8087 4.9378 5.9885-1.6412-.0778-3.3026-.1183-4.9778-.1183-1.6594 0-3.3086.0396-4.9396.1161 1.6303-2.1596 3.3004-4.1661 4.9796-5.9863zm-14.8546 14.4677c-.8294 1.4448-1.6195 2.9005-2.3687 4.359-1.0438-2.487-1.9368-4.9326-2.6663-7.2941 2.3941-.5382 4.947-.9783 7.6072-1.3118-.8812 1.3808-1.7406 2.7979-2.5722 4.2466zm2.6488 21.5194c-2.7484-.3081-5.3398-.7255-7.7332-1.2488.7411-2.4036 1.6538-4.9015 2.7198-7.4421.7511 1.4574 1.5443 2.9138 2.3788 4.3617h.0001c.85 1.4752 1.7306 2.9201 2.6345 4.3292zm12.305 10.2177c-1.6989-1.8415-3.3936-3.8785-5.0486-6.0697 1.6067.0634 3.2447.0958 4.9094.0958 1.7103 0 3.401-.0387 5.0651-.1132-1.6339 2.2306-3.2837 4.2708-4.9259 6.0871zm17.109-19.0381c1.1215 2.5681 2.067 5.0529 2.8176 7.4155-2.4329.5576-5.0596 1.0067-7.8272 1.3404.8711-1.3868 1.7309-2.8176 2.5758-4.2894.8548-1.4891 1.6664-2.9804 2.4338-4.4665zm-5.5388 2.6674c-1.3116 2.2848-2.6582 4.4659-4.0253 6.5247-2.4899.1788-5.0623.2709-7.6841.2709-2.6112 0-5.1512-.0814-7.5971-.2409-1.4221-2.0858-2.798-4.2734-4.1013-6.535h.0003c-1.2999-2.2555-2.4962-4.5301-3.5803-6.7919 1.0838-2.267 2.277-4.5441 3.5694-6.7956l-.0003.0004c1.2958-2.2574 2.6596-4.4343 4.0686-6.507 2.4955-.1895 5.0544-.2884 7.6405-.2884h.0002c2.5978 0 5.16.0996 7.6547.2908 1.3875 2.0576 2.742 4.2274 4.0429 6.4851 1.3157 2.2832 2.5243 4.5451 3.6173 6.7635-1.0897 2.2566-2.2956 4.5414-3.6055 6.8234zm7.3946-40.2134c2.8098 1.62785 3.9025 8.193 2.1371 16.8019-.1126.5494-.2394 1.1089-.3771 1.6759-3.4812-.8069-7.2615-1.4074-11.2193-1.7805-2.3056-3.2984-4.6949-6.2971-7.0931-8.8932.6448-.6232 1.2887-1.2174 1.9299-1.7781 6.1947-5.41591 11.9845-7.55423 14.6225-6.026zm-19.104 25.8274c4.1381 0 7.4928 3.37 7.4928 7.5274 0 4.1572-3.3547 7.5274-7.4928 7.5274s-7.4928-3.3702-7.4928-7.5274c0-4.1574 3.3547-7.5274 7.4928-7.5274z" fill="#257bc2"/></svg>