<svg width="84" height="75" viewBox="0 0 84 75" fill="none" xmlns="http://www.w3.org/2000/svg">
<path d="M68.9902 24.3089C68.1197 24.0079 67.2178 23.7231 66.2891 23.4538C66.4417 22.8279 66.5818 22.2102 66.7064 21.603C68.7511 11.6319 67.4142 3.59915 62.8491 0.954426C58.4717 -1.58151 51.3129 1.06261 44.0828 7.38378C43.3875 7.99162 42.6903 8.63517 41.9934 9.30963C41.5291 8.86339 41.0655 8.43216 40.6031 8.01968C33.0257 1.26067 25.4306 -1.58767 20.87 1.06471C16.4968 3.608 15.2017 11.1596 17.0423 20.6092C17.22 21.5219 17.4277 22.454 17.6627 23.4017C16.5878 23.7083 15.55 24.0351 14.5571 24.3827C5.67348 27.4942 0 32.3708 0 37.429C0 42.6532 6.09049 47.8931 15.3435 51.0703C16.0737 51.3211 16.8314 51.5581 17.6122 51.7832C17.3587 52.8082 17.1383 53.8126 16.9532 54.7923C15.1983 64.0779 16.5688 71.451 20.9303 73.9783C25.4354 76.5882 32.9961 73.9055 40.3584 67.4403C40.9403 66.9292 41.5243 66.3873 42.1093 65.8192C42.8676 66.5528 43.6247 67.247 44.3778 67.8982C51.509 74.0632 58.5522 76.5526 62.9097 74.0183C67.4103 71.4009 68.8729 63.4804 66.974 53.8438C66.829 53.1078 66.6602 52.3559 66.4707 51.5907C67.0016 51.433 67.5229 51.2702 68.0312 51.101C77.6505 47.8991 83.9092 42.7229 83.9092 37.429C83.9092 32.3525 78.0527 27.4431 68.9902 24.3089ZM66.9038 47.6827C66.445 47.8353 65.9742 47.9828 65.4945 48.1258C64.4325 44.7484 62.9993 41.1571 61.2454 37.4465C62.9191 33.8244 64.2969 30.279 65.3291 26.9235C66.1875 27.173 67.0206 27.4362 67.8234 27.7139C75.5882 30.3993 80.3246 34.3697 80.3246 37.429C80.3246 40.6877 75.2094 44.918 66.9038 47.6827ZM63.4575 54.5432C64.2972 58.8044 64.4172 62.657 63.861 65.6687C63.3612 68.3749 62.3562 70.1792 61.1135 70.9019C58.4692 72.4395 52.8142 70.4408 46.7155 65.1684C46.0164 64.564 45.3121 63.9187 44.6057 63.2357C46.97 60.6379 49.333 57.6179 51.6392 54.2639C55.6956 53.9023 59.528 53.3111 63.0033 52.504C63.1745 53.1977 63.3266 53.878 63.4575 54.5432ZM28.6065 70.6361C26.023 71.5528 23.9653 71.579 22.7214 70.8585C20.0747 69.3249 18.9743 63.4049 20.4752 55.4639C20.6471 54.5544 20.8518 53.6202 21.0876 52.6653C24.5249 53.4289 28.3292 53.9784 32.3953 54.3096C34.717 57.5915 37.1483 60.6082 39.5983 63.2496C39.063 63.7688 38.5298 64.263 37.9996 64.7288C34.7441 67.5876 31.4817 69.616 28.6065 70.6361ZM16.5028 47.6628C12.4113 46.2579 9.03238 44.432 6.71629 42.4395C4.63515 40.649 3.58442 38.8714 3.58442 37.429C3.58442 34.3595 8.13967 30.4443 15.737 27.7832C16.6589 27.4603 17.6238 27.156 18.6253 26.8702C19.6753 30.3015 21.0526 33.8889 22.7148 37.5166C21.0311 41.1982 19.6342 44.8428 18.5739 48.3143C17.86 48.1081 17.1683 47.8912 16.5028 47.6628ZM20.5601 19.9176C18.9832 11.8214 20.0304 5.71391 22.6658 4.18133C25.473 2.54867 31.6805 4.8765 38.2229 10.7126C38.6411 11.0856 39.0609 11.476 39.482 11.8799C37.044 14.5098 34.635 17.5038 32.3339 20.7664C28.3876 21.1339 24.61 21.7242 21.1369 22.5146C20.9185 21.6322 20.7251 20.7652 20.5601 19.9176ZM56.7547 28.8963C55.9244 27.4555 55.072 26.0488 54.2031 24.6806C56.8803 25.0206 59.4454 25.4719 61.8542 26.0242C61.131 28.3527 60.2296 30.7872 59.1686 33.2829C58.4075 31.8312 57.6024 30.3675 56.7547 28.8963ZM41.9946 14.4535C43.648 16.253 45.3038 18.2622 46.9324 20.442C45.2912 20.3642 43.6298 20.3237 41.9546 20.3237C40.2952 20.3237 38.646 20.3633 37.015 20.4398C38.6453 18.2802 40.3154 16.2737 41.9946 14.4535ZM27.14 28.9212C26.3106 30.366 25.5205 31.8217 24.7713 33.2802C23.7275 30.7932 22.8345 28.3476 22.105 25.9861C24.4991 25.4479 27.052 25.0078 29.7122 24.6743C28.831 26.0551 27.9716 27.4722 27.14 28.9209V28.9212ZM29.7888 50.4406C27.0404 50.1325 24.449 49.7151 22.0556 49.1918C22.7967 46.7882 23.7094 44.2903 24.7754 41.7497C25.5265 43.2071 26.3197 44.6635 27.1542 46.1114H27.1543C28.0043 47.5866 28.8849 49.0315 29.7888 50.4406ZM42.0938 60.6583C40.3949 58.8168 38.7002 56.7798 37.0452 54.5886C38.6519 54.652 40.2899 54.6844 41.9546 54.6844C43.6649 54.6844 45.3556 54.6457 47.0197 54.5712C45.3858 56.8018 43.736 58.842 42.0938 60.6583ZM59.2028 41.6202C60.3243 44.1883 61.2698 46.6731 62.0204 49.0357C59.5875 49.5933 56.9608 50.0424 54.1932 50.3761C55.0643 48.9893 55.9241 47.5585 56.769 46.0867C57.6238 44.5976 58.4354 43.1063 59.2028 41.6202ZM53.664 44.2876C52.3524 46.5724 51.0058 48.7535 49.6387 50.8123C47.1488 50.9911 44.5764 51.0832 41.9546 51.0832C39.3434 51.0832 36.8034 51.0018 34.3575 50.8423C32.9354 48.7565 31.5595 46.5689 30.2562 44.3073H30.2565C28.9566 42.0518 27.7603 39.7772 26.6762 37.5154C27.76 35.2484 28.9532 32.9713 30.2456 30.7198L30.2453 30.7202C31.5411 28.4628 32.9049 26.2859 34.3139 24.2132C36.8094 24.0237 39.3683 23.9248 41.9544 23.9248H41.9546C44.5524 23.9248 47.1146 24.0244 49.6093 24.2156C50.9968 26.2732 52.3513 28.443 53.6522 30.7007C54.9679 32.9839 56.1765 35.2458 57.2695 37.4642C56.1798 39.7208 54.9739 42.0056 53.664 44.2876ZM61.0586 4.0742C63.8684 5.70205 64.9611 12.2672 63.1957 20.8761C63.0831 21.4255 62.9563 21.985 62.8186 22.552C59.3374 21.7451 55.5571 21.1446 51.5993 20.7715C49.2937 17.4731 46.9044 14.4744 44.5062 11.8783C45.151 11.2551 45.7949 10.6609 46.4361 10.1002C52.6308 4.68429 58.4206 2.54597 61.0586 4.0742ZM41.9546 29.9016C46.0927 29.9016 49.4474 33.2716 49.4474 37.429C49.4474 41.5862 46.0927 44.9564 41.9546 44.9564C37.8165 44.9564 34.4618 41.5862 34.4618 37.429C34.4618 33.2716 37.8165 29.9016 41.9546 29.9016Z" fill="#257BC2"/>
</svg>
