<svg width="74" height="74" viewBox="0 0 74 74" fill="none" xmlns="http://www.w3.org/2000/svg">
<g clip-path="url(#clip0_4_135)">
<path d="M0 0H74V74H0V0Z" fill="#017ACB"/>
<path d="M35.5316 27.4031H39.0813V33.5312H29.4844V60.7956L29.23 60.865C28.8831 60.9575 24.3159 60.9575 23.3331 60.8534L22.5469 60.7841V33.5312H12.95V27.4031L15.9909 27.3684C17.6559 27.3453 21.9341 27.3453 25.4953 27.3684C29.0566 27.3916 33.5659 27.4031 35.5316 27.4031ZM62.6225 57.905C61.2119 59.3965 59.6972 60.229 57.1766 60.9112C56.0781 61.2119 55.8931 61.2234 53.4187 61.2119C50.9444 61.2003 50.7478 61.2003 49.5453 60.8881C46.435 60.0903 43.9259 58.5294 42.2147 56.3209C41.7291 55.6966 40.9313 54.4016 40.9313 54.2397C40.9313 54.1934 41.0469 54.0894 41.1972 54.02C41.3475 53.9506 41.6597 53.7541 41.9141 53.6037C42.1684 53.4534 42.6309 53.1759 42.9431 53.0141C43.2553 52.8522 44.1572 52.3203 44.9434 51.8462C45.7297 51.3722 46.4466 50.9906 46.5275 50.9906C46.6084 50.9906 46.7587 51.1525 46.8744 51.3491C47.5681 52.5169 49.1869 54.0084 50.3316 54.5172C51.0369 54.8178 52.5978 55.1531 53.3494 55.1531C54.0431 55.1531 55.315 54.8525 55.9972 54.5403C56.7256 54.205 57.0956 53.8697 57.535 53.1991C57.8356 52.725 57.8703 52.5978 57.8587 51.6959C57.8587 50.8634 57.8125 50.6322 57.5813 50.2506C56.9337 49.1869 56.055 48.6319 52.4938 47.0594C48.8169 45.4291 47.1634 44.4578 45.8222 43.1512C44.8278 42.18 44.6313 41.9141 44.0069 40.7C43.1975 39.1391 43.0934 38.6303 43.0819 36.3062C43.0703 34.6759 43.105 34.1441 43.2784 33.5891C43.5212 32.7566 44.3075 31.1494 44.6659 30.7447C45.4059 29.8775 45.6719 29.6116 46.1922 29.1837C47.7647 27.8887 50.2159 27.0331 52.5631 26.9522C52.8291 26.9522 53.7078 26.9984 54.5288 27.0562C56.8875 27.2528 58.4947 27.8309 60.0441 29.0681C61.2119 29.9931 62.9809 32.1669 62.8075 32.4559C62.6919 32.6294 58.0784 35.705 57.7778 35.7975C57.5928 35.8553 57.4656 35.7859 57.2112 35.4853C55.6387 33.6006 55.0028 33.1959 53.4766 33.1034C52.3897 33.0341 51.8116 33.1612 51.0831 33.6469C50.32 34.1556 49.95 34.9303 49.95 36.0056C49.9616 37.5781 50.5628 38.3181 52.7828 39.4166C54.2166 40.1219 55.4422 40.7 55.5347 40.7C55.6734 40.7 58.645 42.18 59.4197 42.6425C63.0272 44.7584 64.4956 46.9322 64.8772 50.6784C65.1547 53.4997 64.3569 56.0781 62.6225 57.905Z" fill="white"/>
</g>
<defs>
<clipPath id="clip0_4_135">
<rect width="74" height="74" fill="white"/>
</clipPath>
</defs>
</svg>
