<svg fill="none" height="74" viewBox="0 0 74 74" width="74" xmlns="http://www.w3.org/2000/svg" xmlns:xlink="http://www.w3.org/1999/xlink"><clipPath id="a"><path d="m0 0h74v74h-74z"/></clipPath><g clip-path="url(#a)"><path d="m0 0h74v74h-74z" fill="#017acb"/><path d="m35.5316 27.4031h3.5497v6.1281h-9.5969v27.2644l-.2544.0694c-.3469.0925-4.9141.0925-5.8969-.0116l-.7862-.0693v-27.2529h-9.5969v-6.1281l3.0409-.0347c1.665-.0231 5.9432-.0231 9.5044 0 3.5613.0232 8.0706.0347 10.0363.0347zm27.0909 30.5019c-1.4106 1.4915-2.9253 2.324-5.4459 3.0062-1.0985.3007-1.2835.3122-3.7579.3007-2.4743-.0116-2.6709-.0116-3.8734-.3238-3.1103-.7978-5.6194-2.3587-7.3306-4.5672-.4856-.6243-1.2834-1.9193-1.2834-2.0812 0-.0463.1156-.1503.2659-.2197s.4625-.2659.7169-.4163c.2543-.1503.7168-.4278 1.029-.5896.3122-.1619 1.2141-.6938 2.0003-1.1679.7863-.474 1.5032-.8556 1.5841-.8556s.2312.1619.3469.3585c.6937 1.1678 2.3125 2.6593 3.4572 3.1681.7053.3006 2.2662.6359 3.0178.6359.6937 0 1.9656-.3006 2.6478-.6128.7284-.3353 1.0984-.6706 1.5378-1.3412.3006-.4741.3353-.6013.3237-1.5032 0-.8325-.0462-1.0637-.2774-1.4453-.6476-1.0637-1.5263-1.6187-5.0875-3.1912-3.6769-1.6303-5.3304-2.6016-6.6716-3.9082-.9944-.9712-1.1909-1.2371-1.8153-2.4512-.8094-1.5609-.9135-2.0697-.925-4.3938-.0116-1.6303.0231-2.1621.1965-2.7171.2428-.8325 1.0291-2.4397 1.3875-2.8444.74-.8672 1.006-1.1331 1.5263-1.561 1.5725-1.295 4.0237-2.1506 6.3709-2.2315.266 0 1.1447.0462 1.9657.104 2.3587.1966 3.9659.7747 5.5153 2.0119 1.1678.925 2.9368 3.0988 2.7634 3.3878-.1156.1735-4.7291 3.2491-5.0297 3.3416-.185.0578-.3122-.0116-.5666-.3122-1.5725-1.8847-2.2084-2.2894-3.7346-2.3819-1.0869-.0693-1.665.0578-2.3935.5435-.7631.5087-1.1331 1.2834-1.1331 2.3587.0116 1.5725.6128 2.3125 2.8328 3.411 1.4338.7053 2.6594 1.2834 2.7519 1.2834.1387 0 3.1103 1.48 3.885 1.9425 3.6075 2.1159 5.0759 4.2897 5.4575 8.0359.2775 2.8213-.5203 5.3997-2.2547 7.2266z" fill="#fff"/></g></svg>