<svg height="832pt" preserveAspectRatio="xMidYMid meet" viewBox="0 0 832 832" width="832pt" xmlns="http://www.w3.org/2000/svg"><g transform="matrix(.1 0 0 -.1 0 832)"><path d="m653 7568c-4-7-1-8 7-3 9 5 11 4 6-4-4-6-12-9-17-6-17 11-50 14-44 4 4-5 1-9-4-9-6 0-11 5-11 11 0 8-5 8-15-1s-15-9-15-1-5 8-19-1c-11-7-17-17-13-23 3-5-1-4-10 3-13 11-16 10-14-5 0-11-5-17-14-14-51 12-67 7-49-15 9-11 8-14-4-14-8 0-18-6-20-12-4-10-6-10-6 0-1 6-6 12-12 12-5 0-7-6-3-12 6-10 4-10-8 0-18 14-27 6-23-19 2-12-3-15-18-11s-19 1-14-10c7-19-11-38-29-31-9 3-14-2-14-17 0-13-5-20-12-17-7 2-19-3-26-12-8-9-11-11-8-4 4 6 2 14-4 18-5 3-10 1-10-5s-4-8-10-5c-5 3-10-4-10-15 0-16-4-20-16-16-12 5-15 2-10-10 4-11 2-15-8-11-15 6-16-9-3-30 5-8 3-13-7-13-8 0-18-9-21-20-4-12-11-17-18-13s-6-1 2-10c11-14 11-17 0-17s-11-2 1-10c12-7 12-10 1-10-7 0-11-6-7-15 3-8 2-14-2-13-4 0-18-4-32-10s-19-11-10-12 6-5-8-10c-12-5-22-17-22-25 0-9 4-13 10-10s7-1 4-9c-3-9-11-13-18-9-7 5-7 2 1-8 13-16 7-59-9-59-5 0-6 6-3 13 4 6-1 3-9-7-13-16-13-22-3-35 9-12 9-13 0-7-7 4-13 2-13-3 0-6 6-11 13-11 8 0 9-3 1-8-12-8-12-40-1-59 5-7 3-21-2-32-14-26-15-5375-2-5366 10 6 7-27-4-45-3-6 0-10 7-10 9 0 10-3 2-8-13-8-12-40 1-61 5-9 4-12-3-7-15 9-11-28 5-43 7-6 13-9 13-4 0 4 6-2 14-12 10-13 11-25 5-37-5-9-9-24-9-33 0-19 25-47 34-38 3 4 6-3 6-13 0-11 6-26 13-33 10-10 8-11-8-5-20 7-20 7-1-14 20-23 53-31 40-10-5 7-3 8 5 4 9-6 8-13-6-29-10-11-12-17-6-13 7 4 22 2 32-4 17-8 19-15 11-35-6-16-6-27 2-31 7-5 8-2 4 7-4 8-1 5 8-5 8-10 13-24 9-30-3-6-3-8 2-4 4 4 14 0 22-8s19-12 24-9c5 4 9-3 9-15 0-14 5-20 17-18 13 2 18-3 17-18s5-21 20-21c43-1 56-3 55-10-3-19 2-33 12-33 5 0 7 5 4 10-3 6-1 10 4 10 6 0 11-9 11-21 0-11 5-17 10-14 9 6 14-8 11-28-1-4 7-4 17 2 12 6 25 5 42-5 15-8 19-13 10-14-13 0-13-1 0-10 9-6 18-6 24 0s15 10 21 10c5 0 3-5-5-10-12-8-9-10 12-10 15 0 30-4 33-10s-1-7-12-4c-10 3-7-1 7-9 14-9 31-12 40-7 8 4 24 4 35-1 27-10 37-11 31-1-3 5 5 7 17 6s22-3 22-4c0-7 47-5 51 2 3 4 11 5 17 1 17-11 29-11 51 0 13 6 16 6 12-2-10-15 7-14 22 1 9 9 12 9 12-1 0-11 3-11 17 0 12 10 15 10 9 1-6-10 4-12 41-9 27 2 54 7 61 10 6 4 13 3 16-2 4-5 16-4 30 2 16 8 21 14 13 19s-6 8 6 8c9 0 17 5 17 12 0 6 7 3 16-8 8-10 13-13 9-7-4 8 0 13 10 13s14-5 10-12 1-4 9 6c9 11 16 14 16 7s5-9 11-6c6 4 8 14 5 22s-1 11 4 8c6-3 10-2 10 4 0 10 31 7 50-4 6-3 7 1 4 9-4 11 0 16 10 16 9 0 16 7 16 15 0 9 6 12 17 8 12-5 15-2 10 10-4 11 1 21 15 28 11 6 18 7 15 2-4-5 0-10 8-10s11 5 8 10c-4 6 1 8 11 4 11-5 15-3 10 5s-2 9 11 4c15-5 16-4 5 9-7 9-9 15-4 14 19-3 35 1 30 9-2 4-1 14 5 22 6 10 9 11 9 3 0-7 5-13 10-13 6 0 9 3 9 8-4 21 2 32 13 26 8-5 9-2 5 10-4 9-3 15 2 12 4-3 17 2 27 10 10 9 12 12 4 8s-1 8 15 27c17 19 32 31 33 27 8-19 24-6 20 17-3 13-2 24 1 23 3 0 8 0 11 1 22 8 69 7 63-2-3-6-1-7 6-3 9 6 9 11-1 24-10 12-10 14 0 8 8-5 12-1 12 11 0 14 2 15 9 4 6-10 10-10 16-1 4 6 4 14 1 17s-1 12 5 19c9 11 16 11 33 2 19-10 20-10 7 5-8 11-9 17-3 17s18 12 26 28c8 15 15 23 16 19 0-4 9-3 20 3 12 7 17 16 13 27s-3 14 5 9c7-4 12-3 12 3s6 8 14 5c11-4 14 1 12 20-2 14 0 23 5 21 4-3 10-1 14 5s10 8 15 5 12 0 16 6c4 8 3 9-4 5s-12-2-12 5c0 6 8 9 20 6 11-3 18-1 15 3-3 5-2 15 1 24 5 13 9 14 20 5 12-10 13-8 8 6-6 14-4 16 6 10s12-4 7 8c-4 11-1 15 13 12s17 1 13 12-2 14 5 9c7-4 13-2 13 3 1 6 2 15 3 20 0 5 5 13 10 18s6 3 2-4c-4-8-1-13 9-13 9 0 14 4 11 8-3 5 1 9 9 9s12-4 9-9c-3-4-1-8 4-8 14 0 24 29 15 43-4 7 1 6 11-2 15-12 17-12 14 0-2 8 3 13 10 11 7-1 12 5 10 15s3 18 10 19c6 1 17 2 22 3 6 0 10 6 10 12 0 5-6 7-13 3s-9-3-4 2 13 10 18 10c5 1 14 2 19 3 6 0 10 6 10 12 0 5-5 7-12 3-7-5-8-3-4 5 5 7 10 10 13 7 8-8 31 18 25 29-3 6 3 3 13-5 13-10 16-11 11-2-9 15 27 55 40 44 4-4 5 0 1 10-7 21 3 31 19 17 9-8 12-4 10 15-2 14 0 25 3 24 3 0 15 0 26 1 17 1 18 3 5 11-13 9-13 10 0 11 8 1 19 1 23 0 5-1 6 3 2 9-3 5 1 13 10 16 9 4 14 13 11 20-3 8-2 13 2 12 16-3 41 15 35 25-4 6 0 8 10 4 12-4 17-1 17 10 0 14 2 14 16-3 8-10 12-13 9-6-5 9-1 12 11 10 14-2 19 3 18 20-1 18 1 20 12 11 13-11 18-6 15 14-1 4 5 10 13 13 9 3 12 12 8 22-5 15-3 15 10 4 13-10 18-10 24-1 5 8 3 10-7 5-8-4-6-1 3 7 10 8 14 17 10 22-4 4 4 4 18 1 14-4 20-4 13 1-8 6-9 14-3 23 9 13 10 13 10 0 0-8 8 0 16 17 9 18 21 30 26 27s12 3 15 15c3 11 9 18 14 15s9 3 9 13c0 15 2 16 10 3s10-13 10 1c0 24 26 44 34 27 3-7 3-2 0 11-5 17-3 21 7 16 9-6 11-4 6 8-4 11-1 15 11 13 10-2 30 13 47 33s21 30 10 21c-18-14-19-14-7 2 8 10 20 14 29 11 12-5 14-3 8 7-6 9-4 11 6 5 18-12 49-14 49-4 0 4-6 10-12 12-10 4-10 6 0 6 6 1 12 9 12 19 0 13 2 14 9 3s11-10 20 6c5 11 7 23 3 27-3 4 1 4 10 1 17-7 32 20 21 37-4 7-1 8 6 4 7-5 10-15 7-23-4-8-1-11 5-7 6 3 9 15 6 25-4 15-2 17 13 9 14-8 17-5 15 14-2 17 2 23 14 22 9-1 15 6 15 17-2 15 16 22 47 19 3-1 6 5 6 13s-5 11-11 8c-8-4-8-2 0 6 6 7 20 13 31 14 15 1 19 7 17 25-2 20 0 21 14 10 12-10 14-10 8 0-4 7-2 12 4 12s8 5 5 10c-7 11 35 31 48 23 5-3 4 4-2 15-11 21 0 25 24 10 13-8 57 27 47 37-4 5 2 5 12 1 17-6 17-5 5 11-8 9-9 14-2 10s14 1 18 13c5 16 10 18 20 10s15-8 21 1c5 8 3 10-7 5-8-4-6-1 3 7 10 8 15 17 11 20-3 4 3 10 13 13 27 10 64 45 58 55-3 5 0 9 6 9s8 5 5 10c-3 6-1 10 4 10 6 0 11-5 11-12 0-6 3-8 7-4 8 7 9 11 12 37 0 5 5 8 10 4 5-3 12 4 16 15s11 18 16 15c5-4 9 1 9 9 0 9 6 16 13 16 8 0 24 12 38 27 13 14 18 23 11 19-6-4-12-4-12-1s14 11 31 17c22 7 27 13 18 19-9 5-5 10 14 14 16 5 24 12 20 19s-1 6 9-2c8-7 23-9 33-6 12 5 13 9 5 14-9 5-3 12 16 21 16 8 27 17 24 21s4 13 14 21c13 9 16 19 11 28-7 11-5 11 10-1 17-14 18-13 12 4-7 17-6 17 10 5 11-9 14-10 9-1-4 7-2 12 4 12s8 5 5 10c-3 6 1 10 9 10 10 0 13 6 9 17s-3 14 5 9c8-4 12 0 13 11 0 11 3 13 6 5 7-19 23-4 16 16-3 9-3 14 2 10 4-4 14 0 21 10 11 14 13 14 14 2 0-12 3-11 11 3 5 9 7 22 3 29-5 7-2 9 9 5 20-8 39 15 31 39-4 14-3 15 4 5 7-9 12-10 16-2 4 6 13 8 19 4 7-4 5 2-3 13-8 10-11 16-6 12s15 0 23 8c14 13 18 13 36-3 11-10 17-13 13-6s2 21 13 32 17 22 14 25 3 4 15 1c16-3 19 1 14 17-4 16-2 19 9 13 7-5 26-8 41-7 22 2 26-1 21-15-4-11-3-14 5-9 7 4 12 2 12-4s4-9 9-6 12-6 16-21c5-21 8-24 16-12 6 10 9 11 9 1 0-7 4-11 9-8 4 3 6-6 3-19-2-15 0-25 7-25s9 4 6 10c-3 5 0 7 8 4s17-15 20-26 10-18 14-15c5 3 15 1 23-5 12-8 12-9-2-4-23 7-23 1 1-23 14-14 21-16 25-8 3 9 7 8 14-2 8-11 10-11 15 0 4 10 6 10 6 2 1-7 8-13 16-13s14-3 14-7c-1-5-1-15 0-23 1-13 2-13 12 0 8 12 10 9 6-11-3-22 0-25 15-21 10 2 18-1 18-7 0-7 5-9 12-5 6 4 8 3 5-3-6-10 26-43 43-43 5 0 7-9 5-21-4-17-2-19 10-9 8 7 16 10 16 6 1-3 2-12 3-18 1-7 7-12 14-11 7 2 9-4 5-14-5-13-2-15 11-10 11 4 15 3 11-4-4-6 2-13 14-16 11-3 18-9 15-14s0-9 5-9c6 0 11-5 11-11 0-5-5-7-12-3-6 4-8 3-5-4 4-5 17-8 29-4 14 3 19 2 14-6-4-7-2-12 3-12 6 0 11-7 11-15 0-16 34-38 43-28 3 3 9-6 13-21 3-14 11-27 18-27 6-1 18-3 26-4s21-3 28-4c6 0 12-9 12-18s3-14 6-10c8 8 34-18 34-33 0-7 7-9 17-6 10 4 14 4 10 0s1-13 11-21c9-8 12-12 6-9s-11-1-11-9c0-10 5-11 18-4 15 8 20 5 25-16 4-17 11-24 21-21 8 3 11 1 8-4-3-6-1-10 4-10 6 0 11-8 11-17 0-15 2-16 10-3 7 11 10 11 10 2 0-8 5-10 13-6 9 6 9 5 1-7-9-11-9-17 2-27 8-7 14-10 14-7 0 4 7 0 15-9 8-8 15-19 15-25s3-10 8-10c25 4 34-2 23-15-9-11-8-15 4-20 11-4 14-2 10 7-4 6 0 3 9-8 30-39 36-44 49-41 6 1 9 1 5-1-5-3-8-12-7-21 0-11 3-12 6-5 3 10 9 9 20-3 13-13 17-13 24-2 6 9 9 10 9 1 0-7 6-10 14-7 10 4 14-1 12-19-2-14 2-24 10-24 6 0 10 7 7 16-4 14-4 14 6 1 6-8 11-24 11-35 0-17 2-17 10-5s10 12 10 1c0-16 46-61 54-53 6 5 10-15 7-32-1-5 6-3 15 5 12 9 15 9 10 1-4-7-2-12 4-12 7 0 10-7 7-14-4-11-1-13 11-9 15 6 16 5 2-12s-14-18 8-6c12 6 21 8 20 3-2-5 8-19 22-31 14-13 18-20 10-16-10 4-9 2 2-8 10-8 14-17 10-21s-2-7 3-6c24 5 37-1 32-14-4-10-1-13 7-10 7 3 19-3 27-13 13-17 13-17-6-3s-19 14-6-3c8-10 20-16 27-13 9 3 11 0 7-11-5-13-2-15 12-10 16 7 16 5 4-10-7-10-9-15-4-10 4 4 17-1 28-10 11-10 17-12 13-5-4 6-2 12 3 12 6 0 11-5 11-12 0-6 7-3 15 8 14 19 14 19 11-1-2-11 2-26 10-33s14-10 14-7c0 4 7 0 15-9 18-17 20-30 3-20-7 4-8 3-4-4 4-6 14-8 23-5 12 5 15 2 10-10-4-10-2-16 6-14 7 1 11-3 10-10-2-8 4-10 14-6 13 5 15 2 11-15-4-12-2-20 2-17 13 8 40-6 40-22 0-8 5-11 12-7 7 5 9 2 5-9s-2-14 9-10c17 6 19-13 2-21-9-4-8-5 2-4 8 1 23-2 33-7 13-5 15-11 7-20-9-11-7-12 8-8 14 3 22-1 27-16 3-12 11-21 16-21 6 0 7-5 3-11-4-8 0-9 15-4 16 5 20 3 15-9-4-11 0-16 12-16 16 0 17-2 4-10-12-8-11-10 8-10 16 0 22-6 22-22 0-19 2-20 10-8 9 13 10 13 10 0s1-13 10 0c6 10 10 11 10 3 0-7 9-13 21-13 15 0 19-5 15-15-3-10 3-17 20-21 19-5 24-11 21-26-4-14-2-16 6-10 18 15 39-11 24-28-9-10-9-11 0-6 15 8 88-58 79-73-4-6 2-8 14-6 11 2 20-1 20-6 0-6 6-7 13-3 9 6 9 4-1-8-10-13-10-17 4-22 9-3 20-3 26 0 6 4 8-2 3-16-5-15-4-20 4-16 6 4 11 2 11-4s4-8 10-5 10-3 10-15 4-19 9-16c8 5 26-21 23-35 0-3 6-6 14-7 7-1 20-3 28-4s13-9 11-20c-3-13 2-18 18-18 43 0 56-4 61-17 4-9 1-12-7-7-7 4-9 3-4-2 8-9 12-10 40-13 8-1 7-4-3-11-12-8-11-10 8-10 16 0 22-6 22-22 0-19 2-20 10-8 9 13 10 13 11 0 1-8 1-19 0-23-1-5 3-6 9-2 5 3 10-1 10-10s5-13 10-10c6 3 10-1 10-11 0-14 2-15 17-3 11 10 14 10 9 1-4-7-2-12 6-12 9 0 9-3-2-10-12-8-11-10 7-10 12 0 25-4 28-10s-2-8-12-5-8 0 5-6c14-8 21-18 17-27-4-12-3-13 10-2 12 10 15 9 16-6 1-11 1-22 1-25-1-4 7-5 18-2 15 4 18 1 15-17-4-19-2-20 12-8 12 9 15 9 9 1-4-8-1-13 9-13 9 0 14-4 11-8-3-5 5-15 19-22 15-8 22-19 20-32-4-17-2-18 12-6 9 7 14 8 10 2-4-7 0-14 8-18 8-3 15-1 15 5s5 7 10 4c6-4 7-12 3-18-5-8-2-8 9 0 17 15 29 7 21-13-3-8-2-14 3-13 18 3 34-1 33-8-4-23 3-32 18-26 12 5 14 3 8-7-5-9-4-11 3-6 7 4 21 9 31 11 18 3 19 1 10-23-8-21-8-24 2-15 10 10 15 9 26-5 8-9 11-11 7-3-5 9-3 12 5 7 6-4 9-11 7-15-3-4-1-13 5-21 7-13 9-13 9-1 0 11 4 10 16-5 8-10 13-14 10-8-3 7 1 15 10 18 8 3 13 2 10-3s3-11 14-14 18-1 15 3c-3 5-1 12 5 15 6 4 10 3 9-2-3-20 2-34 11-28 6 3 10-1 10-9 0-9 5-16 11-16 5 0 7 6 3 13-6 9-4 9 8-1 12-9 18-10 23-2s11 7 22-2c9-7 19-11 22-10 31 19 40 21 46 12 9-15 27-12 19 3-5 9-4 9 6 0 9-8 19-9 31-3 11 7 20 7 24 0 3-5 11-10 16-10 6 0 7 4 4 10-4 7 2 7 19 0 17-6 27-6 32 1 4 7 10 7 18 0 7-6 17-6 26-1s19 5 27-1c8-7 18-7 32 0 13 7 22 8 26 1 3-5 11-10 16-10 6 0 8 4 5 8-4 7 33 8 42 2 1-1 12-3 25-3 15-1 22 4 20 17 0 11 4 15 13 12 8-3 14-1 14 5s4 8 9 4c5-3 13 0 17 6 4 8 3 9-4 5s-12-3-12 3c0 15 39 34 56 27 8-3 17 1 20 9 4 8 12 15 20 15s14 5 14 11c0 5-5 7-12 3s-8-3-4 4c5 9 15 7 34-6 14-9 23-11 18-4-4 7-1 14 8 18 9 3 13 10 10 15s4 9 15 9 23 5 27 12 3 8-4 4-12-2-12 3c0 6 6 11 14 11s16 6 19 13c3 9 8 9 18-2 12-12 12-13 0-6-10 5-12 4-7-4 10-15 26-4 26 17 0 15 2 15 10 2 9-13 10-13 10 0 0 9-6 22-12 29-11 10-9 11 7 5 17-7 18-6 7 8-10 13-10 18-1 24 8 5 10 3 4-7-4-8 3-3 17 11 13 14 24 27 24 30-1 3 4 5 9 5 6 0 9-4 7-8-1-5 2-5 8-2 6 4 9 10 6 13s-1 11 5 18c7 8 6 14-2 20-8 5-9 3-4-6 5-8 4-11-3-6-7 4-6 16 5 36 8 17 17 30 19 30 3 0 2-4-1-10s1-7 10-4c9 4 14 13 11 21-4 9 6 19 27 28 18 8 25 14 15 15-25 0-22 13 12 49 17 17 25 31 18 31-9 0-8 3 2 10 10 6 11 10 2 10-14 0-12 21 3 32 6 5 5 8-4 8-11 0-11 3-1 15 7 8 8 15 3 15-12 0-11 46 1 57 5 5 6 2 1-6-6-10-4-12 4-7 9 6 9 11-1 24-10 12-10 14 0 8s12 535 12 2713c0 1897-3 2721-11 2721-5 0-8 4-5 9s-1 12-10 15c-15 6-15 8 1 26 11 12 13 20 6 20-9 0-9 5-1 20s8 20-1 20c-8 0-8 4-2 13 6 6 8 21 6 32s-5 26-5 32c-1 9-5 10-15 2-9-9-13-8-13 0 0 7-3 10-8 8-4-3-7 8-7 23-1 16 2 27 6 24 4-2 10-1 13 4s-1 9-9 10-22 3-30 4-12 5-9 10c3 4-1 8-8 8-11 0-10 2 0 9 11 7 10 10-3 15-9 3-22 3-28-1s-8 0-5 9c4 8 2 21-2 28-5 9-3 18 7 25 14 11 14 12-1 13-9 1-23 3-31 4s-14 8-13 17c2 10-6 17-19 19-20 3-21 6-12 24 9 16 8 19-2 13-9-6-10-3-6 10 4 9 2 23-4 31-12 14-42 7-33-8 3-5-3-4-14 3s-26 24-32 37c-7 16-16 22-26 18-11-4-15-2-11 8 8 20-29 31-48 16-12-10-13-8-10 10 4 18 2 20-11 9-12-10-13-9-9 3 3 8-2 21-12 29-17 13-17 13-3-5s14-19-7-7c-18 9-23 9-23-1-1-7-8-1-16 15-8 15-17 27-20 27s-2-4 1-10c3-5 4-10 0-10-3 0-10 10-15 23-8 20-9 20-10 2 0-17-2-17-10-5-7 11-10 11-10 2 0-10-3-10-14 0-10 9-11 15-2 20 7 5 5 8-6 8-10 0-18 4-18 8 0 5-7 9-15 9s-15-4-15-9c0-4-5-8-11-8-5 0-8 4-5 8 2 4-4 8-14 8s-16-4-14-8c3-4 1-8-5-8-5 0-13 5-17 11-4 8-9 7-15-2-8-12-10-12-18 0-6 10-10 10-16 1s-10-9-16 1c-7 11-9 11-9 1 0-8-5-10-12-5-18 11-39 13-33 3 3-4-6-7-20-6-14 0-25 3-25 6s-18 5-39 5c-22 0-37-3-35-7 3-5 0-8-5-8-6 0-11 5-11 11 0 8-4 8-14 0-8-7-17-8-20-3-5 8-23 9-83 3-7 0-13-6-13-12 0-5 5-7 12-3s8 3 4-5c-4-6-12-9-17-6-5 4-9 1-9-5s-4-8-10-5c-5 3-10 0-10-7 0-8-3-9-8-3-11 15-32 17-32 3 0-9-4-8-10 2s-10 11-10 3c0-7-5-13-11-13-5 0-7 5-3 12s3 8-4 4c-6-4-8-14-5-23 5-13 2-15-11-10-10 4-15 3-11-3 3-6-1-10-11-10-14 0-14-3-4-15 11-13 10-14-4-9-9 4-16 3-15-2 4-21-2-28-11-14-9 13-11 13-20 0-5-8-10-10-10-4s-7 11-14 11c-11 0-12-5-5-18 7-15 6-17-10-14-14 3-18-1-14-11 3-10 0-12-10-8s-15 0-14-13c2-13-4-17-22-15-17 3-21 0-15-10 4-7-3-4-15 6-21 19-21 19-15 1 6-14 4-16-6-10-9 6-11 4-6-4 10-15-23-53-40-47-8 3-11-1-7-10 3-8 2-14-3-13-21 4-26-2-13-18 7-10 9-15 5-11-5 4-15 3-23-4-10-8-13-8-10 3 2 8 2 11 0 6-3-4-9-4-15-1-5 4-4-4 3-17 11-21 11-23-3-11-13 11-16 10-14-5 0-10-5-18-11-19-25-3-25-4-13-20 8-8 9-14 4-13s-20 1-33 0c-19-1-21-4-12-15s8-15-5-20c-9-3-19-4-24-1-4 3-7-3-6-13 1-12-6-17-21-16-18 0-20-2-12-13 9-10 8-13-1-13-7 0-10-7-7-15 4-8 2-17-4-20-5-4-8-1-7 6 2 6-3 14-11 17s-11 0-7-7c4-6 2-11-4-11s-9-4-6-9c8-12-21-34-34-26-6 4-9 1-8-7 2-7-4-12-12-10-12 2-11-1 2-11 16-12 14-14-12-14-16 0-27 3-25 7s-2 7-10 7-12-4-9-9c3-4 0-8-6-8-7 0-10-6-7-14 4-10 0-13-14-11-11 2-17 0-13-6 7-13-15-41-27-33-5 3-13-6-19-21-5-14-17-28-25-32-9-3-14-12-11-20s2-12-3-8c-5 3-11 2-14-2-2-5-2-1 0 7s-5 4-16-10c-11-13-18-28-15-31 2-4-5-5-16-2-12 3-20 0-20-6 0-7 4-9 10-6s7-1 4-9c-3-9-9-14-13-12-10 6-31-21-23-30 4-5-2-2-12 6-13 10-17 10-12 2 4-7-1-23-13-38s-21-24-21-20-6 1-14-6-13-17-13-23c1-5-4-9-10-8-7 2-13-2-13-8 0-5-4-8-9-5s-14-1-21-9c-11-13-10-14 6-9 11 4 15 3 11-2-4-4-22-9-40-9-20-1-31-6-29-14 1-7-2-10-8-6-5 3-10 1-10-5 0-7-7-10-15-7-18 7-30-9-14-19 8-5 9-3 4 6s-4 11 3 6c15-9 15-11-5-27-14-12-16-12-9 1 4 8 1 7-8-4-8-10-19-15-25-12-6 4-8-2-6-15 2-12 2-19-1-16-10 10-42-26-37-42 3-11 2-12-4-4-9 12-33 3-36-13-1-5-7-8-14-8-6 1-9-5-6-12 3-8 0-14-6-14s-11-6-11-14-5-18-12-22c-6-4-8-3-4 4 3 6 2 14-4 17-6 4-9 1-8-7 2-7-3-12-11-10-12 3-12 0-1-12 10-14 10-16-6-17-11-1-22-1-26 0-4 0-5-8-3-19 3-13 0-18-7-14-8 5-9 1-4-11 5-14 4-16-7-7-15 13-37-2-37-24 0-7-5-16-12-20-6-4-8-3-4 4 9 15-15 21-38 10-14-8-15-12-6-18 8-5 3-9-13-14-18-4-25-12-22-25 3-14-3-18-23-17-21 1-26-3-24-18 2-13-1-16-10-10-11 6-11 5 0-8 10-13 9-15-10-14-16 1-22-4-20-16s-3-16-16-13c-13 2-19-2-18-13 0-9-6-17-14-17s-16-6-16-12c-1-7-2-17-3-23 0-5-7-9-13-7-7 1-12-5-10-13s0-12-3-8c-14 13-44-11-40-32 4-22-10-28-18-7-3 6-6 1-6-13-1-20-3-22-11-10-7 11-10 11-10 2 0-8-5-10-12-6-10 6-10 4 0-8 11-14 10-18-9-28-17-10-20-9-14 1 5 8 4 10-3 5-7-4-12-16-12-26 0-14-5-18-17-13s-14 3-8-8c7-12 6-12-7-1-11 9-18 10-23 2-3-6-10-8-15-5s-12 0-16-6c-4-8-3-9 4-5s12 3 12-2c0-14-29-24-43-15-7 4-6-1 2-11 8-9 10-16 5-15-21 4-26-2-13-18 13-15 12-15-7-5-27 14-36 5-22-22 10-19 9-20-5-8s-18 9-32-17c-8-17-18-31-21-31s-2 5 1 10c3 6 1 10-4 10-6 0-11-6-11-14s-14-26-31-40-27-31-23-37c5-8 1-8-15 0-17 9-20 9-15-3 3-8 0-17-5-21-6-3-8-12-4-18 4-7 0-6-10 2-15 12-17 11-17-2 0-9-9-21-21-27-13-7-18-17-15-27 6-14 4-14-11-2-14 12-16 12-8 0 6-11 4-13-7-8-12 4-15 0-13-19 2-21 0-22-13-12-11 9-14 9-9 1 10-17-13-28-24-12-6 10-9 10-9 2 0-7-7-10-15-6-9 3-15 2-14-3 4-22-2-44-12-44-5 0-7 6-3 13 5 8 2 8-9-2-9-7-17-23-17-35 0-17-2-18-10-6-9 14-15 7-11-14 1-5-4-4-12 2-12 10-14 7-11-15 2-16 2-23-2-16-3 7-12 9-20 6-13-5-13-7-2-14 10-7 9-9-5-9-11 0-15-4-11-12 5-7 2-9-9-5s-18-3-26-24c-5-16-18-32-28-36s-24-14-31-22c-9-10-11-11-6-2 5 10 3 12-5 7-9-6-9-11-1-21 8-9 6-14-5-19-11-4-14-2-9 7 5 8 2 8-9-2-9-7-14-17-11-22s0-9-6-9-8-6-4-12c5-10 4-10-6-1-11 10-18 6-37-19-13-18-23-25-23-17 0 12-2 12-10-1-9-13-10-13-10 0-1 9-5 6-10-7s-14-23-20-23-8-5-4-11c4-7-2-6-17 2-23 12-23 11-9-6s13-18-2-12c-13 4-16 1-13-14 4-17 2-19-11-8-12 10-13 9-8-6 6-14 4-16-6-10s-12 4-7-9c5-14 3-17-8-12-9 3-15 0-15-8s-7-17-16-20c-8-3-12-11-8-17 5-8 1-8-14 0-18 10-20 8-17-14 2-19-2-25-14-23-10 2-15-4-15-15 2-14-1-15-12-6-12 10-13 9-8-5 4-11 2-16-7-14-8 2-14-5-14-16s-6-21-13-24c-6-2-12 1-12 6 0 11-18 11-37-1-6-4-15-2-19 4-4 8-3 9 4 5s12-1 12 9c0 9-4 14-8 11-5-3-15 6-22 19-7 14-21 25-31 25-17 0-33 26-24 40 3 5-6 7-20 5-21-2-24 1-19 18 4 13 2 17-5 13-6-4-11-2-11 4 0 8-6 8-20 0-17-9-19-8-13 7 5 15 4 16-8 7-11-9-17-9-26 1-10 11-10 15 0 18 7 3 4 6-6 6-12 1-16 5-11 14 6 8 3 8-9-1-14-12-16-11-12 6 4 21-14 34-37 28-7-1-10-1-5 1 4 3 7 11 7 19 0 9-4 12-10 9-5-3-10-1-10 5s-4 8-10 5-10-1-10 4c0 6 0 14-1 19-1 11-28 24-38 18-5-4-7 4-3 16 3 14 2 19-6 14-7-4-12-2-12 4s-4 9-8 6c-5-3-16 8-26 25-9 16-22 29-27 29-6 0-8 4-4 9 3 5-3 12-14 16-11 3-22 12-25 20s-12 15-20 15-18 9-21 20-13 20-21 20-14 10-14 23c0 18-2 19-10 7-9-13-10-13-10 0s-1 13-10 0c-6-10-10-11-10-2 0 6-6 12-14 12s-18 5-22 12c-5 7-3 8 6 3 8-5 11-4 6 3-4 6-13 9-21 5-14-5-21 13-16 40 1 5-3 6-9 2-12-7-42 19-33 29 6 6-21 10-40 7-5-1-5 3-2 9 7 11-60 83-87 93-10 4-10 6 0 6 10 1 10 4 0 15-9 10-15 11-20 2-5-6-8-2-8 11 0 12-5 25-12 29-6 4-8 3-5-3 3-5 0-10-7-10s-13 7-12 16-5 15-13 13c-12-3-12 0-2 12s9 14-9 9c-16-4-19-2-13 12 4 13 3 16-5 11-7-4-15-1-18 8s-10 14-15 11c-4-3-6 3-4 13 3 16-2 19-26 16-17-2-28 0-25 5 3 4-6 7-19 6-13-2-24 0-24 3 1 4-2 18-6 30-6 18-10 20-16 10-6-9-9-7-9 9s-5 21-18 18c-11-2-19 3-19 10 0 8 4 12 9 9 4-3 5 2 2 10s-12 12-20 9-14 1-14 11c0 9-7 16-16 16s-12 5-8 13c5 7 0 6-11-3-10-8-16-10-12-3 5 7-2 22-14 34-17 17-23 19-31 8s-9-11-5 1c2 8 11 14 18 12 11-2 11 1-1 11-8 7-21 19-29 27s-11 10-8 4 0-11-7-11c-15 0-15 14-2 35 7 11 4 12-12 3-15-8-23-8-28 1-5 7-2 9 7 4 8-4 6-1-3 7-20 16-25 32-6 21 7-4 8-3 4 4-5 9-13 9-28 1-11-6-18-7-14-1 3 5-5 21-19 36-13 14-21 26-17 26s-2 6-12 12c-15 8-21 8-24-1-3-8-9-6-18 6-13 17-14 17-8-2 5-19 5-19-6-1-10 15-9 20 1 27 11 7 11 9-3 9-9 0-19-6-21-12-4-8-6-7-6 3-1 9-8 20-17 23s-14 12-11 20c4 10-1 12-16 9-18-4-19-3-7 6 10 7 11 11 3 11-7 0-22 9-33 20-22 22-27 35-8 24 7-4 8-3 4 5-4 6-11 9-16 6s-11-1-15 5-12 7-18 3c-7-4-6 1 2 10 12 15 12 17-4 11-14-6-16-4-10 6s4 12-8 7c-11-4-15-1-12 13s-1 17-12 13c-12-5-14-3-8 7s4 12-9 7c-9-4-15-3-11 2 3 5-1 12-7 14-10 4-10 6 0 6 6 1 12 6 12 13 0 6-3 8-7 5-3-4-12-2-20 5-11 9-12 7-6-8 6-16 5-17-9-4-9 8-16 17-16 20 1 21-4 30-16 30-8 0-21 9-29 20s-17 17-21 13-4 0-1 9c8 21-30 45-41 26-5-7-3-8 6-3 9 6 11 4 5-5-6-10-11-10-20 3-7 10-17 17-23 17-7 0-9 7-5 18 6 14 4 15-9 4-13-10-18-10-24-1-4 8-3 9 4 5s12-2 12 3c0 6-7 11-16 11-8 0-13 4-10 9s-3 11-14 14-20 11-20 19c0 7-14 19-31 25-27 11-30 15-19 28s10 14-3 10c-8-4-18-1-23 6-5 8-3 10 6 4 9-5 11-4 6 3-4 7-14 12-22 12s-14 7-14 15-5 15-11 15c-5 0-7 5-4 10 3 6-1 10-10 10-10 0-13-5-9-12s3-8-5-4c-6 4-9 12-6 17 4 5 1 9-4 9-6 0-11 9-11 20s-5 20-11 20c-5 0-7-6-3-12 5-9 2-9-9 1-9 7-17 19-17 27 0 7-5 16-12 20-6 4-8 3-4-4 3-6 2-13-3-16-5-4-8 5-7 18 3 24-17 42-34 31-5-3-12 0-16 6-4 8-3 9 4 5s12-1 12 9c0 9-4 13-10 10-5-3-10-1-10 4 0 6-5 11-11 11-5 0-8-4-5-8 3-5-2-9-10-9-9 0-13 6-9 15 4 12 3 13-10 2-12-10-15-10-15 4 0 9-5 16-11 16-5 0-7 6-3 13 5 7 0 6-11-3s-16-10-11-2c4 7 2 12-5 12s-10 3-6 6c7 8-17 34-32 34-6 0-8 8-4 18 3 9 3 14-1 10-4-3-23 9-41 28s-38 34-44 34-11 7-11 16c0 13-3 14-14 5s-12-6-8 15c3 19 1 25-7 20-6-4-11-2-11 4s-5 8-12 4c-7-5-9-2-5 9s2 14-9 10c-8-3-14-2-13 3 3 20-2 26-15 15-11-9-12-6-9 14 4 20 2 24-16 20-13-2-21 1-20 8 3 28-2 36-22 32-18-4-19-2-7 12 9 12 9 15 1 9-8-4-13-2-13 5 0 6-8 9-20 6-11-3-20 0-21 6 0 7-4 3-9-8-8-19-9-19-9 1-1 12-8 24-16 28-8 3-20 17-25 32-9 23-12 24-27 13-15-12-16-12-10 4 4 11 1 20-8 23-8 4-12 11-8 18 4 6 0 6-9-2-12-9-18-10-23-2s-11 7-23-2c-10-8-13-9-9-1 4 6-3 20-17 30-13 10-27 29-31 42-6 18-9 21-16 10-7-12-9-11-9 1 0 9-3 11-8 5-12-17-32-16-25 2 4 11 3 14-5 9-11-7-17 6-13 28 1 5-5 4-13-4-13-10-16-10-16 1s-2 11-10-1c-9-13-10-13-10 0s-1 13-10 0c-8-12-11-13-19-1-6 10-10 10-16 1s-10-9-16 1c-7 11-9 11-9 1s-4-9-16 3c-14 13-41 16-175 14-100 0-161-5-166-11zm397-1250c0-5 6-6 13-2 9 6 9 5 1-7-9-11-9-17 1-26 11-10 15-9 19 5 3 9 4 5 2-10s0-25 5-23c4 3 24-12 45-32 20-21 40-37 45-35 5 1 9-3 9-9 0-5 4-7 10-4s7-1 4-9c-4-11 0-16 12-16 16 0 17-2 4-10-12-8-11-10 8-10 12 0 22-5 22-11 0-5-6-7-12-3-7 4-10 4-6 0 3-4 9-6 12-4s12-6 21-17 13-14 9-6c-5 9-3 12 4 7 7-4 12-13 12-21 0-7 12-23 26-34s23-25 19-32c-6-8-2-8 14 0 12 7 21 8 20 4-5-19 15-43 35-44 16-1 17-2 4-6-14-3-15-7-5-18 6-7 17-10 22-7 16 10 36 11 29 1-3-5 5-9 18-9 18 0 20-2 8-10-13-8-13-10 2-10 10 0 25-11 34-25s20-23 24-20 14-3 21-12c10-12 10-14 2-9-7 4-13 2-13-3 0-6 5-12 10-12 6-1 16-2 23-3 6-1 11-10 9-20s1-15 7-12c6 4 20-4 32-18s26-23 30-20c5 3 6-2 3-10-4-11 0-16 12-17 18 0 17-1-1-9s-18-9 6-9c33-1 42-10 26-29-6-9-7-13-1-9 15 9 57-22 51-37-3-7 1-13 9-13 7 0 10 5 7 10-3 6-1 7 5 3 7-4 12-16 12-27 0-10 5-19 11-19 5 0 7 6 3 13-6 9-4 9 8-1 9-7 15-22 13-33s0-17 6-14c5 4 15 3 22-2 18-11 38-13 32-2-4 5 1 6 9 3s13-14 11-23c-2-14 2-17 21-15 21 2 23 0 13-12-9-11-9-14 0-14 7 0 9-5 5-12-6-10-4-10 8 0 13 10 18 10 24 1 5-8 3-10-7-5-8 4-3-2 11-14s18-19 10-15-6-1 4-9c11-9 23-16 28-16 4 0 5-7 1-16-5-14-3-15 15-5s20 9 17-8c-2-11 5-27 15-36 17-15 19-15 29 2 10 16 10 15 8-7-1-14 4-25 11-26 6-1 15-2 18-3 4 0 1-8-6-16-11-13-10-14 4-9 11 4 16 1 16-10 0-9 5-16 11-16 5 0 7 5 4 10-10 16 1 11 16-7 10-11 10-14 2-9-7 4-13 2-13-3 0-10 14-15 34-12 5 1 6-5 3-13-4-9-1-15 6-13 7 1 11-7 10-18s0-14 3-7c9 19 24 14 24-8 0-17 6-20 39-17 22 2 38 0 35-4-5-9 35-49 50-49 5 0 6-3 3-6-4-4-14-1-23 7-16 13-16 12-4-8 8-11 19-19 25-17 6 3 17-7 25-21 7-14 22-25 32-25s17-3 17-7c-4-25 3-35 21-30 11 3 18 2 15-3-2-4 5-16 16-26s17-24 14-32c-3-10 1-12 16-7 14 5 19 3 15-3-8-14 23-44 39-38 8 3 11-2 8-13-5-18 21-36 36-26 4 2 8-2 8-10s-5-12-11-9-3-1 6-9c10-8 14-18 10-22s4-2 17 5c13 6 21 8 17 2-5-8 22-41 34-41 21 0 60-23 60-36 0-8 8-15 18-15 14 0 15-2 2-10-12-8-11-10 8-10 12 0 22-5 22-10 0-6 11-20 25-32 13-11 22-25 19-29-3-5 2-6 10-3 10 4 16 1 16-8 0-18 46-59 56-50 4 4 5-1 1-10-3-10 0-19 9-22 8-3 12-1 9 4s1 7 9 4c17-6 17-25 1-36-5-4 4-6 22-4 29 3 31 2 22-17-8-14-8-18 0-13 6 4 11 2 11-3 0-6 6-10 13-9 6 2 11-3 9-9-1-7 3-13 9-13 5 0 7-6 3-12-6-10-5-10 8-1 17 15 29 7 21-13-3-8 1-14 11-14 9 0 16-5 16-11 0-8 6-7 17 2 11 10 14 10 9 2-4-7-3-13 1-13 5 0 15 6 22 13 10 10 11 9 6-5-4-11 2-26 16-40 12-13 18-17 14-9-6 10-4 12 4 7 7-5 10-15 6-24-3-9-3-13 1-10 8 9 33-14 27-25-2-4 1-6 9-5 7 2 12-3 10-11-3-12-1-12 14 0 12 9 15 9 10 2-4-8-2-13 4-13s8-4 5-10c-6-9 8-15 29-11 5 1 3-6-5-15-9-12-9-15-1-10 6 4 12 2 12-4s8-10 17-8c10 2 18-3 19-9 1-7 2-17 3-23 0-5 8-10 16-10s15-2 15-4 3-12 7-22c5-13 3-16-10-11-9 3-17 2-17-4s-5-7-11-3c-8 4-8 0 0-15 10-18 9-20-5-14-12 4-15 3-10-5s2-10-8-6c-12 4-16 0-16-16s-4-20-15-16c-8 3-15 1-15-5s-5-7-11-3c-8 5-8 1 0-13 9-18 7-20-17-21-58 0-62-2-55-19 4-11 3-14-5-9-7 4-17-3-24-18-6-14-15-26-20-26s-6 5-2 12 3 8-4 4-12-14-12-22-4-12-10-9c-5 3-10-3-10-14 0-14-5-19-15-15-11 5-13 2-9-10 5-12 2-15-10-10s-15 2-10-10c6-16-10-23-19-8-2 4-2 1-1-5 3-12-9-17-29-14-5 1-6-3-2-8 3-6 13-8 23-5 14 5 15 4 2-5-8-6-24-11-35-11-17 0-17-2-5-10s10-10-9-10c-17 0-22-4-17-16 3-8 2-12-4-9s-10 1-10-5-4-8-10-5c-6 4-7-1-3-11 5-13 3-16-10-11-12 4-14 2-10-10 5-13 2-15-11-10-14 6-17 3-12-9s2-15-10-10-15 2-10-10c5-13 2-15-13-11-15 3-18 1-14-11 5-11 3-13-7-7s-12 4-7-8c5-13 1-17-16-17-13 0-29-6-36-12-11-10-13-10-7 0 4 6 2 12-5 12-6 0-9-8-6-19 3-15 1-18-11-14-11 5-13 3-7-7s4-12-8-7c-13 5-17 1-17-14 0-14-5-19-14-16-18 7-36-11-29-29 5-13-15-20-41-15-5 1-4-5 4-13 8-11 9-16 1-17-26-3-30-4-38-13-5-5-3-6 5-2 6 4 12 2 12-3 0-6-7-11-16-11-10 0-14-5-10-15 4-13 2-14-14-5s-18 8-13-6c5-13 3-15-8-9-12 7-12 6-1-7 10-13 9-15-13-13-14 2-23-1-19-6 3-5 10-6 16-3 7 5 8 2 4-5-5-7-14-10-22-7s-11 0-8-8-4-16-16-19c-14-4-19-10-14-18 5-9 2-10-10-6-10 4-15 3-11-3 3-6 1-10-5-10s-9-3-7-7c3-5-1-14-9-21-9-8-14-9-14-2 0 6-4 9-10 5-5-3-7-12-3-20 3-9-1-15-11-15-9 0-16-6-17-12 0-10-2-10-6 0s-10 9-26-5c-11-10-17-12-13-6 5 9 2 11-9 7-11-5-13-10-5-19 13-16 0-28-17-14-10 9-13 7-13-10 0-12-4-19-10-16-5 3-10 1-10-5 0-7-7-10-15-7-8 4-17 1-21-5-4-7-3-8 4-4s12 1 12-8-5-16-11-16c-5 0-7-5-3-11 4-8 1-8-13-1-17 9-19 8-19-11 1-13-4-21-11-20-7 2-13-4-13-12s-5-15-11-15c-5 0-7 4-4 10s3 10 0 10-13-16-21-36c-10-24-20-34-30-30-7 3-14 1-14-5s-21-30-46-54c-32-29-42-44-33-48 13-5 6-6-51-11-8-1-19 3-23 9-5 5-6 0-2-12 3-13 1-25-8-30-7-4-21-19-31-33-15-20-17-21-12-5 6 19 5 19-8 2-10-14-15-15-19-5-3 7-5 2-4-12 1-15-3-24-10-23-7 2-13-4-13-12s-4-15-10-15c-5 0-10-8-10-17 0-15-2-16-10-3-6 10-10 11-10 3 0-18-39-55-49-48-5 2-8-3-7-12 0-10-6-18-14-18s-14-8-14-18c2-14-1-15-12-6-12 9-13 9-9-4 4-8 1-18-6-23-7-4-10-3-5 4 3 6 2 14-4 17-6 4-10 3-9-2 3-18-1-46-7-41-7 8-44-28-44-42 0-5-6-9-12-7-7 1-12-4-10-12 2-9-3-11-13-7-9 3-14 2-11-3s-1-11-9-15c-8-3-15 0-15 7-1 7-6 5-14-5-7-10-17-14-21-10-5 4-5-1-2-11 4-11 3-16-3-12-6 3-13-1-16-9-3-9-11-13-17-9s-8 0-4-11c4-9 3-15-2-12-4 3-17-2-27-10-10-9-13-13-7-9 9 4 11 1 7-10-5-12-9-13-20-4-12 10-13 9-8-5 4-11 2-16-6-14-7 2-15-3-18-11-3-9 0-11 8-6 9 5 11 4 6-4-4-6-11-9-15-6-5 2-17-3-27-11-10-9-13-13-6-9 20 10 14 0-15-26-16-13-22-17-15-9 6 8 12 18 12 24 0 5-6 1-14-10-10-13-11-23-4-31 7-9 4-11-11-8-13 2-21-1-21-10 0-14-27-28-39-20-4 2-8-2-8-9 0-8 7-12 16-9 9 2 7-1-4-8s-23-17-27-23c-6-8-11-6-18 4-5 8-10 10-10 5 0-6 5-16 10-23 6-6 8-10 4-8-8 6-51-37-47-46 6-11-5-10-30 4-19 10-20 9-10-4 10-12 10-15-2-15-8 0-15 4-15 9s-5 6-11 3c-6-4-8-13-5-21 3-7 0-16-6-20-7-5-8-2-4 7 4 8 1 6-7-3-16-21-32-24-21-5 4 7 3 9-2 4s-10-13-10-18c-1-5-2-14-3-20 0-5-5-7-11-4-5 3-12-6-16-20-3-13-10-22-15-19s-6 11-2 17c4 7 0 6-10-2-15-12-17-11-17 3 0 9 6 16 13 16 8 0 8 3-2 9-13 8-13 12 0 27 9 11 9 15 2 10-7-4-13-2-13 3 0 6 6 11 13 11 9 0 9 2-1 9-19 12-19 15-2 36 9 11 10 16 3 11-8-4-13-1-13 9s5 13 13 9c9-6 9-4-1 8-9 11-10 18-2 23 6 3 7 12 3 18-11 18-12 36-2 43 12 7 11 24-2 24-5 0-7-5-3-12s3-8-5-4c-9 6-9 11 0 22 6 8 8 14 3 14s-2 5 6 10c10 6 11 10 3 10-7 0-13 5-13 11 0 5 6 7 13 3 9-5 9-4 0 6-10 11-10 17 0 29 9 12 9 13-1 7-8-5-11-1-9 13 2 11 6 24 10 27 10 11 8 24-4 24-5 0-7-5-3-12s3-8-5-4c-9 6-9 11 0 22 6 8 8 14 3 14s-2 5 6 10c10 6 11 10 3 10-7 0-13 5-13 11 0 5 6 7 13 3 9-5 9-4 0 6-10 11-10 17 0 29 9 11 9 13 0 8-15-9-13 44 2 55 6 5 5 8-4 8-11 0-11 3 0 17 10 11 10 14 1 9-7-4-12-1-12 9s5 13 13 9c9-6 9-4-1 8-9 12-10 18-2 23s6 14-7 28c-10 11-13 17-7 14 7-4 14 0 18 8 3 9 0 15-10 15-14 0-14 2 0 16 18 17 21 28 6 19-12-8-8 48 5 57 6 5 5 8-4 8-11 0-11 3 0 17 10 11 10 14 2 9-8-4-13-1-13 9s5 13 13 9c9-6 9-4-1 8-9 12-10 18-2 23s6 14-7 28c-10 11-13 17-7 14 7-4 14 0 18 8 3 9 0 15-10 15-14 0-14 2 0 16 18 17 21 28 6 19-12-8-8 48 5 57 6 5 5 8-4 8-11 0-11 3 0 17 10 11 10 14 2 9-8-4-13-1-13 9s5 13 13 9c9-6 9-4-1 8-9 12-10 18-2 23s6 14-7 28c-10 11-13 17-7 14 7-4 14 0 18 8 3 9 0 15-10 15-14 0-14 2 0 16 17 17 21 29 7 20-5-3-8 8-7 24 0 17 5 30 11 30 5 0 4 4-4 9-9 6-10 11-2 15 14 9 14 26 0 26-5 0-7-5-3-12s3-8-5-4c-6 4-8 13-4 19 4 7 8 15 9 20 1 4 2 8 4 10 6 8 5 49-2 53-4 3-8 10-8 15 0 6 5 7 10 4 6-3 10-2 10 4 0 5-5 11-11 13-7 2-7 12 0 31 9 22 8 27-5 27-14 0-14 2 0 16 17 17 21 29 7 20-5-3-8 8-7 24 0 17 5 30 11 30 5 0 4 4-4 9-9 6-10 11-2 15 14 9 14 26 0 26-5 0-7-5-3-12s3-8-5-4c-6 4-8 13-4 19 4 7 8 15 9 20 1 4 2 8 4 10 6 8 5 49-2 53-4 3-8 10-8 15 0 6 5 7 10 4 6-3 10-2 10 4 0 5-5 11-11 13-7 2-7 12 0 31 9 22 8 27-5 27-14 0-14 2 0 16 17 17 21 29 7 20-5-3-8 8-7 24 0 17 5 30 11 30 5 0 4 4-4 9-9 6-10 11-2 15 14 9 14 26 0 26-5 0-7-5-3-12s3-8-5-4c-9 6-9 11 0 22 6 8 8 14 5 14-4 0-4 6 0 12 11 18 12 48 2 54-4 3-8 10-8 15 0 6 5 7 10 4 6-3 10-2 10 4 0 5-5 11-11 13-7 2-7 12 0 31 9 22 8 27-5 27-14 0-14 2 0 16 17 17 21 29 7 20-5-3-8 8-7 24 0 17 5 30 11 30 5 0 4 4-4 9-9 6-10 11-2 15 14 9 14 26 0 26-5 0-7-5-3-12s3-8-5-4c-9 6-9 11 0 22 6 8 8 14 5 14-4 0-4 6 0 12 11 18 12 48 2 54-4 3-8 10-8 15 0 6 5 7 10 4 6-3 10-1 10 4 0 6-4 11-9 11-12 0-9 63 4 72 6 5 5 8-4 8-11 0-11 3 0 17 10 11 10 14 2 9-8-4-13-1-13 9s5 13 13 9c9-6 9-4-1 8-9 12-10 18-2 23s6 14-7 28c-10 11-13 17-7 14 7-4 14 0 18 8 3 9 0 15-10 15-14 0-14 2 0 16 18 17 21 28 6 19-12-8-8 48 5 57 6 5 5 8-4 8-11 0-11 3 0 17 10 11 10 14 2 9-8-4-13-1-13 9s5 13 13 9c9-6 9-4-1 8-9 12-10 18-2 23s6 14-7 28c-10 11-13 17-7 14 7-4 14 0 18 8 3 9 0 15-10 15-14 0-14 2 0 16 18 17 21 28 6 19-12-8-8 48 5 57 6 5 5 8-4 8-11 0-11 3 0 17 10 11 10 14 2 9-8-4-13-1-13 9s5 13 13 9c9-6 9-4-1 8-9 11-10 18-2 23 6 3 7 12 3 18-11 18-12 36-2 43 12 7 11 24-2 24-5 0-7-5-3-12s3-8-5-4c-9 6-9 11 0 22 6 8 8 14 3 14s-2 5 6 10c10 6 11 10 3 10-7 0-13 5-13 11 0 5 6 7 13 3 9-5 9-4 0 6-10 11-10 17 0 29 9 12 9 13-1 7-8-5-11-1-9 13 2 11 6 24 10 27 10 11 8 24-4 24-5 0-7-5-3-12s3-8-5-4c-9 6-9 11 0 22 6 8 8 14 3 14s-2 5 6 10c10 6 11 10 3 10-7 0-13 5-13 11 0 5 6 7 13 3 9-5 9-4 0 6-10 11-10 17 0 29 9 11 9 13 0 8-15-9-13 44 2 55 6 5 5 8-4 8-11 0-11 3 0 17 10 11 10 14 2 9-8-4-13-1-13 9s5 13 13 9c9-6 9-4-1 8-9 12-10 18-2 23s6 14-7 28c-10 11-13 17-7 14 7-4 14 0 18 8 3 9 0 15-10 15-14 0-14 2 0 16 18 17 21 28 6 19-12-8-8 48 5 57 6 5 5 8-4 8-11 0-11 3 0 17 10 11 10 14 2 9-8-4-13-1-13 9s5 13 13 9c9-6 9-4-1 8-9 12-10 18-2 23s6 14-7 28c-10 11-13 17-7 14 7-4 14 0 18 8 3 9 0 15-10 15-14 0-14 2 0 16 18 17 21 28 6 19-12-8-8 48 5 57 6 5 5 8-4 8-11 0-11 3 0 17 10 11 10 14 2 9-8-4-13-1-13 9s5 13 13 9c9-6 9-4-1 8-9 11-10 18-2 23 6 3 7 12 3 18-11 18-12 36-2 43 5 3 9 11 9 17 0 7-4 6-11-3-8-12-9-10-7 10 2 14 8 28 13 32 6 5 5 8-2 8s-13 5-13 11c0 5 6 7 13 3 9-5 9-4 0 6-10 11-10 17 0 29 9 12 9 13-1 7-14-8-12 19 2 43 6 9 5 12-2 7-7-4-10 1-9 14 1 11 5 20 10 20 4 0 6 4 3 8-3 5 1 9 9 9s15-4 15-9zm6291-23c5 3 6-1 3-9-3-9-11-13-18-9-6 4-5-1 3-10 7-9 10-17 6-17s-1-8 6-17c10-11 10-14 2-9-9 5-13 0-13-16 0-13 6-30 13-37 10-11 10-13 0-7-7 4-13 2-13-3 0-6 5-11 12-11 6 0 3-7-8-16-10-8-14-13-8-10 7 3 14-5 16-19 5-22 3-23-10-13-13 11-14 10-4-8 8-16 8-24-1-33-9-10-9-11 4-6 10 4 16 0 16-9 0-8-4-13-9-10-13 8-9-41 5-55 10-11 10-13 0-7-7 4-13 2-13-3 0-6 5-11 12-11 6 0 3-7-8-16-10-8-14-13-8-10 15 7 23-23 14-49-4-11-3-26 4-34 9-12 7-13-9-7-15 5-17 4-8-5 6-6 9-18 6-27-5-11-3-13 7-7s11 4 4-6c-5-8-9-21-9-29s-4-21-8-27c-5-9-3-11 6-7 8 3 14-1 14-10 0-8-4-13-9-10-13 8-9-41 5-55 10-11 10-13 0-7-7 4-13 2-13-3 0-6 5-11 12-11 6 0 3-7-8-16-10-8-14-13-8-10 7 3 15-1 18-10 3-8 2-12-4-9-15 9-12-39 3-54 10-11 10-13 0-7-7 4-13 2-13-3 0-6 5-11 12-11 6 0 3-7-8-16-10-8-14-13-8-10 7 3 14-5 16-19 5-22 3-23-10-13-13 11-14 10-4-8 8-16 8-24-1-33-9-10-9-11 4-6 10 4 16 0 16-9 0-8-4-13-9-10-13 8-9-41 5-55 10-11 10-13 0-7-7 4-13 2-13-3 0-6 5-11 12-11 6 0 3-7-8-16-10-8-14-13-8-10 15 7 23-23 14-49-4-11-3-26 4-34 9-12 7-13-9-7-15 5-17 4-8-5 6-6 9-18 6-27-5-11-3-13 7-7s11 4 4-6c-11-19-11-41 0-57 6-8 6-12 0-11-20 3-28-2-15-10 8-5 16-17 17-25 1-9-2-14-7-10-13 8-11-10 4-25 8-10 8-12 0-7-6 3-14 2-17-3s1-12 9-15c12-4 13-10 6-24-7-13-6-23 2-31 7-7 8-12 2-11-21 4-29-1-16-9 8-5 16-17 17-25 1-9-2-14-7-10-13 8-11-10 4-25 8-10 8-12 0-7-6 3-14 2-17-3s1-12 10-15c13-5 14-9 4-21s-10-18 1-32c10-11 10-14 2-9-7 4-13 2-13-3 0-6 5-11 12-11 6 0 4-6-7-13-14-11-15-16-5-22 9-6 11-4 5 5-5 9-4 11 4 6 9-6 9-11 0-22-6-8-8-14-5-14 4 0 1-10-5-22-11-21-11-22 4-9 19 15 23 1 5-17-7-7-8-12-4-12 5 0 3-7-4-15-11-13-10-14 2-10 9 4 15 0 15-9 0-8-4-13-9-10-13 8-9-41 5-55 10-11 10-13 0-7-7 4-13 2-13-3 0-6 5-11 12-11 6 0 4-6-7-13-14-11-15-16-5-22 9-6 11-4 5 5-5 9-4 11 4 6 9-6 9-11 0-22-6-8-8-14-5-14 4 0 1-10-5-22-11-21-11-22 4-9 19 15 23 1 5-17-7-7-8-12-4-12 5 0 3-7-4-15-11-13-10-14 2-10 9 4 15 0 15-9 0-8-4-13-9-10-13 8-9-41 5-55 10-11 10-13 0-7-7 4-13 2-13-3 0-6 5-11 12-11 6 0 3-7-8-16-10-8-14-13-8-10 7 3 14-3 17-14s2-20-3-20c-10 0-7-61 4-78 4-7 4-12-1-11-20 3-27-2-14-10 8-5 16-17 17-25 1-9-2-14-7-10-13 8-11-10 4-25 8-10 8-12 0-7-6 3-14 2-17-3s1-12 9-15c12-4 13-10 6-24-7-13-6-23 2-31 7-7 8-12 2-11-21 4-29-1-16-9 8-5 16-17 17-25 1-9-2-14-7-10-13 8-11-10 4-25 8-10 8-12 0-7-6 3-14 2-17-3s1-12 10-15c13-5 14-9 4-21-7-8-9-15-5-15s2-7-5-15c-11-13-10-14 2-10 9 4 15 0 15-9 0-8-4-13-9-10-13 8-9-41 5-55 10-11 10-13 0-7-7 4-13 2-13-3 0-6 5-11 12-11 6 0 3-7-8-16-10-8-14-13-8-10 7 3 15-1 18-10 3-8 2-12-4-9-15 9-12-39 3-54 10-11 10-13 0-7-7 4-13 2-13-3 0-6 5-11 12-11 6 0 3-7-8-16-10-8-14-13-8-10 7 3 14-5 16-19 5-22 3-23-10-13-13 11-14 10-4-8 8-16 8-24-1-33-9-10-9-11 4-6 10 4 16 0 16-9 0-8-4-13-9-10-13 8-9-41 5-55 10-11 10-13 0-7-7 4-13 2-13-3 0-6 5-11 12-11 6 0 3-7-8-16-10-8-14-13-8-10 15 7 23-23 14-49-4-11-3-26 4-34 9-12 7-13-9-7-15 5-17 4-8-5 6-6 9-18 6-27-5-11-3-13 7-7s11 4 4-6c-13-22-14-42-1-58 9-12 9-13 0-7-7 4-13 2-13-3 0-6 5-11 12-11 6 0 4-6-7-13-14-11-15-16-5-22 9-6 11-4 5 5-5 9-4 11 4 6 9-6 9-11 0-22-6-8-8-14-5-14 4 0 1-10-5-22-11-21-11-22 4-9 19 15 23 1 5-17-7-7-8-12-4-12 5 0 3-7-4-15-11-13-10-14 2-10 9 4 15 0 15-9 0-8-4-13-9-10-13 8-9-41 5-55 10-11 10-13 0-7-7 4-13 2-13-3 0-6 5-11 12-11 6 0 4-6-7-13-14-11-15-16-5-22 9-6 11-4 5 5-5 9-4 11 4 6 9-6 9-11 0-22-6-8-8-14-5-14 4 0 1-10-5-22-11-21-11-22 4-9 19 15 23 1 5-17-7-7-8-12-4-12 5 0 3-7-4-15-11-13-10-14 2-10 9 4 15 0 15-9 0-8-4-13-9-10-13 8-9-41 5-55 10-11 10-13 0-7-7 4-13 2-13-3 0-6 5-11 12-11 6 0 3-7-8-16-10-8-14-13-8-10 7 3 14-3 17-14s2-20-3-20c-10 0-7-61 4-79 6-10 5-12-2-7-7 4-12 2-12-3 0-6 5-11 12-11 6 0 4-6-7-13-14-11-15-16-5-22 9-6 11-4 5 5-5 9-4 11 4 6 9-6 9-11 0-22-6-8-8-14-5-14 4 0 1-10-5-22-11-21-11-22 4-9 19 15 23 1 5-17-7-7-8-12-4-12 5 0 3-7-4-15-11-13-10-14 2-10 9 4 15 0 15-9 0-8-4-13-9-10-13 8-9-41 5-55 10-11 10-13 0-7-7 4-13 2-13-3 0-6 5-11 12-11 6 0 3-7-8-16-10-8-14-13-8-10 7 3 15-1 18-10 3-8 2-12-4-9-15 9-12-39 3-54 10-11 10-13 0-7-7 4-13 2-13-3 0-6 5-11 12-11 6 0 3-7-8-16-10-8-14-13-8-10 7 3 14-5 16-19 5-22 3-23-10-13-13 11-14 10-5-7 6-11 9-28 8-37-2-10 1-18 6-18 6 0 7-5 4-10-4-6-12-8-18-4-7 3-4-1 5-9 16-13 16-15-7-25-22-10-25-9-25 7 0 18-47 58-62 53-5-1-8 2-8 8 0 14-66 80-74 73-3-4-6 1-6 11 0 11-4 14-12 10-7-5-9-2-5 9 3 9 0 18-9 21-8 3-12 2-9-3s1-12-4-15c-6-4-8 8-6 26s1 27-2 21c-2-7-9-13-14-13-6 0-7 5-3 12 5 7 2 9-9 5s-15-1-12 13c2 10-3 21-11 24-10 4-12 2-8-6 4-7 3-8-4-4s-12 14-12 22-4 12-10 9-10 4-11 17c0 22-1 22-9 3l-9-20-1 20c-2 11-2 27-1 35 0 9-2 10-5 3s-12-9-21-6c-12 5-14 3-8-7s4-11-6-4c-8 4-20 9-27 10-8 2-17 6-20 10-4 4 1 4 11 1 11-4 17-3 15 4-2 6-7 10-11 10-11-1-44 33-40 42 3 4 1 7-4 6-21-4-32 2-38 20-3 10-16 22-28 25-17 5-19 8-8 15 16 11 3 19-26 16-18-1-20 1-12 12 9 9 8 13 0 13-7 0-9 5-5 12 5 7 0 9-14 6-16-4-19-2-15 10 4 10 2 13-5 8-7-4-12-1-12 9s5 13 12 9 8-3 4 5c-6 9-11 9-21 1-9-7-16-6-26 6-8 10-13 18-11 18 10 3-12 36-24 36-8 0-14 5-14 11 0 5-5 7-12 3-7-5-9-2-6 8 6 15-27 42-41 34-5-3-7 5-6 17 2 17-3 22-21 23-13 1-22-2-19-6 3-5-3-7-12-6-10 2-19 13-21 25s-8 19-13 16c-5-4-9-1-9 5s-4 8-10 5-10 4-10 16-3 20-6 16c-3-3-18 5-32 18s-29 22-34 19c-4-3-5 3-1 12 4 12 3 15-5 10s-10-2-5 10c5 13 2 15-15 9-14-4-22-2-22 5 0 6 5 8 11 5 6-4 5 2-2 13s-18 18-24 16c-7-3-18 3-26 13-13 16-12 17 4 4 15-12 17-12 11 3-3 9-13 16-21 16s-11 4-8 10c4 6-1 7-11 3-13-5-16-3-11 10s1 17-20 17c-20 0-23 3-14 14s8 15-5 20c-9 3-21 3-26-1-6-3-9-2-5 3 3 5-1 20-9 34-7 14-13 21-14 17 0-12-30 20-30 32 0 6-4 11-10 11-5 0-10-4-10-10 0-5-5-10-11-10-5 0-7 5-3 12s3 8-5 4c-6-4-18-1-26 8-11 11-12 16-2 20 6 3 1 4-13 3-20-2-25 2-24 20 1 13-2 20-7 18-4-3-14 1-22 9s-17 13-20 10-4 5-1 18c2 12 2 17-2 11-9-19-24-16-17 4 4 11 3 14-6 9-8-5-14-1-18 13-3 12-10 21-15 21s-6-5-2-12c4-6 3-8-4-4-6 3-9 16-7 27 3 16 1 18-9 10s-17-7-27 6c-9 11-10 14-1 9 6-4 12-2 12 3 0 6-6 11-14 11-7 0-16 9-19 20s-12 20-21 20-16 5-16 11-7 8-17 5c-10-4-14-4-10 0s1 14-6 23c-11 14-10 15 8 1 19-14 19-14 6 3-8 10-20 16-28 13s-12-2-9 2c2 4-4 19-14 32l-19 25 5-25 5-25-11 23c-5 13-8 28-4 33 3 5-6 5-20-1-22-8-26-7-27 8 0 14-2 14-9-3-8-19-9-19-9 3-1 13-5 20-11 17-5-3-10 0-10 8 0 16-43 59-56 56-21-4-26 2-13 18 10 11 10 14 2 9-8-4-13-2-13 5 0 8-4 8-15-1-13-11-14-10-9 4 3 9 1 16-5 16s-11 5-11 11c0 5 5 7 12 3s8-3 4 4c-5 8-13 9-25 2-16-8-17-6-14 18 4 21 2 24-6 12-8-11-11-12-11-2 0 7-5 10-12 6s-8-3-4 5c12 18-14 44-30 30-10-8-12-6-9 10 2 14-1 21-11 21-8 0-14 5-14 11 0 5-6 7-12 3-7-4-10-4-6 1 4 4 3 16-3 27-9 16-13 17-27 6-9-7-14-8-10-4 4 5 2 16-5 24-9 13-9 14 0 8 9-5 11-2 7 9-5 12-9 13-20 4-13-11-19-2-15 24 0 4-7 7-16 7-15 0-16 2-3 10 8 5 11 10 6 10s-18-8-28-17c-18-16-18-16-12 0 7 19-15 20-28 2-4-5-6 3-5 20 1 18-3 30-10 31s-18 2-23 3c-6 0-10 8-8 17 2 10-4 19-12 21-13 4-13 3 0-6 17-12 10-14-14-5-9 3-13 10-10 15 6 10-19 39-35 39-5 0-8 10-6 23 4 21 4 21-10 3-14-19-15-19-15-1 0 22-28 55-47 55-7 0-13 5-13 10 0 6-6 10-14 10-10 0-13 7-11 20 2 11 0 18-5 15-4-3-15-2-24 1-12 4-13 11-6 24 5 9 6 20 2 24-3 4 1 4 11 0 9-3 14-11 10-17-3-5-1-7 5-3 6 3 9 17 6 31-3 18-1 23 10 19 7-3 16 2 20 11 3 9 10 13 16 10 6-4 7 1 3 12-3 10-3 15 1 11 10-8 44 24 38 36-3 5 2 7 11 3 16-6 21 2 18 30-1 7 7 9 18 6 16-4 19-1 16 16-2 11 1 24 7 27 7 4 8 2 4-4-9-15 14-15 34-1 13 9 12 10-3 5s-16-3-6 17c15 28 24 37 16 15-4-12-2-15 9-11 8 3 13 12 10 19-3 8 0 13 7 11 7-1 11 4 9 11-1 8 2 11 8 7 5-3 15 5 21 19 7 14 17 22 25 19s14 1 14 8c0 8 6 5 15-7 8-10 14-14 13-9-4 13 40 57 51 51 4-3 7 5 6 19-2 16 1 22 10 19 16-6 34 24 28 46-4 12-3 13 5 1 6-8 17-11 27-7 15 5 15 9 4 23-10 12-10 14-1 9 6-4 12-3 12 3s7 7 17 4c11-4 14-3 9 5-4 7-3 12 2 12s20 16 33 35 30 35 37 35c11 0 17 14 13 34-1 5 6 3 15-5 12-9 15-9 10-1-4 7-2 12 4 12s8 5 4 12c-5 8-2 9 10 5 10-4 15-3 11 3-3 6-1 10 5 10 7 0 9 7 6 16s-2 12 4 9c6-4 24 7 41 24 31 32 49 39 49 21 0-5 5-10 11-10 5 0 7 5 4 10-3 6-1 10 4 10 6 0 11 6 11 14 0 7 8 20 18 27 15 13 16 12 3-4-12-15-12-17 3-11 11 4 16 14 13 25-4 13 0 16 15 14 14-3 18 0 15 10-3 7 2 19 11 27 13 11 14 11 7-1-6-10-4-12 4-7 7 5 10 14 7 22-3 9 0 11 11 7 12-5 15-2 10 10-4 11-2 14 8 11 7-3 19 4 25 16 6 11 15 18 20 15 6-4 7 1 3 11-4 12-3 15 5 10 11-6 17 5 13 27 0 4 5 7 12 7s22 7 33 16c10 8 13 12 5 8-10-5-12-3-7 5 5 7 14 10 21 7 15-5 28 20 19 36-4 5 4 4 17-2 19-10 22-10 13 0-15 15 13 49 34 42 7-2 12-1 11 4-4 21 2 32 21 37 11 3 22 1 25-4 7-10 35 0 35 13 0 6-8 4-17-3-16-12-17-12-6 2 7 9 10 18 8 21-3 3 5 4 19 3 16-2 23 1 20 9-3 7 2 19 11 26 8 7 15 9 15 4 1-5 7 5 15 21 7 17 14 24 14 17 1-7 6-10 11-7 6 4 7 11 4 17-5 7-1 9 9 5 12-4 15-1 12 14-2 11 0 17 4 15 4-3 17 2 27 10 10 9 13 12 5 8-10-5-12-3-7 5 5 7 14 10 22 7s11 0 7 10 2 17 16 21c11 3 21 10 21 15s4 7 9 4c4-3 7 6 5 20-2 25-2 25 17 8 18-16 19-16 13-1-3 10-1 17 6 17 6 0 9 4 6 9-9 13 31 44 46 35 9-5 8-2-2 11-9 11-10 16-2 11 13-8 42 15 42 34 0 7 6 8 18 2 9-5 26-6 37-1 13 5 15 8 5 8-12 1-13 3-1 10 7 5 10 14 6 21-6 9-2 9 16 0 13-7 21-9 16-5-4 5 1 17 10 27 16 18 16 19-3 12-15-5-16-4-4 4 9 7 18 8 26 1s15-6 19 2c4 6 1 15-6 20-11 7-10 9 4 9 9 0 17 4 17 10 0 5 3 9 8 9 19-3 26 2 13 10-12 8-9 11 12 16 15 4 24 11 21 16s0 9 6 9c7 0 9 7 5 18-5 14-4 15 6 5 10-11 16-8 26 15 7 15 11 19 8 9s-1-15 5-12 10 13 10 21 5 14 11 14c5 0 8 4 4 9-3 5-1 12 5 16 5 3 10 1 10-4 0-6 5-11 11-11 5 0 7 5 4 10-3 6-1 10 5 10s8 5 5 10c-3 6-1 10 5 10s8 5 4 12-3 8 4 4 12-2 12 4 5 8 11 5c6-4 9 0 7 8-3 17 3 20 28 10 8-3 21 0 27 6 9 9 7 11-8 6-16-5-17-5-5 3 10 8 18 8 27 1 9-8 11-6 8 10-2 12-1 20 3 18 4-3 16 5 27 16s14 16 6 12c-10-6-12-4-7 4 6 9 11 9 21 1 11-10 13-8 10 9-2 12 0 19 6 16 8-6 13 8 10 28-1 4 8 3 18-3 17-9 19-7 16 9-2 11 4 26 13 33 16 12 16 11 2-7-14-19-14-20 6-2 11 9 25 14 29 10 5-5 3 0-4 10-10 13-11 17-1 17 7 0 23 11 35 24 13 14 26 22 31 18 4-4 4 1 1 11-5 12-1 20 11 24 9 4 26 15 36 25 10 9 24 14 30 11 6-4 5 1-3 10-7 9-11 18-7 18 3 1 10 2 15 3 5 0 13 5 18 9 4 5 9-1 11-12 2-12 8-19 13-16zm-1578-30c-3-9-8-14-10-11-3 3-2 9 2 15 9 16 15 13 8-4zm-4622-32c13-16 12-17-3-4-17 13-22 21-14 21 2 0 10-8 17-17zm943-869c3-8 2-12-4-9s-10 10-10 16c0 14 7 11 14-7zm2446-224c0-5-5-10-11-10-5 0-7 5-4 10 3 6 8 10 11 10 2 0 4-4 4-10zm-416-238c3-5-1-9-9-9s-12 4-9 9c3 4 7 8 9 8s6-4 9-8zm-1189-300c-3-3-11 0-18 7-9 10-8 11 6 5 10-3 15-9 12-12zm2126-559c12-16 12-17-2-6-9 7-20 9-24 5-5-4-5-1-1 6 9 16 11 15 27-5zm549-508c11-13 10-14-4-9-9 3-16 10-16 15 0 13 6 11 20-6zm-1859-468c-10-9-11-8-5 6 3 10 9 15 12 12s0-11-7-18zm-166-126c3-5 2-12-3-15s-9 1-9 9c0 17 3 19 12 6zm-145-156c0-2-6-8-13-14-10-8-14-7-14 2 0 8 6 14 14 14 7 0 13-1 13-2zm3220-195c0-5-2-10-4-10-3 0-8 5-11 10-3 6-1 10 4 10 6 0 11-4 11-10zm640-592c0-5-9-3-20 4s-20 16-20 20c0 5 9 3 20-4s20-16 20-20zm-829-625c13-16 12-17-3-4-10 7-18 15-18 17 0 8 8 3 21-13z"/><path d="m1625 5760c10-11 20-20 23-20s-3 9-13 20-20 20-23 20 3-9 13-20z"/><path d="m2670 4791c0-5 5-13 10-16 6-3 10-2 10 4 0 5-4 13-10 16-5 3-10 2-10-4z"/><path d="m1210 2159c0-5 5-7 10-4 6 3 10 8 10 11 0 2-4 4-10 4-5 0-10-5-10-11z"/><path d="m6397 2819c7-7 15-10 18-7s-2 9-12 12c-14 6-15 5-6-5z"/><path d="m1245 7480c-3-5-1-10 4-10 6 0 11 5 11 10 0 6-2 10-4 10-3 0-8-4-11-10z"/><path d="m96 7173c-6-14-5-15 5-6 7 7 10 15 7 18s-9-2-12-12z"/><path d="m6220 6710c-8-5-12-12-9-15 4-3 12 1 19 10 14 17 11 19-10 5z"/><path d="m2132 6701c-11-7-11-9 0-14 9-3 15 1 15 9s-1 14-1 14c-1 0-7-4-14-9z"/><path d="m2355 6521c-3-5-2-12 3-15s9 1 9 9c0 17-3 19-12 6z"/><path d="m3085 5820c3-5 8-10 11-10 2 0 4 5 4 10 0 6-5 10-11 10-5 0-7-4-4-10z"/><path d="m4640 5280c-9-6-10-10-3-10 6 0 15 5 18 10 8 12 4 12-15 0z"/><path d="m2385 1850c-3-6 1-7 9-4 18 7 21 14 7 14-6 0-13-4-16-10z"/><path d="m40 1279c0-5 5-7 10-4 6 3 10 8 10 11 0 2-4 4-10 4-5 0-10-5-10-11z"/><path d="m1505 1049c-4-6-5-12-2-15 2-3 7 2 10 11 7 17 1 20-8 4z"/></g></svg>